<svg width="856" height="115" viewBox="0 0 856 115" fill="none" xmlns="http://www.w3.org/2000/svg">
<rect width="856" height="115" fill="#1E1E1E"/>
<g clip-path="url(#clip0_130_1466)">
<rect width="1440" height="6706" transform="translate(-302 -1438)" fill="white"/>
<path d="M3.29774 3.67825V58.1103H65.8298V61.1883H3.29774V114H0.0577393V0.60025H73.1198V3.67825H3.29774Z" fill="#E2E2E2"/>
<path d="M146.529 114.486C135.621 114.486 125.739 112.002 116.883 107.034C108.027 102.066 101.061 95.2623 95.9845 86.6223C90.9085 77.8743 88.3705 68.1003 88.3705 57.3003C88.3705 46.5003 90.9085 36.7803 95.9845 28.1403C101.061 19.3923 108.027 12.5343 116.883 7.56626C125.739 2.59826 135.621 0.114258 146.529 0.114258C157.437 0.114258 167.319 2.59826 176.175 7.56626C185.031 12.5343 191.997 19.3923 197.073 28.1403C202.149 36.7803 204.687 46.5003 204.687 57.3003C204.687 68.1003 202.149 77.8743 197.073 86.6223C191.997 95.2623 185.031 102.066 176.175 107.034C167.319 112.002 157.437 114.486 146.529 114.486ZM146.529 111.408C156.789 111.408 166.077 109.086 174.393 104.442C182.817 99.6903 189.405 93.2103 194.157 85.0023C199.017 76.6863 201.447 67.4523 201.447 57.3003C201.447 47.1483 199.017 37.9683 194.157 29.7603C189.405 21.4443 182.817 14.9643 174.393 10.3203C166.077 5.56825 156.789 3.19226 146.529 3.19226C136.269 3.19226 126.927 5.56825 118.503 10.3203C110.187 14.9643 103.599 21.4443 98.7385 29.7603C93.9865 37.9683 91.6105 47.1483 91.6105 57.3003C91.6105 67.4523 93.9865 76.6863 98.7385 85.0023C103.599 93.2103 110.187 99.6903 118.503 104.442C126.927 109.086 136.269 111.408 146.529 111.408Z" fill="#E2E2E2"/>
<path d="M281.95 114.486C271.042 114.486 261.16 112.002 252.304 107.034C243.448 102.066 236.482 95.2623 231.406 86.6223C226.33 77.8743 223.792 68.1003 223.792 57.3003C223.792 46.5003 226.33 36.7803 231.406 28.1403C236.482 19.3923 243.448 12.5343 252.304 7.56626C261.16 2.59826 271.042 0.114258 281.95 0.114258C292.858 0.114258 302.74 2.59826 311.596 7.56626C320.452 12.5343 327.418 19.3923 332.494 28.1403C337.57 36.7803 340.108 46.5003 340.108 57.3003C340.108 68.1003 337.57 77.8743 332.494 86.6223C327.418 95.2623 320.452 102.066 311.596 107.034C302.74 112.002 292.858 114.486 281.95 114.486ZM281.95 111.408C292.21 111.408 301.498 109.086 309.814 104.442C318.238 99.6903 324.826 93.2103 329.578 85.0023C334.438 76.6863 336.868 67.4523 336.868 57.3003C336.868 47.1483 334.438 37.9683 329.578 29.7603C324.826 21.4443 318.238 14.9643 309.814 10.3203C301.498 5.56825 292.21 3.19226 281.95 3.19226C271.69 3.19226 262.348 5.56825 253.924 10.3203C245.608 14.9643 239.02 21.4443 234.16 29.7603C229.408 37.9683 227.032 47.1483 227.032 57.3003C227.032 67.4523 229.408 76.6863 234.16 85.0023C239.02 93.2103 245.608 99.6903 253.924 104.442C262.348 109.086 271.69 111.408 281.95 111.408Z" fill="#E2E2E2"/>
<path d="M390.842 3.67825H348.722V0.60025H436.202V3.67825H394.082V114H390.842V3.67825Z" fill="#E2E2E2"/>
<path d="M518.96 55.8423C537.968 58.4343 547.472 67.9383 547.472 84.3543C547.472 93.9663 544.016 101.31 537.104 106.386C530.3 111.462 520.094 114 506.486 114H458.372V0.60025H503.246C515.126 0.60025 524.414 3.08425 531.11 8.05225C537.914 12.9123 541.316 19.9863 541.316 29.2743C541.316 36.4023 539.318 42.2343 535.322 46.7703C531.434 51.1983 525.98 54.2223 518.96 55.8423ZM461.612 3.67825V54.8703H503.894C514.802 54.8703 523.226 52.7103 529.166 48.3903C535.106 43.9623 538.076 37.5903 538.076 29.2743C538.076 20.9583 535.106 14.6403 529.166 10.3203C523.226 5.89225 514.802 3.67825 503.894 3.67825H461.612ZM507.134 110.922C531.866 110.922 544.232 102.066 544.232 84.3543C544.232 75.3903 541.1 68.7483 534.836 64.4283C528.68 60.1083 519.446 57.9483 507.134 57.9483H461.612V110.922H507.134Z" fill="#E2E2E2"/>
<path d="M648.406 79.8183H579.07L563.194 114H559.468L612.118 0.60025H615.358L668.008 114H664.282L648.406 79.8183ZM646.948 76.7403L613.738 4.97425L580.528 76.7403H646.948Z" fill="#E2E2E2"/>
<path d="M691.089 0.60025H694.329V110.922H761.883V114H691.089V0.60025Z" fill="#E2E2E2"/>
<path d="M785.062 0.60025H788.302V110.922H855.856V114H785.062V0.60025Z" fill="#E2E2E2"/>
<path d="M256.748 53.6722C256.681 52.8792 256.681 52.0639 256.559 51.2709C257.315 51.148 257.882 50.3885 258.394 49.8748C259.072 49.1823 259.762 48.4898 260.44 47.8085C261.819 46.4124 263.187 45.0163 264.566 43.6202C265.189 42.9836 265.89 42.3805 266.401 41.6545C266.557 41.4423 266.679 41.2078 266.779 40.9844C267.057 41.0849 267.324 41.1854 267.624 41.2524C267.98 41.3306 268.336 41.4088 268.681 41.4758C269.404 41.6322 270.127 41.7885 270.85 41.9561C272.184 42.2576 273.519 42.5815 274.842 42.9836C274.964 45.2956 275.176 47.6075 275.443 49.8971C275.587 51.0922 275.743 52.2873 275.921 53.4823C276.01 54.0743 276.11 54.6774 276.221 55.2693C276.277 55.5709 276.332 55.8836 276.399 56.1852C276.444 56.3862 276.499 56.5649 276.566 56.7436C276.277 56.9558 276.043 57.3021 275.821 57.5589C275.521 57.894 275.22 58.2291 274.92 58.5641C274.308 59.2454 273.686 59.9267 273.052 60.5969C271.973 61.7473 270.861 62.8642 269.804 64.0369C269.415 63.8693 268.926 63.8023 268.536 63.7018C268.014 63.5678 267.48 63.4338 266.957 63.2997C265.901 63.0317 264.844 62.7748 263.788 62.5067C262.731 62.2387 261.675 61.9818 260.618 61.7249C259.628 61.4792 258.65 61.2 257.649 61.0213C257.393 59.4688 257.17 57.9052 256.993 56.3415C256.892 55.4592 256.815 54.5657 256.748 53.6834V53.6722Z" fill="#262626"/>
<path d="M273.708 61.1997C274.331 60.5519 274.942 59.8929 275.554 59.2228C275.854 58.8878 276.154 58.5527 276.455 58.2176C276.61 58.0389 276.811 57.8602 276.977 57.6592C277.233 57.8937 277.656 57.9831 277.967 58.0836C278.434 58.24 278.901 58.3852 279.369 58.5192C280.314 58.7984 281.259 59.0441 282.216 59.2675C284.128 59.7142 286.063 60.0493 288.01 60.295C288.566 60.362 289.133 60.4291 289.689 60.4737C290.178 60.5184 290.69 60.5854 291.179 60.5742C291.201 60.9205 291.313 61.2555 291.413 61.5906C291.524 61.9704 291.646 62.3389 291.758 62.7075L292.469 65.0083C292.936 66.5049 293.426 67.9904 293.893 69.487C292.669 70.0008 291.846 71.2293 290.99 72.2122C289.9 73.4743 288.799 74.7252 287.709 75.9873C287.098 76.6909 286.497 77.3945 285.886 78.1093C285.385 78.6901 284.851 79.2709 284.418 79.9075C284.206 79.807 283.95 79.7958 283.717 79.7623C283.494 79.7288 283.272 79.6953 283.05 79.673C282.594 79.606 282.127 79.5278 281.671 79.4608C280.736 79.3044 279.802 79.1257 278.879 78.9358C277.967 78.746 277.066 78.5338 276.166 78.3104C275.699 78.1987 275.231 78.0647 274.764 77.953C274.564 77.8971 274.319 77.819 274.086 77.7631C274.086 77.6514 274.03 77.5397 273.952 77.4727C273.241 75.3395 272.585 73.1839 272.006 71.006C271.706 69.9002 271.428 68.7834 271.161 67.6776C271.028 67.1192 270.894 66.5608 270.772 66.0023C270.661 65.5109 270.583 64.9971 270.371 64.528C271.55 63.4893 272.64 62.3501 273.719 61.2109L273.708 61.1997Z" fill="#262626"/>
<path d="M277.178 56.6764C277.178 56.4865 277.178 56.2966 277.167 56.0844C277.122 55.7717 277.078 55.4701 277.044 55.1574C276.966 54.5766 276.877 54.007 276.8 53.4262C276.633 52.2088 276.477 51.0026 276.344 49.7852C276.077 47.4397 275.899 45.0943 275.754 42.7376C276.188 42.5701 276.61 42.3132 277.022 42.1122C277.522 41.8553 278.034 41.6096 278.534 41.3527C279.513 40.8724 280.503 40.4145 281.493 39.9454C283.461 39.0184 285.441 38.1472 287.454 37.3096C287.676 37.5441 287.943 37.7563 288.188 37.9797C288.555 38.3036 288.922 38.6387 289.278 38.9737C289.967 39.6215 290.657 40.2917 291.324 40.973C292.67 42.3467 293.948 43.7763 295.172 45.2618C295.828 46.0548 296.462 46.8701 297.073 47.6966C296.195 49.7852 295.272 51.8514 294.293 53.8953C293.793 54.9564 293.27 56.0062 292.747 57.0449C292.302 57.9161 291.813 58.7873 291.413 59.6919C290.957 59.6138 290.479 59.6138 290.023 59.5691C289.533 59.5244 289.044 59.4797 288.555 59.4239C287.598 59.3122 286.642 59.1893 285.696 59.033C283.795 58.7203 281.915 58.307 280.058 57.8156C279.546 57.6815 279.046 57.5364 278.534 57.3912C278.279 57.313 278.012 57.2348 277.756 57.1678C277.622 57.1343 277.478 57.0896 277.333 57.0784C277.378 56.9221 277.3 56.788 277.189 56.6987L277.178 56.6764Z" fill="#262626"/>
<path d="M293.281 64.6843C293.036 63.9472 292.781 63.21 292.536 62.4617C292.414 62.0931 292.291 61.7246 292.158 61.356C292.047 61.0321 291.935 60.697 291.758 60.4066C292.414 59.502 292.914 58.4744 293.426 57.4916C293.982 56.4417 294.516 55.3807 295.038 54.3084C296.061 52.231 297.018 50.1201 297.93 47.998C298.908 48.2773 299.898 48.4783 300.899 48.657C302.067 48.8692 303.246 49.0479 304.425 49.1708C304.525 49.4947 304.647 49.8186 304.758 50.1425C304.947 50.6897 305.147 51.237 305.325 51.7955C305.681 52.89 306.015 53.9846 306.315 55.0903C306.927 57.324 307.394 59.5913 307.728 61.8921C307.772 62.2048 307.817 62.5287 307.861 62.8414C307.872 62.942 307.883 63.0648 307.894 63.1765C307.683 63.3887 307.527 63.6568 307.361 63.9137C307.172 64.1929 306.994 64.4721 306.805 64.7513C306.426 65.3209 306.071 65.9017 305.704 66.4825C305.359 67.0521 305.014 67.6217 304.669 68.1913C304.502 68.4817 304.336 68.7721 304.18 69.0625C304.091 69.2189 303.991 69.3864 303.913 69.5539C303.602 69.5204 303.29 69.5204 302.979 69.5093L301.7 69.4534C300.888 69.4199 300.065 69.3864 299.253 69.3529C298.397 69.3194 297.541 69.2859 296.684 69.2524C296.05 69.23 295.394 69.1854 294.76 69.2747C294.76 69.2524 294.76 69.23 294.76 69.2077C294.271 67.6999 293.793 66.2033 293.281 64.7066V64.6843Z" fill="#262626"/>
<path d="M304.881 70.5364C304.836 70.3242 304.792 70.0785 304.603 69.9445C304.603 69.9222 304.603 69.911 304.591 69.8887C304.669 69.777 304.736 69.6429 304.814 69.5201C304.981 69.2297 305.159 68.9505 305.325 68.6601C305.659 68.0905 306.004 67.5097 306.36 66.9401C306.704 66.3816 307.049 65.8344 307.405 65.2871C307.583 65.0079 307.772 64.7286 307.95 64.4494C308.061 64.2707 308.206 64.092 308.328 63.9133C308.606 64.0697 308.973 64.025 309.207 63.7793C308.439 67.2416 307.038 70.4918 305.125 73.3845C305.125 73.0941 305.125 72.8149 305.103 72.5245C305.081 72.0889 305.047 71.6533 304.992 71.2289C304.97 70.9944 304.936 70.771 304.892 70.5364H304.881Z" fill="#262626"/>
<path d="M308.784 63.1657C308.784 63.0987 308.773 63.0205 308.773 63.0317C308.74 62.7748 308.706 62.5067 308.662 62.2499C308.584 61.7249 308.495 61.2112 308.406 60.6862C308.228 59.6699 308.017 58.6535 307.783 57.6483C307.305 55.5932 306.727 53.5717 306.015 51.5948C305.815 51.0475 305.626 50.5002 305.403 49.953C305.248 49.5732 305.092 49.1935 304.903 48.8249C304.914 48.7467 304.903 48.6685 304.881 48.6015C305.058 48.2218 305.136 47.775 305.236 47.373C305.37 46.8033 305.503 46.2449 305.626 45.6753C305.737 45.128 305.848 44.5696 305.948 44.0223C305.993 43.7766 306.037 43.5309 306.071 43.2852C308.028 46.6805 309.318 50.5226 309.741 54.6662C310.041 57.6371 309.874 60.5522 309.296 63.3332C309.207 63.1545 308.984 63.0429 308.773 63.1657H308.784Z" fill="#262626"/>
<path d="M305.514 42.3578C305.403 42.5811 305.381 42.8157 305.348 43.0614C305.303 43.3183 305.259 43.5752 305.214 43.8321C305.114 44.3905 305.003 44.9378 304.892 45.485C304.78 46.0323 304.658 46.5908 304.536 47.138C304.447 47.5178 304.302 47.931 304.258 48.3443C303.201 48.2326 302.145 48.0986 301.088 47.931C300.043 47.7635 299.009 47.5513 297.974 47.3726C297.93 47.3056 297.863 47.2497 297.796 47.2051C295.483 44.1224 292.903 41.2632 290.067 38.6497C289.667 38.2811 289.255 37.9126 288.855 37.5552C288.532 37.2759 288.21 36.9632 287.843 36.7175C287.843 36.6728 287.821 36.6393 287.798 36.5946C287.976 36.0362 288.054 35.4331 288.165 34.8635C288.232 34.5284 288.299 34.2045 288.377 33.8806C288.41 33.7131 288.454 33.5567 288.488 33.3892C288.499 33.3333 288.521 33.2775 288.532 33.2217C288.632 33.2217 288.733 33.1993 288.844 33.177C289.355 33.043 289.845 32.8196 290.334 32.6297C291.279 32.2611 292.236 31.9037 293.181 31.5352C298.241 33.8471 302.545 37.611 305.526 42.3466L305.514 42.3578Z" fill="#262626"/>
<path d="M288.154 32.3507C287.943 32.2725 287.765 32.1162 287.598 31.9821C286.775 31.3455 285.941 30.7089 285.118 30.0611C284.696 29.7372 284.284 29.4133 283.861 29.1006C286.686 29.3463 289.411 30.0053 291.969 31.0328C291.379 31.2673 290.801 31.5019 290.212 31.7253C289.756 31.904 289.3 32.0938 288.833 32.2725C288.61 32.3619 288.388 32.4401 288.154 32.3507Z" fill="#262626"/>
<path d="M282.56 29.0221C282.827 29.3014 283.15 29.5247 283.439 29.7593C283.895 30.1279 284.34 30.4853 284.796 30.8427C285.652 31.524 286.486 32.2611 287.387 32.8866C287.52 32.9759 287.654 33.0541 287.798 33.1099C287.798 33.1546 287.776 33.1993 287.776 33.244C287.732 33.4227 287.698 33.5902 287.665 33.7689C287.598 34.0928 287.531 34.4279 287.476 34.7629C287.376 35.299 287.276 35.8463 287.276 36.3936C287.276 36.3936 287.253 36.3936 287.242 36.3936C285.174 37.2424 283.127 38.1583 281.103 39.1188C280.102 39.599 279.113 40.1016 278.123 40.6154C277.622 40.8723 277.122 41.1403 276.622 41.4084C276.199 41.6318 275.732 41.844 275.354 42.1344C275.254 42.1344 275.154 42.1344 275.076 42.1902C273.73 41.8775 272.384 41.5424 271.028 41.2409C270.327 41.0845 269.615 40.9281 268.903 40.7829C268.548 40.7048 268.192 40.6377 267.836 40.5819C267.524 40.526 267.235 40.5149 266.935 40.5037C267.046 40.1016 267.091 39.6884 267.124 39.2528C267.257 37.0525 267.402 34.8523 267.535 32.6632C270.838 30.798 274.564 29.5582 278.568 29.1562C279.913 29.0221 281.248 28.9886 282.56 29.0333V29.0221Z" fill="#262626"/>
<path d="M266.601 33.1992C266.501 34.8187 266.423 36.4382 266.323 38.0688C266.279 38.8842 266.323 39.8447 266.001 40.6153C265.678 41.3636 265 41.9221 264.455 42.4917C263.176 43.7985 261.908 45.1052 260.64 46.412C259.995 47.0821 259.339 47.7522 258.694 48.4112C258.372 48.7463 258.049 49.0813 257.727 49.4164C257.437 49.7179 257.148 50.0642 256.815 50.3211C256.225 50.779 255.769 50.4328 255.291 50.0083C254.969 49.7179 254.635 49.4052 254.235 49.2265C256.27 42.5587 260.696 36.8403 266.59 33.1992H266.601Z" fill="#262626"/>
<path d="M254.079 49.8301C254.69 50.2657 255.169 50.9805 255.858 51.215C255.803 52.0192 255.88 52.8345 255.936 53.6387C256.003 54.5433 256.081 55.448 256.17 56.3527C256.348 58.1397 256.592 59.9267 256.892 61.7026C256.892 61.7249 256.904 61.7361 256.915 61.7584C256.87 61.9483 256.837 62.1493 256.792 62.3392C256.715 62.7078 256.637 63.0875 256.559 63.4561C256.414 64.2044 256.281 64.9527 256.158 65.701C256.036 66.427 255.925 67.1641 255.825 67.9013C255.769 68.281 255.725 68.6496 255.68 69.0293C255.658 69.1745 255.636 69.3309 255.602 69.4873C254.335 66.7062 253.478 63.6795 253.156 60.474C252.778 56.7883 253.133 53.2031 254.079 49.8412V49.8301Z" fill="#262626"/>
<path d="M256.058 70.4255C256.147 70.4143 256.225 70.3696 256.281 70.2914C256.492 69.9899 256.481 69.5766 256.514 69.2192C256.559 68.8395 256.603 68.4597 256.659 68.0912C256.759 67.3429 256.87 66.5834 256.993 65.8351C257.115 65.0979 257.237 64.3719 257.371 63.646C257.437 63.2774 257.504 62.8977 257.571 62.5291C257.615 62.3169 257.66 62.0935 257.704 61.8701C258.583 62.1382 259.473 62.3392 260.362 62.5738C261.419 62.8418 262.475 63.121 263.532 63.3891C264.588 63.6571 265.645 63.9252 266.701 64.1932C267.224 64.3273 267.758 64.4613 268.281 64.5953L269.015 64.7852C269.104 64.8075 269.181 64.8299 269.27 64.8522C269.315 65.0421 269.537 65.1984 269.738 65.0644C269.782 65.4441 269.871 65.8239 269.949 66.1925C270.06 66.7509 270.182 67.3093 270.305 67.8678C270.56 69.007 270.839 70.1462 271.139 71.2743C271.706 73.4299 272.351 75.5743 273.052 77.6964C272.529 77.9756 272.017 78.266 271.495 78.534C270.772 78.9026 270.038 79.26 269.304 79.5839C268.581 79.9078 267.847 80.1982 267.102 80.4774C266.735 80.6114 266.357 80.7455 265.979 80.8683C265.789 80.9353 265.534 80.98 265.322 81.0694C261.441 78.3777 258.238 74.7366 256.07 70.4366L256.058 70.4255Z" fill="#262626"/>
<path d="M266.312 81.7164C266.668 81.5936 267.024 81.4707 267.38 81.3479C268.136 81.0686 268.892 80.7559 269.637 80.4209C270.383 80.0858 271.105 79.7396 271.828 79.3486C272.384 79.0471 272.963 78.7344 273.496 78.377C273.786 78.578 274.219 78.6562 274.531 78.7455C274.998 78.8907 275.465 79.0136 275.932 79.1364C276.866 79.3821 277.811 79.6055 278.757 79.8066C279.702 80.0076 280.647 80.1863 281.604 80.3538C282.082 80.432 282.56 80.5102 283.038 80.5772C283.417 80.6331 283.85 80.7336 284.251 80.7001C284.351 80.7559 284.473 80.7783 284.562 80.7001C284.584 80.6889 284.595 80.6666 284.607 80.6554C284.707 80.8118 284.829 80.9681 284.94 81.1133C285.118 81.3479 285.296 81.5712 285.474 81.8058C285.819 82.2525 286.164 82.6993 286.497 83.1461C286.831 83.5928 287.176 84.0507 287.509 84.4975C287.676 84.732 287.854 84.9666 288.021 85.2011C288.054 85.2458 288.076 85.2793 288.11 85.324C286.886 85.6144 285.641 85.8377 284.362 85.9718C277.8 86.6419 271.528 85.0001 266.334 81.7164H266.312Z" fill="#262626"/>
<path d="M288.988 85.1006C288.911 84.9554 288.799 84.8326 288.699 84.6874C288.532 84.4528 288.354 84.2183 288.188 83.9837C287.843 83.5147 287.487 83.0567 287.131 82.5876C286.775 82.1297 286.419 81.6718 286.052 81.225C285.774 80.8788 285.485 80.4544 285.129 80.164C285.507 79.7843 285.863 79.3822 286.219 78.9801C286.764 78.3658 287.298 77.7627 287.843 77.1484C288.922 75.931 290 74.7024 291.079 73.485C291.602 72.8931 292.136 72.29 292.658 71.698C293.092 71.1954 293.537 70.6258 294.16 70.3578C294.838 70.0674 295.594 70.112 296.317 70.1455C297.129 70.1791 297.952 70.2126 298.764 70.2461C299.665 70.2796 300.554 70.3131 301.455 70.3578L302.857 70.4136C303.279 70.4359 303.713 70.4694 304.135 70.4471C304.135 70.5029 304.135 70.57 304.135 70.637C304.147 70.8715 304.18 71.0949 304.202 71.3294C304.236 71.765 304.258 72.2006 304.269 72.6362C304.269 73.0606 304.269 73.485 304.258 73.9094C304.258 74.0658 304.224 74.3674 304.28 74.6131C300.577 79.6279 295.25 83.403 288.999 85.1341L288.988 85.1006Z" fill="#262626"/>
<g clip-path="url(#clip1_130_1466)">
<rect x="-147" y="104" width="1130" height="349" rx="75" fill="#F7F7F7"/>
</g>
<path d="M306.56 125.689C307.305 126.671 308.239 127.487 309.196 128.269C311.509 130.167 313.866 131.999 316.202 133.864C317.336 134.769 318.526 135.64 319.616 136.612C320.561 137.461 321.373 138.499 321.273 139.84C321.251 140.119 320.928 140.331 320.662 140.275C319.149 139.974 317.648 139.672 316.135 139.37C314.99 139.147 313.711 138.711 312.532 138.935C312.187 139.002 311.831 139.158 311.653 139.482C311.431 139.873 311.553 140.309 311.776 140.666C312.354 141.604 313.399 142.151 314.334 142.665C316.458 143.849 318.704 144.81 320.995 145.625C323.297 146.44 325.644 147.122 327.99 147.769C330.081 148.339 332.294 148.786 334.218 149.824C334.374 149.679 334.563 149.579 334.797 149.523C335.175 149.445 335.353 150.014 335.064 150.215C335.03 150.238 334.997 150.271 334.975 150.294C335.108 150.495 334.975 150.796 334.752 150.897C334.774 151.12 334.886 151.343 335.052 151.533C335.486 152.047 336.131 152.404 336.676 152.773C338.856 154.247 341.158 155.576 343.138 157.33C343.638 157.777 344.105 158.257 344.572 158.748C344.984 159.184 345.417 159.631 345.951 159.932C346.463 160.223 347.03 160.401 347.619 160.468C348.153 160.524 348.665 160.424 349.199 160.468C349.276 160.446 349.365 160.424 349.443 160.457C350.188 159.687 351.078 159.095 351.99 158.492C353.258 157.643 354.537 156.805 355.816 155.956C356.861 155.264 357.951 154.605 358.896 153.767C359.73 153.03 360.398 152.103 360.52 150.964C360.642 149.769 360.097 148.585 359.53 147.535C359.219 147.423 358.907 147.244 358.652 147.088C358.151 146.764 357.706 146.34 357.295 145.915C355.493 144.05 353.658 142.252 351.656 140.599C351.156 140.186 350.644 139.773 350.122 139.37C349.655 139.002 349.165 138.656 348.587 138.477C348.053 138.309 347.497 138.276 346.941 138.321C346.563 138.343 346.174 138.432 345.784 138.466C345.629 138.611 345.406 138.644 345.195 138.566C344.572 138.365 344.35 137.639 344.439 137.036C344.483 136.712 344.628 136.422 344.661 136.098C344.695 135.808 344.55 135.595 344.372 135.383C343.949 134.881 343.416 134.467 342.971 133.987C342.504 133.496 342.07 132.96 341.681 132.412C340.246 130.435 339.267 128.157 338.778 125.767C338.244 123.153 338.678 120.395 337.81 117.848C337.41 116.675 336.798 115.57 336.009 114.609C335.453 113.928 334.04 112.576 333.573 114.073C333.395 114.643 333.362 115.279 333.306 115.871C333.24 116.564 333.195 117.256 333.195 117.96C333.184 119.356 333.295 120.741 333.395 122.126C333.418 122.45 333.162 122.584 332.928 122.528C332.817 122.908 332.25 123.142 332.016 122.729C331.416 121.634 330.893 120.495 330.304 119.401C329.736 118.351 329.136 117.312 328.502 116.296C327.357 114.442 326.122 112.655 324.788 110.935C324.443 110.488 324.098 110.052 323.742 109.617C323.453 109.259 323.164 108.868 322.808 108.567C322.508 108.31 322.141 108.12 321.74 108.265C321.329 108.422 321.051 108.824 320.94 109.237C320.673 110.231 320.962 111.426 321.251 112.375C321.573 113.414 322.041 114.408 322.541 115.369C323.086 116.396 323.664 117.412 324.22 118.429C324.788 119.445 325.444 120.462 325.811 121.578C325.933 121.947 325.477 122.182 325.232 121.891C325.232 121.891 325.232 121.88 325.221 121.869C325.155 122.215 324.743 122.505 324.387 122.215C321.985 120.261 319.527 118.384 316.992 116.597C315.913 115.838 314.834 115.045 313.689 114.386C312.699 113.805 311.553 113.314 310.374 113.47C307.716 113.816 311.309 117.692 311.976 118.474C313.6 120.328 315.412 122.014 317.181 123.723C318.081 124.605 318.982 125.488 319.839 126.415C320.495 127.118 321.674 128.246 320.684 129.184C320.561 129.307 320.306 129.318 320.161 129.24C317.258 127.766 314.434 126.135 311.709 124.359C310.597 123.634 309.518 122.829 308.284 122.338C307.75 122.126 307.172 121.969 306.582 121.981C306.137 121.981 305.325 122.025 305.27 122.595C305.203 123.142 305.459 123.745 305.67 124.237C305.904 124.762 306.204 125.253 306.56 125.7V125.689Z" fill="#262626"/>
<path d="M296.506 162.512C298.864 161.451 301.266 160.323 303.135 158.503C303.112 158.425 303.123 158.335 303.19 158.257C303.479 157.944 303.802 157.743 304.224 157.687C304.247 157.62 304.28 157.542 304.302 157.475C304.391 157.185 304.447 156.883 304.458 156.582C304.48 155.923 304.325 155.253 304.113 154.627C303.19 151.902 301.444 149.545 300.321 146.898C300.043 146.251 299.809 145.58 299.631 144.899C299.465 144.262 299.376 143.615 299.242 142.978C299.142 142.509 298.986 141.962 298.642 141.615C298.441 141.414 298.186 141.347 297.93 141.225C297.618 141.079 297.396 140.889 297.251 140.566C297.151 140.342 297.251 140.13 297.418 140.007C296.896 138.544 296.907 136.958 297.051 135.428C297.207 133.808 297.474 132.211 297.641 130.592C297.93 127.677 297.997 124.739 297.874 121.813C297.807 120.361 297.696 118.909 297.518 117.468C297.385 116.296 297.207 114.855 296.106 114.174C295.25 113.637 294.36 113.984 293.96 114.877C293.548 115.815 293.57 116.899 293.47 117.893C293.203 120.629 292.28 123.243 291.135 125.722C290.957 126.102 290.29 126.147 290.167 125.7C289.355 122.673 288.388 119.691 287.287 116.765C286.33 114.218 285.285 111.672 284.073 109.226C283.583 108.243 282.983 107.227 282.049 106.612C281.337 106.154 280.392 106.043 279.613 106.378C278.646 106.791 278.557 107.841 278.801 108.757C278.968 109.393 279.235 109.996 279.469 110.611C279.724 111.27 279.969 111.929 280.225 112.588C281.27 115.302 282.316 118.016 283.372 120.741C283.628 121.389 282.616 121.78 282.371 121.132L282.349 121.087C282.216 121.087 282.071 121.054 281.982 120.92C281.048 119.546 280.214 118.116 279.357 116.698C278.512 115.302 277.667 113.906 276.822 112.498C276.154 111.404 275.532 110.264 274.764 109.237C274.153 108.433 273.352 107.606 272.34 107.349C271.55 107.148 270.616 107.238 269.949 107.74C269.048 108.422 269.237 109.583 269.604 110.521C270.105 111.817 270.738 113.079 271.383 114.308C271.995 115.469 272.718 116.564 273.485 117.614C274.976 119.669 276.599 121.657 277.589 124.025C277.7 124.281 277.589 124.494 277.411 124.616C277.411 124.918 277.022 125.197 276.766 124.94C274.609 122.785 272.785 120.261 271.128 117.692C270.427 116.597 269.782 115.469 269.104 114.352C268.525 113.392 267.858 112.398 266.891 111.795C265.467 110.901 262.831 111.415 263.254 113.548C263.376 114.174 263.699 114.754 264.01 115.302C264.355 115.905 264.711 116.508 265.067 117.111C265.778 118.284 266.523 119.445 267.291 120.585C268.837 122.863 270.505 125.052 272.284 127.141C272.64 127.565 272.095 128.112 271.639 127.934C269.782 127.163 268.447 125.622 267.124 124.159C265.912 122.818 264.477 121.355 262.62 121.031C261.352 120.808 259.851 121.422 259.272 122.628C258.516 124.214 260.196 125.454 261.274 126.314C264.31 128.693 267.713 130.581 270.494 133.295C271.906 134.68 273.185 136.199 274.386 137.773C275.554 139.315 276.722 140.878 277.789 142.487C278.334 143.313 278.846 144.162 279.235 145.078C279.602 145.915 279.813 146.809 280.169 147.647C280.514 148.462 281.103 148.965 281.704 149.59C282.138 150.048 282.46 150.539 282.494 151.12C282.549 151.221 282.605 151.31 282.66 151.411C282.861 151.734 283.061 152.058 283.272 152.371C283.65 152.963 284.039 153.555 284.429 154.147C285.797 156.224 287.142 158.358 287.999 160.703C288.21 161.284 288.388 161.887 288.532 162.49C288.677 163.104 288.744 163.741 288.866 164.355C288.966 164.847 289.155 165.383 289.611 165.651C289.789 165.751 290 165.818 290.212 165.796C290.278 165.796 290.356 165.774 290.423 165.729C290.356 165.763 290.612 165.517 290.501 165.651C290.501 165.651 290.501 165.673 290.501 165.684C290.556 165.595 290.645 165.539 290.745 165.528C291.268 165.037 292.013 164.679 292.625 164.355C293.871 163.685 295.161 163.115 296.451 162.546L296.506 162.512Z" fill="#262626"/>
</g>
<defs>
<clipPath id="clip0_130_1466">
<rect width="1440" height="6706" fill="white" transform="translate(-302 -1438)"/>
</clipPath>
<clipPath id="clip1_130_1466">
<rect x="-147" y="104" width="1130" height="349" rx="75" fill="white"/>
</clipPath>
</defs>
</svg>
