<svg width="1130" height="349" viewBox="0 0 1130 349" fill="none" xmlns="http://www.w3.org/2000/svg">
<rect width="1130" height="349" fill="#1E1E1E"/>
<g clip-path="url(#clip0_130_1466)">
<rect width="1440" height="6706" transform="translate(-155 -1542)" fill="white"/>
<path d="M150.298 -100.322V-45.8897H212.83V-42.8117H150.298V10.0003H147.058V-103.4H220.12V-100.322H150.298Z" fill="#E2E2E2"/>
<path d="M293.529 10.4863C282.621 10.4863 272.739 8.00226 263.883 3.03426C255.027 -1.93375 248.061 -8.73775 242.985 -17.3777C237.909 -26.1257 235.371 -35.8997 235.371 -46.6997C235.371 -57.4997 237.909 -67.2197 242.985 -75.8597C248.061 -84.6077 255.027 -91.4657 263.883 -96.4337C272.739 -101.402 282.621 -103.886 293.529 -103.886C304.437 -103.886 314.319 -101.402 323.175 -96.4337C332.031 -91.4657 338.997 -84.6077 344.073 -75.8597C349.149 -67.2197 351.687 -57.4997 351.687 -46.6997C351.687 -35.8997 349.149 -26.1257 344.073 -17.3777C338.997 -8.73775 332.031 -1.93375 323.175 3.03426C314.319 8.00226 304.437 10.4863 293.529 10.4863ZM293.529 7.40826C303.789 7.40826 313.077 5.08626 321.393 0.442261C329.817 -4.30974 336.405 -10.7897 341.157 -18.9977C346.017 -27.3137 348.447 -36.5477 348.447 -46.6997C348.447 -56.8517 346.017 -66.0317 341.157 -74.2397C336.405 -82.5557 329.817 -89.0357 321.393 -93.6797C313.077 -98.4317 303.789 -100.808 293.529 -100.808C283.269 -100.808 273.927 -98.4317 265.503 -93.6797C257.187 -89.0357 250.599 -82.5557 245.739 -74.2397C240.987 -66.0317 238.611 -56.8517 238.611 -46.6997C238.611 -36.5477 240.987 -27.3137 245.739 -18.9977C250.599 -10.7897 257.187 -4.30974 265.503 0.442261C273.927 5.08626 283.269 7.40826 293.529 7.40826Z" fill="#E2E2E2"/>
<path d="M428.95 10.4863C418.042 10.4863 408.16 8.00226 399.304 3.03426C390.448 -1.93375 383.482 -8.73775 378.406 -17.3777C373.33 -26.1257 370.792 -35.8997 370.792 -46.6997C370.792 -57.4997 373.33 -67.2197 378.406 -75.8597C383.482 -84.6077 390.448 -91.4657 399.304 -96.4337C408.16 -101.402 418.042 -103.886 428.95 -103.886C439.858 -103.886 449.74 -101.402 458.596 -96.4337C467.452 -91.4657 474.418 -84.6077 479.494 -75.8597C484.57 -67.2197 487.108 -57.4997 487.108 -46.6997C487.108 -35.8997 484.57 -26.1257 479.494 -17.3777C474.418 -8.73775 467.452 -1.93375 458.596 3.03426C449.74 8.00226 439.858 10.4863 428.95 10.4863ZM428.95 7.40826C439.21 7.40826 448.498 5.08626 456.814 0.442261C465.238 -4.30974 471.826 -10.7897 476.578 -18.9977C481.438 -27.3137 483.868 -36.5477 483.868 -46.6997C483.868 -56.8517 481.438 -66.0317 476.578 -74.2397C471.826 -82.5557 465.238 -89.0357 456.814 -93.6797C448.498 -98.4317 439.21 -100.808 428.95 -100.808C418.69 -100.808 409.348 -98.4317 400.924 -93.6797C392.608 -89.0357 386.02 -82.5557 381.16 -74.2397C376.408 -66.0317 374.032 -56.8517 374.032 -46.6997C374.032 -36.5477 376.408 -27.3137 381.16 -18.9977C386.02 -10.7897 392.608 -4.30974 400.924 0.442261C409.348 5.08626 418.69 7.40826 428.95 7.40826Z" fill="#E2E2E2"/>
<path d="M537.842 -100.322H495.722V-103.4H583.202V-100.322H541.082V10.0003H537.842V-100.322Z" fill="#E2E2E2"/>
<path d="M665.96 -48.1577C684.968 -45.5657 694.472 -36.0617 694.472 -19.6457C694.472 -10.0337 691.016 -2.68974 684.104 2.38626C677.3 7.46227 667.094 10.0003 653.486 10.0003H605.372V-103.4H650.246C662.126 -103.4 671.414 -100.916 678.11 -95.9477C684.914 -91.0877 688.316 -84.0137 688.316 -74.7257C688.316 -67.5977 686.318 -61.7657 682.322 -57.2297C678.434 -52.8017 672.98 -49.7777 665.96 -48.1577ZM608.612 -100.322V-49.1297H650.894C661.802 -49.1297 670.226 -51.2897 676.166 -55.6097C682.106 -60.0377 685.076 -66.4097 685.076 -74.7257C685.076 -83.0417 682.106 -89.3597 676.166 -93.6797C670.226 -98.1077 661.802 -100.322 650.894 -100.322H608.612ZM654.134 6.92226C678.866 6.92226 691.232 -1.93375 691.232 -19.6457C691.232 -28.6097 688.1 -35.2517 681.836 -39.5717C675.68 -43.8917 666.446 -46.0517 654.134 -46.0517H608.612V6.92226H654.134Z" fill="#E2E2E2"/>
<path d="M795.406 -24.1817H726.07L710.194 10.0003H706.468L759.118 -103.4H762.358L815.008 10.0003H811.282L795.406 -24.1817ZM793.948 -27.2597L760.738 -99.0257L727.528 -27.2597H793.948Z" fill="#E2E2E2"/>
<path d="M838.089 -103.4H841.329V6.92226H908.883V10.0003H838.089V-103.4Z" fill="#E2E2E2"/>
<path d="M932.062 -103.4H935.302V6.92226H1002.86V10.0003H932.062V-103.4Z" fill="#E2E2E2"/>
<g clip-path="url(#clip1_130_1466)">
<rect width="1130" height="349" rx="75" fill="#F7F7F7"/>
<g opacity="0.03">
<path d="M-66.6232 381.858C-95.7662 335.75 -99.9403 285.583 -100.318 280.222C-84.3016 222.875 -56.2919 193.713 -50.7579 188.371C-21.0861 192.545 16.0651 193.943 27.0008 194.268C25.7921 208.954 27.7563 254.794 62.32 309.135C56.3327 317.235 31.0238 352.83 13.2509 399.474C-37.7635 404.988 -63.7712 384.271 -66.6232 381.839V381.858ZM225.449 138.989C233.816 166.523 257.69 228.734 261.694 239.131C229.321 287.249 188.846 320.566 181.461 326.445C172.074 323.668 120.36 309.02 67.7406 306.339C30.2683 247.69 32.6103 199.438 33.177 192.621L108.424 108.314C119.227 109.425 187.542 117.256 225.468 139.008L225.449 138.989ZM65.2475 48.9754C42.8095 57.8982 20.2959 69.7315 2.97627 79.5734C25.3388 63.1638 50.3643 50.2966 77.2975 41.795C70.5737 45.3756 66.4185 48.1712 65.2475 48.9945V48.9754ZM-54.8187 183.794C-60.4848 189.136 -86.0959 215.445 -103 268.044C-97.976 210.965 -74.7636 159.113 -39.3122 118.462C-54.1954 150.592 -54.8942 177.227 -54.8187 183.775V183.794ZM201.991 440.488C201.859 430.493 200.423 373.28 185.691 330.887C194.398 323.898 234.194 290.696 266.34 243.133C302.584 254.928 345.119 262.606 354.033 264.138C357.131 272.352 371.258 313.118 371.41 372.476C328.63 435.471 299.808 454.983 295.596 457.625C235.044 461.436 207.468 444.375 202.01 440.469L201.991 440.488ZM396.246 381.054L377.453 371.537C377.151 309.824 362.381 268.867 359.492 261.419C371.41 231.74 376.32 198.481 377.699 187.49C381.099 188.639 386.727 190.707 393.054 193.636C405.142 223.89 411.828 256.938 411.828 291.538C411.828 322.979 406.332 353.136 396.246 381.073V381.054ZM389.617 185.384C383.705 182.933 379.04 181.401 377.038 180.769C342.625 128.496 302.169 98.4721 296.522 94.432C289.722 80.1095 278.56 67.1465 268.096 57.0748C321.887 84.1114 365.12 129.625 389.636 185.384H389.617ZM248.661 48.3052C260.409 57.6684 279.712 74.9971 289.93 94.8915C257.784 108.103 233.929 127.653 227.583 133.149C188.222 110.995 120.965 103.374 109.16 102.168C96.8836 76.4523 78.9785 58.6258 71.7447 52.0581C78.3741 47.9605 94.5794 38.9037 117.055 32.6807C129.086 30.9382 141.363 30 153.866 30C187.316 30 219.292 36.4911 248.643 48.286L248.661 48.3052ZM-60.1826 437.271L-58.9927 437.156L-60.8059 433.212C-67.8886 417.875 -67.3409 398.708 -66.5476 389.632C-58.105 395.491 -37.6691 406.635 -3.95534 406.635C1.5975 406.635 7.5281 406.31 13.7987 405.639C16.5184 410.197 24.5833 423.255 36.1423 438.152C49.0611 454.792 69.0816 477.118 91.8029 490.253C89.0265 513.613 90.8586 529.353 91.9729 535.748C87.0434 536.514 75.8999 537.605 60.5635 535.327C11.1544 515.815 -30.9263 481.292 -60.1638 437.31L-60.1826 437.271ZM123.949 551.258C116.205 548.807 106.252 544.384 98.3001 536.61C97.5447 532.933 94.7682 516.792 97.7902 491.172C108.594 488.951 156.794 477.654 198.95 445.888C205.58 450.579 229.245 464.385 278.22 464.385C283.074 464.385 288.192 464.231 293.556 463.944C294.538 495.078 282.564 511.507 282.451 511.66L279.127 516.007L284.963 516.639C246.527 539.731 201.708 553 153.885 553C143.762 553 133.789 552.387 123.968 551.238L123.949 551.258Z" fill="#262626"/>
</g>
<text fill="#262626" xml:space="preserve" style="white-space: pre" font-family="Montserrat" font-size="16" font-weight="600" letter-spacing="0em"><tspan x="836.664" y="97.736">Premium is Here!&#10;</tspan><tspan x="798.07" y="117.736">500+ Great leagues known </tspan><tspan x="823.789" y="137.736">to be&#13;advantageous!</tspan></text>
<text fill="#666666" xml:space="preserve" style="white-space: pre" font-family="Montserrat" font-size="12" font-weight="600" letter-spacing="0em"><tspan x="875.814" y="228.802">thefootystats</tspan></text>
<text fill="#666666" xml:space="preserve" style="white-space: pre" font-family="Montserrat" font-size="12" letter-spacing="0em"><tspan x="800.967" y="168.802">We&#39;ve done the research into which </tspan><tspan x="813.652" y="183.802">leagues&#13;have the most winning </tspan><tspan x="801.922" y="198.802">potential. Plus, you get&#13;Corner stats </tspan><tspan x="816.324" y="213.802">and Card stats along with CSV. </tspan><tspan x="797.838" y="228.802">Subscribe to </tspan><tspan x="958.033" y="228.802"> Premium </tspan><tspan x="889.555" y="243.802">today!</tspan></text>
<path d="M833 267H983" stroke="#448EE4" stroke-width="2.5" stroke-linecap="round"/>
<text fill="#262626" xml:space="preserve" style="white-space: pre" font-family="Montserrat" font-size="30" letter-spacing="0em"><tspan x="146.64" y="174.548">Soccer Stats</tspan></text>
<text fill="#262626" xml:space="preserve" style="white-space: pre" font-family="Montserrat" font-size="35" font-weight="600" letter-spacing="0em"><tspan x="146.078" y="144.548">Download&#10;</tspan></text>
<rect x="147.5" y="189.5" width="182" height="41" rx="4.5" fill="#448EE4" stroke="#7955B0"/>
<path d="M252.5 208.75C252.079 208.753 251.663 208.832 251.27 208.983L247.073 205.548C247.176 205.173 247.25 204.785 247.25 204.375C247.25 201.95 245.3 200 242.875 200C240.449 200 238.5 201.95 238.5 204.375C238.5 205.068 238.675 205.714 238.958 206.295L233.868 212.311C233.664 212.273 233.457 212.253 233.25 212.25C232.937 212.25 232.641 212.303 232.354 212.38L227.869 207.894C227.947 207.609 228 207.313 228 207C228 205.061 226.439 203.5 224.5 203.5C222.561 203.5 221 205.061 221 207C221 208.939 222.561 210.5 224.5 210.5C224.813 210.5 225.109 210.448 225.396 210.37L229.881 214.856C229.797 215.146 229.753 215.447 229.75 215.75C229.75 217.689 231.311 219.25 233.25 219.25C235.189 219.25 236.75 217.689 236.75 215.75C236.75 215.335 236.666 214.945 236.535 214.576L241.632 208.552C242.03 208.668 242.441 208.75 242.875 208.75C243.566 208.746 244.245 208.578 244.858 208.258L249.056 211.694C249.023 211.877 249.004 212.063 249 212.25C249 214.189 250.561 215.75 252.5 215.75C254.439 215.75 256 214.189 256 212.25C256 210.311 254.439 208.75 252.5 208.75Z" fill="white"/>
</g>
<path d="M668.099 254.413C666.642 254.57 665.197 254.693 663.74 254.816C661.137 255.028 658.524 255.195 655.91 255.24C654.643 255.262 653.364 255.262 652.096 255.207C651.139 255.162 650.172 255.05 649.271 254.737C649.949 255.575 650.617 256.413 651.34 257.228C652.374 258.401 653.464 259.54 654.587 260.623C656.633 262.6 658.835 264.421 661.16 266.063C663.306 267.582 665.875 269.302 668.622 269.078C669.745 268.989 671.069 268.542 671.614 267.47C672.259 266.208 671.614 264.644 671.247 263.404C670.78 261.874 670.29 260.355 669.756 258.848C669.234 257.362 668.589 255.91 668.122 254.402L668.099 254.413Z" fill="#262626"/>
<path d="M686.216 248.539C689.207 246.898 691.843 244.619 693.867 241.86C691.387 243.525 688.351 244.25 685.46 244.82C678.976 246.082 672.348 246.015 665.797 246.607C662.505 246.909 659.247 247.4 656.044 248.238C653.197 248.986 650.372 249.88 647.458 250.315C647.347 250.65 647.325 251.03 647.38 251.387C647.714 253.442 650.005 254.001 651.751 254.124C654.176 254.291 656.644 254.18 659.069 254.057C663.795 253.811 668.566 253.42 673.248 252.661C677.73 251.935 682.212 250.751 686.216 248.55V248.539Z" fill="#262626"/>
<path d="M453.56 21.6886C454.305 22.6715 455.239 23.4868 456.196 24.2686C458.509 26.1673 460.866 27.999 463.202 29.8642C464.336 30.7689 465.526 31.64 466.616 32.6117C467.561 33.4606 468.373 34.4993 468.273 35.8395C468.251 36.1187 467.928 36.331 467.662 36.2751C466.149 35.9736 464.648 35.672 463.135 35.3704C461.99 35.1471 460.711 34.7115 459.532 34.9349C459.187 35.0019 458.831 35.1582 458.653 35.4821C458.431 35.873 458.553 36.3086 458.776 36.666C459.354 37.6042 460.399 38.1515 461.334 38.6652C463.458 39.8491 465.704 40.8097 467.995 41.625C470.297 42.4403 472.644 43.1216 474.99 43.7694C477.081 44.339 479.294 44.7858 481.218 45.8245C481.374 45.6793 481.563 45.5788 481.797 45.5229C482.175 45.4447 482.353 46.0143 482.064 46.2154C482.03 46.2377 481.997 46.2712 481.975 46.2936C482.108 46.4946 481.975 46.7962 481.752 46.8967C481.774 47.1201 481.886 47.3434 482.052 47.5333C482.486 48.0471 483.131 48.4045 483.676 48.7731C485.856 50.2473 488.158 51.5764 490.138 53.3299C490.638 53.7767 491.105 54.257 491.572 54.7484C491.984 55.184 492.417 55.6307 492.951 55.9323C493.463 56.2227 494.03 56.4014 494.619 56.4684C495.153 56.5242 495.665 56.4237 496.199 56.4684C496.276 56.4461 496.365 56.4237 496.443 56.4572C497.188 55.6866 498.078 55.0946 498.99 54.4915C500.258 53.6427 501.537 52.805 502.816 51.9562C503.861 51.2637 504.951 50.6047 505.896 49.7671C506.73 49.0299 507.398 48.1029 507.52 46.9637C507.642 45.7686 507.097 44.5847 506.53 43.5349C506.219 43.4232 505.907 43.2445 505.652 43.0881C505.151 42.7642 504.706 42.3398 504.295 41.9154C502.493 40.0502 500.658 38.252 498.656 36.599C498.156 36.1858 497.644 35.7725 497.122 35.3704C496.655 35.0019 496.165 34.6556 495.587 34.4769C495.053 34.3094 494.497 34.2759 493.941 34.3206C493.563 34.3429 493.174 34.4323 492.784 34.4658C492.629 34.611 492.406 34.6445 492.195 34.5663C491.572 34.3652 491.35 33.6393 491.439 33.0361C491.483 32.7122 491.628 32.4219 491.661 32.098C491.695 31.8076 491.55 31.5954 491.372 31.3832C490.949 30.8806 490.416 30.4673 489.971 29.987C489.504 29.4956 489.07 28.9595 488.681 28.4122C487.246 26.4354 486.267 24.1569 485.778 21.7668C485.244 19.1533 485.678 16.3946 484.81 13.8481C484.41 12.6753 483.798 11.5696 483.009 10.6091C482.453 9.9278 481.04 8.57636 480.573 10.073C480.395 10.6426 480.362 11.2792 480.306 11.8712C480.24 12.5636 480.195 13.2561 480.195 13.9598C480.184 15.3559 480.295 16.7408 480.395 18.1257C480.418 18.4496 480.162 18.5837 479.928 18.5278C479.817 18.9075 479.25 19.1421 479.016 18.7288C478.416 17.6343 477.893 16.4951 477.304 15.4005C476.736 14.3507 476.136 13.312 475.502 12.2956C474.357 10.4416 473.122 8.65455 471.788 6.93455C471.443 6.48779 471.098 6.05221 470.742 5.61662C470.453 5.25922 470.164 4.86831 469.808 4.56675C469.508 4.30986 469.141 4.12 468.74 4.26519C468.329 4.42155 468.051 4.82363 467.94 5.23688C467.673 6.23091 467.962 7.42597 468.251 8.37532C468.573 9.41403 469.041 10.4081 469.541 11.3686C470.086 12.3961 470.664 13.4125 471.22 14.4288C471.788 15.4452 472.444 16.4616 472.811 17.5785C472.933 17.947 472.477 18.1816 472.232 17.8912C472.232 17.8912 472.232 17.88 472.221 17.8688C472.155 18.2151 471.743 18.5055 471.387 18.2151C468.985 16.2605 466.527 14.3842 463.992 12.5972C462.913 11.8377 461.834 11.0447 460.689 10.3857C459.699 9.80494 458.553 9.31351 457.374 9.46987C454.716 9.81611 458.309 13.6917 458.976 14.4735C460.6 16.3275 462.412 18.014 464.181 19.7229C465.081 20.6052 465.982 21.4876 466.839 22.4146C467.495 23.1182 468.674 24.2463 467.684 25.1844C467.561 25.3073 467.306 25.3185 467.161 25.2403C464.258 23.766 461.434 22.1353 458.709 20.3595C457.597 19.6335 456.518 18.8294 455.284 18.3379C454.75 18.1257 454.172 17.9694 453.582 17.9805C453.137 17.9805 452.325 18.0252 452.27 18.5948C452.203 19.1421 452.459 19.7452 452.67 20.2366C452.904 20.7616 453.204 21.253 453.56 21.6998V21.6886Z" fill="#262626"/>
<path d="M504.228 78.4037C502.927 79.1074 501.648 79.8333 500.391 80.6263C498.245 81.9777 496.176 83.6419 494.909 85.898C494.241 87.0931 493.785 88.411 493.552 89.7624C493.441 90.4326 493.363 91.125 493.352 91.8063C493.352 92.1414 493.352 92.4876 493.374 92.8227C493.763 91.7952 494.23 90.79 494.797 89.8518C495.576 88.5674 496.532 87.283 497.756 86.3671C497.633 86.1102 497.678 85.764 498.022 85.6188C500.547 84.5242 503.083 83.4297 505.607 82.3463C506.73 81.8661 507.854 81.3635 508.988 80.8944C509.811 80.5481 510.801 80.2242 511.702 80.4476C512.691 80.6933 513.247 81.4751 513.559 82.4022C513.915 83.452 514.215 84.5131 514.582 85.5629C515.349 87.7409 516.228 89.8741 517.207 91.9627C518.074 93.8056 519.064 95.5814 520.02 97.3796C520.076 97.3684 520.131 97.3684 520.198 97.3684C520.91 97.4019 521.655 97.5695 522.345 97.7258C523.001 97.871 523.624 98.1056 524.157 98.5188C525.903 99.8702 526.137 102.383 525.203 104.271C524.88 104.93 524.424 105.544 523.89 106.058C524.035 106.192 524.157 106.359 524.269 106.493C524.502 106.784 524.736 107.063 524.969 107.353C525.414 107.912 525.881 108.459 526.348 108.995C526.715 109.42 527.104 109.822 527.494 110.224C527.104 106.002 526.504 101.791 525.659 97.6365C525.203 95.3804 524.68 93.1354 524.079 90.9128C523.501 88.7908 522.778 86.7468 521.555 84.904C520.332 83.0723 518.886 81.3858 517.518 79.6546C516.517 78.3926 515.494 77.1305 514.482 75.8796C514.437 75.9019 514.393 75.9131 514.337 75.9131C513.981 75.9131 513.67 75.8014 513.325 75.7232C513.003 75.645 512.669 75.578 512.335 75.5222C511.713 75.4105 511.079 75.3435 510.434 75.3211C508.143 75.2318 505.863 75.712 503.772 76.6502C502.749 77.1081 501.781 77.6889 500.903 78.3925C500.28 78.8951 499.691 79.4983 499.324 80.2242C500.803 79.2972 502.382 78.5154 503.961 77.7559C504.373 77.5549 504.595 78.2027 504.217 78.4149L504.228 78.4037Z" fill="#262626"/>
<path d="M500.469 123.426C502.515 125.146 504.717 126.676 507.042 127.994C508.21 128.653 509.399 129.267 510.612 129.814C511.223 130.093 511.835 130.35 512.458 130.607C513.114 130.875 513.803 131.076 514.449 131.367C514.537 131.4 514.593 131.456 514.638 131.523C515.294 131.389 515.928 131.199 516.562 130.942C518.497 130.16 520.143 128.82 521.677 127.435C523.156 126.106 524.547 124.643 525.703 123.023C526.849 121.404 527.761 119.595 528.239 117.662C528.472 116.713 528.617 115.73 528.617 114.747C528.617 114.345 528.595 113.943 528.55 113.541C528.239 113.72 527.772 113.619 527.738 113.15C527.705 112.703 527.672 112.268 527.638 111.821C526.938 111.14 526.259 110.436 525.614 109.688C525.114 109.118 524.647 108.526 524.191 107.912C524.102 107.8 524.024 107.677 523.946 107.555C523.902 107.577 523.846 107.577 523.824 107.521C523.801 107.454 523.779 107.365 523.757 107.275C523.679 107.164 523.601 107.063 523.535 106.951C523.457 106.829 523.368 106.695 523.301 106.561C523.223 106.628 523.145 106.695 523.056 106.75C522.578 107.074 522.055 107.298 521.488 107.421C521.277 107.465 521.032 107.488 520.788 107.488C520.765 107.644 520.743 107.8 520.721 107.945C520.632 108.47 520.543 109.007 520.421 109.531C520.187 110.581 519.865 111.631 519.386 112.603C518.964 113.452 518.408 114.234 517.718 114.893C516.94 115.641 516.028 116.199 515.082 116.702C513.069 117.763 510.945 118.656 508.799 119.416C506.63 120.187 504.417 120.812 502.182 121.292C501.047 121.538 499.913 121.739 498.768 121.907C498.723 121.907 498.679 121.918 498.634 121.929C499.29 122.364 499.869 122.923 500.48 123.426H500.469Z" fill="#262626"/>
<path d="M489.404 105.768C489.315 105.779 489.214 105.802 489.114 105.813C489.092 107.444 488.97 109.063 488.97 110.694C488.97 112.347 488.992 114.044 489.259 115.686C489.615 117.931 490.816 120.545 493.263 121.07C494.397 121.315 495.565 121.07 496.699 121.192C497.5 121.07 498.312 120.969 499.101 120.835C500.325 120.623 501.548 120.377 502.749 120.087C504.895 119.573 506.997 118.925 509.055 118.154C511.068 117.406 513.092 116.58 514.971 115.519C515.839 115.027 516.684 114.458 517.351 113.698C517.941 113.028 518.385 112.257 518.719 111.431C519.053 110.604 519.275 109.744 519.453 108.873C519.542 108.415 519.62 107.957 519.687 107.499C519.72 107.276 519.764 107.064 519.809 106.852C519.809 106.818 519.809 106.773 519.831 106.74C519.876 106.539 519.92 106.349 519.965 106.137C520.098 105.545 520.888 105.712 520.865 106.293C520.865 106.349 520.865 106.405 520.865 106.461C520.877 106.461 520.888 106.461 520.91 106.461C521.155 106.438 521.388 106.394 521.611 106.304C522.111 106.126 522.556 105.824 522.956 105.478C524.213 104.372 525.08 102.54 524.513 100.876C524.257 100.106 523.746 99.4131 523.001 99.0669C522.156 98.676 521.199 98.6425 520.298 98.4079C520.143 98.5531 519.865 98.5866 519.72 98.3856C518.274 96.364 517.118 94.1191 516.05 91.8742C515.105 89.8861 514.271 87.8422 513.548 85.7648C513.192 84.7596 512.914 83.7432 512.558 82.738C512.424 82.3583 512.258 81.945 511.924 81.6882C511.624 81.4648 511.234 81.4201 510.867 81.4648C509.911 81.5653 508.999 82.0679 508.132 82.4477C507.053 82.9167 505.974 83.3747 504.895 83.8438C502.838 84.7261 500.792 85.6084 498.734 86.4908C498.723 86.5243 498.701 86.5466 498.679 86.5801C497.478 87.831 496.343 89.0931 495.487 90.6232C494.731 91.9858 494.152 93.4601 493.73 94.9679C493.518 95.7274 493.352 96.4981 493.218 97.2799C493.151 97.682 493.062 98.084 492.84 98.4191C492.618 98.7542 492.306 98.9887 491.973 99.2121C490.56 100.173 489.259 101.289 488.113 102.563C487.824 102.887 487.535 103.211 487.279 103.557C487.079 103.825 486.968 104.059 487.168 104.361C487.624 105.02 488.625 104.797 489.281 104.685C489.971 104.562 490.071 105.645 489.392 105.768H489.404Z" fill="#262626"/>
<path d="M443.506 58.5124C445.864 57.4513 448.266 56.3233 450.135 54.5028C450.112 54.4246 450.123 54.3352 450.19 54.257C450.479 53.9443 450.802 53.7433 451.224 53.6874C451.247 53.6204 451.28 53.5422 451.302 53.4752C451.391 53.1848 451.447 52.8833 451.458 52.5817C451.48 51.9227 451.325 51.2526 451.113 50.6272C450.19 47.902 448.444 45.5453 447.321 42.8983C447.043 42.2505 446.809 41.5804 446.631 40.8991C446.465 40.2625 446.376 39.6147 446.242 38.9781C446.142 38.509 445.986 37.9617 445.642 37.6155C445.441 37.4144 445.186 37.3474 444.93 37.2245C444.618 37.0793 444.396 36.8895 444.251 36.5656C444.151 36.3422 444.251 36.13 444.418 36.0071C443.896 34.544 443.907 32.958 444.051 31.4279C444.207 29.8084 444.474 28.2113 444.641 26.5918C444.93 23.6767 444.997 20.7393 444.874 17.8131C444.807 16.3611 444.696 14.9092 444.518 13.4684C444.385 12.2957 444.207 10.8549 443.106 10.1736C442.25 9.63749 441.36 9.98372 440.96 10.8772C440.548 11.8154 440.57 12.8988 440.47 13.8928C440.203 16.6292 439.28 19.2427 438.135 21.7222C437.957 22.1019 437.29 22.1466 437.167 21.6998C436.355 18.6731 435.388 15.691 434.287 12.7648C433.33 10.2183 432.285 7.67177 431.073 5.22579C430.583 4.24293 429.983 3.22657 429.049 2.61228C428.337 2.15436 427.392 2.04267 426.613 2.37774C425.646 2.79098 425.557 3.84086 425.801 4.7567C425.968 5.39333 426.235 5.99644 426.469 6.61073C426.724 7.26969 426.969 7.92866 427.225 8.58762C428.27 11.3016 429.316 14.0157 430.372 16.7409C430.628 17.3887 429.616 17.7796 429.371 17.1318L429.349 17.0871C429.216 17.0871 429.071 17.0536 428.982 16.9196C428.048 15.5458 427.214 14.1162 426.357 12.6978C425.512 11.3016 424.667 9.90554 423.822 8.49827C423.154 7.40372 422.532 6.2645 421.764 5.23696C421.153 4.43281 420.352 3.60631 419.34 3.34942C418.55 3.14839 417.616 3.23774 416.949 3.74034C416.048 4.42164 416.237 5.58319 416.604 6.52138C417.105 7.81696 417.738 9.07904 418.383 10.3076C418.995 11.4692 419.718 12.5637 420.485 13.6136C421.976 15.6687 423.599 17.6567 424.589 20.0245C424.7 20.2814 424.589 20.4936 424.411 20.6165C424.411 20.918 424.022 21.1973 423.766 20.9404C421.609 18.7848 419.785 16.2606 418.128 13.6918C417.427 12.5972 416.782 11.4692 416.104 10.3523C415.525 9.39177 414.858 8.39775 413.891 7.79463C412.467 6.90112 409.831 7.41489 410.254 9.54814C410.376 10.1736 410.699 10.7544 411.01 11.3016C411.355 11.9048 411.711 12.5079 412.067 13.111C412.778 14.2837 413.523 15.4453 414.291 16.5845C415.837 18.863 417.505 21.0521 419.284 23.1406C419.64 23.565 419.095 24.1123 418.639 23.9336C416.782 23.163 415.447 21.6217 414.124 20.1585C412.912 18.8183 411.477 17.3552 409.62 17.0313C408.352 16.8079 406.851 17.4222 406.272 18.6284C405.516 20.2144 407.196 21.4541 408.274 22.3141C411.31 24.6931 414.713 26.5806 417.494 29.2947C418.906 30.6796 420.185 32.1986 421.386 33.7734C422.554 35.3147 423.722 36.8783 424.789 38.4866C425.334 39.3131 425.846 40.162 426.235 41.0778C426.602 41.9155 426.813 42.809 427.169 43.6466C427.514 44.462 428.103 44.9646 428.704 45.59C429.138 46.0479 429.46 46.5394 429.494 47.1201C429.549 47.2207 429.605 47.31 429.66 47.4105C429.861 47.7344 430.061 48.0583 430.272 48.3711C430.65 48.963 431.039 49.555 431.429 50.1469C432.797 52.2243 434.142 54.3576 434.999 56.703C435.21 57.2838 435.388 57.8869 435.532 58.49C435.677 59.1043 435.744 59.741 435.866 60.3552C435.966 60.8467 436.155 61.3828 436.611 61.6508C436.789 61.7513 437 61.8183 437.212 61.796C437.278 61.796 437.356 61.7737 437.423 61.729C437.356 61.7625 437.612 61.5168 437.501 61.6508C437.501 61.6508 437.501 61.6732 437.501 61.6843C437.556 61.595 437.645 61.5391 437.745 61.528C438.268 61.0365 439.013 60.6791 439.625 60.3552C440.871 59.6851 442.161 59.1155 443.451 58.5459L443.506 58.5124Z" fill="#262626"/>
<path d="M582.844 219.847C585.124 217.87 587.348 215.826 589.55 213.76C591.674 211.772 593.943 209.839 595.689 207.494C598.547 203.663 599.226 198.615 602.24 194.896C603.018 192.74 603.485 190.484 603.018 188.473C602.985 188.429 602.962 188.362 602.951 188.295C602.951 188.284 602.951 188.272 602.951 188.261C602.651 187.133 602.05 186.083 601.016 185.179C600.082 184.363 598.992 183.727 597.947 183.057C596.846 182.353 595.767 181.616 594.722 180.834C592.631 179.27 590.651 177.55 588.794 175.719C585.068 172.044 581.776 167.945 578.863 163.589C575.593 158.708 572.768 153.548 570.133 148.299C568.809 145.652 567.541 142.983 566.296 140.302C566.207 140.101 566.107 139.9 566.007 139.699C565.84 139.71 565.651 139.643 565.595 139.465C565.373 138.783 565.161 138.102 564.939 137.421C564.772 137.052 564.616 136.672 564.472 136.293C564.138 135.41 563.849 134.494 563.771 133.556C563.015 130.954 562.281 128.34 561.514 125.749C560.413 122.086 559.278 118.445 558.088 114.815C555.697 107.544 553.073 100.34 550.07 93.2925C547.178 86.5018 544.02 79.7782 539.794 73.7135C535.89 68.1067 531.264 63.0361 526.282 58.3787C523.79 56.0444 521.221 53.7995 518.586 51.6215C517.273 50.527 515.95 49.4548 514.615 48.3826C513.681 47.6342 512.769 46.8524 511.846 46.0818C511.735 46.1488 511.602 46.16 511.468 46.0818C511.023 45.8472 510.712 45.4452 510.334 45.1213C509.978 44.8197 509.6 44.5293 509.199 44.2836C508.721 43.9932 508.221 43.7475 507.687 43.5576C508.243 44.6968 508.666 45.9031 508.51 47.1875C508.198 49.8568 505.54 51.3535 503.528 52.6602C502.171 53.5426 500.814 54.4249 499.457 55.3072C498.545 55.8992 497.567 56.4911 496.788 57.273C496.877 57.541 496.988 57.8091 497.144 58.0436C498.267 59.7748 500.102 60.5901 501.837 61.5618C503.672 62.5893 505.229 63.9408 506.697 65.4262C509.833 68.5982 512.725 72.0382 515.538 75.5005C516.951 77.2429 518.352 78.9964 519.742 80.7611C521.099 82.4699 522.511 84.1676 523.501 86.1333C524.502 88.1102 525.036 90.2992 525.57 92.4437C526.126 94.6998 526.626 96.967 527.049 99.2455C527.805 103.255 528.328 107.309 528.662 111.386C528.839 111.353 529.028 111.397 529.117 111.554C529.206 111.71 529.273 111.866 529.34 112.034C529.373 112.067 529.396 112.09 529.429 112.123C529.651 112.324 529.64 112.592 529.518 112.793C529.54 112.961 529.562 113.128 529.585 113.307C529.651 113.91 529.662 114.524 529.64 115.128C529.596 116.323 529.384 117.495 529.04 118.646C527.794 122.756 524.891 126.062 521.711 128.821C520.031 130.273 518.208 131.602 516.061 132.272C515.005 132.607 513.881 132.819 512.769 132.841C511.735 132.864 510.512 132.841 509.555 132.383C509.244 132.238 509.288 131.68 509.666 131.669C510.267 131.657 510.868 131.758 511.468 131.78C511.791 131.792 512.102 131.792 512.425 131.78C512.202 131.691 511.98 131.59 511.757 131.501C511.034 131.2 510.312 130.887 509.6 130.552C508.21 129.893 506.853 129.167 505.54 128.385C503.172 126.955 500.959 125.314 498.868 123.504C498.367 123.069 497.845 122.633 497.211 122.41C496.588 122.197 495.91 122.209 495.264 122.231C493.963 122.264 492.707 122.231 491.561 121.527C489.203 120.109 488.314 117.384 488.069 114.781C487.924 113.262 487.924 111.721 487.958 110.191C487.958 109.834 487.969 109.487 487.991 109.13C487.791 109.23 487.535 109.23 487.357 108.996C487.013 108.549 486.668 108.091 486.323 107.644C483.52 104.003 480.74 100.351 477.949 96.699C475.191 93.0915 472.421 89.4951 469.686 85.8652C467.072 82.3917 464.592 78.8177 462.524 74.9756C460.477 71.167 458.787 67.2021 457.041 63.2595C456.162 61.2826 455.273 59.3169 454.327 57.3735C453.927 56.5358 453.504 55.6423 452.748 55.0615C452.381 54.7823 451.936 54.6148 451.48 54.5813C451.458 54.6483 451.425 54.7265 451.358 54.7935C450.902 55.2849 450.401 55.754 449.879 56.1672C447.721 57.8984 445.13 58.9483 442.639 60.0875C441.36 60.6683 440.092 61.2602 438.902 62.0086C438.646 62.1761 438.29 62.3548 438.224 62.6787C438.157 62.9691 438.302 63.293 438.402 63.561C438.68 64.3093 438.991 65.0577 439.314 65.7836C441.905 71.6249 445.63 76.8296 449.056 82.1795C452.581 87.7081 455.684 93.5047 458.431 99.4689C461.156 105.366 463.458 111.431 465.76 117.507C466.839 120.343 467.962 123.158 469.33 125.872C470.053 127.313 470.876 128.698 471.765 130.038C471.81 130.06 471.865 130.083 471.91 130.127C473.634 131.881 475.035 133.925 476.303 136.025C478.56 139.788 480.306 143.809 482.086 147.808C482.976 149.807 483.876 151.795 484.844 153.761C485.355 154.788 485.889 155.805 486.445 156.81C486.623 156.687 486.912 156.698 487.046 156.955C487.68 158.184 488.325 159.39 488.959 160.607C494.252 170.637 500.436 180.197 507.464 189.099C511.001 193.578 514.738 197.9 518.686 202.021C522.534 206.042 526.626 209.795 530.697 213.581C534.7 217.311 538.637 221.232 541.551 225.9C542.863 228 543.764 230.357 545.154 232.412C545.81 233.383 546.611 234.288 547.645 234.835C548.902 235.505 550.337 235.572 551.727 235.472C557.532 235.036 563.193 232.937 568.298 230.2C573.558 227.386 578.318 223.733 582.822 219.836L582.844 219.847Z" fill="#262626"/>
<path d="M708.67 374.445C709.771 373.496 710.949 372.435 711.472 371.039C711.872 369.944 711.661 368.883 711.161 367.934C710.994 367.833 710.883 367.643 710.872 367.442C710.727 367.219 710.571 367.007 710.404 366.806C709.27 365.454 707.802 364.393 706.501 363.221C703.765 360.752 701.218 358.072 698.827 355.268C693.978 349.595 689.73 343.429 685.415 337.342C684.359 335.846 683.291 334.349 682.212 332.864C681.078 331.311 679.977 329.703 678.665 328.307C676.196 325.682 672.826 324.42 669.812 322.599C668.211 321.639 666.798 320.477 665.508 319.126C664.196 317.741 662.972 316.278 661.649 314.915C658.969 312.157 656.011 309.677 652.841 307.51C652.318 307.153 652.863 306.427 653.397 306.639C652.241 305.444 651.173 304.171 650.261 302.764C648.971 300.787 647.859 298.698 646.691 296.643C645.479 294.521 644.278 292.399 643.066 290.277C640.808 286.29 638.55 282.28 636.927 277.98C636.104 275.802 635.559 273.557 634.969 271.301C634.402 269.112 633.59 267.079 632.534 265.091C631.499 263.159 630.343 261.283 629.409 259.294C628.819 258.032 627.696 255.877 628.575 254.525C628.541 254.246 628.675 253.945 629.031 253.9C630.365 253.744 631.588 253.152 632.756 252.504C633.991 251.822 635.192 251.063 636.515 250.583C637.961 250.058 639.496 249.834 641.019 249.712C642.576 249.589 644.133 249.578 645.69 249.444C647.292 249.309 648.86 249.008 650.417 248.639C653.497 247.891 656.522 246.908 659.647 246.339C662.772 245.769 665.942 245.49 669.111 245.278C675.462 244.864 681.934 244.764 688.118 243.111C690.776 242.407 693.489 241.357 695.269 239.146C695.591 238.744 695.869 238.319 696.125 237.873C696.97 235.829 697.448 233.64 697.459 231.417C697.092 226.76 694.079 222.795 690.353 220.103C685.549 216.607 679.665 215.133 674.06 213.48C667.799 211.626 661.605 209.56 655.41 207.471C649.182 205.371 642.954 203.271 636.738 201.149C630.565 199.038 624.426 196.838 618.321 194.526C615.34 193.398 612.326 192.281 609.39 191.019C608.123 190.472 607.011 189.802 606.087 188.763C605.72 188.35 605.287 187.758 604.708 187.669C604.486 187.635 604.175 187.691 603.963 187.836C604.542 189.914 604.186 192.203 603.585 194.247C603.774 194.426 603.863 194.705 603.63 194.951C603.474 195.118 603.341 195.286 603.196 195.453C602.818 196.514 602.384 197.564 601.906 198.581C601.305 199.865 600.582 201.06 599.871 202.277C599.782 202.423 599.659 202.478 599.526 202.49C599.181 203.327 598.825 204.165 598.436 204.98C597.213 207.538 595.467 209.627 593.431 211.581C589.072 215.781 584.623 219.935 579.897 223.71C575.226 227.452 570.199 230.78 564.705 233.17C562.003 234.343 559.2 235.27 556.32 235.885C555.453 236.074 554.585 236.231 553.706 236.354C553.773 236.488 553.773 236.655 553.673 236.8C553.395 237.191 553.295 237.66 553.351 238.129C553.918 238.163 554.463 238.342 554.952 238.677C555.553 239.09 555.997 239.715 556.187 240.43C556.309 240.922 556.353 241.402 556.631 241.838C556.854 242.161 557.132 242.429 557.421 242.698C558.8 243.993 559.99 245.456 561.135 246.964C563.604 250.225 566.018 253.52 568.387 256.848C573.135 263.516 577.728 270.285 582.155 277.165C584.357 280.582 586.47 284.067 588.705 287.473C590.829 290.701 593.176 293.762 595.789 296.632C600.883 302.216 606.744 307.041 612.649 311.732C619.11 316.859 625.705 321.829 632.423 326.62C632.567 326.721 632.634 326.855 632.634 326.989C632.867 327.19 633.09 327.402 633.312 327.614C637.371 331.501 641.386 335.444 645.412 339.375C647.414 341.33 649.427 343.284 651.429 345.239C653.397 347.149 655.332 349.092 657.334 350.968C659.258 352.767 661.304 354.397 663.484 355.871C665.764 357.413 668.077 358.898 670.368 360.406C675.061 363.489 679.754 366.571 684.448 369.665C689.141 372.748 693.834 375.841 698.527 378.924C698.649 379.013 698.716 379.159 698.716 379.304C699.228 379.616 699.673 380.007 700.14 380.376C700.562 380.711 701.018 381.102 701.552 381.214C702.23 381.348 702.742 380.879 703.131 380.376C703.687 379.65 704.199 378.902 704.788 378.209C705.967 376.824 707.302 375.64 708.681 374.456L708.67 374.445Z" fill="#262626"/>
</g>
<defs>
<clipPath id="clip0_130_1466">
<rect width="1440" height="6706" fill="white" transform="translate(-155 -1542)"/>
</clipPath>
<clipPath id="clip1_130_1466">
<rect width="1130" height="349" rx="75" fill="white"/>
</clipPath>
</defs>
</svg>
