<svg width="150" height="55" viewBox="0 0 150 55" fill="none" xmlns="http://www.w3.org/2000/svg">
<rect width="150" height="55" fill="#1E1E1E"/>
<g clip-path="url(#clip0_130_1466)">
<rect width="1440" height="6706" transform="translate(-644 -1908)" fill="white"/>
<path d="M219.67 8.44525C220.771 7.4959 221.949 6.43488 222.472 5.03876C222.872 3.94421 222.661 2.88318 222.161 1.93382C221.994 1.83331 221.883 1.64343 221.872 1.4424C221.727 1.21901 221.571 1.00681 221.404 0.805756C220.27 -0.54567 218.802 -1.6067 217.501 -2.77943C214.765 -5.24774 212.218 -7.92827 209.827 -10.7316C204.978 -16.4054 200.73 -22.5706 196.415 -28.6577C195.359 -30.1543 194.291 -31.6509 193.212 -33.1364C192.078 -34.6888 190.977 -36.2971 189.665 -37.6933C187.196 -40.3179 183.826 -41.58 180.812 -43.4005C179.211 -44.3611 177.798 -45.5226 176.508 -46.8741C175.196 -48.259 173.972 -49.7221 172.649 -51.0847C169.969 -53.8434 167.011 -56.3229 163.841 -58.4896C163.318 -58.8471 163.863 -59.573 164.397 -59.3608C163.241 -60.5559 162.173 -61.8291 161.261 -63.2364C159.971 -65.2133 158.859 -67.3019 157.691 -69.3569C156.479 -71.479 155.278 -73.6011 154.066 -75.7232C151.808 -79.7105 149.55 -83.7201 147.927 -88.0201C147.104 -90.198 146.559 -92.4429 145.969 -94.699C145.402 -96.8881 144.59 -98.9209 143.534 -100.909C142.499 -102.841 141.343 -104.717 140.409 -106.706C139.819 -107.968 138.696 -110.123 139.575 -111.475C139.541 -111.754 139.675 -112.055 140.031 -112.1C141.365 -112.256 142.588 -112.848 143.756 -113.496C144.991 -114.178 146.192 -114.937 147.515 -115.417C148.961 -115.942 150.496 -116.166 152.019 -116.288C153.576 -116.411 155.133 -116.422 156.69 -116.556C158.292 -116.691 159.86 -116.992 161.417 -117.361C164.497 -118.109 167.522 -119.092 170.647 -119.661C173.772 -120.231 176.942 -120.51 180.111 -120.722C186.462 -121.136 192.934 -121.236 199.118 -122.889C201.776 -123.593 204.489 -124.643 206.269 -126.854C206.591 -127.256 206.869 -127.681 207.125 -128.127C207.97 -130.171 208.448 -132.36 208.459 -134.583C208.092 -139.24 205.079 -143.205 201.353 -145.897C196.549 -149.393 190.665 -150.867 185.06 -152.52C178.799 -154.374 172.605 -156.44 166.41 -158.529C160.182 -160.629 153.954 -162.729 147.738 -164.851C141.565 -166.962 135.426 -169.162 129.321 -171.474C126.34 -172.602 123.326 -173.719 120.39 -174.981C119.123 -175.528 118.011 -176.198 117.087 -177.237C116.72 -177.65 116.287 -178.242 115.708 -178.331C115.486 -178.365 115.175 -178.309 114.963 -178.164C115.542 -176.086 115.186 -173.797 114.585 -171.753C114.774 -171.574 114.863 -171.295 114.63 -171.049C114.474 -170.882 114.341 -170.714 114.196 -170.547C113.818 -169.486 113.384 -168.436 112.906 -167.419C112.305 -166.135 111.582 -164.94 110.871 -163.723C110.782 -163.577 110.659 -163.522 110.526 -163.51C110.181 -162.673 109.825 -161.835 109.436 -161.02C108.213 -158.462 106.467 -156.373 104.431 -154.419C100.072 -150.219 95.6235 -146.065 90.897 -142.29C86.2261 -138.548 81.1993 -135.22 75.7054 -132.83C73.0029 -131.657 70.2004 -130.73 67.32 -130.115C66.4525 -129.926 65.5851 -129.769 64.7065 -129.646C64.7732 -129.512 64.7732 -129.345 64.6731 -129.2C64.3951 -128.809 64.295 -128.34 64.3506 -127.871C64.9178 -127.837 65.4628 -127.658 65.9521 -127.323C66.5526 -126.91 66.9975 -126.285 67.1865 -125.57C67.3089 -125.078 67.3534 -124.598 67.6314 -124.162C67.8538 -123.839 68.1319 -123.571 68.421 -123.302C69.8 -122.007 70.99 -120.544 72.1355 -119.036C74.6044 -115.775 77.0177 -112.48 79.3865 -109.152C84.1353 -102.484 88.7283 -95.7154 93.1546 -88.8354C95.3566 -85.4177 97.4696 -81.9331 99.705 -78.5266C101.829 -75.2988 104.176 -72.2385 106.789 -69.3681C111.883 -63.7837 117.744 -58.9587 123.649 -54.2678C130.11 -49.1413 136.705 -44.1712 143.423 -39.3797C143.567 -39.2792 143.634 -39.1452 143.634 -39.0112C143.867 -38.8101 144.09 -38.5979 144.312 -38.3857C148.371 -34.499 152.386 -30.5564 156.412 -26.6249C158.414 -24.6704 160.427 -22.7158 162.429 -20.7613C164.397 -18.8514 166.332 -16.908 168.334 -15.0317C170.258 -13.2335 172.304 -11.6028 174.484 -10.1285C176.764 -8.58722 179.077 -7.10176 181.368 -5.59396C186.061 -2.51137 190.754 0.571213 195.448 3.66498C200.141 6.74759 204.834 9.84137 209.527 12.924C209.649 13.0133 209.716 13.1585 209.716 13.3037C210.228 13.6164 210.673 14.0073 211.14 14.3759C211.562 14.711 212.018 15.1019 212.552 15.2136C213.23 15.3476 213.742 14.8785 214.131 14.3759C214.687 13.6499 215.199 12.9016 215.788 12.2092C216.967 10.8242 218.302 9.64032 219.681 8.45644L219.67 8.44525Z" fill="#262626"/>
<path d="M110.566 10C110.246 9.99976 109.934 10.0976 109.671 10.2805C109.408 10.4633 109.208 10.7222 109.097 11.0224C108.986 11.3226 108.97 11.6496 109.05 11.9593C109.131 12.2691 109.305 12.5467 109.548 12.7547L124.156 25.2758C124.74 25.7767 125.606 25.7767 126.193 25.2758L140.801 12.7547C141.044 12.5467 141.218 12.2691 141.298 11.9593C141.379 11.6496 141.363 11.3226 141.252 11.0224C141.141 10.7222 140.94 10.4633 140.678 10.2805C140.415 10.0976 140.102 9.99976 139.782 10H110.566Z" fill="#805FB3"/>
<path fill-rule="evenodd" clip-rule="evenodd" d="M109.377 18.8944C109.511 18.7383 109.674 18.61 109.857 18.517C110.041 18.424 110.241 18.368 110.446 18.3523C110.651 18.3366 110.857 18.3615 111.052 18.4255C111.248 18.4895 111.429 18.5914 111.585 18.7254L125.175 30.3721L138.764 18.7254C138.92 18.59 139.101 18.4868 139.297 18.4217C139.493 18.3566 139.7 18.3309 139.906 18.346C140.111 18.3612 140.312 18.4169 140.497 18.51C140.681 18.6031 140.845 18.7318 140.979 18.8885C141.113 19.0453 141.215 19.2271 141.279 19.4234C141.343 19.6197 141.367 19.8267 141.351 20.0325C141.334 20.2383 141.277 20.4387 141.183 20.6223C141.088 20.8059 140.959 20.969 140.801 21.1023L126.193 33.6235C125.909 33.8665 125.548 34.0001 125.175 34.0001C124.801 34.0001 124.44 33.8665 124.156 33.6235L109.548 21.1023C109.392 20.9685 109.264 20.8052 109.171 20.6218C109.078 20.4384 109.022 20.2384 109.006 20.0334C108.99 19.8283 109.015 19.6222 109.079 19.4268C109.143 19.2313 109.245 19.0504 109.379 18.8944H109.377Z" fill="#3E019D"/>
<path d="M9.932 34.44C7.96667 34.44 6.148 34.0587 4.476 33.296C2.83333 32.5333 1.484 31.4333 0.428 29.996L3.684 26.08C4.53467 27.2533 5.45867 28.1333 6.456 28.72C7.48267 29.3067 8.59733 29.6 9.8 29.6C12.9973 29.6 14.596 27.708 14.596 23.924V7.996H3.64V3.2H20.316V23.616C20.316 27.2533 19.4213 29.9667 17.632 31.756C15.872 33.5453 13.3053 34.44 9.932 34.44ZM38.3711 34.308C35.9658 34.308 33.8245 33.7947 31.9471 32.768C30.0698 31.712 28.5885 30.2747 27.5031 28.456C26.4178 26.6373 25.8751 24.5693 25.8751 22.252C25.8751 19.9053 26.4178 17.8373 27.5031 16.048C28.5885 14.2293 30.0698 12.8067 31.9471 11.78C33.8245 10.7533 35.9658 10.24 38.3711 10.24C40.8058 10.24 42.9618 10.7533 44.8391 11.78C46.7458 12.8067 48.2271 14.2147 49.2831 16.004C50.3685 17.7933 50.9111 19.876 50.9111 22.252C50.9111 24.5693 50.3685 26.6373 49.2831 28.456C48.2271 30.2747 46.7458 31.712 44.8391 32.768C42.9618 33.7947 40.8058 34.308 38.3711 34.308ZM38.3711 29.6C39.7205 29.6 40.9231 29.3067 41.9791 28.72C43.0351 28.1333 43.8565 27.2827 44.4431 26.168C45.0591 25.0533 45.3671 23.748 45.3671 22.252C45.3671 20.7267 45.0591 19.4213 44.4431 18.336C43.8565 17.2213 43.0351 16.3707 41.9791 15.784C40.9231 15.1973 39.7351 14.904 38.4151 14.904C37.0658 14.904 35.8631 15.1973 34.8071 15.784C33.7805 16.3707 32.9591 17.2213 32.3431 18.336C31.7271 19.4213 31.4191 20.7267 31.4191 22.252C31.4191 23.748 31.7271 25.0533 32.3431 26.168C32.9591 27.2827 33.7805 28.1333 34.8071 28.72C35.8631 29.3067 37.0511 29.6 38.3711 29.6ZM56.1705 34V10.504H61.6705V34H56.1705ZM58.9425 6.632C57.9158 6.632 57.0652 6.30933 56.3905 5.664C55.7452 5.01867 55.4225 4.24133 55.4225 3.332C55.4225 2.39333 55.7452 1.616 56.3905 0.999997C57.0652 0.354665 57.9158 0.0319993 58.9425 0.0319993C59.9692 0.0319993 60.8052 0.339999 61.4505 0.955998C62.1252 1.54267 62.4625 2.29067 62.4625 3.2C62.4625 4.168 62.1398 4.98933 61.4945 5.664C60.8492 6.30933 59.9985 6.632 58.9425 6.632ZM82.2213 10.24C84.0986 10.24 85.7706 10.6067 87.2373 11.34C88.7333 12.0733 89.9066 13.2027 90.7573 14.728C91.6079 16.224 92.0333 18.16 92.0333 20.536V34H86.5333V21.24C86.5333 19.1573 86.0346 17.6027 85.0373 16.576C84.0693 15.5493 82.7053 15.036 80.9453 15.036C79.6546 15.036 78.5106 15.3 77.5133 15.828C76.5159 16.356 75.7386 17.148 75.1813 18.204C74.6533 19.2307 74.3893 20.536 74.3893 22.12V34H68.8893V10.504H74.1253V16.84L73.2013 14.904C74.0226 13.408 75.2106 12.264 76.7653 11.472C78.3493 10.6507 80.1679 10.24 82.2213 10.24ZM2.88 54V40H8.64C9.88 40 10.94 40.2 11.82 40.6C12.7133 41 13.4 41.5733 13.88 42.32C14.36 43.0667 14.6 43.9533 14.6 44.98C14.6 46.0067 14.36 46.8933 13.88 47.64C13.4 48.3867 12.7133 48.96 11.82 49.36C10.94 49.76 9.88 49.96 8.64 49.96H4.32L5.48 48.74V54H2.88ZM5.48 49.02L4.32 47.76H8.52C9.66667 47.76 10.5267 47.52 11.1 47.04C11.6867 46.5467 11.98 45.86 11.98 44.98C11.98 44.0867 11.6867 43.4 11.1 42.92C10.5267 42.44 9.66667 42.2 8.52 42.2H4.32L5.48 40.92V49.02ZM16.8588 54V43.32H19.2388V46.26L18.9588 45.4C19.2788 44.68 19.7788 44.1333 20.4588 43.76C21.1521 43.3867 22.0121 43.2 23.0388 43.2V45.58C22.9321 45.5533 22.8321 45.54 22.7388 45.54C22.6454 45.5267 22.5521 45.52 22.4588 45.52C21.5121 45.52 20.7588 45.8 20.1988 46.36C19.6388 46.9067 19.3588 47.7267 19.3588 48.82V54H16.8588ZM30.0819 54.14C28.8952 54.14 27.8552 53.9067 26.9619 53.44C26.0819 52.96 25.3952 52.3067 24.9019 51.48C24.4219 50.6533 24.1819 49.7133 24.1819 48.66C24.1819 47.5933 24.4152 46.6533 24.8819 45.84C25.3619 45.0133 26.0152 44.3667 26.8419 43.9C27.6819 43.4333 28.6352 43.2 29.7019 43.2C30.7419 43.2 31.6685 43.4267 32.4819 43.88C33.2952 44.3333 33.9352 44.9733 34.4019 45.8C34.8685 46.6267 35.1019 47.6 35.1019 48.72C35.1019 48.8267 35.0952 48.9467 35.0819 49.08C35.0819 49.2133 35.0752 49.34 35.0619 49.46H26.1619V47.8H33.7419L32.7619 48.32C32.7752 47.7067 32.6485 47.1667 32.3819 46.7C32.1152 46.2333 31.7485 45.8667 31.2819 45.6C30.8285 45.3333 30.3019 45.2 29.7019 45.2C29.0885 45.2 28.5485 45.3333 28.0819 45.6C27.6285 45.8667 27.2685 46.24 27.0019 46.72C26.7485 47.1867 26.6219 47.74 26.6219 48.38V48.78C26.6219 49.42 26.7685 49.9867 27.0619 50.48C27.3552 50.9733 27.7685 51.3533 28.3019 51.62C28.8352 51.8867 29.4485 52.02 30.1419 52.02C30.7419 52.02 31.2819 51.9267 31.7619 51.74C32.2419 51.5533 32.6685 51.26 33.0419 50.86L34.3819 52.4C33.9019 52.96 33.2952 53.3933 32.5619 53.7C31.8419 53.9933 31.0152 54.14 30.0819 54.14ZM50.9833 43.2C51.8366 43.2 52.5899 43.3667 53.2433 43.7C53.9099 44.0333 54.4299 44.5467 54.8033 45.24C55.1766 45.92 55.3633 46.8 55.3633 47.88V54H52.8633V48.2C52.8633 47.2533 52.6566 46.5467 52.2433 46.08C51.8299 45.6133 51.2366 45.38 50.4633 45.38C49.9166 45.38 49.4299 45.5 49.0033 45.74C48.5899 45.98 48.2633 46.3333 48.0233 46.8C47.7966 47.2667 47.6833 47.86 47.6833 48.58V54H45.1833V48.2C45.1833 47.2533 44.9766 46.5467 44.5633 46.08C44.1499 45.6133 43.5566 45.38 42.7833 45.38C42.2366 45.38 41.7499 45.5 41.3233 45.74C40.9099 45.98 40.5833 46.3333 40.3433 46.8C40.1166 47.2667 40.0033 47.86 40.0033 48.58V54H37.5033V43.32H39.8833V46.16L39.4633 45.32C39.8233 44.6267 40.3433 44.1 41.0233 43.74C41.7166 43.38 42.5033 43.2 43.3833 43.2C44.3833 43.2 45.2499 43.4467 45.9833 43.94C46.7299 44.4333 47.2233 45.18 47.4633 46.18L46.4833 45.84C46.8299 45.04 47.4033 44.4 48.2033 43.92C49.0033 43.44 49.9299 43.2 50.9833 43.2ZM58.558 54V43.32H61.058V54H58.558ZM59.818 41.56C59.3513 41.56 58.9646 41.4133 58.658 41.12C58.3646 40.8267 58.218 40.4733 58.218 40.06C58.218 39.6333 58.3646 39.28 58.658 39C58.9646 38.7067 59.3513 38.56 59.818 38.56C60.2846 38.56 60.6646 38.7 60.958 38.98C61.2646 39.2467 61.418 39.5867 61.418 40C61.418 40.44 61.2713 40.8133 60.978 41.12C60.6846 41.4133 60.298 41.56 59.818 41.56ZM68.8592 54.14C67.9526 54.14 67.1526 53.9733 66.4592 53.64C65.7659 53.2933 65.2259 52.7733 64.8392 52.08C64.4526 51.3733 64.2592 50.4867 64.2592 49.42V43.32H66.7592V49.08C66.7592 50.04 66.9726 50.76 67.3992 51.24C67.8392 51.7067 68.4592 51.94 69.2592 51.94C69.8459 51.94 70.3526 51.82 70.7792 51.58C71.2192 51.34 71.5592 50.98 71.7992 50.5C72.0526 50.02 72.1792 49.4267 72.1792 48.72V43.32H74.6792V54H72.2992V51.12L72.7192 52C72.3592 52.6933 71.8326 53.2267 71.1392 53.6C70.4459 53.96 69.6859 54.14 68.8592 54.14ZM91.4325 43.2C92.2858 43.2 93.0392 43.3667 93.6925 43.7C94.3592 44.0333 94.8792 44.5467 95.2525 45.24C95.6258 45.92 95.8125 46.8 95.8125 47.88V54H93.3125V48.2C93.3125 47.2533 93.1058 46.5467 92.6925 46.08C92.2792 45.6133 91.6858 45.38 90.9125 45.38C90.3658 45.38 89.8792 45.5 89.4525 45.74C89.0392 45.98 88.7125 46.3333 88.4725 46.8C88.2458 47.2667 88.1325 47.86 88.1325 48.58V54H85.6325V48.2C85.6325 47.2533 85.4258 46.5467 85.0125 46.08C84.5992 45.6133 84.0058 45.38 83.2325 45.38C82.6858 45.38 82.1992 45.5 81.7725 45.74C81.3592 45.98 81.0325 46.3333 80.7925 46.8C80.5658 47.2667 80.4525 47.86 80.4525 48.58V54H77.9525V43.32H80.3325V46.16L79.9125 45.32C80.2725 44.6267 80.7925 44.1 81.4725 43.74C82.1658 43.38 82.9525 43.2 83.8325 43.2C84.8325 43.2 85.6992 43.4467 86.4325 43.94C87.1792 44.4333 87.6725 45.18 87.9125 46.18L86.9325 45.84C87.2792 45.04 87.8525 44.4 88.6525 43.92C89.4525 43.44 90.3792 43.2 91.4325 43.2ZM104.775 54V40H106.915L115.695 50.78H114.635V40H117.215V54H115.075L106.295 43.22H107.355V54H104.775ZM125.526 54.14C124.433 54.14 123.459 53.9067 122.606 53.44C121.753 52.96 121.079 52.3067 120.586 51.48C120.093 50.6533 119.846 49.7133 119.846 48.66C119.846 47.5933 120.093 46.6533 120.586 45.84C121.079 45.0133 121.753 44.3667 122.606 43.9C123.459 43.4333 124.433 43.2 125.526 43.2C126.633 43.2 127.613 43.4333 128.466 43.9C129.333 44.3667 130.006 45.0067 130.486 45.82C130.979 46.6333 131.226 47.58 131.226 48.66C131.226 49.7133 130.979 50.6533 130.486 51.48C130.006 52.3067 129.333 52.96 128.466 53.44C127.613 53.9067 126.633 54.14 125.526 54.14ZM125.526 52C126.139 52 126.686 51.8667 127.166 51.6C127.646 51.3333 128.019 50.9467 128.286 50.44C128.566 49.9333 128.706 49.34 128.706 48.66C128.706 47.9667 128.566 47.3733 128.286 46.88C128.019 46.3733 127.646 45.9867 127.166 45.72C126.686 45.4533 126.146 45.32 125.546 45.32C124.933 45.32 124.386 45.4533 123.906 45.72C123.439 45.9867 123.066 46.3733 122.786 46.88C122.506 47.3733 122.366 47.9667 122.366 48.66C122.366 49.34 122.506 49.9333 122.786 50.44C123.066 50.9467 123.439 51.3333 123.906 51.6C124.386 51.8667 124.926 52 125.526 52ZM135.684 54L131.764 43.32H134.124L137.484 52.74H136.364L139.884 43.32H141.984L145.404 52.74H144.304L147.764 43.32H149.984L146.044 54H143.644L140.524 45.66H141.264L138.084 54H135.684Z" fill="#3E019D"/>
</g>
<defs>
<clipPath id="clip0_130_1466">
<rect width="1440" height="6706" fill="white" transform="translate(-644 -1908)"/>
</clipPath>
</defs>
</svg>
