<svg width="36" height="36" viewBox="0 0 36 36" fill="none" xmlns="http://www.w3.org/2000/svg">
<g id="uim:calender">
<g id="Group 108">
<path id="Vector" opacity="0.5" d="M33 15H3V28.5C3 29.6935 3.47411 30.8381 4.31802 31.682C5.16193 32.5259 6.30653 33 7.5 33H28.5C29.6935 33 30.8381 32.5259 31.682 31.682C32.5259 30.8381 33 29.6935 33 28.5V15ZM10.5 12C10.1022 12 9.72064 11.842 9.43934 11.5607C9.15804 11.2794 9 10.8978 9 10.5V4.5C9 4.10218 9.15804 3.72064 9.43934 3.43934C9.72064 3.15804 10.1022 3 10.5 3C10.8978 3 11.2794 3.15804 11.5607 3.43934C11.842 3.72064 12 4.10218 12 4.5V10.5C12 10.8978 11.842 11.2794 11.5607 11.5607C11.2794 11.842 10.8978 12 10.5 12ZM25.5 12C25.1022 12 24.7206 11.842 24.4393 11.5607C24.158 11.2794 24 10.8978 24 10.5V4.5C24 4.10218 24.158 3.72064 24.4393 3.43934C24.7206 3.15804 25.1022 3 25.5 3C25.8978 3 26.2794 3.15804 26.5607 3.43934C26.842 3.72064 27 4.10218 27 4.5V10.5C27 10.8978 26.842 11.2794 26.5607 11.5607C26.2794 11.842 25.8978 12 25.5 12Z" fill="#3E019E"/>
<path id="Vector_2" d="M28.5 6H27V10.5C27 10.8978 26.842 11.2794 26.5607 11.5607C26.2794 11.842 25.8978 12 25.5 12C25.1022 12 24.7206 11.842 24.4393 11.5607C24.158 11.2794 24 10.8978 24 10.5V6H12V10.5C12 10.8978 11.842 11.2794 11.5607 11.5607C11.2794 11.842 10.8978 12 10.5 12C10.1022 12 9.72064 11.842 9.43934 11.5607C9.15804 11.2794 9 10.8978 9 10.5V6H7.5C6.30653 6 5.16193 6.47411 4.31802 7.31802C3.47411 8.16193 3 9.30653 3 10.5V15H33V10.5C33 9.30653 32.5259 8.16193 31.682 7.31802C30.8381 6.47411 29.6935 6 28.5 6Z" fill="#3E019E"/>
<rect id="Rectangle 60" x="8" y="18" width="4" height="4" rx="1" fill="#3E019E"/>
<rect id="Rectangle 63" x="8" y="25" width="4" height="4" rx="1" fill="#3E019E"/>
<rect id="Rectangle 61" x="16" y="18" width="4" height="4" rx="1" fill="#3E019E"/>
<rect id="Rectangle 64" x="16" y="25" width="4" height="4" rx="1" fill="#3E019E"/>
<rect id="Rectangle 62" x="24" y="18" width="4" height="4" rx="1" fill="#3E019E"/>
<rect id="Rectangle 65" x="24" y="25" width="4" height="4" rx="1" fill="#3E019E"/>
</g>
</g>
</svg>
