<svg width="28" height="48" viewBox="0 0 28 48" fill="none" xmlns="http://www.w3.org/2000/svg">
<path id="Vector" d="M26.4996 3.74372C25.9658 3.20762 25.0649 3.04009 24.3754 2.83905C22.6294 2.31411 20.8722 1.83385 19.0817 1.47644C15.8232 0.828652 12.4201 0.638795 9.25057 1.69984C9.51748 2.26945 9.69542 2.87255 9.72878 3.53151C9.80663 5.12865 9.01702 6.53592 7.96051 7.67514C6.84839 8.88138 5.50272 9.8419 4.31275 10.9588C3.58987 11.6401 2.91148 12.3661 2.27757 13.1367C1.81048 13.6952 1.41011 14.3318 0.94302 14.9014C1.25441 14.9684 1.33226 15.5157 0.987505 15.6274C0.509293 15.7838 0.409201 16.3645 0.487049 16.8113C0.609383 17.4926 1.26554 17.9058 1.78823 18.2744C2.44438 18.7323 3.04493 19.1902 3.57875 19.7934C4.15705 20.4411 4.63527 21.1671 5.13572 21.8931C5.62505 22.6079 6.11439 23.3339 6.60372 24.0599C8.59442 27.0308 10.5184 30.0464 12.1643 33.2295C12.9762 34.8043 13.7213 36.4238 14.3552 38.0768C14.9335 39.5845 15.345 41.1259 15.8343 42.656C16.2125 43.8399 16.6684 45.1355 17.5581 46.0401C18.5813 47.0789 20.027 47.2575 21.3393 46.6991C23.9862 45.5711 24.8536 42.4661 25.1873 39.8526C25.3875 38.2555 25.4319 36.6471 25.5209 35.0388C25.621 33.0843 25.7211 31.1186 25.8212 29.164C26.0214 25.2438 26.2216 21.3235 26.4329 17.4032C26.633 13.55 26.9222 9.68557 27.0112 5.82114C27.0223 5.12867 27.0334 4.27982 26.5218 3.74372H26.4996Z" fill="#262626"/>
</svg>
