<svg width="159" height="195" viewBox="0 0 159 195" fill="none" xmlns="http://www.w3.org/2000/svg">
<path id="Vector" d="M155.67 187.445C156.771 186.496 157.949 185.435 158.472 184.039C158.872 182.944 158.661 181.883 158.161 180.934C157.994 180.833 157.883 180.643 157.872 180.442C157.727 180.219 157.571 180.007 157.404 179.806C156.27 178.454 154.802 177.393 153.501 176.221C150.765 173.752 148.218 171.072 145.827 168.268C140.978 162.595 136.73 156.429 132.415 150.342C131.359 148.846 130.291 147.349 129.212 145.864C128.078 144.311 126.977 142.703 125.665 141.307C123.196 138.682 119.826 137.42 116.812 135.599C115.211 134.639 113.798 133.477 112.508 132.126C111.196 130.741 109.972 129.278 108.649 127.915C105.969 125.157 103.011 122.677 99.8411 120.51C99.3184 120.153 99.8633 119.427 100.397 119.639C99.2405 118.444 98.1729 117.171 97.2609 115.764C95.9709 113.787 94.8587 111.698 93.691 109.643C92.4788 107.521 91.2777 105.399 90.0655 103.277C87.8079 99.2895 85.5503 95.2799 83.9266 90.9799C83.1036 88.802 82.5587 86.5571 81.9693 84.301C81.4021 82.1119 80.5902 80.0791 79.5337 78.091C78.4994 76.1588 77.3428 74.2825 76.4086 72.2944C75.8192 71.0324 74.696 68.8768 75.5746 67.5253C75.5412 67.2461 75.6746 66.9445 76.0305 66.8999C77.3651 66.7435 78.5884 66.1516 79.7561 65.5038C80.9906 64.8225 82.1917 64.063 83.5151 63.5827C84.9609 63.0578 86.4956 62.8344 88.0192 62.7116C89.5762 62.5887 91.1331 62.5775 92.6901 62.4435C94.2916 62.3095 95.8597 62.0079 97.4166 61.6394C100.497 60.891 103.522 59.9082 106.647 59.3386C109.772 58.769 112.942 58.4897 116.111 58.2775C122.462 57.8643 128.934 57.7638 135.118 56.1108C137.776 55.4071 140.489 54.3573 142.269 52.1458C142.591 51.7438 142.869 51.3193 143.125 50.8726C143.97 48.8287 144.448 46.6396 144.459 44.417C144.092 39.7596 141.079 35.7946 137.353 33.1029C132.549 29.6071 126.665 28.1328 121.06 26.4798C114.799 24.6258 108.605 22.5596 102.41 20.471C96.1822 18.3712 89.9543 16.2715 83.7375 14.1494C77.5653 12.0385 71.4263 9.83823 65.3208 7.52627C62.3403 6.39822 59.3265 5.28134 56.3904 4.01926C55.1226 3.47198 54.0105 2.80186 53.0874 1.76316C52.7205 1.34991 52.2867 0.757953 51.7084 0.668602C51.486 0.635096 51.1746 0.69095 50.9633 0.836145C51.5416 2.91355 51.1857 5.20315 50.5852 7.24705C50.7742 7.42576 50.8632 7.70498 50.6297 7.9507C50.474 8.11823 50.3405 8.28576 50.1959 8.45329C49.8178 9.51433 49.3841 10.5642 48.9059 11.5806C48.3053 12.865 47.5824 14.0601 46.8707 15.2775C46.7817 15.4227 46.6594 15.4785 46.5259 15.4897C46.1812 16.3273 45.8253 17.165 45.436 17.9803C44.2127 20.538 42.4667 22.6266 40.4315 24.5811C36.072 28.7806 31.6235 32.9354 26.897 36.7105C22.2261 40.452 17.1993 43.7804 11.7054 46.1705C9.00293 47.3432 6.20039 48.2702 3.31999 48.8845C2.45255 49.0744 1.58508 49.2308 0.706497 49.3536C0.773224 49.4877 0.773224 49.6552 0.673141 49.8004C0.395111 50.1913 0.295029 50.6604 0.350632 51.1295C0.917816 51.163 1.46275 51.3417 1.95209 51.6767C2.55263 52.09 2.99748 52.7154 3.18654 53.4302C3.30888 53.9217 3.35336 54.402 3.63139 54.8375C3.85381 55.1614 4.13185 55.4295 4.42101 55.6975C5.80003 56.9931 6.99001 58.4562 8.13548 59.964C10.6044 63.2253 13.0177 66.5202 15.3865 69.8485C20.1353 76.5163 24.7283 83.2846 29.1546 90.1646C31.3566 93.5823 33.4696 97.0669 35.705 100.473C37.8291 103.701 40.1757 106.762 42.7892 109.632C47.8827 115.216 53.7436 120.041 59.649 124.732C66.1104 129.859 72.7053 134.829 79.4225 139.62C79.5671 139.721 79.6338 139.855 79.6338 139.989C79.8673 140.19 80.0898 140.402 80.3122 140.614C84.3714 144.501 88.3862 148.444 92.4121 152.375C94.4139 154.33 96.4268 156.284 98.4287 158.239C100.397 160.149 102.332 162.092 104.334 163.968C106.258 165.767 108.304 167.397 110.484 168.871C112.764 170.413 115.077 171.898 117.368 173.406C122.061 176.489 126.754 179.571 131.448 182.665C136.141 185.748 140.834 188.841 145.527 191.924C145.649 192.013 145.716 192.159 145.716 192.304C146.228 192.616 146.673 193.007 147.14 193.376C147.562 193.711 148.018 194.102 148.552 194.214C149.23 194.348 149.742 193.879 150.131 193.376C150.687 192.65 151.199 191.902 151.788 191.209C152.967 189.824 154.302 188.64 155.681 187.456L155.67 187.445Z" fill="#262626"/>
</svg>
