<svg width="20" height="20" viewBox="0 0 20 20" fill="none" xmlns="http://www.w3.org/2000/svg">
<g id="Frame 15">
<g clip-path="url(#clip0_705_3329)">
<rect width="20" height="20" rx="5" fill="#182957"/>
<g id="Group 71">
<path id="Vector" d="M10.3334 0H23.6667V20H10.3334V0Z" fill="white"/>
<path id="Vector_2" d="M-3 0H10.3333V20H-3V0Z" fill="#006233"/>
<path id="Vector_3" d="M14.6667 7.5C14.1163 6.54679 13.2669 5.80181 12.25 5.3806C11.2331 4.9594 10.1056 4.8855 9.04245 5.17037C7.97929 5.45525 7.03983 6.08297 6.36978 6.95619C5.69974 7.82942 5.33655 8.89933 5.33655 10C5.33655 11.1007 5.69974 12.1706 6.36978 13.0438C7.03983 13.917 7.97929 14.5448 9.04245 14.8296C10.1056 15.1145 11.2331 15.0406 12.25 14.6194C13.2669 14.1982 14.1163 13.4532 14.6667 12.5C14.1487 13.1469 13.4426 13.617 12.6459 13.8453C11.8493 14.0735 11.0014 14.0487 10.2194 13.7743C9.43745 13.4998 8.76005 12.9892 8.28081 12.3131C7.80158 11.637 7.54418 10.8287 7.54418 10C7.54418 9.17127 7.80158 8.363 8.28081 7.68689C8.76005 7.01078 9.43745 6.50022 10.2194 6.22575C11.0014 5.95128 11.8493 5.92646 12.6459 6.15473C13.4426 6.383 14.1487 6.85308 14.6667 7.5ZM14.8333 10L10.3333 8.53334L13.1333 12.3667V7.63334L10.3333 11.4667L14.8333 10Z" fill="#D21034"/>
</g>
</g>
</g>
<defs>
<clipPath id="clip0_705_3329">
<rect width="20" height="20" rx="5" fill="white"/>
</clipPath>
</defs>
</svg>
