<svg width="20" height="20" viewBox="0 0 20 20" fill="none" xmlns="http://www.w3.org/2000/svg">
<g id="Frame 28">
<g clip-path="url(#clip0_705_3339)">
<rect width="20" height="20" rx="5" fill="#182957"/>
<g id="Group 72">
<path id="Vector" d="M-3 0H23.6667V20H-3V0Z" fill="#74ACDF"/>
<path id="Vector_2" d="M-3 6.66699H23.6667V13.3337H-3V6.66699Z" fill="white"/>
<path id="Vector_3" d="M13.0583 9.96445L11.3358 9.89904C11.6567 9.87904 11.8575 9.68695 12.165 9.71237C12.505 9.74445 12.6929 9.56029 12.825 9.51237C12.9571 9.47237 13.0329 9.56029 13.0529 9.52445C13.0729 9.48445 12.9688 9.40445 12.7808 9.42862C12.5967 9.45654 12.5408 9.59654 12.1288 9.56445C11.7513 9.53529 11.6383 9.69987 11.3363 9.69112L12.8646 8.98862C12.8646 8.98862 12.9125 8.96862 12.9004 8.93654C12.8846 8.90445 12.8363 8.92445 12.8363 8.92445L11.2196 9.5232C11.5083 9.38195 11.62 9.12737 11.9146 9.03362C12.2408 8.9332 12.3442 8.69112 12.4479 8.59612C12.5546 8.50862 12.6583 8.5607 12.6633 8.51987C12.6667 8.47529 12.54 8.44112 12.3754 8.53529C12.2163 8.63154 12.2179 8.78237 11.825 8.91029C11.465 9.02779 11.4238 9.2232 11.1413 9.33029L12.2846 8.09612C12.2846 8.09612 12.3213 8.05945 12.2979 8.03445C12.2708 8.01112 12.2342 8.04779 12.2342 8.04779L10.9696 9.21945C11.1821 8.97862 11.1883 8.7007 11.4242 8.50112C11.6871 8.2832 11.69 8.02029 11.7496 7.8932C11.8146 7.77154 11.9304 7.77987 11.9192 7.74029C11.905 7.69779 11.775 7.71487 11.6588 7.86487C11.5483 8.01487 11.6079 8.1532 11.2938 8.42195C11.0063 8.6682 11.0429 8.86445 10.8229 9.07195L11.4071 7.49445C11.4071 7.49445 11.4271 7.44654 11.3958 7.43237C11.3621 7.42112 11.3421 7.46904 11.3421 7.46904L10.6225 9.03529C10.7267 8.73112 10.6258 8.47237 10.7675 8.19779C10.9271 7.89612 10.8292 7.65195 10.8354 7.51154C10.8492 7.37445 10.9592 7.33779 10.9338 7.30529C10.9046 7.27154 10.7908 7.33695 10.7408 7.51987C10.6963 7.7007 10.8042 7.8057 10.6171 8.17445C10.4454 8.51195 10.5546 8.67945 10.4308 8.95487L10.3667 7.27404C10.3667 7.27404 10.3667 7.22195 10.3325 7.2207C10.2967 7.2232 10.2971 7.27529 10.2971 7.27529L10.2317 8.99779C10.2117 8.67695 10.0196 8.47612 10.045 8.16862C10.0771 7.82862 9.89293 7.6407 9.84501 7.50862C9.80501 7.37654 9.89293 7.3007 9.8571 7.2807C9.8171 7.2607 9.73709 7.36487 9.76126 7.55279C9.78918 7.73695 9.92918 7.79279 9.89709 8.20487C9.86793 8.58237 10.0325 8.69529 10.0238 8.99737L9.32126 7.46904C9.32126 7.46904 9.30126 7.42112 9.26918 7.4332C9.23709 7.44904 9.2571 7.49737 9.2571 7.49737L9.85584 9.11404C9.7146 8.82529 9.46001 8.71362 9.36626 8.41904C9.26585 8.09279 9.02376 7.98945 8.92876 7.8857C8.84126 7.77904 8.89334 7.67529 8.85251 7.67029C8.80793 7.66695 8.77376 7.79362 8.86793 7.9582C8.96418 8.11737 9.11501 8.1157 9.24293 8.50862C9.36043 8.86862 9.55584 8.90987 9.66293 9.19237L8.42876 8.04904C8.42876 8.04904 8.39209 8.01237 8.36709 8.0357C8.34376 8.06279 8.38043 8.09945 8.38043 8.09945L9.55209 9.36404C9.31126 9.15154 9.03335 9.14529 8.83376 8.90945C8.61585 8.64654 8.35293 8.64362 8.22585 8.58404C8.10418 8.51904 8.11251 8.4032 8.07293 8.41445C8.03043 8.42862 8.04751 8.55862 8.19751 8.67487C8.34751 8.78529 8.48584 8.7257 8.75459 9.03987C9.00084 9.32737 9.19709 9.2907 9.40459 9.5107L7.8271 8.92654C7.8271 8.92654 7.77918 8.90654 7.76501 8.93779C7.75376 8.97154 7.80168 8.99154 7.80168 8.99154L9.36793 9.71112C9.06376 9.60695 8.80501 9.70779 8.53043 9.56612C8.22876 9.40654 7.9846 9.50445 7.84418 9.4982C7.7071 9.48445 7.67043 9.37445 7.63793 9.39987C7.60418 9.42904 7.66959 9.54279 7.85251 9.59279C8.03334 9.63737 8.13835 9.52945 8.5071 9.71654C8.8446 9.8882 9.01209 9.77904 9.28751 9.90279L7.60668 9.96695C7.60668 9.96695 7.55459 9.96695 7.55334 10.0011C7.55584 10.037 7.60793 10.0365 7.60793 10.0365L9.33043 10.102C9.00959 10.122 8.80876 10.314 8.50126 10.2886C8.16126 10.2565 7.97334 10.4407 7.84126 10.4886C7.70918 10.5286 7.63334 10.4407 7.61334 10.4765C7.59334 10.5165 7.69751 10.5965 7.88543 10.5724C8.06959 10.5445 8.12543 10.4045 8.53751 10.4365C8.91501 10.4657 9.02793 10.3011 9.33001 10.3099L7.80168 11.0124C7.80168 11.0124 7.75376 11.0324 7.76584 11.0645C7.78168 11.0965 7.83001 11.0765 7.83001 11.0765L9.44668 10.4778C9.15793 10.619 9.04626 10.8736 8.75168 10.9674C8.42543 11.0678 8.32209 11.3099 8.21834 11.4049C8.11168 11.4924 8.00793 11.4403 8.00293 11.4811C7.9996 11.5257 8.12626 11.5599 8.29085 11.4657C8.45001 11.3695 8.44834 11.2186 8.84126 11.0907C9.20126 10.9732 9.24251 10.7778 9.52501 10.6707L8.38168 11.9049C8.38168 11.9049 8.34501 11.9415 8.36834 11.9665C8.39543 11.9899 8.43209 11.9532 8.43209 11.9532L9.69668 10.7815C9.48418 11.0224 9.47793 11.3003 9.24209 11.4999C8.97918 11.7178 8.97626 11.9807 8.91668 12.1078C8.85168 12.2295 8.73584 12.2211 8.74709 12.2607C8.76126 12.3032 8.89126 12.2861 9.00751 12.1361C9.11793 11.9861 9.05834 11.8478 9.37251 11.579C9.66001 11.3328 9.62334 11.1365 9.84334 10.929L9.25918 12.5065C9.25918 12.5065 9.23918 12.5545 9.27043 12.5686C9.30418 12.5799 9.32418 12.532 9.32418 12.532L10.0438 10.9657C9.93959 11.2699 10.0404 11.5286 9.89876 11.8032C9.73918 12.1049 9.83709 12.349 9.83084 12.4895C9.81709 12.6265 9.70709 12.6632 9.73251 12.6957C9.76168 12.7295 9.87543 12.664 9.92543 12.4811C9.97001 12.3003 9.86209 12.1953 10.0492 11.8265C10.2208 11.489 10.1117 11.3215 10.2354 11.0461L10.2996 12.727C10.2996 12.727 10.2996 12.779 10.3338 12.7803C10.3696 12.7778 10.3692 12.7257 10.3692 12.7257L10.4346 11.0032C10.4546 11.324 10.6467 11.5249 10.6213 11.8324C10.5892 12.1724 10.7733 12.3603 10.8213 12.4924C10.8613 12.6245 10.7733 12.7003 10.8092 12.7203C10.8492 12.7403 10.9292 12.6361 10.905 12.4482C10.8771 12.264 10.7371 12.2082 10.7692 11.7961C10.7983 11.4186 10.6338 11.3057 10.6425 11.0036L11.345 12.532C11.345 12.532 11.365 12.5799 11.3971 12.5678C11.4292 12.552 11.4092 12.5036 11.4092 12.5036L10.8104 10.887C10.9517 11.1757 11.2063 11.2874 11.3 11.582C11.4004 11.9082 11.6425 12.0115 11.7375 12.1153C11.825 12.222 11.7729 12.3257 11.8138 12.3307C11.8583 12.334 11.8925 12.2074 11.7983 12.0428C11.7021 11.8836 11.5513 11.8853 11.4233 11.4924C11.3058 11.1324 11.1104 11.0911 11.0033 10.8086L12.2375 11.952C12.2375 11.952 12.2742 11.9886 12.2992 11.9653C12.3225 11.9382 12.2858 11.9015 12.2858 11.9015L11.1142 10.637C11.355 10.8495 11.6329 10.8557 11.8325 11.0915C12.0504 11.3545 12.3133 11.3574 12.4404 11.417C12.5621 11.482 12.5538 11.5978 12.5933 11.5865C12.6358 11.5724 12.6188 11.4424 12.4688 11.3261C12.3188 11.2157 12.1804 11.2753 11.9117 10.9611C11.6654 10.6736 11.4692 10.7103 11.2617 10.4903L12.8392 11.0745C12.8392 11.0745 12.8871 11.0945 12.9013 11.0632C12.9125 11.0295 12.8646 11.0095 12.8646 11.0095L11.2983 10.2899C11.6025 10.394 11.8613 10.2932 12.1358 10.4349C12.4375 10.5945 12.6817 10.4965 12.8221 10.5028C12.9592 10.5165 12.9958 10.6265 13.0283 10.6011C13.0621 10.572 12.9967 10.4582 12.8138 10.4082C12.6329 10.3636 12.5279 10.4715 12.1592 10.2845C11.8217 10.1128 11.6542 10.222 11.3788 10.0982L13.0596 10.034C13.0596 10.034 13.1117 10.034 13.1129 9.99987C13.1104 9.96404 13.0583 9.96445 13.0583 9.96445ZM11.2454 9.89529L10.9188 9.88279L11.2483 9.73112L11.2454 9.89487V9.89529ZM11.1358 9.55404L10.8296 9.66737L11.0763 9.40154L11.1363 9.55404H11.1358ZM10.9042 9.2807L10.6646 9.50279L10.7904 9.16279L10.9042 9.2807ZM10.5854 9.11695L10.4492 9.41362L10.4354 9.05112L10.5858 9.11654L10.5854 9.11695ZM10.2283 9.08779L10.2158 9.41445L10.0642 9.08487L10.2279 9.08779H10.2283ZM9.88709 9.19737L10.0004 9.50362L9.73459 9.25695L9.88709 9.19695V9.19737ZM9.61376 9.42904L9.83584 9.66862L9.49584 9.54279L9.61376 9.42904ZM9.45001 9.74779L9.74668 9.88404L9.38418 9.89779L9.44959 9.74737L9.45001 9.74779ZM9.42084 10.1049L9.74751 10.1174L9.41793 10.269L9.42084 10.1053V10.1049ZM9.53043 10.4461L9.83668 10.3328L9.59001 10.5986L9.53001 10.4461H9.53043ZM9.76209 10.7195L10.0017 10.4974L9.87584 10.8374L9.76209 10.7195ZM10.0808 10.8832L10.2171 10.5865L10.2308 10.949L10.0804 10.8836L10.0808 10.8832ZM10.4379 10.9124L10.4504 10.5857L10.6021 10.9153L10.4383 10.9124H10.4379ZM10.7792 10.8028L10.6658 10.4965L10.9317 10.7432L10.7792 10.8032V10.8028ZM11.0525 10.5711L10.8304 10.3315L11.1704 10.4574L11.0525 10.5711ZM11.2163 10.2524L10.9196 10.1161L11.2821 10.1024L11.2167 10.2528L11.2163 10.2524Z" fill="#F6B40E"/>
<g id="Group">
<path id="Vector_4" d="M13.0596 9.94143L11.5442 9.88393C11.6092 9.8656 11.6704 9.8431 11.7304 9.82102C11.87 9.76893 12.0017 9.71977 12.1638 9.73352C12.4234 9.7581 12.5963 9.66018 12.7225 9.58852C12.765 9.56435 12.8013 9.54393 12.8325 9.53268C12.9029 9.51143 12.955 9.52977 12.9934 9.5431C13.0229 9.55352 13.0563 9.56518 13.0738 9.53352C13.0821 9.51685 13.0792 9.49643 13.0663 9.4781C13.0321 9.43018 12.9279 9.38685 12.7788 9.40602C12.7138 9.41602 12.6642 9.43893 12.6121 9.46352C12.5125 9.51018 12.3996 9.56268 12.1321 9.54185C11.9225 9.5256 11.7942 9.56768 11.67 9.60852C11.5988 9.63185 11.5296 9.65477 11.4475 9.66435L12.8746 9.0081C12.9071 8.99435 12.9363 8.96352 12.9217 8.92602C12.9042 8.89143 12.8617 8.89018 12.8304 8.9031L11.4084 9.42977C11.4613 9.3881 11.5092 9.34393 11.5563 9.30018C11.6654 9.19893 11.7684 9.1031 11.9229 9.05352C12.1721 8.97685 12.2942 8.82018 12.3838 8.70602C12.4138 8.66768 12.4396 8.63477 12.4638 8.61227C12.5209 8.5656 12.5759 8.56268 12.6163 8.5606C12.6475 8.55893 12.6829 8.55727 12.6871 8.5206C12.6884 8.50185 12.6779 8.48435 12.6588 8.47227C12.6088 8.44102 12.4963 8.44102 12.3659 8.5156C12.3096 8.54977 12.2725 8.58977 12.2338 8.63227C12.1596 8.71352 12.0754 8.80518 11.82 8.88852C11.6204 8.95352 11.5179 9.04185 11.4188 9.12685C11.3617 9.17602 11.3067 9.2231 11.2346 9.26352L12.3021 8.11102C12.3271 8.08602 12.3421 8.04643 12.3142 8.01685C12.2804 7.98768 12.2379 8.01352 12.2213 8.0306L11.1088 9.06143C11.1417 9.00268 11.1692 8.94352 11.1959 8.88518C11.2579 8.74977 11.3163 8.62185 11.4404 8.51685C11.6413 8.3506 11.6942 8.15893 11.7329 8.01935C11.7459 7.97268 11.7571 7.93227 11.7709 7.90227C11.8054 7.83727 11.8554 7.81352 11.8921 7.79602C11.9204 7.78268 11.9521 7.76727 11.9421 7.73227C11.9363 7.71477 11.92 7.70227 11.8975 7.69852C11.8396 7.68893 11.7354 7.73185 11.6434 7.8506C11.6042 7.90352 11.5859 7.95477 11.5659 8.00935C11.5284 8.11268 11.4854 8.22977 11.2817 8.40435C11.1221 8.54102 11.0609 8.66143 11.0021 8.7781C10.9684 8.84518 10.9354 8.91018 10.8842 8.97477L11.4296 7.50143C11.4429 7.46893 11.4417 7.42643 11.405 7.40977C11.3679 7.39768 11.3371 7.42685 11.3242 7.4581L10.6909 8.83643C10.6988 8.76977 10.7017 8.70435 10.7038 8.64018C10.7092 8.49143 10.7142 8.35102 10.7888 8.20643C10.9109 7.97602 10.8863 7.77893 10.8688 7.63477C10.8629 7.58643 10.8575 7.54477 10.8592 7.51185C10.8663 7.43852 10.9034 7.39727 10.9304 7.36727C10.9513 7.34393 10.975 7.31768 10.9521 7.28893C10.94 7.27477 10.92 7.26977 10.8979 7.27477C10.8404 7.28768 10.7609 7.36768 10.7213 7.51268C10.7054 7.57643 10.7079 7.63102 10.7104 7.68893C10.7154 7.79893 10.7209 7.92352 10.5992 8.16268C10.5038 8.35018 10.4938 8.48477 10.4838 8.61477C10.4779 8.68977 10.4725 8.76227 10.45 8.84185L10.39 7.27227C10.39 7.23685 10.3725 7.19852 10.3321 7.19727C10.2875 7.2006 10.2759 7.24852 10.2763 7.2731L10.2188 8.78852C10.2004 8.72352 10.1779 8.66227 10.1559 8.60227C10.1038 8.46268 10.055 8.33102 10.0684 8.16893C10.0929 7.90935 9.99502 7.73643 9.92335 7.61018C9.8996 7.56768 9.87877 7.53143 9.86752 7.50018C9.84627 7.42977 9.8646 7.37768 9.87794 7.33935C9.88835 7.30977 9.90002 7.27643 9.86835 7.25893C9.85169 7.2506 9.83127 7.25352 9.81294 7.26643C9.76502 7.3006 9.72169 7.40477 9.74085 7.55393C9.75085 7.61893 9.77377 7.66852 9.79835 7.7206C9.84502 7.82018 9.89752 7.9331 9.87669 8.2006C9.86044 8.41018 9.90252 8.53852 9.94335 8.66268C9.96669 8.73393 9.9896 8.8031 9.99919 8.88518L9.34294 7.4581C9.32919 7.4256 9.29835 7.39643 9.26085 7.41102C9.22627 7.42852 9.22502 7.47102 9.23794 7.50227L9.7646 8.92477C9.72294 8.87185 9.67877 8.82393 9.63502 8.77685C9.53377 8.66768 9.43794 8.56477 9.38835 8.41018C9.31169 8.16102 9.15502 8.03893 9.04085 7.94935C9.00252 7.91935 8.9696 7.89352 8.9471 7.86935C8.90044 7.81227 8.89752 7.75727 8.89544 7.71685C8.89377 7.6856 8.8921 7.65018 8.85544 7.64602C8.83669 7.64518 8.81919 7.65518 8.8071 7.67435C8.77585 7.72435 8.77585 7.83685 8.85044 7.96727C8.8846 8.02352 8.9246 8.0606 8.9671 8.09935C9.04835 8.17352 9.14002 8.25768 9.22335 8.5131C9.28835 8.71268 9.37669 8.81518 9.46169 8.91435C9.51085 8.97143 9.55794 9.02643 9.59835 9.09852L8.44585 8.03102C8.42085 8.00602 8.38127 7.99102 8.35169 8.01893C8.32252 8.05268 8.34835 8.09477 8.36544 8.11185L9.39627 9.22435C9.33752 9.19143 9.27835 9.16393 9.22002 9.13727C9.0846 9.07518 8.95669 9.01685 8.85169 8.89268C8.68544 8.69185 8.49419 8.63893 8.35419 8.60018C8.30752 8.58727 8.26669 8.57602 8.2371 8.56185C8.1721 8.52727 8.14835 8.47727 8.13085 8.4406C8.11752 8.41227 8.1021 8.3806 8.0671 8.3906C8.0496 8.39643 8.0371 8.41268 8.03335 8.43518C8.02335 8.4931 8.06669 8.59727 8.18544 8.68935C8.23835 8.72852 8.2896 8.74685 8.34419 8.76685C8.44752 8.80435 8.5646 8.84727 8.73919 9.05102C8.87585 9.2106 8.99627 9.27185 9.11294 9.3306C9.18002 9.36435 9.24502 9.39727 9.3096 9.44852L7.83627 8.9031C7.80377 8.88977 7.76127 8.89102 7.7446 8.92768C7.73044 8.96977 7.77085 8.99935 7.79294 9.00852L9.17127 9.64185C9.10419 9.63393 9.03919 9.63102 8.97502 9.62893C8.82627 9.62352 8.68585 9.61852 8.54127 9.54393C8.31085 9.42185 8.11377 9.44643 7.9696 9.46393C7.92127 9.46977 7.88002 9.47518 7.84669 9.47352C7.77335 9.46643 7.7321 9.42935 7.7021 9.40227C7.67877 9.38143 7.65252 9.35768 7.62377 9.3806C7.6096 9.39268 7.6046 9.41268 7.6096 9.43477C7.62252 9.49227 7.70252 9.57185 7.84752 9.61143C7.91127 9.62727 7.96585 9.62477 8.02377 9.62227C8.13377 9.61727 8.25835 9.61185 8.49752 9.73352C8.68502 9.82852 8.8196 9.83893 8.9496 9.84893C9.0246 9.85477 9.0971 9.86018 9.17669 9.88268L7.6071 9.94268C7.57169 9.94268 7.53335 9.96018 7.5321 10.0006C7.53544 10.0448 7.58335 10.0564 7.60752 10.0564L9.12294 10.1139C9.05835 10.1323 8.9971 10.1548 8.9371 10.1773C8.79752 10.2293 8.66585 10.2785 8.50377 10.2648C8.2446 10.2402 8.07127 10.3381 7.94502 10.4098C7.90252 10.4339 7.86627 10.4543 7.83502 10.4656C7.7646 10.4868 7.71252 10.4685 7.67419 10.4552C7.6446 10.4448 7.61127 10.4331 7.59377 10.4648C7.58544 10.4814 7.58835 10.5018 7.60127 10.5202C7.63544 10.5681 7.7396 10.611 7.88877 10.5923C7.95377 10.5823 8.00335 10.5593 8.05544 10.5348C8.15502 10.4881 8.26794 10.4356 8.53544 10.4564C8.74502 10.4727 8.87335 10.4306 8.99752 10.3898C9.06877 10.3664 9.13794 10.3435 9.22002 10.3339L7.79252 10.9902C7.76002 11.0039 7.73085 11.0343 7.74544 11.0723C7.7571 11.0956 7.77877 11.1027 7.79877 11.1027C7.81335 11.1027 7.8271 11.0989 7.83669 11.0952L9.25919 10.5685C9.20627 10.6102 9.15835 10.6543 9.11127 10.6981C9.0021 10.7993 8.89919 10.8952 8.7446 10.9448C8.49544 11.0214 8.37335 11.1781 8.28377 11.2923C8.25377 11.3306 8.22794 11.3635 8.20377 11.386C8.14669 11.4327 8.09169 11.4356 8.05127 11.4377C8.02002 11.4393 7.9846 11.441 7.98044 11.4777C7.97919 11.4964 7.9896 11.5139 8.00877 11.526C8.05877 11.5573 8.17127 11.5573 8.30169 11.4827C8.35794 11.4485 8.39502 11.4085 8.43377 11.366C8.50794 11.2848 8.5921 11.1931 8.84752 11.1098C9.0471 11.0448 9.1496 10.9564 9.24877 10.8714C9.30585 10.8223 9.36085 10.7752 9.43294 10.7348L8.36544 11.8873C8.34044 11.9123 8.32544 11.9518 8.35335 11.9814C8.36419 11.991 8.37627 11.9948 8.38794 11.9948C8.4121 11.9948 8.43502 11.9793 8.44627 11.9677L9.55877 10.9368C9.52585 10.9956 9.49835 11.0548 9.47169 11.1131C9.4096 11.2485 9.35127 11.3764 9.2271 11.4814C9.02627 11.6477 8.97335 11.8389 8.9346 11.9789C8.92169 12.0256 8.91044 12.0664 8.89627 12.096C8.86169 12.161 8.81169 12.1848 8.77502 12.2023C8.74669 12.2156 8.71502 12.231 8.72502 12.266C8.73085 12.2835 8.7471 12.296 8.7696 12.2998C8.82794 12.3102 8.93169 12.2664 9.02377 12.1477C9.06294 12.0948 9.08127 12.0435 9.10127 11.9893C9.13877 11.886 9.18169 11.7689 9.38544 11.5943C9.54502 11.4577 9.60627 11.3373 9.66502 11.2206C9.69877 11.1535 9.73169 11.0885 9.78294 11.0239L9.23752 12.4973C9.22419 12.5298 9.22544 12.5723 9.2621 12.5889C9.26835 12.591 9.27377 12.5918 9.2796 12.5918C9.31252 12.5918 9.33502 12.5598 9.34294 12.5406L9.97627 11.1623C9.96835 11.2293 9.96544 11.2943 9.96335 11.3585C9.95794 11.5073 9.95294 11.6477 9.87835 11.7923C9.75627 12.0227 9.78085 12.2198 9.79835 12.3639C9.80419 12.4123 9.8096 12.4539 9.80794 12.4868C9.80085 12.5602 9.76377 12.6014 9.73669 12.6314C9.71585 12.6548 9.6921 12.681 9.71502 12.7098C9.7271 12.7239 9.7471 12.7289 9.76919 12.7239C9.82669 12.711 9.90627 12.631 9.94585 12.486C9.96169 12.4223 9.95919 12.3677 9.95669 12.3098C9.95169 12.1998 9.94627 12.0752 10.0679 11.836C10.1629 11.6485 10.1734 11.5139 10.1834 11.3839C10.1892 11.3089 10.1946 11.2364 10.2171 11.1568L10.2771 12.7264C10.2771 12.7618 10.2946 12.8002 10.335 12.8014C10.3796 12.7981 10.3909 12.7502 10.3909 12.726L10.4484 11.2102C10.4667 11.2752 10.4892 11.3364 10.5113 11.3964C10.5634 11.536 10.6121 11.6677 10.5988 11.8298C10.5742 12.0893 10.6721 12.2623 10.7438 12.3885C10.7679 12.4306 10.7884 12.4673 10.7996 12.4985C10.8209 12.5689 10.8025 12.621 10.7892 12.6593C10.7788 12.6889 10.7671 12.7223 10.7988 12.7398C10.805 12.7431 10.8121 12.7443 10.8192 12.7443C10.8309 12.7443 10.8429 12.7402 10.8546 12.7318C10.9025 12.6977 10.9459 12.5935 10.9267 12.4443C10.9167 12.3793 10.8938 12.3298 10.8692 12.2777C10.8225 12.1781 10.77 12.0652 10.7909 11.7977C10.8071 11.5881 10.765 11.4598 10.7242 11.3356C10.7009 11.2643 10.6779 11.1952 10.6684 11.1131L11.3246 12.5406C11.3384 12.5731 11.3692 12.6023 11.4067 12.5877C11.4467 12.5677 11.4388 12.5185 11.4296 12.4964L10.9029 11.0739C10.9446 11.1268 10.9888 11.1748 11.0325 11.2218C11.1338 11.331 11.2296 11.4339 11.2792 11.5885C11.3559 11.8377 11.5125 11.9598 11.6267 12.0489C11.665 12.0789 11.6979 12.1048 11.7204 12.1289C11.7671 12.186 11.77 12.241 11.7721 12.2814C11.7738 12.3127 11.7754 12.3481 11.8121 12.3523C11.8134 12.3523 11.8142 12.3523 11.8154 12.3523C11.8329 12.3523 11.8492 12.3418 11.8604 12.3239C11.8917 12.2739 11.8917 12.1614 11.8171 12.031C11.7829 11.9748 11.7429 11.9377 11.7004 11.8989C11.6192 11.8248 11.5275 11.7406 11.4442 11.4852C11.3792 11.2856 11.2909 11.1831 11.2059 11.0839C11.1567 11.0268 11.1096 10.9718 11.0692 10.8998L12.2217 11.9673C12.2467 11.9923 12.2863 12.0073 12.3154 11.9793C12.3446 11.9456 12.3188 11.9035 12.3017 11.8864L11.2709 10.7739C11.3296 10.8068 11.3888 10.8343 11.4471 10.861C11.5825 10.9231 11.7104 10.9814 11.8154 11.1056C11.9817 11.3064 12.1729 11.3593 12.3129 11.3981C12.3596 11.411 12.4 11.4223 12.43 11.436C12.495 11.4706 12.5188 11.5206 12.5363 11.5573C12.5479 11.5818 12.5609 11.6093 12.5875 11.6093C12.5913 11.6093 12.5959 11.6089 12.6 11.6077C12.6175 11.6018 12.63 11.5856 12.6338 11.5631C12.6438 11.5052 12.6004 11.401 12.4817 11.3089C12.4288 11.2698 12.3775 11.2514 12.3234 11.2314C12.22 11.1939 12.1029 11.151 11.9284 10.9473C11.7917 10.7877 11.6713 10.7264 11.5546 10.6677C11.4875 10.6339 11.4225 10.601 11.3579 10.5498L12.8313 11.0952C12.8638 11.1085 12.9063 11.1073 12.9229 11.0706C12.9371 11.0285 12.8971 10.9993 12.8746 10.9898L11.4963 10.3564C11.5629 10.3643 11.6284 10.3673 11.6925 10.3693C11.8413 10.3748 11.9817 10.3798 12.1263 10.4543C12.3567 10.5764 12.5538 10.5518 12.6979 10.5343C12.7463 10.5285 12.7875 10.5235 12.8209 10.5248C12.8942 10.5318 12.9354 10.5689 12.9654 10.596C12.9821 10.611 13 10.6273 13.0192 10.6273C13.0271 10.6273 13.035 10.6248 13.0434 10.6181C13.0575 10.606 13.0625 10.586 13.0575 10.5639C13.0446 10.5064 12.9646 10.4268 12.8196 10.3873C12.7559 10.3714 12.7013 10.3739 12.6434 10.3764C12.5334 10.3814 12.4088 10.3868 12.1696 10.2652C11.9821 10.1698 11.8475 10.1598 11.7171 10.1498C11.6421 10.1439 11.5696 10.1385 11.49 10.116L13.0596 10.056C13.095 10.056 13.1334 10.0385 13.1346 9.9981C13.1313 9.95393 13.0834 9.94227 13.0592 9.94227L13.0596 9.94143ZM11.6829 9.64977C11.8029 9.6106 11.9271 9.56977 12.1279 9.58518C12.4071 9.60685 12.5254 9.55143 12.63 9.50268C12.6817 9.47852 12.7259 9.45768 12.7842 9.44893C12.9229 9.43143 13.0079 9.47268 13.0296 9.50268C13.0317 9.50518 13.0325 9.50768 13.0334 9.50935C13.0267 9.5081 13.0159 9.50393 13.0075 9.50102C12.9663 9.48643 12.9038 9.46435 12.8184 9.49018C12.7829 9.5031 12.7446 9.52477 12.7009 9.54977C12.5796 9.61852 12.4138 9.71227 12.1679 9.68893C11.9959 9.67477 11.8596 9.72518 11.7154 9.77893C11.5992 9.82227 11.4796 9.86602 11.3363 9.87518L11.0125 9.86268L11.3409 9.71185C11.4809 9.7156 11.5796 9.6831 11.6834 9.64893L11.6829 9.64977ZM12.8459 8.94393C12.8459 8.94393 12.8754 8.93268 12.8809 8.9431C12.8842 8.95185 12.8642 8.96393 12.8563 8.96727L11.3317 9.6681C11.3067 9.66727 11.2804 9.66518 11.2525 9.66143L11.2471 9.70518C11.2471 9.70518 11.2496 9.70518 11.2509 9.7056L10.9154 9.85977L10.815 9.85602L12.0663 9.28352L10.7696 9.76477L10.8429 9.6856L11.1446 9.57393L11.1463 9.57852C11.1763 9.56768 11.2042 9.55518 11.2309 9.54185L12.8467 8.94352L12.8459 8.94393ZM10.3354 9.99977V10.0006L10.3346 10.001H10.3338H10.3329H10.3321L10.3317 10.0002V9.99935V9.99852V9.99768L10.3325 9.99727H10.3334H10.3342H10.335L10.3354 9.9981V9.99893V9.99977ZM10.5825 9.83393L10.6563 9.75435L10.7509 9.71935L10.6775 9.79852L10.5825 9.83393ZM10.5004 9.75102L10.5384 9.64935L10.6121 9.58102L10.5746 9.68227L10.5004 9.75102ZM10.3929 9.70602L10.3888 9.59768L10.4309 9.50602L10.435 9.61393L10.3929 9.70602ZM10.2763 9.70602L10.2313 9.60727L10.235 9.50643L10.28 9.60435L10.2763 9.7056V9.70602ZM10.1684 9.75018L10.0888 9.67643L10.0538 9.58185L10.1329 9.65518L10.1684 9.75018ZM10.0854 9.83227L9.98377 9.79435L9.91544 9.7206L10.0167 9.7581L10.0854 9.83227ZM10.0404 9.93977L9.9321 9.94393L9.84044 9.90185L9.94835 9.89768L10.0404 9.93977ZM10.0404 10.0564L9.94169 10.1014L9.84085 10.0977L9.93877 10.0527L10.04 10.0564H10.0404ZM10.0846 10.1643L10.0109 10.2439L9.91627 10.2789L9.9896 10.1998L10.0846 10.1643ZM10.1667 10.2473L10.1288 10.3489L10.055 10.4173L10.0925 10.316L10.1667 10.2473ZM10.2742 10.2923L10.2784 10.4006L10.2363 10.4923L10.2321 10.3843L10.2742 10.2923ZM10.3909 10.2923L10.4359 10.391L10.4321 10.4918L10.3871 10.3939L10.3909 10.2927V10.2923ZM10.4988 10.2481L10.5784 10.3218L10.6134 10.4164L10.5342 10.3431L10.4988 10.2481ZM10.5817 10.166L10.6834 10.2039L10.7517 10.2777L10.6504 10.2402L10.5817 10.166ZM10.6267 10.0585L10.735 10.0543L10.8267 10.0964L10.7188 10.1006L10.6267 10.0585ZM10.6267 9.94185L10.7254 9.89685L10.8263 9.9006L10.7284 9.9456L10.6271 9.94185H10.6267ZM11.4463 9.15977C11.5421 9.07727 11.6413 8.99227 11.8325 8.92977C12.0988 8.8431 12.1871 8.74643 12.265 8.66143C12.3034 8.61935 12.3367 8.5831 12.3871 8.55268C12.5079 8.48352 12.6029 8.48893 12.6346 8.50852C12.6375 8.51018 12.6392 8.51185 12.6404 8.5131C12.6338 8.51435 12.6221 8.51518 12.6134 8.5156C12.5696 8.5181 12.5034 8.52143 12.4342 8.5781C12.4063 8.60352 12.3792 8.6381 12.3484 8.6781C12.2629 8.78768 12.1454 8.9381 11.9092 9.01102C11.7446 9.06352 11.6384 9.16268 11.5254 9.26727C11.4346 9.35185 11.3409 9.4381 11.2121 9.50143L10.9084 9.61393L11.1542 9.34893C11.2846 9.29893 11.3638 9.23102 11.4467 9.15977H11.4463ZM12.2504 8.06227C12.2504 8.06227 12.2738 8.0406 12.2825 8.0481C12.2892 8.05518 12.275 8.07393 12.2692 8.07977L11.1288 9.3106C11.1054 9.31935 11.08 9.32727 11.0529 9.33477L11.0646 9.37727C11.0646 9.37727 11.0671 9.37643 11.0679 9.37643L10.8171 9.64727L10.7229 9.68227L11.6596 8.67435L10.6459 9.61518L10.6834 9.51393L10.9192 9.2956L10.9225 9.29935C10.9463 9.27768 10.9671 9.2556 10.9867 9.2331L12.2504 8.06185V8.06227ZM11.0404 8.79768C11.0975 8.68477 11.1567 8.56852 11.3096 8.43768C11.5221 8.2556 11.5671 8.13268 11.6063 8.02435C11.6259 7.97102 11.6425 7.92477 11.6775 7.87727C11.7629 7.76685 11.8529 7.7356 11.8892 7.74185C11.8925 7.74227 11.895 7.7431 11.8967 7.74393C11.8909 7.74768 11.8804 7.75268 11.8725 7.75643C11.8329 7.77518 11.7729 7.80393 11.7309 7.88268C11.715 7.91685 11.7034 7.95893 11.6896 8.00768C11.6525 8.14185 11.6017 8.3256 11.4113 8.4831C11.2796 8.59477 11.2188 8.72685 11.155 8.86685C11.1034 8.97977 11.0496 9.0956 10.955 9.2031L10.7175 9.4231L10.8429 9.08435C10.9442 8.98852 10.9913 8.89518 11.0409 8.79768H11.0404ZM11.3638 7.47602C11.3638 7.47602 11.3775 7.44727 11.3879 7.45102C11.3967 7.45477 11.3909 7.47768 11.3879 7.4856L10.8054 9.05935C10.7871 9.07643 10.7671 9.09352 10.7446 9.1106L10.7713 9.1456C10.7713 9.1456 10.7734 9.14393 10.7742 9.14352L10.6459 9.48977L10.5721 9.5581L11.0517 8.26852L10.4754 9.5256L10.4713 9.4181L10.6054 9.12602L10.61 9.1281C10.6234 9.09893 10.6342 9.0706 10.6438 9.04268L11.3634 7.47685L11.3638 7.47602ZM10.5271 8.61852C10.5367 8.49268 10.5467 8.36227 10.6379 8.18268C10.7646 7.9331 10.7592 7.80268 10.7538 7.68727C10.7513 7.6306 10.7492 7.58143 10.7634 7.52393C10.8 7.38935 10.8709 7.32602 10.9071 7.3181C10.9104 7.31727 10.9129 7.31727 10.9146 7.31727C10.9109 7.32268 10.9029 7.33143 10.8971 7.3381C10.8679 7.3706 10.8234 7.42018 10.8146 7.50893C10.8129 7.54685 10.8184 7.59018 10.8246 7.64018C10.8417 7.7781 10.865 7.96727 10.7492 8.18602C10.67 8.33935 10.6646 8.48477 10.6592 8.63852C10.6546 8.76227 10.6496 8.88977 10.6034 9.0256L10.4679 9.31977L10.4542 8.95852C10.5109 8.83102 10.5188 8.72685 10.5271 8.6181V8.61852ZM10.32 7.27393C10.32 7.27393 10.3213 7.24227 10.3329 7.24143C10.3425 7.24143 10.3459 7.26477 10.3459 7.27352L10.41 8.9506C10.3996 8.97352 10.3875 8.99685 10.3734 9.02143L10.4117 9.04352C10.4117 9.04352 10.4129 9.04143 10.4134 9.0406L10.4275 9.40977L10.3854 9.50102L10.335 8.12602L10.2838 9.5081L10.2388 9.41018L10.2509 9.08893H10.2559C10.2571 9.05727 10.2563 9.02685 10.2546 8.99727L10.32 7.27518V7.27393ZM9.98419 8.64977C9.94502 8.52977 9.90419 8.4056 9.9196 8.20477C9.94127 7.9256 9.88585 7.80727 9.8371 7.70268C9.81294 7.65102 9.7921 7.60685 9.78335 7.54852C9.76585 7.41018 9.8071 7.32477 9.8371 7.3031C9.8396 7.30102 9.8421 7.30018 9.84377 7.29935C9.84252 7.30602 9.83835 7.31685 9.83544 7.32518C9.82085 7.36643 9.79877 7.42893 9.8246 7.51435C9.83752 7.54977 9.85919 7.5881 9.88419 7.63185C9.95294 7.7531 10.0467 7.91893 10.0234 8.16477C10.0092 8.33685 10.0596 8.4731 10.1134 8.61727C10.1567 8.73352 10.2004 8.8531 10.2096 8.99643L10.1971 9.32018L10.0463 8.99185C10.05 8.85227 10.0175 8.7531 9.98335 8.64935L9.98419 8.64977ZM9.27835 7.48685C9.27835 7.48685 9.2671 7.45727 9.27752 7.45185C9.28627 7.44852 9.29835 7.46852 9.30169 7.47643L10.0025 9.00102C10.0017 9.02602 9.9996 9.05227 9.99585 9.08018L10.0396 9.0856C10.0396 9.0856 10.0396 9.0831 10.04 9.08185L10.1942 9.41727L10.1904 9.51768L9.61794 8.26643L10.0992 9.5631L10.02 9.48977L9.90835 9.1881L9.91294 9.18643C9.9021 9.15643 9.8896 9.12852 9.87627 9.10185L9.27794 7.4856L9.27835 7.48685ZM9.4946 8.88643C9.4121 8.7906 9.3271 8.69143 9.2646 8.50018C9.17794 8.23393 9.08127 8.1456 8.99627 8.06768C8.95419 8.02935 8.91794 7.99602 8.88752 7.9456C8.81835 7.82477 8.82377 7.72977 8.84335 7.6981C8.84502 7.69518 8.84669 7.69352 8.84794 7.69227C8.84919 7.69893 8.85002 7.7106 8.85044 7.71935C8.85294 7.7631 8.85627 7.82935 8.91294 7.89852C8.93835 7.92643 8.97294 7.95352 9.01294 7.98435C9.12252 8.07018 9.27294 8.18727 9.34585 8.42352C9.39835 8.5881 9.49752 8.69435 9.6021 8.80727C9.68669 8.8981 9.77294 8.99185 9.83627 9.1206L9.94877 9.42435L9.68377 9.17852C9.63377 9.0481 9.56585 8.96893 9.4946 8.88602V8.88643ZM8.3971 8.08227C8.3971 8.08227 8.37544 8.05893 8.38294 8.05018C8.39002 8.04352 8.40877 8.05768 8.4146 8.06352L9.64544 9.20393C9.65419 9.22727 9.6621 9.25268 9.6696 9.27977L9.7121 9.2681C9.7121 9.2681 9.71127 9.2656 9.71127 9.26477L9.9821 9.5156L10.0171 9.60977L9.00919 8.6731L9.95002 9.68685L9.84877 9.64935L9.63044 9.41352L9.63419 9.41018C9.61252 9.38643 9.59044 9.3656 9.56835 9.34602L8.3971 8.08185V8.08227ZM9.13252 9.29227C9.02002 9.23518 8.90335 9.17643 8.77252 9.0231C8.59044 8.8106 8.46752 8.7656 8.35919 8.72643C8.30585 8.70685 8.2596 8.69018 8.2121 8.65518C8.10169 8.56977 8.07044 8.48018 8.07669 8.44352C8.0771 8.44018 8.07794 8.43768 8.07877 8.43643C8.08252 8.44227 8.08752 8.45268 8.09127 8.4606C8.11002 8.50018 8.13877 8.56018 8.21752 8.60227C8.25169 8.6181 8.29377 8.62977 8.34252 8.64352C8.47669 8.6806 8.66044 8.73143 8.81794 8.92185C8.9296 9.05352 9.06169 9.11435 9.20169 9.1781C9.3146 9.22977 9.43044 9.28352 9.53794 9.3781L9.75794 9.6156L9.41877 9.49018C9.32294 9.38893 9.2296 9.34185 9.1321 9.29227H9.13252ZM7.81085 8.96935C7.81085 8.96935 7.7821 8.95643 7.78544 8.94518C7.7896 8.93643 7.8121 8.94227 7.82002 8.94518L9.39377 9.52768C9.41085 9.54602 9.42794 9.56602 9.44502 9.58852L9.48002 9.56143C9.48002 9.56143 9.47835 9.55935 9.47794 9.55852L9.82419 9.68685L9.89252 9.7606L8.60294 9.28102L9.86002 9.85727L9.75252 9.86143L9.46044 9.72727L9.46252 9.72268C9.43335 9.70935 9.40502 9.69852 9.3771 9.68893L7.81127 8.96935H7.81085ZM8.95335 9.80602C8.82752 9.79643 8.6971 9.78643 8.51752 9.69518C8.26794 9.56852 8.13752 9.57435 8.0221 9.57935C7.96544 9.58185 7.91627 9.58393 7.85877 9.56977C7.72419 9.5331 7.66085 9.46227 7.65294 9.42602C7.6521 9.42268 7.6521 9.42018 7.6521 9.41852C7.65752 9.42227 7.66627 9.43018 7.67294 9.43602C7.70544 9.46518 7.75502 9.50977 7.84377 9.51852C7.88169 9.52018 7.92502 9.51477 7.97502 9.50852C8.11335 9.49143 8.30252 9.4681 8.52085 9.58393C8.67419 9.6631 8.8196 9.66852 8.97335 9.67393C9.09752 9.67852 9.22502 9.68352 9.36085 9.73018L9.65502 9.86518L9.29377 9.87893C9.16627 9.82227 9.0621 9.81435 8.95335 9.80602ZM7.60877 10.0131C7.60877 10.0131 7.5771 10.0118 7.57627 10.0002C7.57627 9.9906 7.5996 9.98727 7.60835 9.98727L9.28544 9.9231C9.30835 9.93352 9.33169 9.9456 9.35627 9.95977L9.37835 9.92143C9.37835 9.92143 9.37627 9.92018 9.37502 9.91977L9.74419 9.9056L9.83544 9.94768L8.46044 9.9981L9.84252 10.0493L9.7446 10.0943L9.42335 10.0823V10.0773C9.39127 10.076 9.36085 10.0768 9.33085 10.0785L7.6096 10.0131H7.60877ZM8.9846 10.3489C8.8646 10.3881 8.74044 10.4293 8.5396 10.4135C8.26044 10.3918 8.1421 10.4473 8.03752 10.496C7.98585 10.5202 7.94169 10.5406 7.88335 10.5498C7.74502 10.5673 7.6596 10.526 7.63794 10.496C7.63585 10.4935 7.63502 10.491 7.63419 10.4893C7.64085 10.4906 7.65169 10.4948 7.66002 10.4977C7.70127 10.5123 7.76377 10.5343 7.84919 10.5085C7.8846 10.4956 7.92294 10.4739 7.96669 10.4489C8.08794 10.3802 8.25377 10.2864 8.4996 10.3098C8.67169 10.3239 8.80794 10.2735 8.9521 10.2198C9.06835 10.1764 9.18794 10.1327 9.33085 10.1235L9.65502 10.136L9.32669 10.2868C9.1871 10.2831 9.08794 10.3156 8.98419 10.3498L8.9846 10.3489ZM7.82169 11.0552C7.82169 11.0552 7.7921 11.0664 7.78669 11.0556C7.78335 11.0468 7.80335 11.0348 7.81127 11.0314L9.33585 10.3306C9.36085 10.3314 9.3871 10.3339 9.41502 10.3373L9.42044 10.2935C9.42044 10.2935 9.41794 10.2935 9.41669 10.2931L9.7521 10.1389L9.85252 10.1427L8.60127 10.7156L9.89794 10.2343L9.8246 10.3135L9.52335 10.4252L9.52169 10.4206C9.49169 10.4314 9.46377 10.4439 9.4371 10.4573L7.82085 11.0556L7.82169 11.0552ZM9.22127 10.8389C9.12544 10.9214 9.02627 11.0064 8.83502 11.0689C8.56877 11.1556 8.48044 11.2523 8.40252 11.3373C8.36419 11.3793 8.33085 11.4156 8.28044 11.446C8.15919 11.5152 8.0646 11.5098 8.03294 11.4902C8.03002 11.4885 8.02835 11.4868 8.0271 11.4856C8.03377 11.4843 8.04544 11.4839 8.05419 11.4831C8.09794 11.4806 8.16419 11.4773 8.23335 11.4206C8.26127 11.3952 8.28835 11.3606 8.31919 11.3206C8.4046 11.211 8.5221 11.0606 8.75835 10.9877C8.92294 10.9352 9.02919 10.836 9.1421 10.7314C9.23294 10.6468 9.32669 10.5606 9.45544 10.4973L9.75919 10.3848L9.51335 10.6498C9.38294 10.6998 9.30377 10.7677 9.22085 10.8389H9.22127ZM8.4171 11.9364C8.4171 11.9364 8.39419 11.9581 8.38502 11.9502C8.37835 11.9431 8.39252 11.9243 8.39835 11.9185L9.53877 10.6877C9.5621 10.6789 9.58752 10.671 9.6146 10.6635L9.60294 10.621C9.60294 10.621 9.60044 10.6218 9.5996 10.6218L9.85044 10.351L9.9446 10.316L9.00794 11.3239L10.0217 10.3831L9.98419 10.4843L9.74835 10.7027L9.74502 10.6989C9.72127 10.7206 9.70044 10.7427 9.68085 10.7652L8.4171 11.9364ZM9.6271 11.201C9.57002 11.3139 9.51127 11.4302 9.35794 11.561C9.14544 11.7431 9.10044 11.866 9.06127 11.9743C9.04169 12.0277 9.02502 12.0739 8.99002 12.1214C8.9046 12.2318 8.81502 12.2631 8.77835 12.2568C8.77502 12.2564 8.77252 12.2556 8.77127 12.2548C8.7771 12.251 8.78752 12.246 8.79544 12.2423C8.83502 12.2235 8.89502 12.1948 8.9371 12.116C8.95294 12.0818 8.9646 12.0398 8.97835 11.991C9.01544 11.8568 9.06627 11.6731 9.25669 11.5156C9.38835 11.4039 9.44919 11.2718 9.51294 11.1318C9.5646 11.0193 9.61794 10.9035 9.71252 10.7956L9.95044 10.5752L9.82502 10.9143C9.72377 11.0102 9.67669 11.1035 9.6271 11.201ZM9.30419 12.5227C9.30419 12.5227 9.29085 12.551 9.28002 12.5477C9.27127 12.5439 9.2771 12.521 9.28002 12.5131L9.86252 10.9393C9.88085 10.9223 9.90085 10.9052 9.92335 10.8881L9.89669 10.8531C9.89669 10.8531 9.8946 10.8548 9.89377 10.8552L10.0221 10.5089L10.0959 10.4406L9.61627 11.7302L10.1925 10.4731L10.1967 10.5806L10.0625 10.8727L10.0579 10.8706C10.0446 10.8998 10.0338 10.9281 10.0242 10.956L9.3046 12.5218L9.30419 12.5227ZM10.1409 11.3802C10.1313 11.506 10.1213 11.6364 10.03 11.816C9.90335 12.0656 9.90877 12.196 9.91419 12.3114C9.91669 12.3681 9.91877 12.4173 9.9046 12.4748C9.86794 12.6093 9.7971 12.6727 9.76085 12.6806C9.75752 12.6814 9.75544 12.6814 9.75335 12.6814C9.7571 12.676 9.76502 12.6673 9.77085 12.6606C9.80002 12.6281 9.8446 12.5789 9.85335 12.4898C9.85502 12.4518 9.8496 12.4085 9.84335 12.3585C9.82627 12.2202 9.80294 12.031 9.91877 11.8127C9.99794 11.6593 10.0034 11.5139 10.0088 11.3602C10.0134 11.236 10.0184 11.1085 10.065 10.9727L10.2 10.6785L10.2138 11.0398C10.1571 11.1673 10.1492 11.2714 10.1409 11.3802ZM10.3479 12.7248C10.3479 12.7248 10.3467 12.7564 10.335 12.7573C10.3254 12.7573 10.3221 12.7339 10.3221 12.7252L10.2579 11.0485C10.2684 11.0256 10.2804 11.0023 10.2946 10.9777L10.2563 10.9556C10.2563 10.9556 10.255 10.9577 10.2546 10.9589L10.2404 10.5898L10.2825 10.4985L10.3329 11.8735L10.3842 10.4914L10.4292 10.5893L10.4171 10.9106H10.4121C10.4109 10.9423 10.4117 10.9727 10.4134 11.0023L10.3479 12.7243V12.7248ZM10.6838 11.3489C10.7229 11.4689 10.7638 11.5931 10.7484 11.7939C10.7267 12.0731 10.7821 12.1914 10.8309 12.296C10.855 12.3477 10.8754 12.3918 10.8846 12.4502C10.9021 12.5885 10.8609 12.6739 10.8309 12.6956C10.8284 12.6977 10.8259 12.6985 10.8242 12.6993C10.8254 12.6927 10.8296 12.6818 10.8325 12.6735C10.8471 12.6323 10.8692 12.5698 10.8434 12.4843C10.8304 12.4489 10.8088 12.4106 10.7838 12.3668C10.715 12.2456 10.6213 12.0798 10.6446 11.8339C10.6588 11.6618 10.6084 11.5256 10.5546 11.3814C10.5113 11.2652 10.4675 11.1452 10.4584 11.0018L10.4709 10.6785L10.6217 11.0068C10.6179 11.1464 10.6504 11.2456 10.6846 11.3493L10.6838 11.3489ZM11.39 12.5118C11.39 12.5118 11.4013 12.5414 11.3904 12.5468C11.3809 12.5502 11.3696 12.5302 11.3663 12.5223L10.6654 10.9977C10.6663 10.9727 10.6688 10.9464 10.6721 10.9185L10.6284 10.9131C10.6284 10.9131 10.6284 10.9156 10.6279 10.9164L10.4738 10.581L10.4775 10.4806L11.0504 11.7318L10.5692 10.4352L10.6484 10.5085L10.76 10.8102L10.7554 10.8118C10.7663 10.8418 10.7788 10.8698 10.7921 10.8964L11.3904 12.5123L11.39 12.5118ZM11.1738 11.1127C11.2563 11.2085 11.3413 11.3077 11.4038 11.4989C11.4904 11.7652 11.5871 11.8535 11.6721 11.9314C11.7142 11.9698 11.7504 12.0031 11.7809 12.0535C11.85 12.1748 11.8446 12.2693 11.825 12.301C11.8234 12.3039 11.8217 12.3056 11.8204 12.3068C11.8192 12.3002 11.8188 12.2885 11.8179 12.2798C11.8154 12.236 11.8121 12.1698 11.7554 12.1006C11.73 12.0727 11.6954 12.0456 11.6554 12.0148C11.5459 11.9293 11.3954 11.8118 11.3229 11.5756C11.2704 11.411 11.1713 11.3048 11.0667 11.1918C10.9821 11.101 10.8959 11.0073 10.8325 10.8785L10.72 10.5748L10.985 10.8202C11.035 10.9506 11.1029 11.0298 11.1742 11.1127H11.1738ZM12.2713 11.9168C12.2713 11.9168 12.2929 11.9402 12.285 11.9489C12.2779 11.9552 12.2592 11.9414 12.2534 11.9356L11.0225 10.7952C11.0138 10.7718 11.0059 10.7464 10.9984 10.7193L10.9559 10.731C10.9559 10.731 10.9567 10.7335 10.9567 10.7343L10.6859 10.4835L10.6509 10.3893L11.6588 11.326L10.7179 10.3123L10.8192 10.3498L11.0375 10.5856L11.0338 10.5889C11.0554 10.6127 11.0775 10.6335 11.1 10.6531L12.2713 11.9168ZM11.5359 10.7068C11.6488 10.7639 11.765 10.8231 11.8959 10.976C12.0779 11.1885 12.2009 11.2335 12.3092 11.2727C12.3625 11.2923 12.4088 11.3089 12.4563 11.3439C12.5667 11.4293 12.5979 11.5189 12.5917 11.5556C12.5913 11.5589 12.5904 11.5614 12.5896 11.5627C12.5859 11.5568 12.5809 11.5464 12.5771 11.5385C12.5584 11.4989 12.5296 11.4389 12.4509 11.3968C12.4167 11.381 12.3746 11.3693 12.3259 11.3556C12.1917 11.3185 12.0079 11.2677 11.8504 11.0773C11.7388 10.9456 11.6067 10.8848 11.4667 10.821C11.3542 10.7693 11.2384 10.716 11.1309 10.6214L10.9104 10.3835L11.2492 10.5089C11.345 10.6102 11.4384 10.6573 11.5359 10.7068ZM12.8575 11.0298C12.8575 11.0298 12.8863 11.0427 12.8825 11.0539C12.8788 11.0627 12.8559 11.0568 12.8479 11.0539L11.2742 10.4714C11.2571 10.4531 11.24 10.4331 11.2229 10.4106L11.1879 10.4373C11.1879 10.4373 11.1896 10.4393 11.19 10.4402L10.8438 10.3118L10.7754 10.2381L12.065 10.7177L10.8079 10.1414L10.9154 10.1373L11.2075 10.2714L11.2054 10.276C11.2346 10.2893 11.2629 10.3002 11.2909 10.3098L12.8567 11.0293L12.8575 11.0298ZM11.715 10.1931C11.8409 10.2027 11.9713 10.2127 12.1509 10.3039C12.4004 10.4306 12.5309 10.4248 12.6463 10.4198C12.7029 10.4173 12.7521 10.4152 12.8096 10.4293C12.9442 10.466 13.0075 10.5368 13.0154 10.5731C13.0163 10.5764 13.0163 10.5789 13.0163 10.5806C13.0109 10.5768 13.0021 10.5689 12.9954 10.5631C12.9629 10.5339 12.9138 10.4893 12.8246 10.4806C12.7867 10.4789 12.7434 10.4843 12.6934 10.4906C12.555 10.5077 12.3663 10.531 12.1475 10.4152C11.9938 10.336 11.8488 10.3306 11.695 10.3252C11.5713 10.3206 11.4438 10.3156 11.3079 10.2693L11.0138 10.1339L11.375 10.1202C11.5025 10.1768 11.6067 10.1848 11.7154 10.1931H11.715ZM13.0604 10.0118L11.3838 10.076C11.3609 10.0656 11.3375 10.0535 11.3129 10.0393L11.2909 10.0777C11.2909 10.0777 11.2929 10.0789 11.2942 10.0793L10.925 10.0935L10.8338 10.0514L12.2088 10.001L10.8267 9.94977L10.9246 9.90477L11.2459 9.91685V9.92185C11.2779 9.9231 11.3084 9.92227 11.3379 9.9206L13.0596 9.98602C13.0596 9.98602 13.0913 9.98727 13.0921 9.99893C13.0921 10.0085 13.0688 10.0118 13.06 10.0118H13.0604Z" fill="#85340A"/>
<g id="Group_2">
<path id="Vector_5" d="M10.5055 10.9756C10.5255 11.3356 10.7297 11.4956 10.6897 11.8277C10.7776 11.5677 10.5655 11.3635 10.5776 10.9798L10.5055 10.9756Z" fill="#85340A"/>
<path id="Vector_6" d="M9.96258 11.8253C10.1434 11.6186 10.0255 11.349 10.1834 10.999L10.1184 10.9678C9.99924 11.3082 10.1263 11.534 9.96216 11.8253H9.96258Z" fill="#85340A"/>
<path id="Vector_7" d="M9.2926 11.544C9.53885 11.4224 9.53302 11.1282 9.81302 10.8653L9.7651 10.8115C9.52469 11.0803 9.55594 11.3378 9.2926 11.544Z" fill="#85340A"/>
<path id="Vector_8" d="M9.49755 10.5322C9.17255 10.6885 9.10297 10.9381 8.78088 11.0281C9.05463 11.0097 9.16213 10.736 9.5213 10.6001L9.49755 10.5322Z" fill="#85340A"/>
<path id="Vector_9" d="M9.35758 10.1719C8.99758 10.1919 8.83758 10.396 8.50549 10.356C8.76549 10.444 8.96966 10.2319 9.35341 10.244L9.35758 10.1719Z" fill="#85340A"/>
<path id="Vector_10" d="M9.36592 9.78516C9.02551 9.66599 8.79967 9.79307 8.50842 9.62891C8.71509 9.80974 8.98467 9.69182 9.33467 9.84974L9.36592 9.78474V9.78516Z" fill="#85340A"/>
<path id="Vector_11" d="M9.46793 9.4794L9.52168 9.43148C9.25293 9.19107 8.99543 9.22232 8.78918 8.95898C8.91085 9.20523 9.20502 9.1994 9.46793 9.4794Z" fill="#85340A"/>
<path id="Vector_12" d="M9.80089 9.16393C9.64464 8.83893 9.39505 8.76935 9.30505 8.44727C9.32339 8.72102 9.59714 8.82852 9.73297 9.18768L9.80089 9.16393Z" fill="#85340A"/>
<path id="Vector_13" d="M10.1613 9.02396C10.1413 8.66396 9.9371 8.50396 9.9771 8.17188C9.88918 8.43187 10.1013 8.63604 10.0892 9.01979L10.1613 9.02396Z" fill="#85340A"/>
<path id="Vector_14" d="M10.7042 8.1748C10.5234 8.38147 10.6413 8.65105 10.4834 9.00105L10.5484 9.0323C10.6676 8.69189 10.5405 8.46605 10.7046 8.1748H10.7042Z" fill="#85340A"/>
<path id="Vector_15" d="M11.3742 8.45605C11.1279 8.57772 11.1338 8.87189 10.8538 9.1348L10.9017 9.18855C11.1421 8.9198 11.1108 8.6623 11.3742 8.45605Z" fill="#85340A"/>
<path id="Vector_16" d="M11.1693 9.46751C11.4943 9.31126 11.5638 9.06168 11.8859 8.97168C11.6122 8.99001 11.5047 9.26376 11.1455 9.3996L11.1693 9.46751Z" fill="#85340A"/>
<path id="Vector_17" d="M11.3092 9.82764C11.6692 9.80764 11.8292 9.60348 12.1613 9.64348C11.9013 9.55556 11.6971 9.76764 11.3134 9.75556L11.3092 9.82764Z" fill="#85340A"/>
<path id="Vector_18" d="M11.3009 10.215C11.6413 10.3341 11.8672 10.2071 12.1584 10.3712C11.9517 10.1904 11.6822 10.3083 11.3322 10.1504L11.3009 10.2154V10.215Z" fill="#85340A"/>
<path id="Vector_19" d="M11.1988 10.5205L11.145 10.5684C11.4138 10.8088 11.6713 10.7776 11.8775 11.0409C11.7559 10.7947 11.4617 10.8005 11.1988 10.5205Z" fill="#85340A"/>
<path id="Vector_20" d="M10.8658 10.8363C11.0221 11.1613 11.2717 11.2308 11.3617 11.5529C11.3433 11.2792 11.0696 11.1717 10.9338 10.8125L10.8658 10.8363Z" fill="#85340A"/>
</g>
</g>
<path id="Vector_21" d="M10.3333 11.1127C10.9477 11.1127 11.4458 10.6146 11.4458 10.0002C11.4458 9.38578 10.9477 8.8877 10.3333 8.8877C9.71891 8.8877 9.22083 9.38578 9.22083 10.0002C9.22083 10.6146 9.71891 11.1127 10.3333 11.1127Z" fill="#F6B40E"/>
<g id="Group_3">
<path id="Vector_22" d="M10.3333 11.1417C9.70373 11.1417 9.19165 10.6296 9.19165 10.0001C9.19165 9.37048 9.70373 8.8584 10.3333 8.8584C10.9629 8.8584 11.475 9.37048 11.475 10.0001C11.475 10.6296 10.9629 11.1417 10.3333 11.1417ZM10.3333 8.91673C9.73582 8.91673 9.24998 9.40256 9.24998 10.0001C9.24998 10.5976 9.73582 11.0834 10.3333 11.0834C10.9308 11.0834 11.4167 10.5976 11.4167 10.0001C11.4167 9.40256 10.9308 8.91673 10.3333 8.91673Z" fill="#85340A"/>
<path id="Vector_23" d="M10.7084 9.7627C10.6375 9.7627 10.5625 9.79603 10.5209 9.8627C10.6042 9.94186 10.7959 9.94603 10.925 9.85436C10.87 9.79561 10.793 9.7627 10.7125 9.7627H10.7084ZM10.7084 9.77936C10.7834 9.77936 10.8542 9.8127 10.8625 9.84603C10.7792 9.94186 10.6417 9.92936 10.5542 9.8627C10.5959 9.80436 10.6542 9.77936 10.7125 9.77936H10.7084Z" fill="#843511"/>
<path id="Vector_24" d="M10.725 9.70801C10.6125 9.70801 10.5875 9.73301 10.5375 9.77884C10.4875 9.82051 10.4583 9.81217 10.4542 9.82051C10.4417 9.82884 10.4542 9.85384 10.4667 9.84551C10.4875 9.83717 10.5208 9.82051 10.5708 9.77884C10.6208 9.73717 10.675 9.73717 10.725 9.73717C10.8792 9.73717 10.9625 9.86217 10.9792 9.85384C11 9.84551 10.8958 9.70801 10.725 9.70801Z" fill="#85340A"/>
<path id="Vector_25" d="M11.0333 9.76205C10.8375 9.59121 10.5875 9.56205 10.45 9.69121C10.4183 9.73288 10.3971 9.78121 10.3875 9.83288C10.3708 9.93288 10.4 10.037 10.475 10.1454L10.4417 10.162C10.375 10.0329 10.35 9.89955 10.375 9.77038L10.4 9.67455C10.5875 9.52038 10.8458 9.50788 11.0333 9.75788V9.76205Z" fill="#85340A"/>
<path id="Vector_26" d="M10.7083 9.92051C10.7497 9.92051 10.7833 9.88693 10.7833 9.84551C10.7833 9.80409 10.7497 9.77051 10.7083 9.77051C10.6669 9.77051 10.6333 9.80409 10.6333 9.84551C10.6333 9.88693 10.6669 9.92051 10.7083 9.92051Z" fill="#85340A"/>
<path id="Vector_27" d="M10.9291 9.89557C10.7833 10.0081 10.6375 9.99974 10.5541 9.94974C10.4708 9.89557 10.4708 9.87891 10.4875 9.87891C10.5041 9.87891 10.5208 9.89557 10.5875 9.93307C10.6583 9.96641 10.7583 9.96641 10.9291 9.89557Z" fill="#85340A"/>
<path id="Vector_28" d="M10.1667 10.1543C10.1263 10.1639 10.1013 10.2043 10.1109 10.2447C10.1205 10.2851 10.1609 10.3101 10.2013 10.3005C10.2171 10.2968 10.2313 10.288 10.2417 10.2755C10.2692 10.2926 10.3009 10.3014 10.3334 10.3005H10.3417C10.3667 10.3005 10.4084 10.2964 10.4375 10.2755C10.45 10.2964 10.475 10.3047 10.5 10.3047C10.5413 10.308 10.578 10.2772 10.5813 10.236C10.5846 10.1947 10.5538 10.158 10.5125 10.1547C10.5334 10.163 10.5459 10.1797 10.5459 10.2047C10.5459 10.2322 10.5234 10.2547 10.4959 10.2547C10.4684 10.2547 10.4459 10.2322 10.4459 10.2047C10.4259 10.2468 10.3842 10.2739 10.3375 10.2755C10.2925 10.2726 10.253 10.2455 10.2334 10.2047C10.2334 10.2339 10.2084 10.2547 10.1792 10.2547C10.1542 10.2547 10.1292 10.2297 10.1292 10.2047C10.1292 10.1797 10.1417 10.163 10.1625 10.1547H10.1667V10.1543ZM10.25 10.3793C10.1625 10.3793 10.125 10.4626 10.05 10.5085C10.0917 10.4918 10.125 10.4585 10.1875 10.4251C10.2459 10.3918 10.2959 10.4335 10.3334 10.4335C10.3667 10.4335 10.4167 10.3918 10.4792 10.4251C10.5375 10.4585 10.575 10.4918 10.6167 10.5085C10.5375 10.4585 10.5042 10.3835 10.4167 10.3835C10.4 10.3835 10.3667 10.3918 10.3334 10.4085L10.25 10.3793Z" fill="#85340A"/>
<path id="Vector_29" d="M10.2166 10.483C10.1833 10.483 10.1416 10.4914 10.075 10.508C10.2291 10.4747 10.2625 10.5289 10.3333 10.5289C10.4 10.5289 10.4375 10.4747 10.5875 10.508C10.4208 10.458 10.3833 10.4914 10.3333 10.4914C10.3 10.4914 10.275 10.4789 10.2166 10.483Z" fill="#85340A"/>
<path id="Vector_30" d="M10.0834 10.5085H10.05C10.2292 10.5294 10.1459 10.6335 10.3334 10.6335C10.5209 10.6335 10.4375 10.5294 10.6167 10.5085C10.4292 10.4919 10.4875 10.6044 10.3334 10.6044C10.1875 10.6044 10.2334 10.5085 10.0834 10.5085Z" fill="#85340A"/>
<path id="Vector_31" d="M10.4875 10.787C10.4875 10.702 10.4184 10.6328 10.3334 10.6328C10.2484 10.6328 10.1796 10.702 10.1792 10.787C10.1992 10.702 10.2842 10.6491 10.3696 10.6691C10.4284 10.6828 10.4738 10.7286 10.4875 10.787Z" fill="#85340A"/>
<path id="Vector_32" d="M9.64172 9.76205C9.83756 9.59121 10.0876 9.56205 10.2251 9.69121C10.2567 9.73288 10.278 9.78121 10.2876 9.83288C10.3042 9.93288 10.2751 10.037 10.2001 10.1454L10.2334 10.162C10.3001 10.0329 10.3251 9.89955 10.3001 9.77038L10.2751 9.67455C10.0876 9.52038 9.82922 9.50788 9.64172 9.75788V9.76205Z" fill="#85340A"/>
<path id="Vector_33" d="M9.95004 9.70801C10.0625 9.70801 10.0875 9.73301 10.1375 9.77884C10.1875 9.82051 10.2167 9.81217 10.2209 9.82051C10.2334 9.82884 10.2209 9.85384 10.2084 9.84551C10.1875 9.83717 10.1542 9.82051 10.1042 9.77884C10.0542 9.73717 10 9.73717 9.95004 9.73717C9.79588 9.73717 9.71254 9.86217 9.69588 9.85384C9.67504 9.84551 9.77921 9.70801 9.95004 9.70801Z" fill="#85340A"/>
<path id="Vector_34" d="M9.94165 9.7627C9.87082 9.7627 9.79582 9.79603 9.75415 9.8627C9.83748 9.94186 10.0291 9.94603 10.1583 9.85436C10.1033 9.79561 10.0262 9.7627 9.94582 9.7627H9.94165ZM9.94165 9.77936C10.0167 9.77936 10.0875 9.8127 10.0958 9.84603C10.0125 9.94186 9.87498 9.92936 9.78748 9.8627C9.82915 9.80436 9.88748 9.77936 9.94582 9.77936H9.94165Z" fill="#843511"/>
<path id="Vector_35" d="M9.95415 9.92051C9.99557 9.92051 10.0292 9.88693 10.0292 9.84551C10.0292 9.80409 9.99557 9.77051 9.95415 9.77051C9.91273 9.77051 9.87915 9.80409 9.87915 9.84551C9.87915 9.88693 9.91273 9.92051 9.95415 9.92051Z" fill="#85340A"/>
<path id="Vector_36" d="M9.74585 9.89557C9.89168 10.0081 10.0375 9.99974 10.1208 9.94974C10.2042 9.89557 10.2042 9.87891 10.1875 9.87891C10.1708 9.87891 10.1542 9.89557 10.0875 9.93307C10.0167 9.96641 9.91668 9.96641 9.74585 9.89557Z" fill="#85340A"/>
</g>
</g>
</g>
</g>
<defs>
<clipPath id="clip0_705_3339">
<rect width="20" height="20" rx="5" fill="white"/>
</clipPath>
</defs>
</svg>
