<svg width="41" height="40" viewBox="0 0 41 40" fill="none" xmlns="http://www.w3.org/2000/svg">
<g id="bx:stats">
<path id="Vector" d="M33.8333 20.0003C33.4326 20.0032 33.0357 20.0783 32.6616 20.222L28.665 16.9503C28.7633 16.5937 28.8333 16.2237 28.8333 15.8337C28.8333 13.5237 26.9766 11.667 24.6666 11.667C22.3566 11.667 20.5 13.5237 20.5 15.8337C20.5 16.4937 20.6666 17.1087 20.9366 17.662L16.0883 23.392C15.8942 23.3557 15.6974 23.3362 15.5 23.3337C15.2016 23.3337 14.92 23.3837 14.6466 23.457L10.375 19.1853C10.45 18.9137 10.5 18.632 10.5 18.3337C10.5 16.487 9.01331 15.0003 7.16665 15.0003C5.31998 15.0003 3.83331 16.487 3.83331 18.3337C3.83331 20.1803 5.31998 21.667 7.16665 21.667C7.46498 21.667 7.74665 21.617 8.01998 21.5437L12.2916 25.8153C12.2115 26.0922 12.1695 26.3787 12.1666 26.667C12.1666 28.5137 13.6533 30.0003 15.5 30.0003C17.3466 30.0003 18.8333 28.5137 18.8333 26.667C18.8333 26.272 18.7533 25.9003 18.6283 25.5487L23.4833 19.812C23.8616 19.922 24.2533 20.0003 24.6666 20.0003C25.3244 19.9967 25.9718 19.8361 26.555 19.532L30.5533 22.8037C30.5219 22.9787 30.5041 23.1559 30.5 23.3337C30.5 25.1803 31.9866 26.667 33.8333 26.667C35.68 26.667 37.1666 25.1803 37.1666 23.3337C37.1666 21.487 35.68 20.0003 33.8333 20.0003Z" fill="#182957"/>
</g>
</svg>
