<svg width="31" height="31" viewBox="0 0 31 31" fill="none" xmlns="http://www.w3.org/2000/svg">
<g id="bx:stats">
<path id="Vector" d="M25.8333 15.4998C25.5228 15.5021 25.2152 15.5603 24.9253 15.6716L21.8279 13.1361C21.9041 12.8597 21.9583 12.5729 21.9583 12.2707C21.9583 10.4804 20.5194 9.0415 18.7291 9.0415C16.9389 9.0415 15.5 10.4804 15.5 12.2707C15.5 12.7822 15.6291 13.2588 15.8384 13.6876L12.0809 18.1284C11.9305 18.1002 11.778 18.0851 11.625 18.0832C11.3938 18.0832 11.1755 18.1219 10.9636 18.1788L7.6531 14.8682C7.71123 14.6577 7.74998 14.4394 7.74998 14.2082C7.74998 12.777 6.59781 11.6248 5.16665 11.6248C3.73548 11.6248 2.58331 12.777 2.58331 14.2082C2.58331 15.6393 3.73548 16.7915 5.16665 16.7915C5.39785 16.7915 5.61615 16.7528 5.82798 16.6959L9.13852 20.0065C9.07643 20.2211 9.04384 20.4431 9.04165 20.6665C9.04165 22.0977 10.1938 23.2498 11.625 23.2498C13.0561 23.2498 14.2083 22.0977 14.2083 20.6665C14.2083 20.3604 14.1463 20.0723 14.0494 19.7998L17.8121 15.3539C18.1053 15.4391 18.4088 15.4998 18.7291 15.4998C19.2389 15.497 19.7406 15.3726 20.1926 15.1369L23.2913 17.6724C23.267 17.8081 23.2532 17.9454 23.25 18.0832C23.25 19.5143 24.4021 20.6665 25.8333 20.6665C27.2645 20.6665 28.4166 19.5143 28.4166 18.0832C28.4166 16.652 27.2645 15.4998 25.8333 15.4998Z" fill="white"/>
</g>
</svg>
