<svg width="20" height="20" viewBox="0 0 20 20" fill="none" xmlns="http://www.w3.org/2000/svg">
<path d="M15.4 11.199C16.2 10.599 16.2 9.398 15.4 8.798L9.398 4.302C8.409 3.562 6.998 4.267 6.998 5.502L6.998 14.497C6.998 15.733 8.41 16.438 9.398 15.697L15.4 11.199ZM5 4C5 3.86739 4.94732 3.74021 4.85355 3.64645C4.75979 3.55268 4.63261 3.5 4.5 3.5C4.36739 3.5 4.24021 3.55268 4.14645 3.64645C4.05268 3.74021 4 3.86739 4 4L4 16C4 16.1326 4.05268 16.2598 4.14645 16.3536C4.24021 16.4473 4.36739 16.5 4.5 16.5C4.63261 16.5 4.75979 16.4473 4.85355 16.3536C4.94732 16.2598 5 16.1326 5 16L5 4Z" fill="#3E019E"/>
</svg>
