<svg width="18" height="18" viewBox="0 0 18 18" fill="none" xmlns="http://www.w3.org/2000/svg">
<g id="fluent:bookmark-20-filled">
<g id="Vector">
<mask id="path-1-inside-1_758_3890" fill="white">
<path d="M3.59998 4.0498C3.59998 3.45307 3.83703 2.88077 4.25899 2.45881C4.68094 2.03686 5.25324 1.7998 5.84998 1.7998H12.15C12.7467 1.7998 13.319 2.03686 13.741 2.45881C14.1629 2.88077 14.4 3.45307 14.4 4.0498V15.7498C14.3999 15.8328 14.3769 15.9141 14.3335 15.9848C14.2901 16.0555 14.228 16.1129 14.154 16.1505C14.0801 16.1881 13.9972 16.2046 13.9145 16.198C13.8318 16.1915 13.7525 16.1622 13.6854 16.1134L8.99998 12.706L4.31458 16.1134C4.24747 16.1622 4.16818 16.1915 4.08547 16.198C4.00276 16.2046 3.91985 16.1881 3.84591 16.1505C3.77196 16.1129 3.70986 16.0555 3.66645 15.9848C3.62305 15.9141 3.60005 15.8328 3.59998 15.7498V4.0498Z"/>
</mask>
<path d="M3.59998 4.0498C3.59998 3.45307 3.83703 2.88077 4.25899 2.45881C4.68094 2.03686 5.25324 1.7998 5.84998 1.7998H12.15C12.7467 1.7998 13.319 2.03686 13.741 2.45881C14.1629 2.88077 14.4 3.45307 14.4 4.0498V15.7498C14.3999 15.8328 14.3769 15.9141 14.3335 15.9848C14.2901 16.0555 14.228 16.1129 14.154 16.1505C14.0801 16.1881 13.9972 16.2046 13.9145 16.198C13.8318 16.1915 13.7525 16.1622 13.6854 16.1134L8.99998 12.706L4.31458 16.1134C4.24747 16.1622 4.16818 16.1915 4.08547 16.198C4.00276 16.2046 3.91985 16.1881 3.84591 16.1505C3.77196 16.1129 3.70986 16.0555 3.66645 15.9848C3.62305 15.9141 3.60005 15.8328 3.59998 15.7498V4.0498Z" fill="#F6F6F6"/>
<path d="M3.59998 4.0498H2.59998H3.59998ZM5.84998 1.7998V0.799805V1.7998ZM14.4 15.7498L15.4 15.7507V15.7498H14.4ZM13.6854 16.1134L13.0972 16.9222L13.0974 16.9223L13.6854 16.1134ZM8.99998 12.706L9.58813 11.8973L8.99998 11.4695L8.41182 11.8973L8.99998 12.706ZM4.31458 16.1134L4.90258 16.9223L4.90273 16.9222L4.31458 16.1134ZM3.59998 15.7498H2.59998L2.59998 15.7507L3.59998 15.7498ZM4.59998 4.0498C4.59998 3.71828 4.73167 3.40034 4.96609 3.16592L3.55188 1.75171C2.94239 2.3612 2.59998 3.18785 2.59998 4.0498H4.59998ZM4.96609 3.16592C5.20051 2.9315 5.51846 2.7998 5.84998 2.7998V0.799805C4.98802 0.799805 4.16137 1.14221 3.55188 1.75171L4.96609 3.16592ZM5.84998 2.7998H12.15V0.799805H5.84998V2.7998ZM12.15 2.7998C12.4815 2.7998 12.7994 2.9315 13.0339 3.16592L14.4481 1.75171C13.8386 1.14221 13.0119 0.799805 12.15 0.799805V2.7998ZM13.0339 3.16592C13.2683 3.40034 13.4 3.71828 13.4 4.0498H15.4C15.4 3.18785 15.0576 2.3612 14.4481 1.75171L13.0339 3.16592ZM13.4 4.0498V15.7498H15.4V4.0498H13.4ZM13.4 15.7489C13.4001 15.6475 13.4282 15.5481 13.4812 15.4617L15.1858 16.5079C15.3256 16.2801 15.3997 16.018 15.4 15.7507L13.4 15.7489ZM13.4812 15.4617C13.5343 15.3753 13.6102 15.3052 13.7006 15.2592L14.6075 17.0417C14.8458 16.9205 15.0459 16.7358 15.1858 16.5079L13.4812 15.4617ZM13.7006 15.2592C13.7909 15.2132 13.8923 15.1931 13.9934 15.2011L13.8356 17.1949C14.1021 17.216 14.3693 17.163 14.6075 17.0417L13.7006 15.2592ZM13.9934 15.2011C14.0945 15.2091 14.1914 15.2449 14.2734 15.3045L13.0974 16.9223C13.3136 17.0795 13.5691 17.1738 13.8356 17.1949L13.9934 15.2011ZM14.2735 15.3047L9.58813 11.8973L8.41182 13.5148L13.0972 16.9222L14.2735 15.3047ZM8.41182 11.8973L3.72642 15.3047L4.90273 16.9222L9.58813 13.5148L8.41182 11.8973ZM3.72658 15.3045C3.80859 15.2449 3.9055 15.2091 4.0066 15.2011L4.16434 17.1949C4.43085 17.1738 4.68634 17.0795 4.90258 16.9223L3.72658 15.3045ZM4.0066 15.2011C4.10769 15.1931 4.20902 15.2132 4.29939 15.2592L3.39242 17.0417C3.63068 17.163 3.89782 17.216 4.16434 17.1949L4.0066 15.2011ZM4.29939 15.2592C4.38977 15.3052 4.46568 15.3753 4.51872 15.4617L2.81419 16.5079C2.95403 16.7358 3.15415 16.9205 3.39242 17.0417L4.29939 15.2592ZM4.51872 15.4617C4.57177 15.5481 4.59989 15.6475 4.59998 15.7489L2.59998 15.7507C2.60021 16.018 2.67434 16.2801 2.81419 16.5079L4.51872 15.4617ZM4.59998 15.7498V4.0498H2.59998V15.7498H4.59998Z" fill="#A4A4A4" mask="url(#path-1-inside-1_758_3890)"/>
</g>
</g>
</svg>
