<svg width="18" height="18" viewBox="0 0 18 18" fill="none" xmlns="http://www.w3.org/2000/svg">
<g id="fontisto:radio-btn-active" clip-path="url(#clip0_705_3321)">
<path id="Vector" d="M0 9C0 4.02975 4.02975 0 9 0C13.9703 0 18 4.02975 18 9C18 13.9703 13.9703 18 9 18C4.032 17.994 0.006 13.968 0 9.00075V9ZM1.8 9C1.8 12.9765 5.0235 16.2 9 16.2C12.9765 16.2 16.2 12.9765 16.2 9C16.2 5.0235 12.9765 1.8 9 1.8C5.02575 1.8045 1.8045 5.02575 1.8 8.99925V9ZM4.8 9C4.8 7.88609 5.2425 6.8178 6.03015 6.03015C6.8178 5.2425 7.88609 4.8 9 4.8C10.1139 4.8 11.1822 5.2425 11.9698 6.03015C12.7575 6.8178 13.2 7.88609 13.2 9C13.2 10.1139 12.7575 11.1822 11.9698 11.9698C11.1822 12.7575 10.1139 13.2 9 13.2C7.88609 13.2 6.8178 12.7575 6.03015 11.9698C5.2425 11.1822 4.8 10.1139 4.8 9Z" fill="white"/>
</g>
<defs>
<clipPath id="clip0_705_3321">
<rect width="18" height="18" fill="white"/>
</clipPath>
</defs>
</svg>
