<svg width="24" height="24" viewBox="0 0 24 24" fill="none" xmlns="http://www.w3.org/2000/svg">
<path d="M1.90396 8.93856C1.92312 8.60373 1.96622 8.26411 1.96143 7.92927C2.28707 7.91971 2.56481 7.63749 2.80904 7.45572C3.13468 7.21177 3.46032 6.96304 3.78596 6.7143C4.44203 6.21205 5.09809 5.71458 5.75416 5.21233C6.05106 4.98751 6.3767 4.77226 6.63529 4.5044C6.71192 4.42308 6.77896 4.33698 6.83164 4.24609C6.94178 4.30349 7.04713 4.36089 7.16685 4.40394C7.31052 4.45656 7.45418 4.50918 7.59784 4.56179C7.89475 4.66703 8.18687 4.77705 8.47899 4.88706C9.02012 5.09275 9.56125 5.30321 10.088 5.54238C10.0018 6.50862 9.95873 7.48442 9.93957 8.45544C9.92999 8.96248 9.9252 9.46951 9.93478 9.97176C9.93478 10.2253 9.94436 10.4788 9.95394 10.7323C9.95872 10.8615 9.9635 10.9954 9.97308 11.1246C9.97787 11.2107 9.99224 11.292 10.0114 11.3685C9.87731 11.4403 9.76238 11.5694 9.65224 11.6651C9.50858 11.7894 9.36491 11.909 9.21646 12.0334C8.91955 12.2821 8.62265 12.5261 8.32095 12.77C7.80376 13.1862 7.27221 13.5832 6.76459 14.0089C6.61135 13.9132 6.41501 13.8606 6.25698 13.7984L5.62007 13.5401L4.34146 13.0235C3.91526 12.8513 3.48905 12.6791 3.06285 12.5117C2.66538 12.3539 2.26791 12.1817 1.86086 12.0477C1.84171 11.3876 1.84171 10.7227 1.86086 10.0626C1.87044 9.68955 1.8896 9.31644 1.91354 8.94334L1.90396 8.93856Z" fill="#805FB3"/>
<path d="M8.55548 13.0579C8.85238 12.8235 9.14929 12.5844 9.44141 12.3452C9.58986 12.2256 9.73353 12.1012 9.87719 11.9817C9.95381 11.9195 10.0448 11.8525 10.1262 11.7808C10.2172 11.8956 10.3896 11.9577 10.5141 12.0151C10.7009 12.106 10.8876 12.1921 11.0744 12.2782C11.4527 12.4456 11.8358 12.6083 12.2189 12.7566C12.9899 13.0531 13.7801 13.3066 14.5798 13.5171C14.8097 13.5793 15.0395 13.6367 15.2694 13.6893C15.4705 13.7372 15.6812 13.7946 15.8871 13.8185C15.8775 13.962 15.9015 14.1103 15.9254 14.2538C15.9494 14.4164 15.9781 14.579 16.0068 14.7417C16.0595 15.0717 16.117 15.4065 16.1697 15.7366C16.275 16.3871 16.3947 17.0329 16.5049 17.6786C15.959 17.8221 15.5471 18.2813 15.1305 18.6449C14.5989 19.1041 14.0674 19.5633 13.5406 20.0273C13.2437 20.2856 12.9516 20.5439 12.6547 20.8022C12.4105 21.0174 12.1567 21.2279 11.9364 21.4623C11.855 21.4096 11.7448 21.3905 11.6538 21.3618C11.5628 21.3379 11.4719 21.3092 11.3809 21.2853C11.1941 21.2327 11.0026 21.1753 10.8158 21.1131C10.4327 20.9935 10.0544 20.8643 9.67605 20.7304C9.30732 20.5965 8.93858 20.4578 8.57464 20.3143C8.38308 20.2377 8.19632 20.1612 8.00955 20.0847C7.92814 20.0512 7.83237 20.0033 7.7366 19.9651C7.7366 19.9172 7.72702 19.8694 7.69828 19.8359C7.5211 18.908 7.37744 17.9752 7.25772 17.0377C7.20025 16.5593 7.14757 16.081 7.09968 15.6027C7.07574 15.3635 7.05659 15.1243 7.03264 14.8852C7.01349 14.6747 7.0087 14.4547 6.95123 14.2538C7.50194 13.8902 8.02392 13.4788 8.54111 13.0723L8.55548 13.0579Z" fill="#805FB3"/>
<path d="M10.2652 11.3774C10.2796 11.296 10.2939 11.2195 10.2939 11.1334C10.2939 11.0043 10.2939 10.8703 10.2939 10.7412C10.2939 10.4972 10.2939 10.2533 10.2939 10.0093C10.2939 9.49751 10.2987 8.9809 10.3131 8.46909C10.337 7.47893 10.3993 6.49356 10.4759 5.50341C10.6674 5.46036 10.859 5.37904 11.041 5.31686C11.266 5.24032 11.4911 5.16379 11.7162 5.09204C12.152 4.94854 12.5925 4.81461 13.0331 4.68067C13.9095 4.40802 14.7906 4.15929 15.6765 3.92969C15.7579 4.0397 15.8537 4.14494 15.9447 4.25017C16.0788 4.40802 16.2129 4.56587 16.3422 4.72851C16.596 5.03942 16.8402 5.35513 17.0797 5.67561C17.5633 6.32615 18.0135 6.99581 18.4397 7.67983C18.6695 8.04815 18.885 8.42125 19.0957 8.80392C18.6073 9.62187 18.0997 10.4255 17.5777 11.2195C17.3047 11.6309 17.027 12.0375 16.7444 12.4393C16.5098 12.7789 16.2512 13.1089 16.0357 13.4629C15.8489 13.4007 15.6526 13.3768 15.461 13.329C15.2599 13.2811 15.0588 13.2333 14.8576 13.1855C14.465 13.085 14.0723 12.975 13.6844 12.8554C12.9086 12.6163 12.1472 12.334 11.3953 12.0231C11.1894 11.937 10.9883 11.8509 10.7824 11.76C10.677 11.7122 10.5717 11.6644 10.4663 11.6213C10.4136 11.5974 10.3562 11.5735 10.2939 11.5591C10.3179 11.4969 10.2939 11.4348 10.2556 11.3917L10.2652 11.3774Z" fill="#805FB3"/>
<path d="M16.5384 15.6454C16.4762 15.3249 16.4139 14.9997 16.3565 14.6792C16.3277 14.5166 16.2942 14.3587 16.2655 14.1961C16.2367 14.0526 16.208 13.9091 16.1553 13.7751C16.481 13.4355 16.7491 13.0385 17.0221 12.6606C17.3142 12.254 17.6016 11.8427 17.8841 11.4313C18.43 10.6277 18.952 9.80496 19.4596 8.97266C19.8523 9.14964 20.2546 9.28836 20.6664 9.42229C21.1405 9.57536 21.6241 9.71886 22.1126 9.83844C22.1365 9.98194 22.1653 10.1207 22.194 10.2594C22.2419 10.4985 22.2946 10.7377 22.3377 10.9817C22.4239 11.4552 22.5005 11.9336 22.558 12.4119C22.6825 13.3781 22.7447 14.3491 22.7543 15.3202C22.7543 15.4541 22.7543 15.588 22.7543 15.722C22.7543 15.765 22.7543 15.8128 22.7543 15.8607C22.6537 15.9372 22.5723 16.0424 22.4861 16.1333C22.3904 16.2386 22.2994 16.3438 22.2084 16.449C22.0216 16.6643 21.8348 16.8843 21.6481 17.1044C21.4709 17.3196 21.2937 17.5349 21.1165 17.7549C21.0303 17.8649 20.9441 17.9749 20.8579 18.0897C20.8101 18.1519 20.7574 18.2141 20.7191 18.2763C20.5898 18.2476 20.4605 18.2284 20.3312 18.2045L19.7996 18.1089C19.4596 18.0467 19.1196 17.9845 18.7796 17.9223C18.4252 17.8601 18.0661 17.7932 17.7117 17.731C17.4483 17.6831 17.1754 17.6257 16.9072 17.6257C16.9072 17.6162 16.9072 17.6066 16.9072 17.597C16.7875 16.9417 16.6773 16.2912 16.5528 15.6359L16.5384 15.6454Z" fill="#805FB3"/>
<path d="M21.0447 18.7497C21.0399 18.6588 21.0351 18.5536 20.9633 18.4866C20.9633 18.4771 20.9633 18.4723 20.9633 18.4627C21.0016 18.4197 21.0399 18.3718 21.0782 18.324C21.1644 18.214 21.2554 18.104 21.3416 17.994C21.5188 17.7739 21.6912 17.5587 21.8732 17.3434C22.0504 17.1329 22.2276 16.9225 22.4048 16.7168C22.4957 16.6116 22.5915 16.5063 22.6825 16.4011C22.74 16.3341 22.8118 16.2672 22.8693 16.2002C22.9794 16.2815 23.1326 16.2815 23.2476 16.2002C22.7256 17.5922 21.9546 18.8645 20.9825 19.9551C20.9968 19.8355 21.0112 19.716 21.0256 19.5964C21.0399 19.4146 21.0495 19.2328 21.0543 19.0511C21.0543 18.9554 21.0543 18.855 21.0543 18.7593L21.0447 18.7497Z" fill="#805FB3"/>
<path d="M23.1039 15.9122C23.1039 15.8835 23.1039 15.8548 23.1039 15.8548C23.1039 15.7448 23.1039 15.6348 23.1039 15.5248C23.1039 15.3048 23.0943 15.0847 23.0847 14.8599C23.0656 14.4246 23.0369 13.9893 22.9985 13.5588C22.9171 12.6787 22.7926 11.8034 22.6107 10.9376C22.5628 10.6984 22.5101 10.4592 22.4526 10.2201C22.4095 10.0526 22.3664 9.88523 22.309 9.72259C22.3185 9.69389 22.3185 9.66041 22.309 9.63171C22.4047 9.48343 22.467 9.30166 22.5292 9.14381C22.6202 8.91899 22.7064 8.68939 22.7878 8.45979C22.8692 8.23976 22.9459 8.01494 23.0177 7.79012C23.0512 7.68967 23.0847 7.58922 23.1135 7.48877C23.736 9.00987 24.0521 10.684 23.9898 12.4348C23.9419 13.688 23.7025 14.8886 23.305 16.0127C23.2763 15.9314 23.1901 15.874 23.0991 15.9122H23.1039Z" fill="#805FB3"/>
<path d="M22.9459 7.07723C22.8884 7.16333 22.8645 7.259 22.8357 7.36423C22.8022 7.46947 22.7687 7.5747 22.7352 7.67993C22.6633 7.90475 22.5867 8.12957 22.5053 8.3496C22.4239 8.56964 22.3425 8.79446 22.2611 9.01449C22.2036 9.16756 22.1174 9.33019 22.0743 9.49761C21.6385 9.38759 21.2027 9.27279 20.7717 9.14364C20.3455 9.01449 19.9241 8.86142 19.5027 8.73227C19.4884 8.70357 19.4644 8.67487 19.4357 8.65095C18.6455 7.23508 17.7309 5.89574 16.7013 4.64251C16.5528 4.46552 16.4044 4.28854 16.2559 4.11634C16.1362 3.98241 16.0213 3.82934 15.8824 3.70975C15.8824 3.69062 15.8776 3.67627 15.8728 3.65714C15.9829 3.43232 16.05 3.19315 16.1266 2.95877C16.1745 2.82483 16.2224 2.6909 16.2703 2.56175C16.2942 2.49478 16.323 2.42782 16.3469 2.36563C16.3565 2.34172 16.3661 2.3178 16.3708 2.29867C16.4139 2.29867 16.457 2.30345 16.5049 2.29867C16.7252 2.27475 16.9407 2.20778 17.1562 2.15516L18.4109 1.86816C20.3886 3.1214 21.9737 4.93907 22.9411 7.08202L22.9459 7.07723Z" fill="#805FB3"/>
<path d="M16.2703 1.9076C16.1889 1.86455 16.1219 1.78801 16.0596 1.72105C15.7531 1.40535 15.4419 1.09443 15.1354 0.778728C14.9773 0.620877 14.8241 0.463026 14.6661 0.305176C15.8345 0.56826 16.9312 1.00354 17.9416 1.57755C17.683 1.63973 17.4244 1.70191 17.1658 1.7641C16.9647 1.81193 16.7636 1.86455 16.5576 1.91238C16.4571 1.9363 16.3613 1.95543 16.2655 1.90281L16.2703 1.9076Z" fill="#805FB3"/>
<path d="M14.1201 0.194682C14.2159 0.323832 14.3356 0.438633 14.4458 0.54865C14.6134 0.725634 14.781 0.902618 14.9534 1.0796C15.2742 1.41444 15.5807 1.7684 15.9159 2.08411C15.9686 2.13194 16.0213 2.17021 16.074 2.20369C16.0692 2.22282 16.0596 2.23717 16.0548 2.25631C16.0261 2.32806 16.0021 2.39981 15.9782 2.46677C15.9303 2.60071 15.8824 2.73464 15.8393 2.86857C15.7675 3.08383 15.6957 3.30864 15.6621 3.53346C15.6621 3.53346 15.6526 3.53346 15.6478 3.53346C14.7331 3.76784 13.8232 4.02615 12.9229 4.30836C12.4776 4.44708 12.0322 4.60493 11.5917 4.758C11.3666 4.83931 11.1415 4.91585 10.9212 5.00195C10.7345 5.06892 10.5237 5.1311 10.3466 5.22677C10.3083 5.2172 10.2652 5.2172 10.2268 5.23155C9.68092 5.02587 9.13979 4.80583 8.58908 4.60015C8.30175 4.49491 8.01921 4.38968 7.73188 4.28923C7.58822 4.23661 7.44456 4.18878 7.30089 4.14095C7.17639 4.10268 7.05188 4.07876 6.92737 4.05485C6.99441 3.897 7.0423 3.72479 7.08061 3.54303C7.26737 2.63897 7.45413 1.73014 7.63611 0.826084C9.12542 0.242515 10.7536 -0.0540524 12.4489 0.00813119C13.0187 0.0272646 13.579 0.0942315 14.1249 0.189899L14.1201 0.194682Z" fill="#805FB3"/>
<path d="M7.21468 1.00293C7.08059 1.6726 6.95129 2.34227 6.8172 3.01194C6.75016 3.35155 6.71663 3.74857 6.53466 4.04992C6.35747 4.34171 6.04142 4.53783 5.77804 4.73873C5.16986 5.20749 4.56168 5.67626 3.9535 6.14503C3.64223 6.3842 3.33575 6.62337 3.02448 6.86253C2.87124 6.98212 2.7132 7.1017 2.55996 7.22128C2.42109 7.3313 2.28221 7.45567 2.12897 7.54655C1.85601 7.7044 1.68361 7.5322 1.51122 7.32652C1.3915 7.1878 1.27177 7.03473 1.11853 6.94385C2.35883 4.28909 4.53774 2.17007 7.21468 1.00293Z" fill="#805FB3"/>
<path d="M1.00839 7.1875C1.24304 7.40275 1.39628 7.72802 1.67403 7.86674C1.6022 8.19679 1.58783 8.54119 1.56868 8.88081C1.53994 9.26347 1.52079 9.64136 1.50642 10.024C1.47769 10.7798 1.47769 11.5356 1.50163 12.2913C1.50163 12.3009 1.50163 12.3057 1.50642 12.3153C1.47769 12.3918 1.44896 12.4731 1.42501 12.5496C1.36755 12.6979 1.31487 12.851 1.26219 12.9993C1.15684 13.3006 1.06107 13.6068 0.965292 13.9081C0.874304 14.2047 0.783318 14.5012 0.69712 14.8026C0.654021 14.9557 0.61092 15.1087 0.56782 15.2618C0.553454 15.3192 0.529512 15.3862 0.510357 15.4483C0.14162 14.219 -0.0403561 12.9132 0.00753189 11.5595C0.0649975 10.0049 0.419367 8.5364 1.00839 7.19228V7.1875Z" fill="#805FB3"/>
<path d="M0.644409 15.8644C0.68272 15.8644 0.716237 15.8501 0.74497 15.8214C0.850323 15.7066 0.869477 15.5391 0.907787 15.3909C0.950886 15.2378 0.989201 15.0847 1.0323 14.9269C1.1185 14.6207 1.20948 14.3146 1.30047 14.0085C1.39146 13.7119 1.48724 13.4153 1.5878 13.1188C1.63569 12.9657 1.68837 12.8174 1.73625 12.6644C1.76499 12.5783 1.79851 12.4874 1.82724 12.3965C2.17683 12.5591 2.54077 12.6978 2.89514 12.8413C3.32135 13.0135 3.74755 13.1905 4.16896 13.3627C4.59517 13.5349 5.02137 13.7071 5.44757 13.8793C5.65828 13.9654 5.87378 14.0515 6.08448 14.1376L6.38139 14.2572C6.41491 14.2716 6.44843 14.2859 6.48674 14.3003C6.49632 14.3816 6.58251 14.4581 6.66871 14.4151C6.66871 14.5777 6.68308 14.7403 6.69266 14.8982C6.70702 15.1373 6.72618 15.3765 6.74533 15.6157C6.78364 16.1036 6.83632 16.5915 6.89378 17.0794C7.00872 18.0121 7.15238 18.9353 7.31999 19.8585C7.08534 19.9446 6.85548 20.0355 6.62083 20.1168C6.29519 20.2268 5.96955 20.3321 5.64391 20.4277C5.32306 20.5186 4.99742 20.5999 4.67178 20.6717C4.50896 20.7052 4.34615 20.7386 4.17854 20.7721C4.09234 20.7865 3.98699 20.7913 3.89121 20.82C2.42584 19.4758 1.29569 17.773 0.644409 15.8596V15.8644Z" fill="#805FB3"/>
<path d="M4.27434 21.1561C4.43237 21.1274 4.58562 21.0987 4.73886 21.0652C5.07407 20.9934 5.4045 20.9073 5.73493 20.8117C6.06535 20.716 6.391 20.6108 6.71185 20.4912C6.96565 20.3955 7.21946 20.2999 7.46368 20.1851C7.57383 20.2855 7.75101 20.3429 7.87073 20.4003C8.0575 20.4864 8.24426 20.5677 8.43102 20.6443C8.80934 20.8021 9.18765 20.9504 9.57075 21.0891C9.95386 21.2278 10.3418 21.357 10.7296 21.4813C10.926 21.5435 11.1175 21.6009 11.3139 21.6583C11.4719 21.7062 11.6443 21.7731 11.8119 21.7827C11.8502 21.8114 11.8981 21.8257 11.9412 21.8018C11.9508 21.8018 11.9556 21.7923 11.9652 21.7875C11.9987 21.8592 12.0418 21.931 12.0801 21.9979C12.1423 22.1032 12.1998 22.2084 12.2621 22.3184C12.377 22.5241 12.4967 22.7298 12.6116 22.9355C12.7266 23.1412 12.8415 23.3516 12.9564 23.5573C13.0139 23.6626 13.0714 23.7726 13.1288 23.8826C13.1384 23.9017 13.148 23.9209 13.1576 23.94C12.6308 23.9926 12.0945 24.0117 11.5533 23.9926C8.77103 23.8922 6.24254 22.8398 4.26477 21.1752L4.27434 21.1561Z" fill="#805FB3"/>
<path d="M13.5599 23.8824C13.5359 23.8202 13.4976 23.7581 13.4641 23.6959C13.4066 23.5859 13.3492 23.4806 13.2869 23.3754C13.1672 23.1601 13.0522 22.9497 12.9277 22.7344C12.8032 22.5239 12.6835 22.3135 12.5542 22.103C12.4584 21.9452 12.3579 21.749 12.2286 21.6055C12.4106 21.4716 12.5829 21.3233 12.7506 21.175C13.0139 20.955 13.2725 20.7302 13.5359 20.5102C14.0579 20.0653 14.5799 19.6205 15.1019 19.1756C15.3557 18.9556 15.6095 18.7403 15.8633 18.5251C16.074 18.3433 16.2895 18.1281 16.5672 18.0563C16.8641 17.975 17.185 18.0372 17.4819 18.0898C17.8219 18.152 18.1619 18.2142 18.5019 18.2716C18.8754 18.3385 19.2442 18.4055 19.6177 18.4725L20.2019 18.5777C20.3791 18.6112 20.5563 18.6494 20.7383 18.6638C20.7383 18.6877 20.7335 18.7164 20.7335 18.7403C20.7287 18.836 20.7239 18.9364 20.7191 19.0321C20.7095 19.2139 20.6952 19.3956 20.6712 19.5774C20.6521 19.7544 20.6233 19.9314 20.5898 20.1084C20.5802 20.1753 20.5515 20.2997 20.5563 20.4001C18.7174 22.2656 16.2703 23.5285 13.5599 23.8824Z" fill="#805FB3"/>
</svg>
