<svg width="34" height="34" viewBox="0 0 34 34" fill="none" xmlns="http://www.w3.org/2000/svg">
<g id="Football">
<path id="Vector" d="M2.69725 12.6633C2.72439 12.1889 2.78545 11.7078 2.77867 11.2335C3.23999 11.2199 3.63346 10.8201 3.97945 10.5626C4.44077 10.217 4.9021 9.86463 5.36342 9.51225C6.29285 8.80073 7.22227 8.09598 8.1517 7.38446C8.57231 7.06597 9.03363 6.76103 9.39998 6.38155C9.50852 6.26635 9.6035 6.14438 9.67813 6.01562C9.83416 6.09694 9.98341 6.17826 10.153 6.23925C10.3565 6.31379 10.5601 6.38833 10.7636 6.46287C11.1842 6.61195 11.598 6.76781 12.0119 6.92366C12.7785 7.21505 13.5451 7.51321 14.2913 7.85203C14.1692 9.22087 14.1082 10.6033 14.081 11.9789C14.0675 12.6972 14.0607 13.4155 14.0742 14.127C14.0742 14.4861 14.0878 14.8453 14.1014 15.2044C14.1082 15.3874 14.1149 15.5771 14.1285 15.7601C14.1353 15.8821 14.1557 15.9973 14.1828 16.1057C13.9928 16.2073 13.83 16.3903 13.674 16.5258C13.4705 16.702 13.2669 16.8714 13.0566 17.0476C12.636 17.4 12.2154 17.7456 11.788 18.0912C11.0553 18.6807 10.3023 19.2432 9.58315 19.8463C9.36606 19.7108 9.08791 19.6362 8.86403 19.5481L7.96174 19.1822L6.15038 18.4503C5.54659 18.2064 4.9428 17.9624 4.33901 17.7253C3.77593 17.5016 3.21285 17.2577 2.6362 17.068C2.60906 16.1328 2.60906 15.1909 2.6362 14.2557C2.64977 13.7272 2.6769 13.1986 2.71082 12.6701L2.69725 12.6633Z" fill="#F2F2F2"/>
<path id="Vector_2" d="M12.1203 18.4988C12.5409 18.1667 12.9615 17.8279 13.3753 17.4891C13.5856 17.3197 13.7892 17.1435 13.9927 16.9741C14.1012 16.886 14.2301 16.7911 14.3455 16.6895C14.4744 16.8521 14.7186 16.9402 14.895 17.0215C15.1596 17.1502 15.4242 17.2722 15.6887 17.3942C16.2247 17.6314 16.7674 17.8618 17.3101 18.0718C18.4024 18.492 19.5218 18.8511 20.6547 19.1493C20.9804 19.2374 21.306 19.3187 21.6316 19.3932C21.9166 19.461 22.2151 19.5423 22.5068 19.5762C22.4932 19.7795 22.5271 19.9896 22.5611 20.1929C22.595 20.4233 22.6357 20.6537 22.6764 20.8841C22.751 21.3516 22.8324 21.826 22.907 22.2935C23.0563 23.2151 23.2259 24.13 23.3819 25.0448C22.6085 25.2481 22.0251 25.8986 21.4349 26.4136C20.6819 27.0641 19.9288 27.7147 19.1826 28.372C18.7619 28.7379 18.3481 29.1038 17.9275 29.4698C17.5815 29.7747 17.2219 30.0729 16.9099 30.4049C16.7945 30.3304 16.6385 30.3033 16.5096 30.2626C16.3807 30.2287 16.2518 30.1881 16.1229 30.1542C15.8583 30.0796 15.587 29.9983 15.3224 29.9102C14.7797 29.7408 14.2437 29.5579 13.7078 29.3681C13.1854 29.1784 12.663 28.9819 12.1474 28.7786C11.8761 28.6702 11.6115 28.5617 11.3469 28.4533C11.2316 28.4059 11.0959 28.3381 10.9602 28.2839C10.9602 28.2161 10.9466 28.1484 10.9059 28.1009C10.6549 26.7863 10.4514 25.4649 10.2818 24.1367C10.2004 23.4591 10.1257 22.7814 10.0579 22.1038C10.024 21.765 9.99684 21.4262 9.96292 21.0873C9.93579 20.7892 9.929 20.4775 9.8476 20.1929C10.6278 19.6779 11.3672 19.0951 12.0999 18.5191L12.1203 18.4988Z" fill="#F2F2F2"/>
<path id="Vector_3" d="M14.5424 16.1183C14.5627 16.0031 14.5831 15.8946 14.5831 15.7727C14.5831 15.5897 14.5831 15.4 14.5831 15.217C14.5831 14.8714 14.5831 14.5258 14.5831 14.1802C14.5831 13.4551 14.5899 12.7233 14.6102 11.9982C14.6441 10.5955 14.7323 9.19954 14.8409 7.79682C15.1122 7.73584 15.3836 7.62064 15.6414 7.53254C15.9602 7.42412 16.2791 7.3157 16.598 7.21405C17.2153 7.01076 17.8395 6.82102 18.4636 6.63128C19.7051 6.24502 20.9534 5.89265 22.2084 5.56738C22.3238 5.72324 22.4594 5.87232 22.5883 6.0214C22.7783 6.24502 22.9683 6.46865 23.1514 6.69904C23.511 7.13951 23.857 7.58675 24.1962 8.04077C24.8814 8.96236 25.5191 9.91106 26.1229 10.8801C26.4485 11.4019 26.7538 11.9304 27.0523 12.4725C26.3603 13.6313 25.6412 14.7697 24.9017 15.8946C24.515 16.4774 24.1216 17.0534 23.7213 17.6226C23.3889 18.1037 23.0225 18.5713 22.7172 19.0728C22.4527 18.9847 22.1745 18.9508 21.9032 18.883C21.6182 18.8153 21.3333 18.7475 21.0483 18.6797C20.492 18.5374 19.9357 18.3816 19.3862 18.2122C18.2872 17.8733 17.2085 17.4735 16.1434 17.0331C15.8517 16.9111 15.5668 16.7891 15.275 16.6604C15.1258 16.5926 14.9765 16.5248 14.8273 16.4639C14.7527 16.43 14.6713 16.3961 14.5831 16.3758C14.617 16.2877 14.5831 16.1996 14.5288 16.1386L14.5424 16.1183Z" fill="#F2F2F2"/>
<path id="Vector_4" d="M23.4295 22.164C23.3413 21.71 23.2531 21.2492 23.1717 20.7952C23.131 20.5648 23.0835 20.3412 23.0428 20.1108C23.0021 19.9075 22.9613 19.7042 22.8867 19.5145C23.348 19.0333 23.7279 18.4709 24.1146 17.9356C24.5285 17.3596 24.9355 16.7768 25.3358 16.194C26.1092 15.0556 26.8487 13.89 27.5678 12.7109C28.1241 12.9617 28.6939 13.1582 29.2774 13.3479C29.949 13.5648 30.6342 13.7681 31.3262 13.9375C31.3601 14.1408 31.4008 14.3373 31.4415 14.5338C31.5094 14.8726 31.584 15.2114 31.645 15.557C31.7671 16.2279 31.8757 16.9055 31.9571 17.5832C32.1335 18.952 32.2217 20.3276 32.2353 21.7032C32.2353 21.893 32.2353 22.0827 32.2353 22.2725C32.2353 22.3334 32.2353 22.4012 32.2353 22.469C32.0928 22.5774 31.9775 22.7265 31.8553 22.8552C31.7197 23.0043 31.5908 23.1534 31.4619 23.3025C31.1973 23.6074 30.9327 23.9191 30.6681 24.2308C30.4171 24.5358 30.1661 24.8407 29.9151 25.1524C29.793 25.3083 29.6709 25.4641 29.5487 25.6268C29.4809 25.7149 29.4063 25.803 29.352 25.8911C29.1688 25.8504 28.9857 25.8233 28.8025 25.7894L28.0495 25.6539C27.5678 25.5658 27.0861 25.4777 26.6044 25.3896C26.1024 25.3015 25.5936 25.2066 25.0916 25.1185C24.7184 25.0508 24.3317 24.9695 23.9518 24.9695C23.9518 24.9559 23.9518 24.9424 23.9518 24.9288C23.7822 24.0004 23.6262 23.0788 23.4498 22.1505L23.4295 22.164Z" fill="#F2F2F2"/>
<path id="Vector_5" d="M29.8134 26.562C29.8066 26.4333 29.7998 26.2842 29.6981 26.1893C29.6981 26.1758 29.6981 26.169 29.6981 26.1554C29.7523 26.0945 29.8066 26.0267 29.8609 25.9589C29.983 25.8031 30.1119 25.6472 30.234 25.4913C30.485 25.1796 30.7292 24.8747 30.987 24.5698C31.2381 24.2716 31.4891 23.9734 31.7401 23.682C31.869 23.533 32.0047 23.3839 32.1336 23.2348C32.215 23.1399 32.3167 23.0451 32.3982 22.9502C32.5542 23.0654 32.7713 23.0654 32.9341 22.9502C32.1946 24.9221 31.1024 26.7247 29.7252 28.2697C29.7456 28.1003 29.7659 27.9309 29.7863 27.7614C29.8066 27.5039 29.8202 27.2464 29.827 26.9889C29.827 26.8534 29.827 26.7111 29.827 26.5756L29.8134 26.562Z" fill="#F2F2F2"/>
<path id="Vector_6" d="M32.7305 22.5426C32.7305 22.502 32.7305 22.4613 32.7305 22.4613C32.7305 22.3055 32.7305 22.1496 32.7305 21.9937C32.7305 21.682 32.717 21.3703 32.7034 21.0518C32.6763 20.4352 32.6356 19.8185 32.5813 19.2086C32.466 17.9618 32.2896 16.7217 32.0318 15.4952C31.9639 15.1563 31.8893 14.8175 31.8079 14.4787C31.7468 14.2415 31.6858 14.0044 31.6044 13.774C31.6179 13.7333 31.6179 13.6859 31.6044 13.6452C31.7401 13.4351 31.8282 13.1776 31.9164 12.954C32.0453 12.6355 32.1675 12.3103 32.2828 11.985C32.3981 11.6733 32.5067 11.3548 32.6084 11.0363C32.6559 10.894 32.7034 10.7517 32.7441 10.6094C33.626 12.7643 34.0738 15.136 33.9856 17.6162C33.9178 19.3916 33.5786 21.0925 33.0155 22.6849C32.9748 22.5697 32.8526 22.4884 32.7237 22.5426H32.7305Z" fill="#F2F2F2"/>
<path id="Vector_7" d="M32.5066 10.026C32.4252 10.148 32.3913 10.2835 32.3506 10.4326C32.3031 10.5817 32.2556 10.7307 32.2081 10.8798C32.1064 11.1983 31.9978 11.5168 31.8825 11.8285C31.7671 12.1402 31.6518 12.4587 31.5365 12.7704C31.4551 12.9873 31.333 13.2177 31.2719 13.4549C30.6546 13.299 30.0372 13.1364 29.4266 12.9534C28.8228 12.7704 28.2258 12.5536 27.6288 12.3706C27.6085 12.33 27.5746 12.2893 27.5338 12.2554C26.4145 10.2496 25.1187 8.35222 23.6601 6.5768C23.4498 6.32608 23.2395 6.07535 23.0292 5.8314C22.8596 5.64166 22.6968 5.42481 22.5 5.2554C22.5 5.2283 22.4932 5.20797 22.4865 5.18086C22.6425 4.86237 22.7375 4.52355 22.846 4.19151C22.9138 4.00177 22.9817 3.81203 23.0495 3.62906C23.0835 3.53419 23.1242 3.43932 23.1581 3.35123C23.1717 3.31735 23.1852 3.28347 23.192 3.25636C23.2531 3.25636 23.3141 3.26314 23.382 3.25636C23.694 3.22248 23.9993 3.12761 24.3046 3.05307L26.0821 2.64648C28.8839 4.4219 31.1294 6.99694 32.4998 10.0328L32.5066 10.026Z" fill="#F2F2F2"/>
<path id="Vector_8" d="M23.0496 2.70272C22.9343 2.64173 22.8393 2.5333 22.7511 2.43844C22.3169 1.99119 21.8759 1.55073 21.4417 1.10348C21.2179 0.879861 21.0008 0.656239 20.7769 0.432617C22.4322 0.80532 23.9858 1.42197 25.4173 2.23514C25.0509 2.32324 24.6846 2.41133 24.3182 2.49942C24.0333 2.56719 23.7484 2.64173 23.4566 2.70949C23.3142 2.74337 23.1785 2.77048 23.0428 2.69594L23.0496 2.70272Z" fill="#F2F2F2"/>
<path id="Vector_9" d="M20.0035 0.2758C20.1392 0.458763 20.3088 0.621396 20.4648 0.777254C20.7023 1.02798 20.9397 1.27871 21.1839 1.52944C21.6385 2.00378 22.0726 2.50524 22.5475 2.95248C22.6222 3.02025 22.6968 3.07446 22.7714 3.12189C22.7646 3.149 22.7511 3.16933 22.7443 3.19643C22.7036 3.29808 22.6696 3.39973 22.6357 3.4946C22.5679 3.68434 22.5 3.87407 22.439 4.06381C22.3372 4.36875 22.2355 4.68724 22.188 5.00574C22.188 5.00574 22.1744 5.00574 22.1676 5.00574C20.8718 5.33778 19.5829 5.70371 18.3074 6.10352C17.6765 6.30003 17.0456 6.52365 16.4215 6.7405C16.1026 6.8557 15.7838 6.96412 15.4717 7.08609C15.2071 7.18096 14.9086 7.26906 14.6576 7.40459C14.6033 7.39103 14.5422 7.39103 14.488 7.41136C13.7146 7.11998 12.948 6.80826 12.1678 6.51688C11.7608 6.36779 11.3605 6.21871 10.9534 6.07641C10.7499 6.00187 10.5464 5.9341 10.3429 5.86634C10.1665 5.81213 9.99011 5.77825 9.81372 5.74437C9.9087 5.52074 9.97653 5.27679 10.0308 5.01929C10.2954 3.73855 10.56 2.45103 10.8178 1.17029C12.9276 0.343563 15.2342 -0.0765742 17.6358 0.0115192C18.4431 0.0386248 19.2369 0.133495 20.0103 0.269023L20.0035 0.2758Z" fill="#F2F2F2"/>
<path id="Vector_10" d="M10.2209 1.4209C10.0309 2.3696 9.84773 3.31829 9.65778 4.26699C9.5628 4.74812 9.5153 5.31056 9.25751 5.73747C9.00649 6.15083 8.55875 6.42867 8.18562 6.71328C7.32404 7.37737 6.46245 8.04145 5.60086 8.70554C5.15989 9.04436 4.72572 9.38318 4.28475 9.722C4.06766 9.89141 3.84378 10.0608 3.62669 10.2302C3.42995 10.3861 3.2332 10.5623 3.01611 10.691C2.62941 10.9147 2.38519 10.6707 2.14096 10.3793C1.97136 10.1828 1.80175 9.96595 1.58466 9.8372C3.34175 6.07629 6.42853 3.07434 10.2209 1.4209Z" fill="#F2F2F2"/>
<path id="Vector_11" d="M1.42855 10.1826C1.76097 10.4876 1.97807 10.9484 2.37154 11.1449C2.26978 11.6124 2.24943 12.1003 2.22229 12.5815C2.18159 13.1236 2.15445 13.6589 2.1341 14.201C2.09339 15.2717 2.0934 16.3424 2.12732 17.4131C2.12732 17.4266 2.12731 17.4334 2.1341 17.4469C2.09339 17.5554 2.05269 17.6706 2.01877 17.779C1.93736 17.989 1.86273 18.2059 1.78811 18.416C1.63886 18.8429 1.50318 19.2766 1.3675 19.7035C1.2386 20.1236 1.1097 20.5438 0.987587 20.9707C0.926529 21.1875 0.865469 21.4044 0.804412 21.6212C0.78406 21.7025 0.750143 21.7974 0.723006 21.8855C0.200628 20.1439 -0.0571711 18.294 0.0106702 16.3763C0.0920798 14.1739 0.594103 12.0936 1.42855 10.1894V10.1826Z" fill="#F2F2F2"/>
<path id="Vector_12" d="M0.912903 22.4744C0.967176 22.4744 1.01466 22.4541 1.05536 22.4134C1.20461 22.2508 1.23175 22.0136 1.28602 21.8036C1.34708 21.5867 1.40136 21.3699 1.46242 21.1462C1.58453 20.7126 1.71343 20.2789 1.84233 19.8452C1.97122 19.425 2.10691 19.0049 2.24938 18.5848C2.31722 18.3679 2.39184 18.1578 2.45968 17.941C2.50039 17.819 2.54788 17.6903 2.58858 17.5615C3.08383 17.7919 3.59942 17.9884 4.10144 18.1917C4.70523 18.4357 5.30902 18.6864 5.90602 18.9304C6.50981 19.1743 7.1136 19.4183 7.71738 19.6622C8.01589 19.7842 8.32117 19.9062 8.61968 20.0281L9.04029 20.1975C9.08778 20.2179 9.13527 20.2382 9.18954 20.2585C9.20311 20.3737 9.32522 20.4822 9.44733 20.4212C9.44733 20.6516 9.46768 20.882 9.48125 21.1056C9.50161 21.4444 9.52874 21.7832 9.55588 22.1221C9.61015 22.8132 9.68478 23.5044 9.76618 24.1956C9.929 25.517 10.1325 26.8249 10.37 28.1327C10.0375 28.2547 9.71192 28.3835 9.37949 28.4987C8.91817 28.6545 8.45685 28.8036 7.99553 28.9391C7.54099 29.0679 7.07967 29.1831 6.61835 29.2847C6.38769 29.3322 6.15703 29.3796 5.91958 29.427C5.79747 29.4474 5.64822 29.4541 5.51254 29.4948C3.4366 27.5906 1.83554 25.1782 0.912903 22.4676V22.4744Z" fill="#F2F2F2"/>
<path id="Vector_13" d="M6.05531 29.9713C6.27919 29.9307 6.49628 29.89 6.71337 29.8426C7.18826 29.7409 7.65637 29.6189 8.12447 29.4834C8.59258 29.3479 9.0539 29.1988 9.50844 29.0294C9.868 28.8939 10.2276 28.7583 10.5735 28.5957C10.7296 28.738 10.9806 28.8193 11.1502 28.9006C11.4148 29.0226 11.6794 29.1378 11.9439 29.2462C12.4799 29.4699 13.0158 29.6799 13.5586 29.8764C14.1013 30.073 14.6508 30.2559 15.2003 30.4321C15.4785 30.5202 15.7498 30.6015 16.028 30.6828C16.2519 30.7506 16.4961 30.8455 16.7335 30.859C16.7878 30.8997 16.8557 30.92 16.9167 30.8861C16.9303 30.8861 16.9371 30.8726 16.9506 30.8658C16.9981 30.9674 17.0592 31.0691 17.1135 31.164C17.2016 31.313 17.283 31.4621 17.3712 31.618C17.5341 31.9094 17.7037 32.2008 17.8665 32.4921C18.0293 32.7835 18.1921 33.0817 18.3549 33.3731C18.4363 33.5222 18.5178 33.678 18.5992 33.8339C18.6127 33.861 18.6263 33.8881 18.6399 33.9152C17.8936 33.9897 17.1338 34.0168 16.3672 33.9897C12.4256 33.8474 8.84359 32.3566 6.04175 29.9984L6.05531 29.9713Z" fill="#F2F2F2"/>
<path id="Vector_14" d="M19.2098 33.8336C19.1759 33.7455 19.1216 33.6574 19.0741 33.5694C18.9927 33.4135 18.9113 33.2644 18.8231 33.1153C18.6535 32.8104 18.4907 32.5122 18.3143 32.2073C18.1379 31.9091 17.9683 31.611 17.7851 31.3128C17.6494 31.0892 17.507 30.8114 17.3238 30.6081C17.5816 30.4183 17.8258 30.2083 18.0633 29.9982C18.4364 29.6865 18.8027 29.368 19.1758 29.0563C19.9153 28.4261 20.6548 27.7958 21.3943 27.1656C21.7538 26.8539 22.1134 26.549 22.4729 26.2441C22.7714 25.9865 23.0767 25.6816 23.4702 25.58C23.8908 25.4648 24.3454 25.5529 24.766 25.6274C25.2477 25.7155 25.7293 25.8036 26.211 25.8849C26.7402 25.9798 27.2625 26.0746 27.7917 26.1695L28.6194 26.3186C28.8704 26.366 29.1214 26.4202 29.3792 26.4406C29.3792 26.4744 29.3724 26.5151 29.3724 26.549C29.3656 26.6845 29.3588 26.8268 29.352 26.9624C29.3385 27.2199 29.3181 27.4774 29.2842 27.7349C29.2571 27.9856 29.2164 28.2363 29.1689 28.487C29.1553 28.5819 29.1146 28.7581 29.1214 28.9004C26.5163 31.5432 23.0496 33.3322 19.2098 33.8336Z" fill="#F2F2F2"/>
</g>
</svg>
