<svg width="368" height="82" viewBox="0 0 368 82" fill="none" xmlns="http://www.w3.org/2000/svg">
<g filter="url(#filter0_d_388_4329)">
<rect x="15" y="15" width="337.997" height="52" rx="26" fill="#5A4DAC"/>
<path d="M27.6971 36.6633C27.7243 36.1889 27.7853 35.7078 27.7785 35.2335C28.2399 35.2199 28.6333 34.8201 28.9793 34.5626C29.4407 34.217 29.902 33.8646 30.3633 33.5123C31.2927 32.8007 32.2222 32.096 33.1516 31.3845C33.5722 31.066 34.0335 30.761 34.3999 30.3816C34.5084 30.2664 34.6034 30.1444 34.678 30.0156C34.834 30.0969 34.9833 30.1783 35.1529 30.2392C35.3564 30.3138 35.5599 30.3883 35.7635 30.4629C36.1841 30.6119 36.5979 30.7678 37.0117 30.9237C37.7784 31.2151 38.545 31.5132 39.2912 31.852C39.1691 33.2209 39.108 34.6033 39.0809 35.9789C39.0673 36.6972 39.0606 37.4155 39.0741 38.127C39.0741 38.4861 39.0877 38.8453 39.1013 39.2044C39.108 39.3874 39.1148 39.5771 39.1284 39.7601C39.1352 39.8821 39.1555 39.9973 39.1827 40.1057C38.9927 40.2073 38.8299 40.3903 38.6739 40.5258C38.4703 40.702 38.2668 40.8714 38.0565 41.0476C37.6359 41.4 37.2153 41.7456 36.7879 42.0912C36.0552 42.6807 35.3021 43.2432 34.583 43.8463C34.3659 43.7108 34.0878 43.6362 33.8639 43.5481L32.9616 43.1822L31.1503 42.4503C30.5465 42.2064 29.9427 41.9624 29.3389 41.7253C28.7758 41.5016 28.2127 41.2577 27.6361 41.068C27.6089 40.1328 27.6089 39.1909 27.6361 38.2557C27.6496 37.7272 27.6768 37.1986 27.7107 36.6701L27.6971 36.6633Z" fill="#F2F2F2"/>
<path d="M37.1203 42.4988C37.541 42.1667 37.9616 41.8279 38.3754 41.4891C38.5857 41.3197 38.7892 41.1435 38.9928 40.9741C39.1013 40.886 39.2302 40.7911 39.3455 40.6895C39.4744 40.8521 39.7187 40.9402 39.895 41.0215C40.1596 41.1502 40.4242 41.2722 40.6888 41.3942C41.2247 41.6314 41.7675 41.8618 42.3102 42.0718C43.4024 42.492 44.5218 42.8511 45.6548 43.1493C45.9804 43.2374 46.3061 43.3187 46.6317 43.3932C46.9166 43.461 47.2151 43.5423 47.5068 43.5762C47.4933 43.7795 47.5272 43.9896 47.5611 44.1929C47.595 44.4233 47.6357 44.6537 47.6764 44.8841C47.7511 45.3516 47.8325 45.826 47.9071 46.2935C48.0563 47.2151 48.226 48.13 48.382 49.0448C47.6086 49.2481 47.0252 49.8986 46.435 50.4136C45.6819 51.0641 44.9289 51.7147 44.1826 52.372C43.762 52.7379 43.3482 53.1038 42.9275 53.4698C42.5816 53.7747 42.222 54.0729 41.9099 54.4049C41.7946 54.3304 41.6386 54.3033 41.5097 54.2626C41.3808 54.2287 41.2519 54.1881 41.123 54.1542C40.8584 54.0796 40.587 53.9983 40.3224 53.9102C39.7797 53.7408 39.2438 53.5579 38.7078 53.3681C38.1854 53.1784 37.6631 52.9819 37.1475 52.7786C36.8761 52.6702 36.6115 52.5617 36.3469 52.4533C36.2316 52.4059 36.0959 52.3381 35.9603 52.2839C35.9603 52.2161 35.9467 52.1484 35.906 52.1009C35.655 50.7863 35.4514 49.4649 35.2818 48.1367C35.2004 47.4591 35.1258 46.7814 35.058 46.1038C35.024 45.765 34.9969 45.4262 34.963 45.0873C34.9358 44.7892 34.9291 44.4775 34.8477 44.1929C35.6278 43.6779 36.3673 43.0951 37.1 42.5191L37.1203 42.4988Z" fill="#F2F2F2"/>
<path d="M39.5424 40.1183C39.5627 40.0031 39.5831 39.8946 39.5831 39.7727C39.5831 39.5897 39.5831 39.4 39.5831 39.217C39.5831 38.8714 39.5831 38.5258 39.5831 38.1802C39.5831 37.4551 39.5899 36.7233 39.6102 35.9982C39.6441 34.5955 39.7323 33.1995 39.8409 31.7968C40.1122 31.7358 40.3836 31.6206 40.6414 31.5325C40.9602 31.4241 41.2791 31.3157 41.598 31.2141C42.2153 31.0108 42.8395 30.821 43.4636 30.6313C44.7051 30.245 45.9534 29.8927 47.2084 29.5674C47.3238 29.7232 47.4594 29.8723 47.5883 30.0214C47.7783 30.245 47.9683 30.4686 48.1514 30.699C48.511 31.1395 48.857 31.5868 49.1962 32.0408C49.8814 32.9624 50.5191 33.9111 51.1229 34.8801C51.4485 35.4019 51.7538 35.9304 52.0523 36.4725C51.3603 37.6313 50.6412 38.7697 49.9017 39.8946C49.515 40.4774 49.1216 41.0534 48.7213 41.6226C48.3889 42.1037 48.0225 42.5713 47.7172 43.0728C47.4527 42.9847 47.1745 42.9508 46.9032 42.883C46.6182 42.8153 46.3333 42.7475 46.0483 42.6797C45.492 42.5374 44.9357 42.3816 44.3862 42.2122C43.2872 41.8733 42.2085 41.4735 41.1434 41.0331C40.8517 40.9111 40.5668 40.7891 40.275 40.6604C40.1258 40.5926 39.9765 40.5248 39.8273 40.4639C39.7527 40.43 39.6713 40.3961 39.5831 40.3758C39.617 40.2877 39.5831 40.1996 39.5288 40.1386L39.5424 40.1183Z" fill="#F2F2F2"/>
<path d="M48.4295 46.164C48.3413 45.71 48.2531 45.2492 48.1717 44.7952C48.131 44.5648 48.0835 44.3412 48.0428 44.1108C48.0021 43.9075 47.9613 43.7042 47.8867 43.5145C48.348 43.0333 48.7279 42.4709 49.1146 41.9356C49.5285 41.3596 49.9355 40.7768 50.3358 40.194C51.1092 39.0556 51.8487 37.89 52.5678 36.7109C53.1241 36.9617 53.6939 37.1582 54.2774 37.3479C54.949 37.5648 55.6342 37.7681 56.3262 37.9375C56.3601 38.1408 56.4008 38.3373 56.4415 38.5338C56.5094 38.8726 56.584 39.2114 56.645 39.557C56.7671 40.2279 56.8757 40.9055 56.9571 41.5832C57.1335 42.952 57.2217 44.3276 57.2353 45.7032C57.2353 45.893 57.2353 46.0827 57.2353 46.2725C57.2353 46.3334 57.2353 46.4012 57.2353 46.469C57.0928 46.5774 56.9775 46.7265 56.8553 46.8552C56.7197 47.0043 56.5908 47.1534 56.4619 47.3025C56.1973 47.6074 55.9327 47.9191 55.6681 48.2308C55.4171 48.5358 55.1661 48.8407 54.9151 49.1524C54.793 49.3083 54.6709 49.4641 54.5487 49.6268C54.4809 49.7149 54.4063 49.803 54.352 49.8911C54.1688 49.8504 53.9857 49.8233 53.8025 49.7894L53.0495 49.6539C52.5678 49.5658 52.0861 49.4777 51.6044 49.3896C51.1024 49.3015 50.5936 49.2066 50.0916 49.1185C49.7184 49.0508 49.3317 48.9695 48.9518 48.9695C48.9518 48.9559 48.9518 48.9424 48.9518 48.9288C48.7822 48.0004 48.6262 47.0788 48.4498 46.1505L48.4295 46.164Z" fill="#F2F2F2"/>
<path d="M54.8136 50.562C54.8068 50.4333 54.8 50.2842 54.6982 50.1893C54.6982 50.1758 54.6982 50.169 54.6982 50.1554C54.7525 50.0945 54.8068 50.0267 54.8611 49.9589C54.9832 49.8031 55.1121 49.6472 55.2342 49.4913C55.4852 49.1796 55.7294 48.8747 55.9872 48.5698C56.2382 48.2716 56.4893 47.9734 56.7403 47.682C56.8692 47.533 57.0048 47.3839 57.1337 47.2348C57.2152 47.1399 57.3169 47.0451 57.3983 46.9502C57.5544 47.0654 57.7714 47.0654 57.9343 46.9502C57.1948 48.9221 56.1026 50.7247 54.7254 52.2697C54.7457 52.1003 54.7661 51.9309 54.7864 51.7614C54.8068 51.5039 54.8204 51.2464 54.8271 50.9889C54.8271 50.8534 54.8271 50.7111 54.8271 50.5756L54.8136 50.562Z" fill="#F2F2F2"/>
<path d="M57.7307 46.5426C57.7307 46.502 57.7307 46.4613 57.7307 46.4613C57.7307 46.3055 57.7307 46.1496 57.7307 45.9937C57.7307 45.682 57.7171 45.3703 57.7035 45.0518C57.6764 44.4352 57.6357 43.8185 57.5814 43.2086C57.4661 41.9618 57.2897 40.7217 57.0319 39.4952C56.9641 39.1563 56.8894 38.8175 56.808 38.4787C56.747 38.2415 56.6859 38.0044 56.6045 37.774C56.6181 37.7333 56.6181 37.6859 56.6045 37.6452C56.7402 37.4351 56.8284 37.1776 56.9166 36.954C57.0455 36.6355 57.1676 36.3103 57.2829 35.985C57.3982 35.6733 57.5068 35.3548 57.6086 35.0363C57.656 34.894 57.7035 34.7517 57.7442 34.6094C58.6262 36.7643 59.0739 39.136 58.9857 41.6162C58.9179 43.3916 58.5787 45.0925 58.0156 46.6849C57.9749 46.5697 57.8528 46.4884 57.7239 46.5426H57.7307Z" fill="#F2F2F2"/>
<path d="M57.5065 34.026C57.4251 34.148 57.3912 34.2835 57.3505 34.4326C57.303 34.5817 57.2555 34.7307 57.208 34.8798C57.1062 35.1983 56.9977 35.5168 56.8824 35.8285C56.767 36.1402 56.6517 36.4587 56.5364 36.7704C56.4549 36.9873 56.3328 37.2177 56.2718 37.4549C55.6544 37.299 55.0371 37.1364 54.4265 36.9534C53.8227 36.7704 53.2257 36.5536 52.6287 36.3706C52.6084 36.33 52.5744 36.2893 52.5337 36.2554C51.4143 34.2496 50.1186 32.3522 48.66 30.5768C48.4497 30.3261 48.2394 30.0753 48.0291 29.8314C47.8595 29.6417 47.6966 29.4248 47.4999 29.2554C47.4999 29.2283 47.4931 29.208 47.4863 29.1809C47.6424 28.8624 47.7373 28.5236 47.8459 28.1915C47.9137 28.0018 47.9816 27.812 48.0494 27.6291C48.0833 27.5342 48.1241 27.4393 48.158 27.3512C48.1715 27.3173 48.1851 27.2835 48.1919 27.2564C48.2529 27.2564 48.314 27.2631 48.3818 27.2564C48.6939 27.2225 48.9992 27.1276 49.3045 27.0531L51.0819 26.6465C53.8838 28.4219 56.1293 30.9969 57.4997 34.0328L57.5065 34.026Z" fill="#F2F2F2"/>
<path d="M48.0495 26.7027C47.9342 26.6417 47.8392 26.5333 47.751 26.4384C47.3169 25.9912 46.8759 25.5507 46.4417 25.1035C46.2178 24.8799 46.0007 24.6562 45.7769 24.4326C47.4322 24.8053 48.9857 25.422 50.4172 26.2351C50.0509 26.3232 49.6845 26.4113 49.3182 26.4994C49.0332 26.5672 48.7483 26.6417 48.4566 26.7095C48.3141 26.7434 48.1784 26.7705 48.0428 26.6959L48.0495 26.7027Z" fill="#F2F2F2"/>
<path d="M45.0037 24.2758C45.1394 24.4588 45.309 24.6214 45.4651 24.7773C45.7025 25.028 45.9399 25.2787 46.1842 25.5294C46.6387 26.0038 47.0729 26.5052 47.5478 26.9525C47.6224 27.0202 47.697 27.0745 47.7717 27.1219C47.7649 27.149 47.7513 27.1693 47.7445 27.1964C47.7038 27.2981 47.6699 27.3997 47.636 27.4946C47.5681 27.6843 47.5003 27.8741 47.4392 28.0638C47.3375 28.3688 47.2357 28.6872 47.1882 29.0057C47.1882 29.0057 47.1746 29.0057 47.1679 29.0057C45.8721 29.3378 44.5831 29.7037 43.3077 30.1035C42.6768 30.3 42.0458 30.5237 41.4217 30.7405C41.1028 30.8557 40.784 30.9641 40.4719 31.0861C40.2073 31.181 39.9088 31.2691 39.6578 31.4046C39.6036 31.391 39.5425 31.391 39.4882 31.4114C38.7148 31.12 37.9482 30.8083 37.1681 30.5169C36.761 30.3678 36.3607 30.2187 35.9537 30.0764C35.7502 30.0019 35.5467 29.9341 35.3431 29.8663C35.1667 29.8121 34.9904 29.7782 34.814 29.7444C34.9089 29.5207 34.9768 29.2768 35.0311 29.0193C35.2956 27.7385 35.5602 26.451 35.818 25.1703C37.9279 24.3436 40.2345 23.9234 42.6361 24.0115C43.4434 24.0386 44.2371 24.1335 45.0105 24.269L45.0037 24.2758Z" fill="#F2F2F2"/>
<path d="M35.2207 25.4209C35.0307 26.3696 34.8476 27.3183 34.6576 28.267C34.5626 28.7481 34.5151 29.3106 34.2573 29.7375C34.0063 30.1508 33.5586 30.4287 33.1854 30.7133C32.3239 31.3774 31.4623 32.0415 30.6007 32.7055C30.1597 33.0444 29.7255 33.3832 29.2846 33.722C29.0675 33.8914 28.8436 34.0608 28.6265 34.2302C28.4298 34.3861 28.233 34.5623 28.0159 34.691C27.6292 34.9147 27.385 34.6707 27.1408 34.3793C26.9712 34.1828 26.8016 33.966 26.5845 33.8372C28.3416 30.0763 31.4283 27.0743 35.2207 25.4209Z" fill="#F2F2F2"/>
<path d="M26.4286 34.1826C26.761 34.4876 26.9781 34.9484 27.3715 35.1449C27.2698 35.6124 27.2494 36.1003 27.2223 36.5815C27.1816 37.1236 27.1544 37.6589 27.1341 38.201C27.0934 39.2717 27.0934 40.3424 27.1273 41.4131C27.1273 41.4266 27.1273 41.4334 27.1341 41.4469C27.0934 41.5554 27.0527 41.6706 27.0188 41.779C26.9374 41.989 26.8627 42.2059 26.7881 42.416C26.6389 42.8429 26.5032 43.2766 26.3675 43.7035C26.2386 44.1236 26.1097 44.5438 25.9876 44.9707C25.9265 45.1875 25.8655 45.4044 25.8044 45.6212C25.7841 45.7025 25.7501 45.7974 25.723 45.8855C25.2006 44.1439 24.9428 42.294 25.0107 40.3763C25.0921 38.1739 25.5941 36.0936 26.4286 34.1894V34.1826Z" fill="#F2F2F2"/>
<path d="M25.9131 46.4744C25.9674 46.4744 26.0148 46.4541 26.0555 46.4134C26.2048 46.2508 26.2319 46.0136 26.2862 45.8036C26.3473 45.5867 26.4015 45.3699 26.4626 45.1462C26.5847 44.7126 26.7136 44.2789 26.8425 43.8452C26.9714 43.425 27.1071 43.0049 27.2496 42.5848C27.3174 42.3679 27.392 42.1578 27.4599 41.941C27.5006 41.819 27.5481 41.6903 27.5888 41.5615C28.084 41.7919 28.5996 41.9884 29.1016 42.1917C29.7054 42.4357 30.3092 42.6864 30.9062 42.9304C31.51 43.1743 32.1138 43.4183 32.7176 43.6622C33.0161 43.7842 33.3214 43.9062 33.6199 44.0281L34.0405 44.1975C34.088 44.2179 34.1354 44.2382 34.1897 44.2585C34.2033 44.3737 34.3254 44.4822 34.4475 44.4212C34.4475 44.6516 34.4679 44.882 34.4814 45.1056C34.5018 45.4444 34.5289 45.7832 34.5561 46.1221C34.6103 46.8132 34.685 47.5044 34.7664 48.1956C34.9292 49.517 35.1327 50.8249 35.3702 52.1327C35.0377 52.2547 34.7121 52.3835 34.3797 52.4987C33.9184 52.6545 33.457 52.8036 32.9957 52.9391C32.5412 53.0679 32.0799 53.1831 31.6185 53.2847C31.3879 53.3322 31.1572 53.3796 30.9198 53.427C30.7977 53.4474 30.6484 53.4541 30.5127 53.4948C28.4368 51.5906 26.8357 49.1782 25.9131 46.4676V46.4744Z" fill="#F2F2F2"/>
<path d="M31.0556 53.9713C31.2794 53.9307 31.4965 53.89 31.7136 53.8426C32.1885 53.7409 32.6566 53.6189 33.1247 53.4834C33.5928 53.3479 34.0541 53.1988 34.5087 53.0294C34.8682 52.8939 35.2278 52.7583 35.5738 52.5957C35.7298 52.738 35.9808 52.8193 36.1504 52.9006C36.415 53.0226 36.6796 53.1378 36.9442 53.2462C37.4801 53.4699 38.0161 53.6799 38.5588 53.8764C39.1015 54.073 39.6511 54.2559 40.2006 54.4321C40.4787 54.5202 40.7501 54.6015 41.0282 54.6828C41.2521 54.7506 41.4963 54.8455 41.7338 54.859C41.7881 54.8997 41.8559 54.92 41.917 54.8861C41.9305 54.8861 41.9373 54.8726 41.9509 54.8658C41.9984 54.9674 42.0594 55.0691 42.1137 55.164C42.2019 55.313 42.2833 55.4621 42.3715 55.618C42.5343 55.9094 42.7039 56.2008 42.8667 56.4921C43.0295 56.7835 43.1924 57.0817 43.3552 57.3731C43.4366 57.5222 43.518 57.678 43.5994 57.8339C43.613 57.861 43.6266 57.8881 43.6401 57.9152C42.8939 57.9897 42.134 58.0168 41.3674 57.9897C37.4259 57.8474 33.8438 56.3566 31.042 53.9984L31.0556 53.9713Z" fill="#F2F2F2"/>
<path d="M44.2097 57.8336C44.1758 57.7455 44.1215 57.6574 44.074 57.5694C43.9926 57.4135 43.9112 57.2644 43.823 57.1153C43.6534 56.8104 43.4906 56.5122 43.3142 56.2073C43.1378 55.9091 42.9682 55.611 42.785 55.3128C42.6494 55.0892 42.5069 54.8114 42.3237 54.6081C42.5815 54.4183 42.8258 54.2083 43.0632 53.9982C43.4363 53.6865 43.8027 53.368 44.1758 53.0563C44.9153 52.4261 45.6547 51.7958 46.3942 51.1656C46.7538 50.8539 47.1133 50.549 47.4729 50.2441C47.7714 49.9865 48.0767 49.6816 48.4702 49.58C48.8908 49.4648 49.3453 49.5529 49.7659 49.6274C50.2476 49.7155 50.7293 49.8036 51.2109 49.8849C51.7401 49.9798 52.2625 50.0746 52.7916 50.1695L53.6193 50.3186C53.8703 50.366 54.1213 50.4202 54.3791 50.4406C54.3791 50.4744 54.3723 50.5151 54.3723 50.549C54.3655 50.6845 54.3588 50.8268 54.352 50.9624C54.3384 51.2199 54.3181 51.4774 54.2842 51.7349C54.257 51.9856 54.2163 52.2363 54.1688 52.487C54.1552 52.5819 54.1145 52.7581 54.1213 52.9004C51.5162 55.5432 48.0495 57.3322 44.2097 57.8336Z" fill="#F2F2F2"/>
<path d="M70.6886 47V34.4H73.0286V45.02H79.6166V47H70.6886ZM85.4801 47.126C84.4961 47.126 83.6201 46.916 82.8521 46.496C82.0841 46.064 81.4781 45.476 81.0341 44.732C80.5901 43.988 80.3681 43.142 80.3681 42.194C80.3681 41.234 80.5901 40.388 81.0341 39.656C81.4781 38.912 82.0841 38.33 82.8521 37.91C83.6201 37.49 84.4961 37.28 85.4801 37.28C86.4761 37.28 87.3581 37.49 88.1261 37.91C88.9061 38.33 89.5121 38.906 89.9441 39.638C90.3881 40.37 90.6101 41.222 90.6101 42.194C90.6101 43.142 90.3881 43.988 89.9441 44.732C89.5121 45.476 88.9061 46.064 88.1261 46.496C87.3581 46.916 86.4761 47.126 85.4801 47.126ZM85.4801 45.2C86.0321 45.2 86.5241 45.08 86.9561 44.84C87.3881 44.6 87.7241 44.252 87.9641 43.796C88.2161 43.34 88.3421 42.806 88.3421 42.194C88.3421 41.57 88.2161 41.036 87.9641 40.592C87.7241 40.136 87.3881 39.788 86.9561 39.548C86.5241 39.308 86.0381 39.188 85.4981 39.188C84.9461 39.188 84.4541 39.308 84.0221 39.548C83.6021 39.788 83.2661 40.136 83.0141 40.592C82.7621 41.036 82.6361 41.57 82.6361 42.194C82.6361 42.806 82.7621 43.34 83.0141 43.796C83.2661 44.252 83.6021 44.6 84.0221 44.84C84.4541 45.08 84.9401 45.2 85.4801 45.2ZM98.5606 47V45.056L98.4346 44.642V41.24C98.4346 40.58 98.2366 40.07 97.8406 39.71C97.4446 39.338 96.8446 39.152 96.0406 39.152C95.5006 39.152 94.9666 39.236 94.4386 39.404C93.9226 39.572 93.4846 39.806 93.1246 40.106L92.2426 38.468C92.7586 38.072 93.3706 37.778 94.0786 37.586C94.7986 37.382 95.5426 37.28 96.3106 37.28C97.7026 37.28 98.7766 37.616 99.5326 38.288C100.301 38.948 100.685 39.974 100.685 41.366V47H98.5606ZM95.5366 47.126C94.8166 47.126 94.1866 47.006 93.6466 46.766C93.1066 46.514 92.6866 46.172 92.3866 45.74C92.0986 45.296 91.9546 44.798 91.9546 44.246C91.9546 43.706 92.0806 43.22 92.3326 42.788C92.5966 42.356 93.0226 42.014 93.6106 41.762C94.1986 41.51 94.9786 41.384 95.9506 41.384H98.7406V42.878H96.1126C95.3446 42.878 94.8286 43.004 94.5646 43.256C94.3006 43.496 94.1686 43.796 94.1686 44.156C94.1686 44.564 94.3306 44.888 94.6546 45.128C94.9786 45.368 95.4286 45.488 96.0046 45.488C96.5566 45.488 97.0486 45.362 97.4806 45.11C97.9246 44.858 98.2426 44.486 98.4346 43.994L98.8126 45.344C98.5966 45.908 98.2066 46.346 97.6426 46.658C97.0906 46.97 96.3886 47.126 95.5366 47.126ZM107.658 47.126C106.734 47.126 105.9 46.922 105.156 46.514C104.424 46.094 103.848 45.518 103.428 44.786C103.008 44.054 102.798 43.19 102.798 42.194C102.798 41.198 103.008 40.334 103.428 39.602C103.848 38.87 104.424 38.3 105.156 37.892C105.9 37.484 106.734 37.28 107.658 37.28C108.462 37.28 109.182 37.46 109.818 37.82C110.454 38.168 110.958 38.702 111.33 39.422C111.702 40.142 111.888 41.066 111.888 42.194C111.888 43.31 111.708 44.234 111.348 44.966C110.988 45.686 110.49 46.226 109.854 46.586C109.218 46.946 108.486 47.126 107.658 47.126ZM107.928 45.2C108.468 45.2 108.948 45.08 109.368 44.84C109.8 44.6 110.142 44.252 110.394 43.796C110.658 43.34 110.79 42.806 110.79 42.194C110.79 41.57 110.658 41.036 110.394 40.592C110.142 40.136 109.8 39.788 109.368 39.548C108.948 39.308 108.468 39.188 107.928 39.188C107.388 39.188 106.902 39.308 106.47 39.548C106.05 39.788 105.708 40.136 105.444 40.592C105.192 41.036 105.066 41.57 105.066 42.194C105.066 42.806 105.192 43.34 105.444 43.796C105.708 44.252 106.05 44.6 106.47 44.84C106.902 45.08 107.388 45.2 107.928 45.2ZM110.844 47V44.732L110.934 42.176L110.754 39.62V33.644H112.986V47H110.844ZM122.254 47V35.3L123.28 36.362H119.59V34.4H124.594V47H122.254ZM131.269 47.18C130.381 47.18 129.511 47.054 128.659 46.802C127.819 46.538 127.111 46.178 126.535 45.722L127.525 43.904C127.981 44.276 128.533 44.576 129.181 44.804C129.841 45.032 130.525 45.146 131.233 45.146C132.061 45.146 132.709 44.972 133.177 44.624C133.657 44.276 133.897 43.808 133.897 43.22C133.897 42.824 133.795 42.476 133.591 42.176C133.399 41.876 133.051 41.648 132.547 41.492C132.055 41.336 131.377 41.258 130.513 41.258H127.471L128.119 34.4H135.517V36.362H128.983L130.207 35.246L129.721 40.376L128.497 39.278H131.035C132.283 39.278 133.285 39.446 134.041 39.782C134.809 40.106 135.367 40.562 135.715 41.15C136.075 41.726 136.255 42.386 136.255 43.13C136.255 43.862 136.075 44.534 135.715 45.146C135.355 45.758 134.803 46.25 134.059 46.622C133.327 46.994 132.397 47.18 131.269 47.18ZM143.059 47.18C141.919 47.18 140.941 46.94 140.125 46.46C139.309 45.968 138.685 45.26 138.253 44.336C137.821 43.412 137.605 42.272 137.605 40.916C137.605 39.476 137.863 38.258 138.379 37.262C138.907 36.266 139.633 35.51 140.557 34.994C141.493 34.478 142.567 34.22 143.779 34.22C144.415 34.22 145.021 34.286 145.597 34.418C146.185 34.55 146.683 34.754 147.091 35.03L146.227 36.794C145.879 36.566 145.501 36.41 145.093 36.326C144.697 36.23 144.277 36.182 143.833 36.182C142.645 36.182 141.703 36.548 141.007 37.28C140.311 38.012 139.963 39.092 139.963 40.52C139.963 40.748 139.969 41.018 139.981 41.33C139.993 41.63 140.035 41.936 140.107 42.248L139.387 41.456C139.603 40.964 139.897 40.556 140.269 40.232C140.653 39.896 141.103 39.644 141.619 39.476C142.147 39.308 142.717 39.224 143.329 39.224C144.157 39.224 144.895 39.386 145.543 39.71C146.191 40.022 146.707 40.472 147.091 41.06C147.475 41.636 147.667 42.314 147.667 43.094C147.667 43.922 147.463 44.642 147.055 45.254C146.647 45.866 146.095 46.34 145.399 46.676C144.703 47.012 143.923 47.18 143.059 47.18ZM142.933 45.344C143.413 45.344 143.839 45.26 144.211 45.092C144.583 44.912 144.871 44.66 145.075 44.336C145.291 44.012 145.399 43.634 145.399 43.202C145.399 42.542 145.171 42.02 144.715 41.636C144.259 41.252 143.647 41.06 142.879 41.06C142.375 41.06 141.931 41.156 141.547 41.348C141.175 41.528 140.875 41.78 140.647 42.104C140.431 42.428 140.323 42.8 140.323 43.22C140.323 43.604 140.425 43.958 140.629 44.282C140.833 44.606 141.127 44.864 141.511 45.056C141.907 45.248 142.381 45.344 142.933 45.344ZM152.85 47.18C151.962 47.18 151.092 47.054 150.24 46.802C149.4 46.538 148.692 46.178 148.116 45.722L149.124 43.904C149.58 44.276 150.132 44.576 150.78 44.804C151.428 45.032 152.106 45.146 152.814 45.146C153.654 45.146 154.308 44.978 154.776 44.642C155.244 44.294 155.478 43.826 155.478 43.238C155.478 42.662 155.262 42.206 154.83 41.87C154.398 41.534 153.702 41.366 152.742 41.366H151.59V39.764L155.19 35.48L155.496 36.362H148.728V34.4H157.314V35.966L153.714 40.25L152.49 39.53H153.192C154.74 39.53 155.898 39.878 156.666 40.574C157.446 41.258 157.836 42.14 157.836 43.22C157.836 43.928 157.656 44.582 157.296 45.182C156.936 45.782 156.384 46.268 155.64 46.64C154.908 47 153.978 47.18 152.85 47.18ZM165.241 47V34.4H167.167L172.675 43.598H171.667L177.085 34.4H179.011L179.029 47H176.815L176.797 37.874H177.265L172.657 45.56H171.613L166.933 37.874H167.473V47H165.241ZM186.537 47.126C185.553 47.126 184.677 46.916 183.909 46.496C183.141 46.064 182.535 45.476 182.091 44.732C181.647 43.988 181.425 43.142 181.425 42.194C181.425 41.234 181.647 40.388 182.091 39.656C182.535 38.912 183.141 38.33 183.909 37.91C184.677 37.49 185.553 37.28 186.537 37.28C187.533 37.28 188.415 37.49 189.183 37.91C189.963 38.33 190.569 38.906 191.001 39.638C191.445 40.37 191.667 41.222 191.667 42.194C191.667 43.142 191.445 43.988 191.001 44.732C190.569 45.476 189.963 46.064 189.183 46.496C188.415 46.916 187.533 47.126 186.537 47.126ZM186.537 45.2C187.089 45.2 187.581 45.08 188.013 44.84C188.445 44.6 188.781 44.252 189.021 43.796C189.273 43.34 189.399 42.806 189.399 42.194C189.399 41.57 189.273 41.036 189.021 40.592C188.781 40.136 188.445 39.788 188.013 39.548C187.581 39.308 187.095 39.188 186.555 39.188C186.003 39.188 185.511 39.308 185.079 39.548C184.659 39.788 184.323 40.136 184.071 40.592C183.819 41.036 183.693 41.57 183.693 42.194C183.693 42.806 183.819 43.34 184.071 43.796C184.323 44.252 184.659 44.6 185.079 44.84C185.511 45.08 185.997 45.2 186.537 45.2ZM193.818 47V37.388H195.96V40.034L195.708 39.26C195.996 38.612 196.446 38.12 197.058 37.784C197.682 37.448 198.456 37.28 199.38 37.28V39.422C199.284 39.398 199.194 39.386 199.11 39.386C199.026 39.374 198.942 39.368 198.858 39.368C198.006 39.368 197.328 39.62 196.824 40.124C196.32 40.616 196.068 41.354 196.068 42.338V47H193.818ZM205.719 47.126C204.651 47.126 203.715 46.916 202.911 46.496C202.119 46.064 201.501 45.476 201.057 44.732C200.625 43.988 200.409 43.142 200.409 42.194C200.409 41.234 200.619 40.388 201.039 39.656C201.471 38.912 202.059 38.33 202.803 37.91C203.559 37.49 204.417 37.28 205.377 37.28C206.313 37.28 207.147 37.484 207.879 37.892C208.611 38.3 209.187 38.876 209.607 39.62C210.027 40.364 210.237 41.24 210.237 42.248C210.237 42.344 210.231 42.452 210.219 42.572C210.219 42.692 210.213 42.806 210.201 42.914H202.191V41.42H209.013L208.131 41.888C208.143 41.336 208.029 40.85 207.789 40.43C207.549 40.01 207.219 39.68 206.799 39.44C206.391 39.2 205.917 39.08 205.377 39.08C204.825 39.08 204.339 39.2 203.919 39.44C203.511 39.68 203.187 40.016 202.947 40.448C202.719 40.868 202.605 41.366 202.605 41.942V42.302C202.605 42.878 202.737 43.388 203.001 43.832C203.265 44.276 203.637 44.618 204.117 44.858C204.597 45.098 205.149 45.218 205.773 45.218C206.313 45.218 206.799 45.134 207.231 44.966C207.663 44.798 208.047 44.534 208.383 44.174L209.589 45.56C209.157 46.064 208.611 46.454 207.951 46.73C207.303 46.994 206.559 47.126 205.719 47.126ZM217.589 47V34.4H219.515L225.023 43.598H224.015L229.433 34.4H231.359L231.377 47H229.163L229.145 37.874H229.613L225.005 45.56H223.961L219.281 37.874H219.821V47H217.589ZM240.486 47V45.056L240.36 44.642V41.24C240.36 40.58 240.162 40.07 239.766 39.71C239.37 39.338 238.77 39.152 237.966 39.152C237.426 39.152 236.892 39.236 236.364 39.404C235.848 39.572 235.41 39.806 235.05 40.106L234.168 38.468C234.684 38.072 235.296 37.778 236.004 37.586C236.724 37.382 237.468 37.28 238.236 37.28C239.628 37.28 240.702 37.616 241.458 38.288C242.226 38.948 242.61 39.974 242.61 41.366V47H240.486ZM237.462 47.126C236.742 47.126 236.112 47.006 235.572 46.766C235.032 46.514 234.612 46.172 234.312 45.74C234.024 45.296 233.88 44.798 233.88 44.246C233.88 43.706 234.006 43.22 234.258 42.788C234.522 42.356 234.948 42.014 235.536 41.762C236.124 41.51 236.904 41.384 237.876 41.384H240.666V42.878H238.038C237.27 42.878 236.754 43.004 236.49 43.256C236.226 43.496 236.094 43.796 236.094 44.156C236.094 44.564 236.256 44.888 236.58 45.128C236.904 45.368 237.354 45.488 237.93 45.488C238.482 45.488 238.974 45.362 239.406 45.11C239.85 44.858 240.168 44.486 240.36 43.994L240.738 45.344C240.522 45.908 240.132 46.346 239.568 46.658C239.016 46.97 238.314 47.126 237.462 47.126ZM249.116 47.126C248.06 47.126 247.244 46.856 246.668 46.316C246.092 45.764 245.804 44.954 245.804 43.886V35.264H248.054V43.832C248.054 44.288 248.168 44.642 248.396 44.894C248.636 45.146 248.966 45.272 249.386 45.272C249.89 45.272 250.31 45.14 250.646 44.876L251.276 46.478C251.012 46.694 250.688 46.856 250.304 46.964C249.92 47.072 249.524 47.126 249.116 47.126ZM244.22 39.26V37.46H250.628V39.26H244.22ZM257.22 47.126C256.212 47.126 255.312 46.916 254.52 46.496C253.74 46.064 253.128 45.476 252.684 44.732C252.24 43.988 252.018 43.142 252.018 42.194C252.018 41.234 252.24 40.388 252.684 39.656C253.128 38.912 253.74 38.33 254.52 37.91C255.312 37.49 256.212 37.28 257.22 37.28C258.156 37.28 258.978 37.472 259.686 37.856C260.406 38.228 260.952 38.78 261.324 39.512L259.596 40.52C259.308 40.064 258.954 39.728 258.534 39.512C258.126 39.296 257.682 39.188 257.202 39.188C256.65 39.188 256.152 39.308 255.708 39.548C255.264 39.788 254.916 40.136 254.664 40.592C254.412 41.036 254.286 41.57 254.286 42.194C254.286 42.818 254.412 43.358 254.664 43.814C254.916 44.258 255.264 44.6 255.708 44.84C256.152 45.08 256.65 45.2 257.202 45.2C257.682 45.2 258.126 45.092 258.534 44.876C258.954 44.66 259.308 44.324 259.596 43.868L261.324 44.876C260.952 45.596 260.406 46.154 259.686 46.55C258.978 46.934 258.156 47.126 257.22 47.126ZM268.636 37.28C269.404 37.28 270.088 37.43 270.688 37.73C271.3 38.03 271.78 38.492 272.128 39.116C272.476 39.728 272.65 40.52 272.65 41.492V47H270.4V41.78C270.4 40.928 270.196 40.292 269.788 39.872C269.392 39.452 268.834 39.242 268.114 39.242C267.586 39.242 267.118 39.35 266.71 39.566C266.302 39.782 265.984 40.106 265.756 40.538C265.54 40.958 265.432 41.492 265.432 42.14V47H263.182V33.644H265.432V39.98L264.946 39.188C265.282 38.576 265.768 38.108 266.404 37.784C267.052 37.448 267.796 37.28 268.636 37.28ZM280.039 47.126C278.971 47.126 278.035 46.916 277.231 46.496C276.439 46.064 275.821 45.476 275.377 44.732C274.945 43.988 274.729 43.142 274.729 42.194C274.729 41.234 274.939 40.388 275.359 39.656C275.791 38.912 276.379 38.33 277.123 37.91C277.879 37.49 278.737 37.28 279.697 37.28C280.633 37.28 281.467 37.484 282.199 37.892C282.931 38.3 283.507 38.876 283.927 39.62C284.347 40.364 284.557 41.24 284.557 42.248C284.557 42.344 284.551 42.452 284.539 42.572C284.539 42.692 284.533 42.806 284.521 42.914H276.511V41.42H283.333L282.451 41.888C282.463 41.336 282.349 40.85 282.109 40.43C281.869 40.01 281.539 39.68 281.119 39.44C280.711 39.2 280.237 39.08 279.697 39.08C279.145 39.08 278.659 39.2 278.239 39.44C277.831 39.68 277.507 40.016 277.267 40.448C277.039 40.868 276.925 41.366 276.925 41.942V42.302C276.925 42.878 277.057 43.388 277.321 43.832C277.585 44.276 277.957 44.618 278.437 44.858C278.917 45.098 279.469 45.218 280.093 45.218C280.633 45.218 281.119 45.134 281.551 44.966C281.983 44.798 282.367 44.534 282.703 44.174L283.909 45.56C283.477 46.064 282.931 46.454 282.271 46.73C281.623 46.994 280.879 47.126 280.039 47.126ZM289.689 47.126C288.885 47.126 288.111 47.024 287.367 46.82C286.635 46.604 286.053 46.346 285.621 46.046L286.485 44.336C286.917 44.612 287.433 44.84 288.033 45.02C288.633 45.2 289.233 45.29 289.833 45.29C290.541 45.29 291.051 45.194 291.363 45.002C291.687 44.81 291.849 44.552 291.849 44.228C291.849 43.964 291.741 43.766 291.525 43.634C291.309 43.49 291.027 43.382 290.679 43.31C290.331 43.238 289.941 43.172 289.509 43.112C289.089 43.052 288.663 42.974 288.231 42.878C287.811 42.77 287.427 42.62 287.079 42.428C286.731 42.224 286.449 41.954 286.233 41.618C286.017 41.282 285.909 40.838 285.909 40.286C285.909 39.674 286.083 39.146 286.431 38.702C286.779 38.246 287.265 37.898 287.889 37.658C288.525 37.406 289.275 37.28 290.139 37.28C290.787 37.28 291.441 37.352 292.101 37.496C292.761 37.64 293.307 37.844 293.739 38.108L292.875 39.818C292.419 39.542 291.957 39.356 291.489 39.26C291.033 39.152 290.577 39.098 290.121 39.098C289.437 39.098 288.927 39.2 288.591 39.404C288.267 39.608 288.105 39.866 288.105 40.178C288.105 40.466 288.213 40.682 288.429 40.826C288.645 40.97 288.927 41.084 289.275 41.168C289.623 41.252 290.007 41.324 290.427 41.384C290.859 41.432 291.285 41.51 291.705 41.618C292.125 41.726 292.509 41.876 292.857 42.068C293.217 42.248 293.505 42.506 293.721 42.842C293.937 43.178 294.045 43.616 294.045 44.156C294.045 44.756 293.865 45.278 293.505 45.722C293.157 46.166 292.659 46.514 292.011 46.766C291.363 47.006 290.589 47.126 289.689 47.126Z" fill="white"/>
<path d="M315.497 38L322.997 45.5L330.497 38" stroke="white" stroke-width="2" stroke-linecap="round" stroke-linejoin="round"/>
<rect x="15.5" y="15.5" width="336.997" height="51" rx="25.5" stroke="#4D3FA2"/>
</g>
<defs>
<filter id="filter0_d_388_4329" x="0" y="0" width="367.997" height="82" filterUnits="userSpaceOnUse" color-interpolation-filters="sRGB">
<feFlood flood-opacity="0" result="BackgroundImageFix"/>
<feColorMatrix in="SourceAlpha" type="matrix" values="0 0 0 0 0 0 0 0 0 0 0 0 0 0 0 0 0 0 127 0" result="hardAlpha"/>
<feOffset/>
<feGaussianBlur stdDeviation="7.5"/>
<feComposite in2="hardAlpha" operator="out"/>
<feColorMatrix type="matrix" values="0 0 0 0 0.0941176 0 0 0 0 0.160784 0 0 0 0 0.341176 0 0 0 0.5 0"/>
<feBlend mode="normal" in2="BackgroundImageFix" result="effect1_dropShadow_388_4329"/>
<feBlend mode="normal" in="SourceGraphic" in2="effect1_dropShadow_388_4329" result="shape"/>
</filter>
</defs>
</svg>
