<svg width="213" height="55" viewBox="0 0 213 55" fill="none" xmlns="http://www.w3.org/2000/svg">
<rect width="213" height="55" fill="#1E1E1E"/>
<g clip-path="url(#clip0_158_3564)">
<rect width="1440" height="6706" transform="translate(-155 -20)" fill="white"/>
<rect width="1440" height="95" transform="translate(-155 -20)" fill="#182957"/>
<path d="M66.0713 29.2517C63.8596 29.2517 62.1368 28.693 60.9029 27.5755C59.6691 26.4347 59.0521 24.7468 59.0521 22.5119L59.0521 3.06062H64.4999V22.442C64.4999 23.2336 64.7094 23.8505 65.1284 24.2929C65.5475 24.7119 66.1179 24.9215 66.8396 24.9215C67.701 24.9215 68.4343 24.6886 69.0396 24.223L70.5063 28.0644C69.9476 28.4602 69.2725 28.7628 68.4809 28.9723C67.7126 29.1586 66.9094 29.2517 66.0713 29.2517ZM55.4552 7.2512V3.06062H68.4809V7.2512H55.4552Z" fill="white"/>
<path d="M84.9837 9.90523C86.4737 9.90523 87.8007 10.2079 88.9648 10.8132C90.1521 11.3952 91.0834 12.3032 91.7585 13.5371C92.4337 14.7477 92.7712 16.3075 92.7712 18.2165V28.9723H87.3235V19.0547C87.3235 17.5414 86.9859 16.4239 86.3108 15.7022C85.6589 14.9805 84.7277 14.6196 83.517 14.6196C82.6556 14.6196 81.8757 14.8059 81.1773 15.1784C80.5022 15.5276 79.9667 16.0747 79.5709 16.8197C79.1984 17.5647 79.0122 18.5192 79.0122 19.6832V28.9723H73.5644V3.06062H79.0122V15.3879L77.7899 13.8164C78.4651 12.5593 79.4312 11.5931 80.6884 10.918C81.9456 10.2428 83.3774 9.90523 84.9837 9.90523Z" fill="white"/>
<path d="M107.17 29.2517C105.028 29.2517 103.142 28.8327 101.512 27.9945C99.9061 27.1564 98.6606 26.0157 97.7759 24.5722C96.8912 23.1055 96.4489 21.4409 96.4489 19.5785C96.4489 17.6927 96.8796 16.0281 97.741 14.5847C98.6257 13.118 99.8246 11.9772 101.338 11.1624C102.851 10.3243 104.562 9.90523 106.471 9.90523C108.311 9.90523 109.963 10.301 111.43 11.0926C112.92 11.8608 114.096 12.9783 114.957 14.445C115.819 15.8884 116.249 17.6229 116.249 19.6483C116.249 19.8578 116.238 20.1023 116.214 20.3817C116.191 20.6378 116.168 20.8822 116.145 21.115H100.884V17.9372H113.281L111.186 18.88C111.186 17.9022 110.988 17.0525 110.592 16.3308C110.196 15.6091 109.649 15.0503 108.951 14.6545C108.252 14.2355 107.438 14.026 106.506 14.026C105.575 14.026 104.749 14.2355 104.027 14.6545C103.328 15.0503 102.781 15.6207 102.386 16.3657C101.99 17.0874 101.792 17.9488 101.792 18.9499V19.788C101.792 20.8124 102.013 21.7203 102.455 22.5119C102.921 23.2801 103.561 23.8738 104.376 24.2929C105.214 24.6886 106.192 24.8865 107.309 24.8865C108.311 24.8865 109.184 24.7352 109.929 24.4326C110.697 24.1299 111.395 23.6759 112.024 23.0706L114.922 26.2136C114.061 27.1914 112.978 27.948 111.675 28.4834C110.371 28.9956 108.869 29.2517 107.17 29.2517Z" fill="white"/>
<path d="M120.54 28.9723V9.76554C120.54 7.64697 121.168 5.9591 122.426 4.70193C123.683 3.42148 125.475 2.78125 127.803 2.78125C128.595 2.78125 129.352 2.86273 130.073 3.0257C130.818 3.18867 131.447 3.44476 131.959 3.79397L130.527 7.7401C130.225 7.53057 129.887 7.3676 129.515 7.2512C129.142 7.13479 128.746 7.07659 128.327 7.07659C127.536 7.07659 126.919 7.3094 126.476 7.77502C126.057 8.21736 125.848 8.89251 125.848 9.80046V11.5465L125.988 13.8863V28.9723H120.54ZM117.641 14.7942V10.6037H130.667V14.7942H117.641Z" fill="white"/>
<path d="M142.082 29.2517C140.08 29.2517 138.299 28.8327 136.739 27.9945C135.203 27.1564 133.98 26.0157 133.073 24.5722C132.188 23.1055 131.745 21.4409 131.745 19.5785C131.745 17.6927 132.188 16.0281 133.073 14.5847C133.98 13.118 135.203 11.9772 136.739 11.1624C138.299 10.3243 140.08 9.90523 142.082 9.90523C144.061 9.90523 145.83 10.3243 147.39 11.1624C148.95 11.9772 150.172 13.1064 151.057 14.5498C151.942 15.9932 152.384 17.6694 152.384 19.5785C152.384 21.4409 151.942 23.1055 151.057 24.5722C150.172 26.0157 148.95 27.1564 147.39 27.9945C145.83 28.8327 144.061 29.2517 142.082 29.2517ZM142.082 24.7818C142.99 24.7818 143.805 24.5722 144.527 24.1532C145.248 23.7341 145.819 23.1405 146.238 22.3722C146.657 21.5806 146.866 20.6494 146.866 19.5785C146.866 18.4843 146.657 17.553 146.238 16.7848C145.819 16.0165 145.248 15.4228 144.527 15.0038C143.805 14.5847 142.99 14.3752 142.082 14.3752C141.174 14.3752 140.359 14.5847 139.638 15.0038C138.916 15.4228 138.334 16.0165 137.892 16.7848C137.473 17.553 137.263 18.4843 137.263 19.5785C137.263 20.6494 137.473 21.5806 137.892 22.3722C138.334 23.1405 138.916 23.7341 139.638 24.1532C140.359 24.5722 141.174 24.7818 142.082 24.7818Z" fill="white"/>
<path d="M164.965 29.2517C162.963 29.2517 161.182 28.8327 159.622 27.9945C158.086 27.1564 156.864 26.0157 155.956 24.5722C155.071 23.1055 154.629 21.4409 154.629 19.5785C154.629 17.6927 155.071 16.0281 155.956 14.5847C156.864 13.118 158.086 11.9772 159.622 11.1624C161.182 10.3243 162.963 9.90523 164.965 9.90523C166.944 9.90523 168.714 10.3243 170.273 11.1624C171.833 11.9772 173.055 13.1064 173.94 14.5498C174.825 15.9932 175.267 17.6694 175.267 19.5785C175.267 21.4409 174.825 23.1055 173.94 24.5722C173.055 26.0157 171.833 27.1564 170.273 27.9945C168.714 28.8327 166.944 29.2517 164.965 29.2517ZM164.965 24.7818C165.873 24.7818 166.688 24.5722 167.41 24.1532C168.132 23.7341 168.702 23.1405 169.121 22.3722C169.54 21.5806 169.75 20.6494 169.75 19.5785C169.75 18.4843 169.54 17.553 169.121 16.7848C168.702 16.0165 168.132 15.4228 167.41 15.0038C166.688 14.5847 165.873 14.3752 164.965 14.3752C164.057 14.3752 163.243 14.5847 162.521 15.0038C161.799 15.4228 161.217 16.0165 160.775 16.7848C160.356 17.553 160.146 18.4843 160.146 19.5785C160.146 20.6494 160.356 21.5806 160.775 22.3722C161.217 23.1405 161.799 23.7341 162.521 24.1532C163.243 24.5722 164.057 24.7818 164.965 24.7818Z" fill="white"/>
<path d="M186.591 29.2517C184.38 29.2517 182.657 28.693 181.423 27.5755C180.189 26.4347 179.572 24.7468 179.572 22.5119V6.02895H185.02V22.442C185.02 23.2336 185.229 23.8505 185.648 24.2929C186.067 24.7119 186.638 24.9215 187.36 24.9215C188.221 24.9215 188.954 24.6886 189.56 24.223L191.026 28.0644C190.468 28.4602 189.792 28.7628 189.001 28.9723C188.233 29.1586 187.429 29.2517 186.591 29.2517ZM176.674 14.7942V10.6037H189.699V14.7942H176.674Z" fill="white"/>
<path d="M196.118 36.0265C195.14 36.0265 194.174 35.8752 193.22 35.5725C192.265 35.2699 191.485 34.8508 190.88 34.3153L192.87 30.439C193.289 30.8115 193.767 31.1026 194.302 31.3121C194.861 31.5216 195.408 31.6264 195.943 31.6264C196.712 31.6264 197.317 31.4401 197.759 31.0676C198.225 30.7184 198.644 30.1248 199.016 29.2866L199.994 26.9818L200.413 26.3882L207.153 10.1846H212.391L203.906 30.1248C203.3 31.638 202.602 32.8254 201.81 33.6867C201.042 34.5481 200.181 35.1534 199.226 35.5027C198.295 35.8519 197.259 36.0265 196.118 36.0265ZM199.331 29.7057L190.95 10.1846H196.572L203.067 25.8993L199.331 29.7057Z" fill="white"/>
<path d="M3.79633 36.7203C0.75493 31.9085 0.319317 26.673 0.279896 26.1135C1.95138 20.1286 4.87452 17.0853 5.45205 16.5277C8.54864 16.9634 12.4258 17.1092 13.567 17.1432C13.4409 18.6759 13.6459 23.4598 17.253 29.1309C16.6282 29.9761 13.9869 33.6909 12.1321 38.5587C6.80816 39.1343 4.09397 36.9721 3.79633 36.7183V36.7203ZM34.2774 11.3742C35.1505 14.2477 37.642 20.7401 38.0599 21.8252C34.6814 26.8468 30.4574 30.3238 29.6867 30.9373C28.707 30.6476 23.3102 29.1189 17.8187 28.8391C13.908 22.7184 14.1525 17.6828 14.2116 16.9714L22.0644 8.17295C23.1919 8.28885 30.3214 9.10615 34.2793 11.3762L34.2774 11.3742ZM17.5585 1.98029C15.2169 2.91149 12.8673 4.14642 11.0598 5.17354C13.3936 3.46102 16.0053 2.11817 18.8161 1.23094C18.1144 1.60462 17.6807 1.89636 17.5585 1.98229V1.98029ZM5.02826 16.0502C4.43694 16.6077 1.76413 19.3533 0 24.8426C0.524311 18.8857 2.94679 13.4744 6.64653 9.23204C5.09331 12.5851 5.02038 15.3647 5.02826 16.0482V16.0502ZM31.8292 42.8391C31.8155 41.796 31.6656 35.8251 30.1282 31.4009C31.0369 30.6715 35.19 27.2065 38.5448 22.2428C42.3273 23.4738 46.7662 24.2751 47.6966 24.4349C48.0198 25.2922 49.4942 29.5465 49.51 35.7412C45.0454 42.3155 42.0376 44.3517 41.598 44.6275C35.2787 45.0252 32.4009 43.2447 31.8312 42.8371L31.8292 42.8391ZM52.102 36.6364L50.1407 35.6433C50.1092 29.2028 48.5678 24.9285 48.2662 24.1512C49.51 21.0538 50.0225 17.5828 50.1664 16.4358C50.5211 16.5557 51.1085 16.7715 51.7688 17.0773C53.0303 20.2345 53.7281 23.6836 53.7281 27.2945C53.7281 30.5756 53.1545 33.7229 52.102 36.6384V36.6364ZM51.4101 16.216C50.7932 15.9602 50.3063 15.8004 50.0974 15.7344C46.506 10.2791 42.2839 7.14584 41.6946 6.7242C40.985 5.22949 39.8201 3.87666 38.7281 2.82556C44.3418 5.64713 48.8536 10.397 51.4121 16.216H51.4101ZM36.6998 1.91035C37.9258 2.88751 39.9403 4.69595 41.0067 6.77216C37.6519 8.15097 35.1624 10.1912 34.5001 10.7647C30.3923 8.45271 23.3732 7.6574 22.1413 7.5315C20.8601 4.84782 18.9915 2.98742 18.2366 2.30201C18.9284 1.87438 20.6196 0.929199 22.9652 0.279759C24.2208 0.0979156 25.502 0 26.8069 0C30.2977 0 33.6348 0.677416 36.6979 1.90835L36.6998 1.91035ZM4.46847 42.5033L4.59265 42.4914L4.40343 42.0797C3.66427 40.4791 3.72143 38.4788 3.80421 37.5316C4.68529 38.1431 6.81802 39.3061 10.3364 39.3061C10.9159 39.3061 11.5349 39.2721 12.1893 39.2022C12.4731 39.6778 13.3148 41.0406 14.5211 42.5953C15.8693 44.3318 17.9587 46.6618 20.3299 48.0326C20.0401 50.4705 20.2313 52.1131 20.3476 52.7805C19.8332 52.8604 18.6702 52.9743 17.0697 52.7365C11.9133 50.7003 7.5217 47.0974 4.47044 42.5073L4.46847 42.5033ZM23.6847 54.3991C22.8765 54.1433 21.8378 53.6817 21.0079 52.8704C20.9291 52.4867 20.6393 50.8022 20.9547 48.1285C22.0822 47.8967 27.1124 46.7177 31.5119 43.4026C32.2038 43.8921 34.6735 45.3329 39.7846 45.3329C40.2912 45.3329 40.8253 45.3169 41.3851 45.2869C41.4876 48.5361 40.2379 50.2507 40.2261 50.2666L39.8792 50.7203L40.4883 50.7862C36.4771 53.1961 31.7997 54.5809 26.8089 54.5809C25.7524 54.5809 24.7116 54.517 23.6867 54.3971L23.6847 54.3991Z" fill="white"/>
<path d="M67.9687 55.0001C66.0131 55.0001 64.139 54.744 62.3464 54.2318C60.5537 53.6964 59.1103 53.0096 58.0161 52.1715L59.9368 47.911C60.9844 48.656 62.2183 49.273 63.6385 49.7619C65.0819 50.2275 66.5369 50.4603 68.0036 50.4603C69.1211 50.4603 70.0175 50.3556 70.6926 50.146C71.391 49.9132 71.9032 49.5989 72.2291 49.2031C72.5551 48.8074 72.718 48.3534 72.718 47.8412C72.718 47.1893 72.462 46.6772 71.9498 46.3047C71.4376 45.9089 70.7624 45.5946 69.9243 45.3618C69.0862 45.1057 68.155 44.8729 67.1306 44.6634C66.1295 44.4305 65.1168 44.1512 64.0924 43.8252C63.0914 43.4993 62.1718 43.0802 61.3337 42.5681C60.4955 42.0559 59.8087 41.3807 59.2733 40.5426C58.7611 39.7045 58.505 38.6336 58.505 37.3298C58.505 35.933 58.8775 34.6642 59.6225 33.5234C60.3908 32.3594 61.5315 31.4398 63.0448 30.7646C64.5813 30.0662 66.502 29.717 68.8068 29.717C70.3434 29.717 71.8566 29.9032 73.3466 30.2757C74.8366 30.6249 76.152 31.1604 77.2928 31.8821L75.5467 36.1774C74.4059 35.5256 73.2651 35.0483 72.1244 34.7457C70.9836 34.4197 69.8661 34.2568 68.7719 34.2568C67.6777 34.2568 66.7814 34.3848 66.083 34.6409C65.3845 34.897 64.884 35.2346 64.5813 35.6536C64.2787 36.0494 64.1274 36.515 64.1274 37.0505C64.1274 37.6791 64.3835 38.1912 64.8956 38.587C65.4078 38.9595 66.083 39.2622 66.9211 39.495C67.7592 39.7278 68.6788 39.9606 69.6799 40.1934C70.7042 40.4262 71.717 40.6939 72.718 40.9966C73.7424 41.2993 74.6736 41.7067 75.5118 42.2189C76.3499 42.731 77.025 43.4062 77.5372 44.2443C78.0727 45.0824 78.3404 46.1417 78.3404 47.4221C78.3404 48.7957 77.9563 50.0529 77.188 51.1937C76.4197 52.3344 75.2673 53.254 73.7308 53.9525C72.2175 54.6509 70.2968 55.0001 67.9687 55.0001Z" fill="white"/>
<path d="M89.9411 54.8604C87.7294 54.8604 86.0067 54.3017 84.7728 53.1842C83.5389 52.0434 82.9219 50.3555 82.9219 48.1206V31.6377H88.3697V48.0507C88.3697 48.8423 88.5792 49.4592 88.9983 49.9016C89.4173 50.3206 89.9877 50.5302 90.7094 50.5302C91.5708 50.5302 92.3042 50.2973 92.9095 49.8317L94.3762 53.6731C93.8174 54.0689 93.1423 54.3715 92.3507 54.581C91.5824 54.7673 90.7793 54.8604 89.9411 54.8604ZM80.0234 40.4029V36.2124H93.0491V40.4029H80.0234Z" fill="white"/>
<path d="M109.395 54.581V50.9143L109.046 50.1111V43.5459C109.046 42.3818 108.685 41.4739 107.963 40.822C107.265 40.1701 106.182 39.8442 104.715 39.8442C103.714 39.8442 102.725 40.0072 101.747 40.3331C100.793 40.6357 99.9777 41.0548 99.3025 41.5903L97.3469 37.7838C98.3713 37.0621 99.6052 36.5034 101.049 36.1076C102.492 35.7118 103.959 35.5139 105.449 35.5139C108.312 35.5139 110.536 36.1891 112.119 37.5394C113.702 38.8897 114.493 40.9966 114.493 43.8602V54.581H109.395ZM103.668 54.8604C102.201 54.8604 100.944 54.616 99.8962 54.1271C98.8486 53.6149 98.0454 52.9281 97.4866 52.0667C96.9279 51.2053 96.6485 50.2391 96.6485 49.1682C96.6485 48.0507 96.9162 47.0729 97.4517 46.2348C98.0104 45.3967 98.8835 44.7448 100.071 44.2792C101.258 43.7903 102.806 43.5459 104.715 43.5459H109.709V46.7237H105.309C104.029 46.7237 103.144 46.9332 102.655 47.3523C102.189 47.7714 101.957 48.2952 101.957 48.9238C101.957 49.6222 102.224 50.1809 102.76 50.6C103.319 50.9958 104.075 51.1937 105.03 51.1937C105.938 51.1937 106.752 50.9841 107.474 50.5651C108.196 50.1227 108.72 49.4825 109.046 48.6444L109.884 51.1587C109.488 52.3694 108.766 53.2889 107.719 53.9175C106.671 54.5461 105.321 54.8604 103.668 54.8604Z" fill="white"/>
<path d="M127.543 54.8604C125.331 54.8604 123.609 54.3017 122.375 53.1842C121.141 52.0434 120.524 50.3555 120.524 48.1206V28.1455H125.972V48.0507C125.972 48.8423 126.181 49.4592 126.6 49.9016C127.019 50.3206 127.59 50.5302 128.311 50.5302C129.173 50.5302 129.906 50.2973 130.511 49.8317L131.978 53.6731C131.419 54.0689 130.744 54.3715 129.953 54.581C129.184 54.7673 128.381 54.8604 127.543 54.8604ZM117.625 40.4029V36.2124H130.651V40.4029H117.625Z" fill="white"/>
<path d="M141.793 54.8604C140.187 54.8604 138.639 54.6742 137.149 54.3017C135.682 53.9059 134.518 53.417 133.657 52.835L135.473 48.9238C136.334 49.4592 137.347 49.9016 138.511 50.2508C139.698 50.5767 140.862 50.7397 142.003 50.7397C143.26 50.7397 144.145 50.5884 144.657 50.2857C145.193 49.9831 145.46 49.564 145.46 49.0285C145.46 48.5862 145.251 48.2603 144.832 48.0507C144.436 47.8179 143.9 47.6433 143.225 47.5269C142.55 47.4105 141.805 47.2941 140.99 47.1777C140.199 47.0613 139.396 46.91 138.581 46.7237C137.766 46.5142 137.021 46.2115 136.346 45.8158C135.671 45.42 135.123 44.8845 134.704 44.2094C134.309 43.5342 134.111 42.6612 134.111 41.5903C134.111 40.4029 134.448 39.3553 135.123 38.4473C135.822 37.5394 136.823 36.8293 138.127 36.3171C139.43 35.7817 140.99 35.5139 142.806 35.5139C144.087 35.5139 145.39 35.6536 146.717 35.933C148.044 36.2124 149.15 36.6198 150.035 37.1552L148.219 41.0315C147.311 40.4961 146.391 40.1352 145.46 39.949C144.552 39.7394 143.668 39.6347 142.806 39.6347C141.596 39.6347 140.711 39.7976 140.152 40.1236C139.593 40.4495 139.314 40.8686 139.314 41.3807C139.314 41.8464 139.512 42.1956 139.908 42.4284C140.327 42.6612 140.874 42.8474 141.549 42.9871C142.224 43.1268 142.958 43.2549 143.749 43.3713C144.564 43.4644 145.379 43.6157 146.194 43.8252C147.008 44.0348 147.742 44.3374 148.394 44.7332C149.069 45.1057 149.616 45.6295 150.035 46.3047C150.454 46.9565 150.664 47.8179 150.664 48.8888C150.664 50.0529 150.314 51.0889 149.616 51.9969C148.917 52.8815 147.905 53.58 146.578 54.0921C145.274 54.6043 143.679 54.8604 141.793 54.8604Z" fill="white"/>
</g>
<defs>
<clipPath id="clip0_158_3564">
<rect width="1440" height="6706" fill="white" transform="translate(-155 -20)"/>
</clipPath>
</defs>
</svg>
