<svg width="18" height="18" viewBox="0 0 18 18" fill="none" xmlns="http://www.w3.org/2000/svg">
<g id="solar:star-broken" clip-path="url(#clip0_705_3512)">
<path id="Vector" d="M4.52999 5.829C2.68499 6.24675 1.76249 6.45525 1.54274 7.161C1.32374 7.866 1.95224 8.60175 3.20999 10.0725L3.53549 10.4528C3.89249 10.8705 4.07174 11.0797 4.15199 11.3377C4.23224 11.5965 4.20524 11.8755 4.15124 12.4327L4.10174 12.9405C3.91199 14.9032 3.81674 15.8843 4.39124 16.32C4.96574 16.7565 5.82974 16.3582 7.55624 15.5632L8.00399 15.3577C8.49449 15.1312 8.73974 15.0187 8.99999 15.0187C9.26024 15.0187 9.50549 15.1312 9.99674 15.3577L10.443 15.5632C12.1702 16.3582 13.0342 16.7557 13.608 16.3207C14.1832 15.8842 14.088 14.9032 13.8982 12.9405M14.79 10.0725C16.0477 8.6025 16.6762 7.86675 16.4572 7.161C16.2375 6.45525 15.315 6.246 13.47 5.829L12.993 5.721C12.4687 5.6025 12.207 5.54325 11.9962 5.3835C11.7862 5.22375 11.6512 4.9815 11.3812 4.497L11.1352 4.056C10.185 2.352 9.71024 1.5 8.99999 1.5C8.28974 1.5 7.81499 2.352 6.86474 4.056" stroke="white" stroke-width="1.5" stroke-linecap="round"/>
</g>
<defs>
<clipPath id="clip0_705_3512">
<rect width="18" height="18" fill="white"/>
</clipPath>
</defs>
</svg>
