<svg width="31" height="31" viewBox="0 0 31 31" fill="none" xmlns="http://www.w3.org/2000/svg">
<g id="bx:stats">
<path id="Vector" d="M25.8333 15.5003C25.5227 15.5025 25.2151 15.5607 24.9252 15.6721L21.8278 13.1366C21.904 12.8602 21.9583 12.5734 21.9583 12.2712C21.9583 10.4809 20.5193 9.04199 18.7291 9.04199C16.9388 9.04199 15.4999 10.4809 15.4999 12.2712C15.4999 12.7827 15.6291 13.2593 15.8383 13.6881L12.0809 18.1289C11.9305 18.1007 11.7779 18.0856 11.6249 18.0837C11.3937 18.0837 11.1754 18.1224 10.9636 18.1792L7.65304 14.8687C7.71117 14.6582 7.74992 14.4399 7.74992 14.2087C7.74992 12.7775 6.59775 11.6253 5.16659 11.6253C3.73542 11.6253 2.58325 12.7775 2.58325 14.2087C2.58325 15.6398 3.73542 16.792 5.16659 16.792C5.39779 16.792 5.61609 16.7532 5.82792 16.6964L9.13846 20.007C9.07637 20.2216 9.04378 20.4436 9.04158 20.667C9.04158 22.0982 10.1938 23.2503 11.6249 23.2503C13.0561 23.2503 14.2083 22.0982 14.2083 20.667C14.2083 20.3609 14.1463 20.0728 14.0494 19.8003L17.812 15.3544C18.1052 15.4396 18.4088 15.5003 18.7291 15.5003C19.2388 15.4975 19.7406 15.3731 20.1925 15.1374L23.2913 17.6729C23.2669 17.8086 23.2531 17.9459 23.2499 18.0837C23.2499 19.5148 24.4021 20.667 25.8333 20.667C27.2644 20.667 28.4166 19.5148 28.4166 18.0837C28.4166 16.6525 27.2644 15.5003 25.8333 15.5003Z" fill="white"/>
</g>
</svg>
