<svg width="40" height="40" viewBox="0 0 40 40" fill="none" xmlns="http://www.w3.org/2000/svg">
<g id="bx:stats">
<path id="Vector" d="M33.3332 20.0003C32.9325 20.0032 32.5356 20.0783 32.1616 20.222L28.1649 16.9503C28.2632 16.5937 28.3332 16.2237 28.3332 15.8337C28.3332 13.5237 26.4766 11.667 24.1666 11.667C21.8566 11.667 19.9999 13.5237 19.9999 15.8337C19.9999 16.4937 20.1666 17.1087 20.4366 17.662L15.5882 23.392C15.3942 23.3557 15.1973 23.3362 14.9999 23.3337C14.7016 23.3337 14.4199 23.3837 14.1466 23.457L9.87492 19.1853C9.94992 18.9137 9.99992 18.632 9.99992 18.3337C9.99992 16.487 8.51325 15.0003 6.66658 15.0003C4.81992 15.0003 3.33325 16.487 3.33325 18.3337C3.33325 20.1803 4.81992 21.667 6.66658 21.667C6.96492 21.667 7.24658 21.617 7.51992 21.5437L11.7916 25.8153C11.7115 26.0922 11.6694 26.3787 11.6666 26.667C11.6666 28.5137 13.1533 30.0003 14.9999 30.0003C16.8466 30.0003 18.3332 28.5137 18.3332 26.667C18.3332 26.272 18.2532 25.9003 18.1282 25.5487L22.9832 19.812C23.3616 19.922 23.7532 20.0003 24.1666 20.0003C24.8243 19.9967 25.4717 19.8361 26.0549 19.532L30.0532 22.8037C30.0219 22.9787 30.0041 23.1559 29.9999 23.3337C29.9999 25.1803 31.4866 26.667 33.3332 26.667C35.1799 26.667 36.6666 25.1803 36.6666 23.3337C36.6666 21.487 35.1799 20.0003 33.3332 20.0003Z" fill="#262626"/>
</g>
</svg>
