<svg width="30" height="30" viewBox="0 0 30 30" fill="none" xmlns="http://www.w3.org/2000/svg">
<g id="Group">
<path id="Vector" d="M13.7214 0.0149994C10.1235 0.261368 7.98117 0.730642 6.00905 1.71612C5.01713 2.21472 4.3891 2.67226 3.53804 3.52869C2.28786 4.77813 1.56592 5.99238 0.96724 7.86947C0.251174 10.1044 -0.118599 13.4597 0.0340059 16.2695C0.257043 20.2876 0.96724 23.0036 2.34068 25.0625C2.84545 25.8075 3.79629 26.8164 4.49475 27.3443C6.56078 28.8929 9.34287 29.6966 13.5454 29.9605C16.0457 30.1131 19.2915 29.8139 21.4749 29.2273C25.155 28.2301 27.4676 26.2357 28.7706 22.9273C30.1029 19.5485 30.3905 13.7119 29.4456 9.35355C29.0347 7.46472 28.3832 5.90439 27.4793 4.62562C27.0919 4.08595 26.1176 3.08875 25.56 2.67226C23.6936 1.26444 21.2284 0.46081 17.742 0.126453C16.8322 0.0384636 14.3788 -0.031929 13.7214 0.0149994Z" fill="white"/>
<g id="Group 76">
<path id="Vector_2" d="M11.7104 6.29686C9.18285 6.63361 7.07367 8.49151 6.44615 10.9242C6.07428 12.3873 6.23116 13.8852 6.91679 15.2613C7.25961 15.958 7.63728 16.4689 8.2067 17.0088C10.0835 18.7855 12.8027 19.2093 15.1792 18.1004C15.952 17.7404 16.0333 17.752 16.6086 18.3326C17.0385 18.7564 17.0443 18.7622 16.9746 18.948C16.8758 19.2441 16.8991 19.697 17.0269 19.9641C17.2012 20.324 20.2865 23.3606 20.6526 23.5289C21.1116 23.7379 21.5125 23.796 21.9483 23.7147C22.4306 23.6276 22.7211 23.4767 23.0814 23.1399C23.767 22.5013 23.9355 21.5433 23.5288 20.655C23.3603 20.2892 20.3214 17.2062 19.9612 17.0321C19.6939 16.9043 19.2407 16.8811 18.9502 16.9798C18.7642 17.0437 18.7526 17.0379 18.3807 16.6779C17.974 16.2773 17.8404 16.0741 17.8404 15.8535C17.8404 15.7838 17.9391 15.5109 18.0612 15.2554C18.5492 14.251 18.6829 13.6414 18.6771 12.4454C18.6713 11.6093 18.6538 11.4177 18.526 10.93C18.0147 9.01985 16.655 7.47547 14.8364 6.7207C13.9241 6.34331 12.6517 6.16913 11.7104 6.29686ZM17.6486 17.154L18.1251 17.6475L17.881 17.8855L17.637 18.1294L17.1315 17.6417L16.626 17.1598L16.87 16.8985C17.0037 16.7592 17.1257 16.6431 17.1431 16.6489C17.1605 16.6547 17.3872 16.8811 17.6486 17.154Z" fill="#C6B3E2"/>
</g>
</g>
</svg>
