<svg width="30" height="30" viewBox="0 0 30 30" fill="none" xmlns="http://www.w3.org/2000/svg">
<g id="Group">
<path id="Vector" d="M13.7214 0.0149994C10.1235 0.261368 7.98117 0.730642 6.00905 1.71612C5.01713 2.21472 4.3891 2.67226 3.53804 3.52869C2.28786 4.77813 1.56592 5.99238 0.96724 7.86947C0.251174 10.1044 -0.118599 13.4597 0.0340059 16.2695C0.257043 20.2876 0.96724 23.0036 2.34068 25.0625C2.84545 25.8075 3.79629 26.8164 4.49475 27.3443C6.56078 28.8929 9.34287 29.6966 13.5454 29.9605C16.0457 30.1131 19.2915 29.8139 21.4749 29.2273C25.155 28.2301 27.4676 26.2357 28.7706 22.9273C30.1029 19.5485 30.3905 13.7119 29.4456 9.35355C29.0347 7.46472 28.3832 5.90439 27.4793 4.62562C27.0919 4.08595 26.1176 3.08875 25.56 2.67226C23.6936 1.26444 21.2284 0.46081 17.742 0.126453C16.8322 0.0384636 14.3788 -0.031929 13.7214 0.0149994Z" fill="white"/>
<path id="Vector_2" d="M14.4534 6.5542C12.9392 7.54541 11.302 8.29736 9.82544 8.67676C9.36401 8.79297 8.6394 8.93311 8.28735 8.9707C8.10278 8.98779 8.03101 9.01172 7.96948 9.07666L7.88745 9.15527L7.90112 12.105C7.91479 15.2939 7.91479 15.3008 8.11646 16.2305C8.78979 19.3613 10.8713 21.959 13.7664 23.2852C14.197 23.4834 14.9045 23.75 14.9968 23.75C15.0823 23.75 15.6326 23.5518 16.0564 23.3672C18.2542 22.4136 20.052 20.6875 21.0876 18.5376C21.5798 17.519 21.8499 16.6235 22.0276 15.4102C22.0789 15.0684 22.0891 14.624 22.0994 12.0879L22.113 9.15527L22.031 9.07324C21.9695 9.01172 21.8943 8.98779 21.7302 8.96729C21.4021 8.93311 20.6331 8.78613 20.2468 8.69043C18.7429 8.31104 17.1091 7.56592 15.5437 6.55078C15.2805 6.37988 15.0447 6.25 14.9968 6.25C14.9524 6.25 14.7063 6.38672 14.4534 6.5542Z" fill="#C6B3E2"/>
</g>
</svg>
