<svg width="30" height="30" viewBox="0 0 30 30" fill="none" xmlns="http://www.w3.org/2000/svg">
<g id="Group">
<path id="Vector" d="M13.7214 0.0149994C10.1235 0.261368 7.98117 0.730642 6.00905 1.71612C5.01713 2.21472 4.3891 2.67226 3.53804 3.52869C2.28786 4.77813 1.56592 5.99238 0.96724 7.86947C0.251174 10.1044 -0.118599 13.4597 0.0340059 16.2695C0.257043 20.2876 0.96724 23.0036 2.34068 25.0625C2.84545 25.8075 3.79629 26.8164 4.49475 27.3443C6.56078 28.8929 9.34287 29.6966 13.5454 29.9605C16.0457 30.1131 19.2915 29.8139 21.4749 29.2273C25.155 28.2301 27.4676 26.2357 28.7706 22.9273C30.1029 19.5485 30.3905 13.7119 29.4456 9.35355C29.0347 7.46472 28.3832 5.90439 27.4793 4.62562C27.0919 4.08595 26.1176 3.08875 25.56 2.67226C23.6936 1.26444 21.2284 0.46081 17.742 0.126453C16.8322 0.0384636 14.3788 -0.031929 13.7214 0.0149994Z" fill="white"/>
<g id="Group 75">
<path id="Vector_2" d="M14.0882 6.29197C13.8807 6.32656 13.4311 6.44183 13.0911 6.5571C10.7684 7.32941 9.17187 9.43886 9.03354 11.9114C8.97591 12.995 9.20645 14.0382 9.73093 15.0237C10.0652 15.6519 10.388 16.0669 10.9816 16.626C11.8923 17.4847 12.1747 17.8997 12.4744 18.7931C12.6934 19.4386 12.8432 19.6576 13.2121 19.8708L13.483 20.0322H15.0103H16.5377L16.8085 19.8708C17.1774 19.6576 17.333 19.4328 17.5347 18.8392C17.8056 18.038 18.0996 17.6058 18.9583 16.7528C19.3733 16.3378 19.8286 15.8306 19.967 15.6289C20.3185 15.1044 20.6413 14.3782 20.8142 13.7327C20.941 13.2486 20.964 13.0468 20.9698 12.2803C20.9698 11.5195 20.9525 11.312 20.8372 10.874C20.5318 9.70398 19.9958 8.77606 19.1082 7.9C18.3243 7.12192 17.5463 6.68966 16.4224 6.39572C15.8806 6.25739 14.6703 6.20552 14.0882 6.29197Z" fill="#C6B3E2"/>
<path id="Vector_3" d="M12.8492 21.1272C12.7569 21.2137 12.7051 21.3347 12.7051 21.4442C12.7051 21.5537 12.7569 21.6747 12.8492 21.7612L12.9875 21.9053H15.0105H17.0335L17.1718 21.7612C17.264 21.6747 17.3159 21.5537 17.3159 21.4442C17.3159 21.3347 17.264 21.2137 17.1718 21.1272L17.0335 20.9831H15.0105H12.9875L12.8492 21.1272Z" fill="#C6B3E2"/>
<path id="Vector_4" d="M13.7713 22.9719C13.6791 23.0584 13.6272 23.1794 13.6272 23.2889C13.6272 23.3984 13.6791 23.5195 13.7713 23.6059C13.9096 23.75 13.9211 23.75 15.0104 23.75C16.0998 23.75 16.1113 23.75 16.2496 23.6059C16.3418 23.5195 16.3937 23.3984 16.3937 23.2889C16.3937 23.1794 16.3418 23.0584 16.2496 22.9719C16.1113 22.8278 16.0998 22.8278 15.0104 22.8278C13.9211 22.8278 13.9096 22.8278 13.7713 22.9719Z" fill="#C6B3E2"/>
</g>
</g>
</svg>
