<svg width="30" height="30" viewBox="0 0 30 30" fill="none" xmlns="http://www.w3.org/2000/svg">
<g id="Group">
<path id="Vector" d="M13.7214 0.0149994C10.1235 0.261368 7.98117 0.730642 6.00905 1.71612C5.01713 2.21472 4.3891 2.67226 3.53804 3.52869C2.28786 4.77813 1.56592 5.99238 0.96724 7.86947C0.251174 10.1044 -0.118599 13.4597 0.0340059 16.2695C0.257043 20.2876 0.96724 23.0036 2.34068 25.0625C2.84545 25.8075 3.79629 26.8164 4.49475 27.3443C6.56078 28.8929 9.34287 29.6966 13.5454 29.9605C16.0457 30.1131 19.2915 29.8139 21.4749 29.2273C25.155 28.2301 27.4676 26.2357 28.7706 22.9273C30.1029 19.5485 30.3905 13.7119 29.4456 9.35355C29.0347 7.46472 28.3832 5.90439 27.4793 4.62562C27.0919 4.08595 26.1176 3.08875 25.56 2.67226C23.6936 1.26444 21.2284 0.46081 17.742 0.126453C16.8322 0.0384636 14.3788 -0.031929 13.7214 0.0149994Z" fill="white"/>
<g id="Group_2">
<path id="Vector_2" d="M14.4924 6.2859C13.9003 6.43799 13.3462 6.89972 13.0746 7.48095C12.9225 7.796 12.9062 7.88835 12.9062 8.35007C12.9062 8.81179 12.9225 8.90414 13.0746 9.2192C13.2865 9.67006 13.6776 10.0612 14.1285 10.273C14.4435 10.4251 14.5359 10.4414 14.9976 10.4414C15.4756 10.4414 15.5462 10.4251 15.8776 10.2621C16.0786 10.1644 16.3556 9.97425 16.486 9.83845C16.6218 9.70808 16.8119 9.43105 16.9097 9.23006C17.0726 8.89871 17.0889 8.82809 17.0889 8.35007C17.0889 7.88835 17.0726 7.796 16.9205 7.48095C16.5783 6.75305 15.8993 6.29133 15.1171 6.2533C14.8889 6.24244 14.6065 6.25874 14.4924 6.2859Z" fill="#C6B3E2"/>
<path id="Vector_3" d="M14.4924 11.3921C13.9003 11.5442 13.3462 12.0059 13.0746 12.5872L12.9062 12.9402V17.5575V22.1747L13.0746 22.5278C13.2865 22.9787 13.6776 23.3698 14.1285 23.5816C14.4435 23.7337 14.5359 23.75 14.9976 23.75C15.4756 23.75 15.5462 23.7337 15.8776 23.5707C16.3393 23.3426 16.6815 23.0004 16.9097 22.5387L17.0889 22.1747V17.5575V12.9402L16.9205 12.5872C16.5783 11.8593 15.8993 11.3975 15.1171 11.3595C14.8889 11.3487 14.6065 11.365 14.4924 11.3921Z" fill="#C6B3E2"/>
</g>
</g>
</svg>
