<svg width="30" height="30" viewBox="0 0 30 30" fill="none" xmlns="http://www.w3.org/2000/svg">
<g id="Group">
<path id="Vector" d="M13.7214 0.0149994C10.1235 0.261368 7.98117 0.730642 6.00905 1.71612C5.01713 2.21472 4.3891 2.67226 3.53804 3.52869C2.28786 4.77813 1.56592 5.99238 0.96724 7.86947C0.251174 10.1044 -0.118599 13.4597 0.0340059 16.2695C0.257043 20.2876 0.96724 23.0036 2.34068 25.0625C2.84545 25.8075 3.79629 26.8164 4.49475 27.3443C6.56078 28.8929 9.34287 29.6966 13.5454 29.9605C16.0457 30.1131 19.2915 29.8139 21.4749 29.2273C25.155 28.2301 27.4676 26.2357 28.7706 22.9273C30.1029 19.5485 30.3905 13.7119 29.4456 9.35355C29.0347 7.46472 28.3832 5.90439 27.4793 4.62562C27.0919 4.08595 26.1176 3.08875 25.56 2.67226C23.6936 1.26444 21.2284 0.46081 17.742 0.126453C16.8322 0.0384636 14.3788 -0.031929 13.7214 0.0149994Z" fill="white"/>
<g id="Group_2">
<path id="Vector_2" d="M12.1594 6.29578C11.6948 6.45358 11.3617 6.73411 11.1425 7.15929L11.0198 7.40037V15.0054V22.6103L11.1425 22.8558C11.2872 23.1495 11.6597 23.5177 11.949 23.6492C12.1156 23.7281 12.2427 23.7456 12.5758 23.75C12.9353 23.75 13.0273 23.7325 13.2333 23.636C13.5358 23.4958 13.7549 23.3073 13.9303 23.0355C14.2108 22.5928 14.1977 23.0487 14.1977 15.0054C14.1977 6.96204 14.2108 7.4179 13.9303 6.97519C13.641 6.52371 13.2026 6.27386 12.6635 6.25195C12.4706 6.24318 12.2646 6.2651 12.1594 6.29578Z" fill="#C6B3E2"/>
<path id="Vector_3" d="M21.75 6.30017C21.2942 6.4492 20.9391 6.76479 20.7331 7.19874L20.6191 7.4442V15.0054V22.5665L20.7375 22.8164C20.8997 23.1626 21.1671 23.4388 21.5133 23.6097C21.7719 23.7369 21.8377 23.75 22.1971 23.75C22.5566 23.75 22.6223 23.7369 22.8809 23.6097C23.2272 23.4388 23.4946 23.1626 23.6568 22.8164L23.7751 22.5665V15.0054V7.4442L23.6348 7.15491C23.3631 6.60699 22.8678 6.27825 22.2629 6.25195C22.0656 6.24318 21.8596 6.2651 21.75 6.30017Z" fill="#C6B3E2"/>
<path id="Vector_4" d="M7.30271 12.8137C6.85561 12.9539 6.47427 13.3221 6.3077 13.7648C6.22004 14.0015 6.22004 14.0585 6.2288 18.3059L6.24195 22.6103L6.36469 22.8601C6.63207 23.3993 7.18874 23.7456 7.79802 23.7412C8.41606 23.7368 8.96835 23.3993 9.23135 22.8601L9.35408 22.6103L9.36723 18.3059C9.376 14.0454 9.376 14.0015 9.28833 13.7604C9.18752 13.4931 8.88069 13.1249 8.63084 12.9671C8.2495 12.726 7.7498 12.669 7.30271 12.8137Z" fill="#C6B3E2"/>
<path id="Vector_5" d="M16.9898 12.7702C16.6216 12.8622 16.2578 13.1296 16.0474 13.4583C15.7669 13.8967 15.7713 13.7739 15.7844 18.3632L15.7976 22.523L15.9335 22.8079C16.5252 24.0396 18.2128 24.0703 18.8089 22.8605L18.9535 22.5668V18.2493V13.9317L18.8133 13.6424C18.5459 13.1033 18.0594 12.7789 17.472 12.7482C17.3011 12.7351 17.0819 12.7482 16.9898 12.7702Z" fill="#C6B3E2"/>
</g>
</g>
</svg>
