<svg width="193" height="55" viewBox="0 0 193 55" fill="none" xmlns="http://www.w3.org/2000/svg">
<g id="03">
<g id="Footy">
<path id="Vector" d="M0 53.9534V17.0044H14.8498V24.1902H7.46724V30.0776H14.4634V37.1763H7.46724V53.9534H0Z" fill="white"/>
<path id="Vector_2" d="M26.0775 54.3014C23.0788 54.3014 20.8022 53.3909 19.2507 51.5699C17.6963 49.7488 16.9205 47.1915 16.9205 43.8923V26.2974C16.9205 23.1162 17.6963 20.7163 19.2507 19.0948C20.8022 17.4733 23.0788 16.6611 26.0775 16.6611C29.0763 16.6611 31.3444 17.4733 32.8988 19.0948C34.4503 20.7163 35.2289 23.1191 35.2289 26.2974V43.8923C35.2289 47.2168 34.4503 49.7854 32.8988 51.5923C31.3444 53.3965 29.0706 54.2986 26.0775 54.2986V54.3014ZM26.0775 47.5063C26.7377 47.5063 27.1834 47.2196 27.4091 46.6463C27.6404 46.0702 27.756 45.2665 27.756 44.238V26.171C27.756 25.3672 27.6488 24.7181 27.4344 24.2179C27.22 23.7148 26.78 23.4647 26.1198 23.4647C24.8814 23.4647 24.2636 24.3977 24.2636 26.2609V44.2829C24.2636 45.3452 24.3934 46.1461 24.6501 46.6913C24.9096 47.2393 25.3836 47.5091 26.0775 47.5091V47.5063Z" fill="white"/>
<path id="Vector_3" d="M47.0603 54.3014C44.0615 54.3014 41.785 53.3909 40.2334 51.5699C38.679 49.7488 37.9032 47.1915 37.9032 43.8923V26.2974C37.9032 23.1162 38.679 20.7163 40.2334 19.0948C41.785 17.4733 44.0615 16.6611 47.0603 16.6611C50.059 16.6611 52.3271 17.4733 53.8815 19.0948C55.4331 20.7163 56.2117 23.1191 56.2117 26.2974V43.8923C56.2117 47.2168 55.4331 49.7854 53.8815 51.5923C52.3271 53.3965 50.0534 54.2986 47.0603 54.2986V54.3014ZM47.0603 47.5063C47.7204 47.5063 48.1661 47.2196 48.3918 46.6463C48.6231 46.0702 48.7388 45.2665 48.7388 44.238V26.171C48.7388 25.3672 48.6316 24.7181 48.4172 24.2179C48.2028 23.7148 47.7627 23.4647 47.1026 23.4647C45.8641 23.4647 45.2463 24.3977 45.2463 26.2609V44.2829C45.2463 45.3452 45.3761 46.1461 45.6328 46.6913C45.8924 47.2393 46.3663 47.5091 47.0603 47.5091V47.5063Z" fill="white"/>
<path id="Vector_4" d="M62.3868 53.9534V24.103H57.9832V17.0044H74.2125V24.103H69.8089V53.9534H62.384H62.3868Z" fill="white"/>
<path id="Vector_5" d="M80.7799 53.9534V41.7794L74.8643 17.0044H82.2017L84.2724 29.524L86.343 17.0044H93.6861L87.7704 41.7794V53.9534H80.7799Z" fill="white"/>
</g>
<g id="The">
<path id="Vector_6" d="M1.71803 13.3036V2.5545H0.129791V0H5.98059V2.5545H4.38953V13.3036H1.71803Z" fill="#448EE4"/>
<path id="Vector_7" d="M6.72534 13.3036V0H9.38556V4.75492H10.6409V0H13.3011V13.3036H10.6409V7.26164H9.38556V13.3008H6.72534V13.3036Z" fill="#448EE4"/>
<path id="Vector_8" d="M14.4803 13.3036V0H19.829V2.56574H17.1998V5.15678H19.7189V7.66632H17.1998V10.7182H19.9982V13.3036H14.4803Z" fill="#448EE4"/>
</g>
<g id="Stats">
<path id="Vector_9" d="M109.587 55.0001C106.249 55.0001 103.84 54.1692 102.358 52.5073C100.881 50.8406 100.143 48.1572 100.143 44.4621V40.85H107.367V45.4445C107.367 47.2823 107.954 48.2012 109.125 48.2012C109.776 48.2012 110.233 48.0057 110.49 47.6196C110.748 47.2334 110.874 46.5785 110.874 45.6547C110.874 44.4523 110.728 43.465 110.442 42.6731C110.16 41.8813 109.796 41.2166 109.349 40.6887C108.907 40.1608 108.12 39.3348 106.983 38.2155L103.82 35.0336C101.372 32.6288 100.152 29.9649 100.152 27.042C100.152 23.8894 100.871 21.4895 102.305 19.8424C103.747 18.1903 105.846 17.3594 108.61 17.3594C111.909 17.3594 114.289 18.2441 115.747 20.0037C117.204 21.7681 117.928 24.5248 117.928 28.2835H110.446L110.408 25.7517C110.408 25.2629 110.267 24.8768 109.995 24.5933C109.723 24.3049 109.349 24.1583 108.863 24.1583C108.294 24.1583 107.867 24.3196 107.58 24.6373C107.299 24.9501 107.158 25.3802 107.158 25.9276C107.158 27.13 107.838 28.3764 109.208 29.6717L113.483 33.7921C114.479 34.7696 115.304 35.6934 115.96 36.5683C116.611 37.4432 117.136 38.4794 117.539 39.672C117.942 40.8598 118.146 42.2723 118.146 43.9049C118.146 47.5463 117.481 50.3078 116.155 52.1847C114.833 54.0616 112.647 55.0001 109.596 55.0001H109.587Z" fill="#448EE4"/>
<path id="Vector_10" d="M123.738 54.6566V24.8168H119.37V17.7197H135.441V24.8168H131.083V54.6566H123.733H123.738Z" fill="#448EE4"/>
<path id="Vector_11" d="M136.504 54.6566L140.051 17.7197H152.492L155.99 54.6566H149.023L148.508 48.6789H144.073L143.641 54.6566H136.504ZM144.632 42.7891H147.969L146.342 23.9956H145.997L144.632 42.7891Z" fill="#448EE4"/>
<path id="Vector_12" d="M161.387 54.6566V24.8168H157.02V17.7197H173.09V24.8168H168.732V54.6566H161.382H161.387Z" fill="#448EE4"/>
<path id="Vector_13" d="M183.86 55.0001C180.522 55.0001 178.113 54.1692 176.631 52.5073C175.154 50.8406 174.416 48.1572 174.416 44.4621V40.85H181.635V45.4445C181.635 47.2823 182.223 48.2012 183.393 48.2012C184.044 48.2012 184.501 48.0057 184.758 47.6196C185.016 47.2334 185.142 46.5785 185.142 45.6547C185.142 44.4523 184.997 43.465 184.71 42.6731C184.428 41.8813 184.064 41.2166 183.617 40.6887C183.175 40.1608 182.388 39.3348 181.251 38.2155L178.089 35.0336C175.64 32.6288 174.421 29.9649 174.421 27.042C174.421 23.8894 175.14 21.4895 176.573 19.8424C178.016 18.1903 180.114 17.3594 182.878 17.3594C186.177 17.3594 188.557 18.2441 190.015 20.0037C191.472 21.7681 192.196 24.5248 192.196 28.2835H184.715L184.676 25.7517C184.676 25.2629 184.535 24.8768 184.263 24.5933C183.991 24.3049 183.617 24.1583 183.131 24.1583C182.563 24.1583 182.135 24.3196 181.849 24.6373C181.567 24.9501 181.426 25.3802 181.426 25.9276C181.426 27.13 182.106 28.3764 183.476 29.6717L187.751 33.7921C188.747 34.7696 189.573 35.6934 190.229 36.5683C190.879 37.4432 191.404 38.4794 191.807 39.672C192.211 40.8598 192.415 42.2723 192.415 43.9049C192.415 47.5463 191.749 50.3078 190.423 52.1847C189.101 54.0616 186.915 55.0001 183.865 55.0001H183.86Z" fill="#448EE4"/>
</g>
</g>
</svg>
