<svg width="68" height="90" viewBox="0 0 68 90" fill="none" xmlns="http://www.w3.org/2000/svg">
<path d="M2.37718 31.8491L7.01061 33.4861C7.17224 33.5398 7.34734 33.5398 7.50897 33.4593C7.6706 33.3788 7.79182 33.2581 7.8457 33.0836C7.91305 32.9226 7.89959 32.7616 7.81878 32.5872C7.73796 32.4262 7.61674 32.3188 7.44164 32.2517L2.8082 30.6147C2.64657 30.5476 2.47146 30.5611 2.30983 30.6416C2.14819 30.7221 2.02697 30.8428 1.97309 31.0172C1.91922 31.1917 1.91922 31.3527 2.00004 31.5137C2.08085 31.6747 2.20208 31.782 2.37718 31.8491Z" fill="#805FB3"/>
<path d="M17.6108 23.0738C17.6646 23.2348 17.7724 23.3691 17.934 23.4496C18.0957 23.5301 18.2708 23.5434 18.4324 23.4898C18.6075 23.4361 18.7422 23.3288 18.823 23.1678C18.9038 23.0067 18.9173 22.8457 18.8634 22.6713L17.3549 18.069C17.301 17.8946 17.1932 17.7738 17.0316 17.6799C16.87 17.5993 16.6949 17.586 16.5332 17.6396C16.3581 17.6933 16.2234 17.8006 16.1426 17.9617C16.0618 18.1227 16.0483 18.2837 16.1022 18.4581L17.6108 23.0604V23.0738Z" fill="#805FB3"/>
<path d="M66.9084 37.4319L62.0729 36.5329C61.8978 36.4926 61.7362 36.5328 61.588 36.6402C61.4398 36.7341 61.3456 36.8817 61.3052 37.0561C61.2648 37.244 61.3052 37.3916 61.4129 37.5392C61.5207 37.6868 61.6553 37.7807 61.8304 37.8075L66.6659 38.7066C66.8545 38.7468 67.0026 38.7065 67.1643 38.5992C67.3124 38.5053 67.4067 38.3577 67.4337 38.1833C67.4741 38.0088 67.4337 37.8478 67.3394 37.7002C67.2316 37.5526 67.0969 37.4587 66.9084 37.4319Z" fill="#805FB3"/>
<path d="M53.2912 48.4626C53.2104 48.315 53.0757 48.1943 52.9006 48.1406C52.7255 48.0869 52.5638 48.1004 52.4022 48.1809C52.2406 48.2614 52.1328 48.3821 52.079 48.5565C52.0251 48.7175 52.0385 48.892 52.1194 49.053L54.3418 53.3601C54.4226 53.5211 54.5573 53.6285 54.7324 53.6821C54.9075 53.7358 55.0691 53.7224 55.2308 53.6419C55.3924 53.5614 55.5001 53.4272 55.554 53.2662C55.6079 53.1052 55.6079 52.9308 55.5136 52.7697L53.2912 48.4626Z" fill="#805FB3"/>
<path d="M32.2251 66.5606C32.0365 66.5472 31.8883 66.6009 31.7402 66.7082C31.6055 66.829 31.5247 66.9765 31.5112 67.1509L31.2014 71.5386C31.0667 73.4976 30.4067 75.2553 29.2214 76.8252C27.4704 79.1599 26.7296 81.7629 27.0124 84.6478L27.4569 89.2232C27.4704 89.3842 27.5512 89.5318 27.6724 89.6391C27.7937 89.7599 27.9418 89.8136 28.1169 89.8136C28.1439 89.8136 28.1573 89.8136 28.1843 89.8136C28.3728 89.8002 28.5075 89.7197 28.6288 89.5855C28.75 89.4513 28.7904 89.2903 28.7769 89.1159L28.3459 84.5404C28.09 81.991 28.75 79.6698 30.2989 77.6034C31.6324 75.8189 32.3732 73.833 32.5348 71.6325L32.8447 67.2449C32.8581 67.057 32.8042 66.9094 32.683 66.7753C32.5618 66.6411 32.4136 66.574 32.2385 66.5606H32.2251Z" fill="#805FB3"/>
<path d="M42.0037 43.0265C42.3944 42.6105 42.6099 42.1275 42.6772 41.5774H51.7016C51.9576 41.5774 52.1865 41.5237 52.429 41.4432C52.6579 41.3493 52.86 41.2151 53.0486 41.0407C53.2237 40.8663 53.3584 40.665 53.4526 40.4369C53.5469 40.2088 53.6008 39.9673 53.6008 39.7258V1.95469C53.6008 1.71317 53.5469 1.47161 53.4526 1.24351C53.3584 1.0154 53.2237 0.814202 53.0486 0.639771C52.86 0.46534 52.6579 0.331097 52.429 0.237172C52.2 0.143248 51.9576 0.103027 51.7016 0.103027H28.2516C27.9957 0.103027 27.7667 0.156666 27.5243 0.237172C27.2953 0.331097 27.0933 0.46534 26.9047 0.639771C26.7296 0.814202 26.5949 1.0154 26.5006 1.24351C26.4063 1.47161 26.3524 1.71317 26.3524 1.95469V32.9497H19.9276C18.5133 32.9497 17.355 33.4596 16.4256 34.5062L4.53222 47.8972C3.89916 48.6217 3.53548 49.4402 3.42773 50.3794L3.09099 53.2777L2.24244 54.0962C1.55551 54.7536 1.07061 55.5453 0.760814 56.4443C0.464489 57.3433 0.383676 58.2557 0.531838 59.1816L5.40771 89.2642C5.43465 89.452 5.52893 89.5862 5.67709 89.6936C5.82526 89.8009 5.98689 89.8411 6.16199 89.8143C6.33709 89.7875 6.48526 89.6935 6.59302 89.5459C6.70077 89.4117 6.74117 89.2373 6.71423 89.0629L1.83836 58.9803C1.71714 58.2557 1.78447 57.5445 2.01345 56.8468C2.25589 56.1491 2.63303 55.5453 3.17181 55.022L9.27341 49.1316C9.39463 49.0108 9.47544 48.8498 9.47544 48.6754C9.47544 48.501 9.4081 48.3533 9.28687 48.2192C9.16565 48.0984 9.00401 48.0314 8.81544 48.018C8.62687 48.018 8.47872 48.085 8.34403 48.2057L4.59957 51.8151L4.74773 50.5002C4.81508 49.8293 5.08446 49.2389 5.54241 48.729L17.4358 35.3247C18.0958 34.5867 18.9309 34.211 19.9411 34.211H31.2822C32.0096 34.211 32.6561 34.4123 33.2353 34.8283L40.8589 40.2893C41.1552 40.504 41.3168 40.7858 41.3573 41.1481C41.3977 41.5103 41.2899 41.8189 41.034 42.0872L39.3234 43.8718C38.623 42.7313 37.6128 42.0201 36.2658 41.7518L21.0455 38.7328C20.2913 38.5852 19.5505 38.612 18.8096 38.8267C18.0688 39.0414 17.4358 39.4171 16.8835 39.9404L11.6575 44.9721C11.5362 45.0928 11.4554 45.2539 11.4554 45.4283C11.4554 45.6028 11.5228 45.7637 11.644 45.8845C11.7652 46.0052 11.9268 46.0858 12.1154 46.0858C12.304 46.0858 12.4521 46.0187 12.5868 45.8979L17.8129 40.8662C18.648 40.0612 19.6447 39.766 20.7896 39.9941L35.9965 43.0131C36.9662 43.2009 37.707 43.7242 38.2054 44.5561L42.8254 52.325C43.0813 52.7678 43.0678 53.2106 42.758 53.6266L42.2866 54.284L40.9666 52.0835C40.2932 50.9698 39.3234 50.2721 38.0438 49.9635L24.6149 46.8506C23.8606 46.6628 23.1064 46.6895 22.3521 46.8774C21.5978 47.0787 20.9378 47.4409 20.3721 47.9642L7.68402 59.6511C6.71424 60.5501 6.22934 61.6504 6.22934 62.9653V67.8092C6.22934 67.9836 6.29668 68.1312 6.41791 68.2653C6.5526 68.3861 6.70077 68.4532 6.88934 68.4532C7.07791 68.4532 7.22606 68.3861 7.36075 68.2653C7.48198 68.1312 7.54932 67.9836 7.54932 67.8092V62.9653C7.54932 62.0261 7.89954 61.2479 8.59995 60.6038L21.288 48.9035C22.15 48.1118 23.1602 47.8435 24.3186 48.1119L37.7475 51.2247C38.6634 51.4394 39.3638 51.9493 39.8352 52.7275L44.1723 59.9329C44.307 60.1745 44.3744 60.4159 44.334 60.6977C44.307 60.966 44.1993 61.1942 43.9972 61.3954L42.4213 62.9922L42.1115 59.1949C42.0576 58.4838 41.7882 57.8666 41.3168 57.3299C40.8454 56.7932 40.2393 56.4443 39.5389 56.2967L29.9892 54.1901C28.9116 53.9486 27.9418 54.1901 27.1067 54.9013L17.5435 62.9922C17.4089 63.1129 17.328 63.2605 17.3146 63.435C17.3011 63.6094 17.355 63.7704 17.4627 63.9046C17.5839 64.0387 17.7321 64.1192 17.9207 64.1326C18.1093 64.1326 18.2574 64.0924 18.4056 63.9716L27.9688 55.8807C28.4671 55.4514 29.0463 55.3172 29.6928 55.4514L39.2426 57.558C39.6601 57.6519 40.0238 57.8532 40.3066 58.1752C40.5895 58.4972 40.7511 58.8595 40.778 59.2888L41.3977 66.6418C41.4246 66.937 41.3976 67.2456 41.3034 67.5274C41.2091 67.8226 41.0609 68.0775 40.8723 68.3191C40.6838 68.5472 40.4413 68.7484 40.1854 68.896C39.916 69.0302 39.6197 69.1375 39.3099 69.1643C39.0136 69.2046 38.7038 69.1777 38.4075 69.0972C38.1111 69.0167 37.8283 68.8826 37.5858 68.6947C37.3434 68.5069 37.1414 68.2922 36.9797 68.0373C36.8316 67.7823 36.7238 67.5005 36.6699 67.2054L36.2658 64.7633C36.185 64.2937 35.9695 63.8912 35.5924 63.5825C35.2152 63.2739 34.7977 63.113 34.2993 63.113H30.7838C30.0565 63.113 29.4908 63.4081 29.1137 64.0254L25.908 68.9631C25.4231 69.7145 25.1806 70.5196 25.1806 71.4051V73.6324C25.1806 73.8069 25.248 73.9545 25.3827 74.0887C25.5039 74.2229 25.6655 74.2899 25.8406 74.2899C26.0157 74.2899 26.1774 74.2229 26.312 74.0887C26.4467 73.9679 26.5141 73.8069 26.5141 73.6324V71.4051C26.5141 70.7745 26.6757 70.1841 27.0259 69.6608L30.2181 64.723C30.3528 64.5218 30.5414 64.4144 30.7838 64.4144H34.2993C34.6765 64.4144 34.892 64.6023 34.9593 64.9646L35.3499 67.42C35.4307 67.8762 35.5924 68.319 35.8348 68.7216C36.0908 69.1241 36.4005 69.4729 36.7777 69.7547C37.1683 70.0365 37.5858 70.2377 38.0573 70.3585C38.5152 70.4793 38.9866 70.5195 39.4715 70.4659C39.9429 70.3988 40.4009 70.2646 40.8184 70.0365C41.236 69.8084 41.5997 69.5132 41.9095 69.1375C42.2058 68.7752 42.4348 68.3727 42.5695 67.9165C42.7176 67.4737 42.7715 67.0041 42.7176 66.5479L42.5695 64.6292C42.6638 64.6023 42.7446 64.5486 42.8119 64.4815L44.9535 62.3078C45.3576 61.9053 45.5866 61.4223 45.6539 60.8588C45.7213 60.2952 45.6135 59.7719 45.3172 59.2888L43.0409 55.505L43.8625 54.3645C44.1454 53.962 44.307 53.5192 44.3205 53.0228C44.3339 52.5263 44.2262 52.0835 43.9837 51.6541L40.0372 45.0123L42.0037 42.9594V43.0265Z" fill="#805FB3"/>
</svg>
