<svg width="101" height="90" viewBox="0 0 101 90" fill="none" xmlns="http://www.w3.org/2000/svg">
<g id="Goal">
<g id="Group">
<g id="Net">
<path id="Vector" d="M25.9792 31.1115L29.3465 34.4928L25.9792 37.8875L23.447 35.3516C23.5009 35.5394 23.5413 35.7273 23.5817 35.9151L25.7637 38.1022L22.8543 41.0273C22.6119 41.4969 22.3156 41.9397 21.9789 42.3288L22.3964 41.9128L24.0531 43.5767H24.4841L22.6119 41.6982L25.9792 38.3034L29.3465 41.6982L27.4878 43.5767H27.9188L29.5755 41.9128L31.2323 43.5767H31.6633L29.791 41.6982L33.1584 38.3034L36.5257 41.6982L34.6669 43.5767H35.0979L36.7546 41.9128L38.4113 43.5767H38.8424L36.9702 41.6982L40.3375 38.3034L43.7048 41.6982L41.8461 43.5767H42.2771L43.9338 41.9128L45.5905 43.5767H46.0215L44.1493 41.6982L46.9374 38.8938V38.5718C46.9374 38.5718 46.9374 38.4914 46.9374 38.4645L43.9338 41.4835L40.5665 38.1022L43.9338 34.7075L47.0317 37.8339C47.0586 37.7265 47.0991 37.6192 47.1395 37.5118L44.1358 34.4928L45.2269 33.406C45.1326 33.3523 45.0652 33.2852 44.9843 33.2181L43.9338 34.2781L40.5665 30.8835L43.9338 27.4887L45.8734 29.4343C45.9946 29.3941 46.1158 29.3807 46.2371 29.3672L44.1493 27.2741L47.5166 23.8793L50.2374 26.6166C50.2778 26.5093 50.3048 26.4019 50.3452 26.2946L47.7321 23.6647L51.0995 20.27L53.4566 22.6449C53.5509 22.6047 53.6586 22.5645 53.7529 22.5242L51.3014 20.0553L54.0896 17.251C54.2243 16.8753 54.4129 16.513 54.6419 16.191L51.3014 12.8365L54.6688 9.44187L58.0496 12.8365L55.9214 14.9834C56.1773 14.8224 56.4602 14.6882 56.7566 14.5675L58.2651 13.0513L59.7737 14.5675C60.0565 14.6748 60.3394 14.809 60.5953 14.9834L58.4671 12.8365L61.8479 9.44187L65.2152 12.8365L61.8749 16.191C62.1039 16.513 62.2789 16.8619 62.4271 17.251L65.2152 20.0553L62.7638 22.5242C62.8581 22.5645 62.9659 22.6047 63.0602 22.6449L65.4173 20.27L68.7846 23.6647L66.1716 26.2946C66.212 26.4019 66.2389 26.5093 66.2793 26.6166L69.0001 23.8793L72.3674 27.2606L70.2797 29.3672C70.4009 29.3672 70.5222 29.3941 70.6434 29.4343L72.583 27.4887L75.9503 30.8835L72.583 34.2648L71.5323 33.2047C71.4515 33.2718 71.3842 33.3389 71.2899 33.3926L72.3809 34.4794L69.3773 37.4984C69.4177 37.6057 69.458 37.7131 69.485 37.8204L72.583 34.6941L75.9503 38.0888L72.583 41.4701L69.5793 38.4511C69.5793 38.4511 69.5793 38.5181 69.5793 38.5584V38.8805L72.3674 41.6847L70.4952 43.5633H70.9262L72.583 41.8995L74.2397 43.5633H74.6707L72.7984 41.6847L76.1792 38.2901L79.5466 41.6847L77.6743 43.5633H78.1053L79.762 41.8995L81.4188 43.5633H81.8498L79.9776 41.6847L83.3584 38.2901L86.7257 41.6847L84.8535 43.5633H85.2845L86.9412 41.8995L88.5979 43.5633H89.0289L87.1701 41.6847L90.5375 38.2901L93.9048 41.6847L92.0326 43.5633H92.4636L94.1203 41.8995L95.777 43.5633H96.2081L94.3493 41.6847L96.6929 39.3366V38.9073L94.1338 41.4701L90.7665 38.0888L94.1338 34.6941L96.6929 37.2569V36.8275L94.3493 34.466L96.6929 32.1179V31.6885L94.1338 34.2513L90.7665 30.87L94.1338 27.4754L96.6929 30.0381V29.6087L94.3493 27.2472L96.6929 24.8991V24.4697L94.1338 27.0326L90.7665 23.6378L94.1338 20.2432L96.6929 22.8194V22.39L94.3493 20.0419L96.6929 17.6803V17.251L94.1338 19.8138L90.7665 16.419L94.1338 13.0378L96.6929 15.6006V15.1712L94.3493 12.8231L96.6929 10.4616V10.0323L94.1338 12.595L90.7665 9.21371L94.1338 5.81906L96.6929 8.38181V7.95244L94.3493 5.59098L96.437 3.48438H96.006L94.1338 5.36281L92.2616 3.48438H91.8305L93.9183 5.59098L90.5509 8.98563L87.1836 5.59098L89.2713 3.48438H88.8403L86.9682 5.36281L85.0959 3.48438H84.6649L86.7526 5.59098L83.3853 8.98563L80.018 5.59098L82.1057 3.48438H81.6747L79.8025 5.36281L77.9302 3.48438H77.4992L79.5869 5.59098L76.2196 8.98563L72.8523 5.59098L74.9401 3.48438H74.5091L72.6368 5.36281L70.7646 3.48438H70.3335L72.4213 5.59098L69.0539 8.98563L65.6866 5.59098L67.7609 3.48438H67.3434L65.4712 5.36281L63.5989 3.48438H63.1679L65.2557 5.59098L61.8884 8.98563L58.5076 5.59098L60.5953 3.48438H60.1643L58.292 5.36281L56.4198 3.48438H55.9888L58.0765 5.59098L54.7092 8.98563L51.3284 5.59098L53.4161 3.48438H52.9851L51.1129 5.36281L49.2407 3.48438H48.8097L50.8974 5.59098L47.5166 8.98563L44.1493 5.59098L46.2371 3.48438H45.806L43.9338 5.36281L42.0615 3.48438H41.6305L43.7048 5.59098L40.3375 8.98563L36.9702 5.59098L39.0579 3.48438H38.6269L36.7546 5.36281L34.8824 3.48438H34.4514L36.5392 5.59098L33.1584 8.98563L29.791 5.59098L31.8788 3.48438H31.4477L29.5755 5.36281L27.7033 3.48438H27.2858L29.36 5.59098L25.9927 8.98563L22.6254 5.59098L24.7131 3.48438H24.2821L22.4099 5.36281L20.5377 3.48438H20.1066L22.1943 5.59098L19.8507 7.95244V8.38181L22.4099 5.81906L25.7772 9.21371L22.4099 12.595L19.8507 10.0323V10.4616L22.1943 12.8231L19.8507 15.1712V15.6006L22.4099 13.0378L25.7772 16.419L22.4099 19.8138L19.8507 17.251V17.6803L22.1943 20.0419L19.8507 22.39V22.8194L22.4099 20.2432L25.7772 23.6378L22.4099 27.0326L19.8507 24.4697V24.8991L22.1943 27.2472L19.8507 29.6087V30.0381L22.4099 27.4754L25.7772 30.87L22.8543 33.8085C22.9082 33.9024 22.9487 33.9964 23.0026 34.0903L25.9927 31.0848L25.9792 31.1115ZM62.0365 16.4728L65.4038 13.0915L68.7711 16.4728L65.4038 19.8674L62.0365 16.4728ZM65.6193 20.0822L68.9866 16.6874L72.3539 20.0822L68.9866 23.4634L65.6193 20.0822ZM83.1025 30.8969L79.7352 34.2781L76.3678 30.8969L79.7352 27.5021L83.1025 30.8969ZM76.3678 23.6915L79.7352 20.2968L83.1025 23.6915L79.7352 27.0862L76.3678 23.6915ZM79.9506 27.2875L83.3179 23.9062L86.6853 27.2875L83.3179 30.6822L79.9506 27.2875ZM86.9007 27.5021L90.2681 30.8969L86.9007 34.2781L83.5334 30.8969L86.9007 27.5021ZM83.5334 23.6781L86.9007 20.2834L90.2681 23.6781L86.9007 27.0728L83.5334 23.6781ZM83.5334 16.4728L86.9007 13.0915L90.2681 16.4728L86.9007 19.8674L83.5334 16.4728ZM86.6988 20.0822L83.3314 23.4634L79.9641 20.0822L83.3314 16.6874L86.6988 20.0822ZM79.7352 19.8674L76.3678 16.4728L79.7352 13.0915L83.1025 16.4728L79.7352 19.8674ZM79.5196 20.0822L76.1523 23.4634L72.785 20.0822L76.1523 16.6874L79.5196 20.0822ZM72.556 19.8674L69.1887 16.4728L72.556 13.0915L75.9233 16.4728L72.556 19.8674ZM69.1887 23.6915L72.556 20.2968L75.9233 23.6915L72.556 27.0862L69.1887 23.6915ZM72.7715 27.2875L76.1388 23.9062L79.5061 27.2875L76.1388 30.6822L72.7715 27.2875ZM76.1388 37.8875L72.7715 34.4928L76.1388 31.1115L79.5061 34.4928L76.1388 37.8875ZM79.7217 41.4835L76.3544 38.1022L79.7217 34.7075L83.089 38.1022L79.7217 41.4835ZM79.9371 34.4928L83.3045 31.1115L86.6718 34.4928L83.3045 37.8875L79.9371 34.4928ZM86.8873 41.4835L83.52 38.1022L86.8873 34.7075L90.2547 38.1022L86.8873 41.4835ZM93.8509 34.4928L90.4836 37.8875L87.1163 34.4928L90.4836 31.1115L93.8509 34.4928ZM93.8509 27.2875L90.4836 30.6822L87.1163 27.2875L90.4836 23.9062L93.8509 27.2875ZM93.8509 20.0822L90.4836 23.4634L87.1163 20.0822L90.4836 16.6874L93.8509 20.0822ZM93.8509 12.8768L90.4836 16.2715L87.1163 12.8768L90.4836 9.48208L93.8509 12.8768ZM86.8873 5.88613L90.2547 9.28086L86.8873 12.6621L83.52 9.28086L86.8873 5.88613ZM86.6718 12.8768L83.3045 16.2715L79.9371 12.8768L83.3045 9.48208L86.6718 12.8768ZM79.7082 5.88613L83.0755 9.28086L79.7082 12.6621L76.3409 9.28086L79.7082 5.88613ZM79.4926 12.8768L76.1253 16.2715L72.758 12.8768L76.1253 9.48208L79.4926 12.8768ZM72.529 5.88613L75.8964 9.28086L72.529 12.6621L69.1617 9.28086L72.529 5.88613ZM72.3136 12.8768L68.9463 16.2715L65.5789 12.8768L68.9463 9.48208L72.3136 12.8768ZM65.3499 5.88613L68.7172 9.28086L65.3499 12.6621L61.9826 9.28086L65.3499 5.88613ZM58.1843 5.88613L61.5516 9.28086L58.1843 12.6621L54.817 9.28086L58.1843 5.88613ZM26.1408 30.8969L29.5082 27.5021L32.8755 30.8969L29.5082 34.2781L26.1408 30.8969ZM43.624 20.0822L40.2567 23.4634L36.8894 20.0822L40.2567 16.6874L43.624 20.0822ZM40.4722 16.4728L43.8395 13.0915L47.2068 16.4728L43.8395 19.8674L40.4722 16.4728ZM36.6738 27.5021L40.0411 30.8969L36.6738 34.2781L33.3065 30.8969L36.6738 27.5021ZM33.091 30.6822L29.7237 27.2875L33.091 23.9062L36.4584 27.2875L33.091 30.6822ZM33.3065 23.6915L36.6738 20.2968L40.0411 23.6915L36.6738 27.0862L33.3065 23.6915ZM36.6738 19.8674L33.3065 16.4728L36.6738 13.0915L40.0411 16.4728L36.6738 19.8674ZM36.4584 20.0822L33.091 23.4634L29.7237 20.0822L33.091 16.6874L36.4584 20.0822ZM29.5082 19.8674L26.1408 16.4728L29.5082 13.0915L32.8755 16.4728L29.5082 19.8674ZM32.8755 23.6915L29.5082 27.0862L26.1408 23.6915L29.5082 20.2968L32.8755 23.6915ZM29.5082 41.4969L26.1408 38.1157L29.5082 34.7209L32.8755 38.1157L29.5082 41.4969ZM29.7237 34.5063L33.091 31.125L36.4584 34.5063L33.091 37.9009L29.7237 34.5063ZM36.6873 41.4969L33.32 38.1157L36.6873 34.7209L40.0546 38.1157L36.6873 41.4969ZM43.6374 34.5063L40.2701 37.9009L36.9028 34.5063L40.2701 31.125L43.6374 34.5063ZM40.2701 30.6822L36.9028 27.2875L40.2701 23.9062L43.6374 27.2875L40.2701 30.6822ZM43.853 27.0862L40.4857 23.6915L43.853 20.2968L47.2203 23.6915L43.853 27.0862ZM47.4358 23.4768L44.0684 20.0956L47.4358 16.7009L50.8166 20.0956L47.4358 23.4768ZM54.3994 16.4862L51.0321 19.8809L47.6648 16.4862L51.0321 13.1049L54.3994 16.4862ZM51.0321 5.88613L54.3994 9.28086L51.0321 12.6621L47.6648 9.28086L51.0321 5.88613ZM50.8166 12.8768L47.4358 16.2715L44.0684 12.8768L47.4358 9.48208L50.8166 12.8768ZM43.853 5.88613L47.2203 9.28086L43.853 12.6621L40.4857 9.28086L43.853 5.88613ZM43.6374 12.8768L40.2701 16.2715L36.9028 12.8768L40.2701 9.48208L43.6374 12.8768ZM36.6873 5.88613L40.0546 9.28086L36.6873 12.6621L33.32 9.28086L36.6873 5.88613ZM36.4718 12.8768L33.1045 16.2715L29.7372 12.8768L33.1045 9.48208L36.4718 12.8768ZM29.5216 5.88613L32.889 9.28086L29.5216 12.6621L26.1543 9.28086L29.5216 5.88613ZM22.558 12.8768L25.9254 9.48208L29.2927 12.8768L25.9254 16.2715L22.558 12.8768ZM22.558 20.0822L25.9254 16.6874L29.2927 20.0822L25.9254 23.4634L22.558 20.0822ZM22.558 27.2875L25.9254 23.9062L29.2927 27.2875L25.9254 30.6822L22.558 27.2875Z" fill="#805FB3"/>
<path id="Vector_2" d="M50.0624 35.3112L50.8436 34.9489L51.0726 34.7208L51.1534 34.8013L51.4497 34.6671L51.2881 34.5061L53.1064 32.6813V32.252L51.0861 34.278L50.0759 33.2716C49.9412 33.2985 49.8199 33.3254 49.7122 33.3388L50.8705 34.4927L50.0624 35.2977V35.3112Z" fill="#805FB3"/>
<path id="Vector_3" d="M58.238 41.4974L55.7462 38.9883L55.4498 39.1225L58.0225 41.7121L56.1503 43.5906H56.5813L58.238 41.9268L59.8947 43.5906H60.3257L58.4535 41.7121L61.0261 39.1225L60.7432 38.9883L58.238 41.4974Z" fill="#805FB3"/>
<path id="Vector_4" d="M66.7778 33.3388C66.67 33.312 66.5488 33.2985 66.4276 33.2716L65.4174 34.278L63.397 32.252V32.6813L65.2153 34.5061L65.0537 34.6671L65.35 34.8013L65.4308 34.7073L65.6598 34.9355L66.441 35.2977L65.6463 34.4927L66.7912 33.3388H66.7778Z" fill="#805FB3"/>
<path id="Vector_5" d="M20.7531 43.5892L20.9955 43.3477C20.9012 43.4282 20.7935 43.5087 20.6992 43.5892H20.7665H20.7531Z" fill="#805FB3"/>
</g>
<path id="Pole" d="M19.1503 30.4153V2.86856H97.326V47.2948H100.101V0.0776367H16.3756V29.7846C16.5776 29.7846 16.7797 29.8115 16.9817 29.8249C17.7495 29.9054 18.4768 30.1067 19.1503 30.4019V30.4153Z" fill="#805FB3"/>
</g>
<g id="Group_2">
<path id="Ball" d="M41.2671 74.0488C41.2671 74.7599 41.1323 75.4577 40.8629 76.1017C40.5936 76.7592 40.203 77.3495 39.7046 77.846C39.2062 78.3425 38.6271 78.7316 37.9806 79.0133C37.3341 79.2817 36.6471 79.4159 35.9332 79.4159C35.2194 79.4159 34.5459 79.2817 33.8859 79.0133C33.2393 78.7316 32.6467 78.3559 32.1618 77.846C31.6635 77.3495 31.2728 76.7592 31.0034 76.1017C30.734 75.4442 30.5994 74.7599 30.5994 74.0488C30.5994 73.3376 30.734 72.6533 31.0034 71.9959C31.2728 71.3384 31.65 70.748 32.1618 70.2516C32.6602 69.7551 33.2393 69.3525 33.8859 69.0842C34.5459 68.8158 35.2194 68.6816 35.9332 68.6816C36.6471 68.6816 37.3341 68.8158 37.9806 69.0842C38.6271 69.3525 39.2197 69.7417 39.7046 70.2516C40.203 70.748 40.5936 71.3384 40.8629 71.9959C41.1323 72.6533 41.2671 73.3376 41.2671 74.0488Z" fill="#805FB3"/>
<path id="Vector_6" d="M16.8065 31.448C17.6011 31.5286 18.342 31.7701 19.0424 32.1592C19.7293 32.5483 20.3354 33.0582 20.8338 33.6754C21.3321 34.2927 21.6958 35.0038 21.9113 35.7686C22.1403 36.5468 22.1942 37.3251 22.1134 38.1167C22.0325 38.9084 21.7901 39.6597 21.3995 40.3575C21.0089 41.0552 20.5105 41.659 19.8909 42.1555C19.2713 42.6519 18.5709 43.0142 17.8032 43.2423C17.0354 43.4704 16.2677 43.5375 15.473 43.4435C14.6783 43.3496 13.9375 43.1215 13.2371 42.719C12.5367 42.3299 11.9441 41.82 11.4457 41.2028C10.9473 40.5856 10.5972 39.8744 10.3682 39.1096C10.1527 38.3448 10.0853 37.5532 10.1661 36.7615C10.2469 35.9699 10.4894 35.2185 10.88 34.5208C11.2706 33.823 11.769 33.2192 12.3886 32.7228C13.0082 32.2263 13.7085 31.864 14.4628 31.6359C15.2171 31.4078 16.0118 31.3541 16.8065 31.4346V31.448Z" fill="#805FB3"/>
<path id="Vector_7" d="M23.9992 66.5234L18.9482 71.5685L20.1739 72.1455L23.3931 82.4638C23.8376 83.8995 25.1576 84.8253 26.5853 84.8253C26.9086 84.8253 27.2453 84.7717 27.582 84.6777C29.3465 84.1142 30.3163 82.2357 29.7775 80.4645L26.1273 68.7374C25.8445 67.8384 25.198 67.1004 24.3494 66.6979L23.9992 66.5369V66.5234Z" fill="#805FB3"/>
<path id="Vector_8" d="M16.0389 73.4867L13.2104 68.8441L17.9246 71.0715L22.9756 66.0398L17.0895 63.2489L20.3626 50.7704C24.7535 53.5479 27.9727 60.1226 28.9425 62.7659C29.2658 63.638 30.0739 64.1747 30.9494 64.1747C31.1918 64.1747 31.4343 64.1345 31.6902 64.0406C32.7947 63.6246 33.3604 62.3901 32.9563 61.2899C32.7677 60.7666 28.2286 48.6369 19.8777 45.8192C19.7834 45.779 19.6756 45.7387 19.5678 45.7119L9.58714 43.0552C9.50632 43.0283 9.439 43.0149 9.35818 43.0014C7.16269 42.5318 4.61695 43.7394 2.91982 46.1144C1.95004 47.483 -0.568716 51.978 2.50228 58.5125L5.20962 48.2344C5.20962 48.2344 5.51941 48.2881 6.04471 48.3954L2.74472 60.9544L2.61006 61.4643C2.17904 62.4438 2.20597 63.6112 2.81209 64.5907L8.32102 73.6611L16.0524 73.5135L16.0389 73.4867Z" fill="#805FB3"/>
<path id="Vector_9" d="M0.845637 88.741C1.50563 89.4923 2.42155 89.8681 3.33746 89.8681C4.13215 89.8681 4.92686 89.5863 5.54644 89.0228L16.3757 79.3485C17.5745 78.2751 17.8439 76.4771 17.0088 75.0951L16.6856 74.5449L8.95413 74.6926L9.85663 76.1819L1.11504 83.9911C-0.258828 85.2255 -0.380068 87.3455 0.845637 88.7275V88.741Z" fill="#805FB3"/>
</g>
<g id="Group_3">
<path id="Vector_10" d="M61.7403 18.7957C61.7403 19.2653 61.6461 19.7216 61.471 20.1509C61.2959 20.5803 61.04 20.956 60.7167 21.2914C60.3934 21.6269 60.0028 21.8818 59.5718 22.0562C59.1407 22.2307 58.6963 22.3246 58.2383 22.3246C57.7804 22.3246 57.3224 22.2307 56.9049 22.0562C56.4738 21.8684 56.0967 21.6269 55.7734 21.2914C55.4501 20.9694 55.1942 20.5803 55.0056 20.1509C54.8305 19.7216 54.7363 19.2653 54.7363 18.7957C54.7363 18.3261 54.8305 17.8833 55.0056 17.4539C55.1942 17.0246 55.4367 16.6489 55.7734 16.3135C56.0967 15.978 56.4873 15.7231 56.9049 15.5486C57.3359 15.3742 57.7804 15.2803 58.2383 15.2803C58.6963 15.2803 59.1542 15.3742 59.5718 15.5486C60.0028 15.7365 60.38 15.978 60.7167 16.3135C61.04 16.6355 61.2959 17.0246 61.471 17.4539C61.6461 17.8833 61.7403 18.3395 61.7403 18.7957Z" fill="#805FB3"/>
<path id="Vector_11" d="M68.6501 38.5882C68.6501 37.8368 68.2191 37.1525 67.5322 36.8439L62.4542 34.5227V26.472C62.8987 27.0892 63.2758 28.1492 63.3297 29.8801C63.3836 31.5305 65.3905 32.1074 67.128 32.4429C68.5693 32.7112 69.9701 32.8186 70.0375 32.8186H70.1183C70.7648 32.8186 71.317 32.3087 71.3574 31.6513C71.3978 30.967 70.886 30.3632 70.1991 30.3229C68.4077 30.2022 66.4546 29.8264 65.8081 29.4776C65.6869 27.1026 65.0268 25.3583 63.8415 24.2715C62.8987 23.4127 61.8885 23.2517 61.4036 23.2114C61.3632 23.2114 61.3093 23.2114 61.2689 23.2114H55.2616C55.2616 23.2114 55.1674 23.2114 55.127 23.2114C54.6421 23.2383 53.6453 23.4127 52.689 24.2715C51.5037 25.3583 50.8437 27.1026 50.7225 29.4776C50.0759 29.813 48.1229 30.2021 46.3315 30.3095C45.6445 30.3632 45.1327 30.9535 45.1731 31.6378C45.2135 32.2953 45.7658 32.8052 46.4123 32.8052H46.4931C46.4931 32.8052 47.9613 32.6979 49.4025 32.4295C51.14 32.1075 53.147 31.5171 53.2009 29.8667C53.2547 28.1358 53.6184 27.0624 54.0763 26.4586V34.5093L48.9984 36.8305C48.325 37.1391 47.8805 37.8234 47.8805 38.5748V45.7534C47.8805 46.8134 48.729 47.6721 49.7796 47.6721C50.8302 47.6721 51.6788 46.8134 51.6788 45.7534V39.8093L57.511 37.1391C57.8208 37.0049 58.0767 36.7769 58.2653 36.5219C58.4539 36.7769 58.7098 37.0049 59.0196 37.1391L64.8517 39.8093V45.7534C64.8517 46.8134 65.7004 47.6721 66.7644 47.6721C67.8285 47.6721 68.6636 46.8134 68.6636 45.7534V38.5748L68.6501 38.5882Z" fill="#805FB3"/>
</g>
</g>
</svg>
