<svg width="128" height="67" viewBox="0 0 128 67" fill="none" xmlns="http://www.w3.org/2000/svg">
<g id="Playing">
<g id="Player">
<path id="Vector" d="M19.7032 44.2003C19.811 44.2808 19.9322 44.3479 20.0534 44.415L40.1631 54.532C40.2439 54.5723 40.3247 54.5991 40.4055 54.6259C40.5268 54.7064 40.6614 54.7869 40.7961 54.854L53.9287 61.3483C55.6393 62.1936 57.7136 61.4959 58.5621 59.7784C59.4107 58.0609 58.7103 55.9677 56.9997 55.1224L45.1602 49.2723L45.7528 48.0915L55.5989 53.0024L58.6699 46.7631L32.3913 33.6808C34.3309 32.6879 39.301 31.7352 50.9654 36.2839C52.1238 36.7266 53.4169 36.1631 53.8613 34.9957C54.3058 33.8418 53.7266 32.5269 52.5818 32.0841C42.3451 28.099 34.8292 27.3074 30.2497 29.736C30.1689 29.7762 30.1015 29.8164 30.0207 29.8567C30.4517 31.44 30.3305 33.1843 29.5493 34.7676C28.5256 36.8608 26.5322 38.283 24.2289 38.5782C23.1514 38.7124 22.0738 38.6051 21.0636 38.2428C19.1914 40.0408 14.1943 42.7646 3.10909 38.0281C1.97767 37.5451 0.657685 38.0818 0.172791 39.2223C-0.298634 40.3629 0.226667 41.6912 1.35809 42.1743C6.48988 44.3614 10.6384 45.1664 13.9519 45.1664C16.2282 45.1664 18.1004 44.7907 19.6628 44.2272L19.7032 44.2003Z" fill="#448EE4"/>
<path id="Vector_2" d="M70.3881 60.3524C72.0987 61.1977 74.1729 60.5 75.0215 58.7691C75.8701 57.0516 75.1697 54.9718 73.4591 54.1131L59.7204 47.27L56.6494 53.5092L70.3881 60.3658V60.3524Z" fill="#448EE4"/>
<path id="Vector_3" d="M26.1686 25.9775C26.9229 26.3532 27.5694 26.8631 28.1216 27.4803C28.6739 28.1109 29.0779 28.822 29.3473 29.6271C29.6167 30.4188 29.7245 31.2373 29.6706 32.0826C29.6167 32.9279 29.4012 33.7195 29.0241 34.4709C28.6469 35.2223 28.1486 35.8798 27.529 36.4299C26.8959 36.9935 26.1955 37.396 25.4008 37.6643C24.6061 37.9327 23.798 38.0401 22.9629 37.973C22.1278 37.9193 21.3331 37.7046 20.5923 37.3289C19.8515 36.9532 19.1915 36.4568 18.6392 35.8261C18.087 35.1955 17.6829 34.4844 17.4135 33.6793C17.1442 32.8742 17.0364 32.0692 17.1038 31.2238C17.1711 30.3785 17.3731 29.5869 17.7368 28.8355C18.1005 28.0841 18.6123 27.4266 19.2319 26.8765C19.865 26.3129 20.5654 25.9104 21.36 25.6421C22.1547 25.3737 22.9629 25.2663 23.798 25.3334C24.6331 25.4005 25.4143 25.6018 26.1686 25.9775Z" fill="#448EE4"/>
</g>
<path id="Vector_4" d="M77.6615 53.0017L60.4612 34.5522L59.4376 35.988L77.4325 53.4714L77.675 53.0017H77.6615Z" fill="#448EE4"/>
<path id="Vector_5" d="M75.4796 62.1538L58.9797 65.884L59.4512 66.9843L75.6682 62.449L75.4796 62.1538Z" fill="#448EE4"/>
<path id="Ball" d="M89.5551 58.4646C89.5551 59.216 89.4204 59.9272 89.1375 60.6115C88.8547 61.2958 88.4506 61.913 87.9118 62.4363C87.4 62.973 86.7804 63.3755 86.0935 63.6573C85.4065 63.939 84.6927 64.0866 83.9519 64.0866C83.211 64.0866 82.4972 63.9524 81.8102 63.6573C81.1233 63.3621 80.5172 62.973 79.9919 62.4363C79.4666 61.8996 79.0625 61.2958 78.7796 60.6115C78.4968 59.9272 78.3486 59.2026 78.3486 58.4646C78.3486 57.7266 78.4833 57.0021 78.7796 56.3043C79.0625 55.62 79.4666 55.0028 79.9919 54.4795C80.5172 53.9563 81.1233 53.5537 81.8102 53.2585C82.4972 52.9633 83.211 52.8291 83.9519 52.8291C84.6927 52.8291 85.4065 52.9767 86.0935 53.2585C86.7804 53.5403 87.3865 53.9428 87.9118 54.4795C88.4371 55.0163 88.8412 55.62 89.1375 56.3043C89.4204 56.9886 89.5551 57.7132 89.5551 58.4646Z" fill="#448EE4"/>
<g id="Player_2">
<path id="Vector_6" d="M109.22 13.5805C109.139 13.5537 109.072 13.5269 108.978 13.5L107.267 13.0841C106.419 14.3051 104.802 14.9358 103.172 14.5466C102.391 14.3588 101.718 13.9562 101.206 13.4329C99.7243 13.0036 98.4852 12.0912 97.6231 10.9238C97.475 10.9507 97.3268 10.991 97.1921 11.0446C96.2089 11.2727 94.0268 11.9302 91.7505 13.7416C89.1105 15.8616 85.8375 20.0077 85.191 27.79C85.0832 29.0378 85.9991 30.1247 87.2383 30.232C87.3057 30.232 87.3595 30.232 87.4269 30.232C88.5718 30.232 89.555 29.3331 89.6493 28.1657C90.1611 21.9399 92.6126 18.733 94.7676 17.0826L91.535 30.5809L88.5179 37.1556L94.8485 39.9599L97.1517 34.9282L98.8354 35.3308L96.6533 44.4281L103.375 46.065L109.948 18.6659C112.857 19.9943 118.285 23.3621 122.959 31.3323C123.376 32.0434 124.131 32.4326 124.898 32.4326C125.289 32.4326 125.68 32.3386 126.03 32.1239C127.094 31.4933 127.444 30.1112 126.825 29.0378C119.847 17.1765 111.079 14.1307 109.207 13.594L109.22 13.5805Z" fill="#448EE4"/>
<path id="Vector_7" d="M92.9088 60.0207C92.4643 61.8858 93.5957 63.7643 95.4545 64.2205C97.3133 64.6633 99.1855 63.5227 99.63 61.6577L103.119 47.153L96.3973 45.5161L92.9088 60.0207Z" fill="#448EE4"/>
<path id="Vector_8" d="M84.3424 46.2801C83.5477 48.0244 84.302 50.0907 86.0395 50.8958C87.777 51.7009 89.8244 50.936 90.6325 49.1917L94.3905 40.9666L88.0599 38.1489L84.3424 46.2667V46.2801Z" fill="#448EE4"/>
<path id="Vector_9" d="M104.627 0.606534C105.435 0.8078 106.176 1.1567 106.849 1.65316C107.523 2.14962 108.089 2.75338 108.52 3.46453C108.951 4.17567 109.233 4.95387 109.368 5.78578C109.489 6.61768 109.462 7.4362 109.26 8.25468C109.058 9.07317 108.722 9.82454 108.237 10.4954C107.752 11.1797 107.146 11.7433 106.432 12.1727C105.718 12.6154 104.95 12.8972 104.129 13.018C103.307 13.1522 102.485 13.1119 101.677 12.924C100.869 12.7362 100.128 12.374 99.4547 11.8775C98.7813 11.381 98.2156 10.7772 97.7845 10.066C97.3535 9.35491 97.0707 8.5767 96.936 7.7448C96.8148 6.9129 96.8417 6.09446 97.0437 5.27598C97.2458 4.45749 97.5825 3.70604 98.0674 3.03515C98.5523 2.35084 99.1584 1.78729 99.8723 1.35793C100.586 0.915139 101.354 0.633359 102.176 0.512599C102.997 0.378422 103.819 0.418685 104.627 0.606534Z" fill="#448EE4"/>
</g>
</g>
</svg>
