<svg width="103" height="89" viewBox="0 0 103 89" fill="none" xmlns="http://www.w3.org/2000/svg">
<g id="Score board">
<path id="Vector" d="M72.3997 30.8047H79.2556V34.4141H72.3997V30.8047Z" fill="#448EE4"/>
<path id="Vector_2" d="M2.46708 88.165H90.1521V84.5556H57.2736V34.4268H69.8269V30.8174H11.936V4.23683H19.7751V0.627441H10.1446C9.90211 0.627441 9.67313 0.68108 9.45763 0.761586C9.22865 0.855511 9.04008 0.989741 8.87845 1.15075C8.71681 1.31177 8.58213 1.51296 8.48785 1.74106C8.39356 1.95574 8.35315 2.18386 8.35315 2.42538V30.804H2.46708C2.22463 30.804 1.99565 30.8442 1.78014 30.9382C1.56463 31.0321 1.36259 31.1663 1.20096 31.3273C1.03933 31.5018 0.904635 31.703 0.81035 31.9177C0.716065 32.1458 0.675659 32.3739 0.675659 32.602V86.3537C0.675659 86.5952 0.716065 86.8232 0.81035 87.0379C0.904635 87.2526 1.03933 87.4538 1.20096 87.6149C1.36259 87.7893 1.56463 87.9101 1.78014 88.004C1.99565 88.0979 2.22463 88.1382 2.46708 88.1382V88.165ZM53.6908 84.5556H49.8116V34.4268H53.6908V84.5556ZM4.25848 34.4268H46.2288V84.5556H4.25848V34.4268Z" fill="#448EE4"/>
<path id="Vector_3" d="M102.84 86.3668V32.6151C102.84 32.3736 102.786 32.1455 102.706 31.9308C102.625 31.7161 102.49 31.5149 102.315 31.3405C102.153 31.1795 101.951 31.0453 101.736 30.9513C101.52 30.8574 101.291 30.8172 101.049 30.8172H95.5264V2.43856C95.5264 2.19704 95.4725 1.96893 95.3917 1.75424C95.2974 1.52614 95.1762 1.33829 95.0011 1.16386C94.826 0.989425 94.6375 0.868695 94.422 0.77477C94.193 0.680846 93.9775 0.640625 93.735 0.640625H22.3074V4.25001H91.9436V30.8306H81.8012V34.44H99.2574V84.5688H92.6979V88.1782H101.062C101.305 88.1782 101.534 88.1379 101.749 88.044C101.965 87.9501 102.167 87.8293 102.328 87.6549C102.49 87.4939 102.625 87.2926 102.719 87.0779C102.813 86.8498 102.854 86.6217 102.854 86.3936L102.84 86.3668Z" fill="#448EE4"/>
<path id="Vector_4" d="M34.0121 46.4626H15.6669V50.072H32.2207V57.5994H17.4583C17.2159 57.5994 16.9869 57.6531 16.7714 57.7336C16.5559 57.8141 16.3539 57.9617 16.1922 58.1227C16.0306 58.2837 15.8959 58.485 15.8016 58.7131C15.7073 58.9412 15.6669 59.1559 15.6669 59.3974V72.3456C15.6669 72.5871 15.7208 72.8151 15.8016 73.0298C15.8824 73.2445 16.0171 73.4458 16.1922 73.6202C16.3539 73.7812 16.5559 73.9155 16.7714 74.0094C16.9869 74.1033 17.2159 74.1435 17.4583 74.1435H35.8035V70.5341H19.2497V61.182H34.0121C34.2545 61.182 34.47 61.1417 34.699 61.0478C34.9145 60.9538 35.1166 60.8197 35.2782 60.6587C35.4398 60.4843 35.5745 60.283 35.6688 60.0683C35.7631 59.8402 35.8035 59.6121 35.8035 59.384V48.2472C35.8035 48.0057 35.7496 47.7776 35.6688 47.5629C35.588 47.3482 35.4533 47.147 35.2782 46.9725C35.1031 46.7981 34.9145 46.6774 34.699 46.5834C34.47 46.4895 34.2545 46.4492 34.0121 46.4492V46.4626Z" fill="#448EE4"/>
<path id="Vector_5" d="M69.4901 46.4614C69.2476 46.4614 69.0321 46.5151 68.8032 46.5957C68.5877 46.6896 68.3856 46.8237 68.224 46.9847C68.0623 47.1458 67.9277 47.347 67.8334 47.5751C67.7391 47.8032 67.6987 48.0313 67.6987 48.2594V72.3444C67.6987 72.5859 67.7526 72.8139 67.8334 73.0286C67.9277 73.2433 68.0489 73.4446 68.224 73.619C68.3856 73.78 68.5877 73.9142 68.8032 74.0082C69.0321 74.1021 69.2476 74.1423 69.4901 74.1423H86.0438C86.2863 74.1423 86.5153 74.1021 86.7308 74.0082C86.9463 73.9142 87.1483 73.78 87.3099 73.619C87.4716 73.4446 87.6063 73.2433 87.7006 73.0286C87.7948 72.8005 87.8353 72.5725 87.8353 72.3444V48.2594C87.8353 48.0179 87.7814 47.7898 87.7006 47.5751C87.6197 47.3604 87.485 47.1592 87.3099 46.9847C87.1348 46.8103 86.9463 46.6896 86.7308 46.5957C86.5153 46.5017 86.2863 46.4614 86.0438 46.4614H69.4901ZM84.2524 70.5464H71.2815V50.0708H84.2524V70.5464Z" fill="#448EE4"/>
<path id="Vector_6" d="M9.96942 38.813H40.8814V42.4224H9.96942V38.813Z" fill="#448EE4"/>
<path id="Vector_7" d="M62.2977 38.813H93.1962V42.4224H62.2977V38.813Z" fill="#448EE4"/>
<path id="Vector_8" d="M30.2406 13.2119V9.60254H21.0276C20.7852 9.60254 20.5697 9.65618 20.3407 9.73668C20.1252 9.83061 19.9231 9.96476 19.7615 10.1258C19.5999 10.2868 19.4652 10.4881 19.3709 10.7162C19.2766 10.9443 19.2362 11.1724 19.2362 11.4005V17.4653C19.2362 17.7069 19.2901 17.935 19.3709 18.1497C19.4652 18.3778 19.5864 18.5656 19.7615 18.74C19.9366 18.9145 20.1252 19.0352 20.3407 19.1291C20.5697 19.2231 20.7852 19.2634 21.0276 19.2634H26.6443V21.7993H19.2362V25.4086H28.4492C28.6916 25.4086 28.9072 25.3684 29.1361 25.2745C29.3516 25.1806 29.5537 25.0463 29.7153 24.8853C29.8769 24.7109 30.0116 24.5231 30.1059 24.295C30.2002 24.0669 30.2406 23.8388 30.2406 23.6107V17.4519C30.2406 17.2104 30.1867 16.9823 30.1059 16.7676C30.0116 16.5395 29.8904 16.3516 29.7153 16.1772C29.5537 16.0028 29.3516 15.882 29.1361 15.7881C28.9072 15.6942 28.6916 15.654 28.4492 15.654H22.8325V13.1985H30.2406V13.2119Z" fill="#448EE4"/>
<path id="Vector_9" d="M44.2354 13.2119V9.60254H34.8743C34.6319 9.60254 34.4029 9.65618 34.1874 9.73668C33.9584 9.83061 33.7698 9.96476 33.6082 10.1258C33.4466 10.2868 33.3119 10.4881 33.2176 10.7162C33.1233 10.9443 33.0829 11.1724 33.0829 11.4005V23.6107C33.0829 23.8522 33.1233 24.0803 33.2176 24.295C33.3119 24.5097 33.4466 24.7109 33.6082 24.8853C33.7698 25.0463 33.9719 25.1806 34.1874 25.2745C34.4029 25.3684 34.6319 25.4086 34.8743 25.4086H44.2354V21.7993H36.6657V13.1985H44.2354V13.2119Z" fill="#448EE4"/>
<path id="Vector_10" d="M48.3164 9.60254C48.074 9.60254 47.845 9.65618 47.6295 9.73668C47.414 9.81719 47.212 9.96476 47.0503 10.1258C46.8887 10.2868 46.754 10.4881 46.6597 10.7162C46.5654 10.9443 46.525 11.1724 46.525 11.4005V23.6107C46.525 23.8522 46.5654 24.0803 46.6597 24.295C46.754 24.5097 46.8887 24.7109 47.0503 24.8853C47.212 25.0463 47.414 25.1806 47.6295 25.2745C47.845 25.3684 48.074 25.4086 48.3164 25.4086H55.9805C56.2229 25.4086 56.4519 25.3684 56.6674 25.2745C56.8829 25.1806 57.0849 25.0463 57.2466 24.8853C57.4082 24.7109 57.5429 24.5231 57.6372 24.295C57.7315 24.0669 57.7719 23.8388 57.7719 23.6107V11.4005C57.7719 11.159 57.7315 10.9308 57.6372 10.7162C57.5429 10.5015 57.4082 10.3002 57.2466 10.1258C57.0849 9.95134 56.8829 9.83061 56.6674 9.73668C56.4519 9.64276 56.2229 9.60254 55.9805 9.60254H48.3164ZM54.1756 21.8127H50.1079V13.2119H54.1756V21.8127Z" fill="#448EE4"/>
<path id="Vector_11" d="M69.3015 25.4256V20.7025C69.5439 20.7025 69.7729 20.6623 69.9884 20.5683C70.2039 20.4744 70.406 20.3537 70.5676 20.1792C70.7292 20.0182 70.8639 19.817 70.9582 19.6023C71.0525 19.3742 71.0929 19.1461 71.0929 18.918V11.4308C71.0929 11.1893 71.0525 10.9612 70.9582 10.7465C70.8639 10.5318 70.7292 10.3306 70.5676 10.1561C70.406 9.98169 70.2039 9.86096 69.9884 9.76704C69.7729 9.67311 69.5439 9.63281 69.3015 9.63281H61.7452C61.5028 9.63281 61.2873 9.68653 61.0583 9.76704C60.8428 9.86096 60.6407 9.99511 60.4791 10.1561C60.3175 10.3171 60.1828 10.5184 60.0885 10.7465C59.9942 10.9746 59.9538 11.2027 59.9538 11.4308V25.4524H63.5366V20.7293H65.7052V25.4524H69.288L69.3015 25.4256ZM63.5366 17.0931V13.2154H67.5235V17.0931H63.5366Z" fill="#448EE4"/>
<path id="Vector_12" d="M84.6298 13.2119V9.60254H75.2417C74.9992 9.60254 74.7703 9.65618 74.5547 9.73668C74.3392 9.81719 74.1372 9.96476 73.9756 10.1258C73.8139 10.2868 73.6792 10.4881 73.585 10.7162C73.4907 10.9443 73.4503 11.1724 73.4503 11.4005V23.6107C73.4503 23.8522 73.4907 24.0803 73.585 24.295C73.6792 24.5097 73.8139 24.7109 73.9756 24.8853C74.1372 25.0463 74.3392 25.1806 74.5547 25.2745C74.7703 25.3684 74.9992 25.4086 75.2417 25.4086H84.6298V21.7993H77.0466V19.317H82.7306V15.7076H77.0466V13.1985H84.6298V13.2119Z" fill="#448EE4"/>
</g>
</svg>
