<svg width="57" height="88" viewBox="0 0 57 88" fill="none" xmlns="http://www.w3.org/2000/svg">
<path id="Vector" d="M15.4356 32.3547V2.85798L52.9934 18.2346L15.4356 32.3547ZM16.2966 65.4294H15.4356V34.2392L16.2966 33.9115V65.4294ZM26.5717 67.1773H31.0882C31.2858 67.7372 31.3846 68.3244 31.3846 68.9116C31.3846 70.0178 31.0459 71.0829 30.3825 72.0798C29.4086 73.582 27.7149 74.9202 25.5272 75.8761C23.3395 76.832 20.672 77.392 17.7927 77.392C14.6593 77.392 11.7659 76.7228 9.49356 75.6031L10.1851 74.5515L15.0263 67.1773H26.5717ZM55.7598 17.4562L14.8851 0.713987C14.6029 0.60474 14.2783 0.632048 14.0242 0.795919C13.7701 0.95979 13.6149 1.23288 13.6149 1.53331V66.0575L8.6467 73.6366L7.43286 75.4801L0.248756 86.4322C-0.0194135 86.8419 0.107631 87.388 0.531056 87.6475C0.954482 87.907 1.51903 87.7841 1.7872 87.3745L8.50555 77.1189C11.1026 78.4162 14.3065 79.1809 17.7927 79.1809C21.9563 79.1809 25.739 78.0884 28.5477 76.2859C29.945 75.3846 31.1023 74.292 31.921 73.0493C32.7255 71.8066 33.2054 70.4002 33.2054 68.939C33.2054 68.3381 33.1207 67.7645 32.9795 67.2046H50.0435C50.5375 67.2046 50.961 66.8086 50.961 66.317C50.961 65.8254 50.5517 65.4431 50.0435 65.4431H18.1173V33.2424L55.7457 19.0949C56.0844 18.972 56.3244 18.6442 56.3244 18.2891C56.3244 17.9341 56.1126 17.6064 55.7739 17.4698" fill="#805FB3"/>
</svg>
