<svg width="78" height="104" viewBox="0 0 78 104" fill="none" xmlns="http://www.w3.org/2000/svg">
<path id="Vector" d="M76.788 50.0751C76.7227 49.8478 76.6574 49.6339 76.5921 49.4201C76.5399 49.2864 76.5007 49.1393 76.4616 49.0057C76.4355 48.9255 76.4093 48.8453 76.3832 48.7651C76.318 48.5779 76.2657 48.3907 76.1874 48.2036C76.1874 48.1768 76.1743 48.1501 76.1613 48.1234C75.1168 45.1825 73.5761 42.4956 71.5916 40.1028L71.5132 40.0092H71.4871C69.0326 37.0951 65.9905 34.7692 62.6089 33.2052C58.4831 30.7054 52.9342 27.5373 48.456 24.984C44.8655 22.9388 41.7842 21.1743 40.7266 20.4926C35.465 17.1507 30.2164 13.7687 24.9939 10.3867L17.1471 5.28022C15.8545 4.41132 14.5489 3.56916 13.2433 2.6869C12.5905 2.25914 11.9507 1.81803 11.3109 1.3769C10.9845 1.16302 10.6712 0.935771 10.3448 0.708522C10.1881 0.588214 10.0314 0.48126 9.87473 0.360951L9.41776 0L9.86166 0.374332C10.0183 0.49464 10.175 0.601594 10.3317 0.721903C10.6451 0.962519 10.9584 1.18971 11.2848 1.41696C11.9115 1.87146 12.5513 2.32597 13.191 2.7671C14.4705 3.66273 15.7631 4.54498 17.0426 5.42724L24.785 10.6941C25.947 11.4828 27.122 12.2849 28.2971 13.0602C27.1351 13.2206 24.7458 13.4345 23.2704 12.8463L13.2563 6.06894L13.0605 6.37637L13.2563 6.05556C11.7418 5.1332 10.2403 4.19749 8.75191 3.23502C8.00771 2.75378 7.27654 2.2725 6.53234 1.76453C6.16676 1.51055 5.8012 1.25654 5.44869 0.989189C5.2659 0.855513 5.09614 0.721841 4.9264 0.574797C4.76973 0.427753 4.58697 0.294097 4.46947 0.093583C4.57392 0.307465 4.74363 0.454528 4.90031 0.614939C5.05698 0.761983 5.22672 0.92243 5.39645 1.06947C5.72286 1.36356 6.07539 1.64421 6.4279 1.91156C7.13294 2.473 7.83797 3.00774 8.54301 3.54245C9.48306 4.25093 10.4362 4.94604 11.3893 5.62779L2.58937 3.8232L12.8907 6.71056L22.7221 13.3542L22.696 13.3944C22.7613 13.4345 22.8396 13.4612 22.9179 13.4879L23.179 13.6617L28.2579 17.6586C25.3986 16.8432 21.4034 15.9075 20.7898 15.7738C19.6669 14.9985 11.6243 11.0283 9.66583 10.2797L9.58749 10.1594C9.50916 10.0525 9.4439 9.97226 9.36556 9.89206C9.22194 9.70491 9.05219 9.55787 8.89551 9.39746C8.58216 9.07664 8.2688 8.76917 7.94239 8.46171C7.30264 7.86017 6.63678 7.28537 5.95786 6.71056C4.62612 5.57432 3.26828 4.45144 1.88432 3.36866C3.17689 4.55838 4.45639 5.76142 5.70979 7.00461C6.33649 7.61952 6.95013 8.24783 7.55072 8.87611C7.85102 9.19693 8.13827 9.51772 8.42551 9.85192C8.49079 9.91875 8.54298 9.98564 8.59521 10.0658C8.50381 10.0525 8.4255 10.0257 8.3341 10.0123L7.35489 9.82524L5.39645 9.4509L1.47958 8.67556L5.30505 9.82524L7.22432 10.3867L8.19046 10.6674C8.51687 10.761 8.81718 10.8546 9.18275 10.9214C9.88779 11.0417 19.7322 15.8807 20.372 16.4155C20.6331 16.6828 22.8004 19.8509 24.3933 22.2303L13.0605 19.7841L1.38817 13.9023L12.3032 20.2118L6.79348 25.4653L0.957335 25.6658L6.80651 26.2139L14.9406 32.4966L8.60827 39.7018L8.63441 39.7285L0.774529 40.8648L8.86942 40.437L15.2017 49.8077L8.39937 59.0714L0.513428 60.9429L8.42551 59.82L14.8883 70.9954L8.04687 83.9085L1.57098 84.1892L8.02077 84.6437L13.3738 96.4071C12.6557 97.5701 11.9376 98.7331 11.2326 99.9094L10.0445 101.901C9.65278 102.57 9.26108 103.238 8.88244 103.906C9.33941 103.278 9.78334 102.65 10.2403 102.022L11.559 100.123C12.4207 98.8802 13.2563 97.637 14.1049 96.3938L16.8729 95.4447C17.826 95.1239 18.7791 94.7763 19.7191 94.4421C20.6723 94.1079 21.6254 93.7737 22.5654 93.4262C23.3749 93.1321 24.1974 92.8247 25.02 92.5306L25.477 95.0837C25.6597 96.073 25.8425 97.0622 26.0253 98.0648C26.4039 100.043 26.7956 102.022 27.2265 104C27.0176 101.995 26.7565 99.9897 26.4953 97.9846C26.3648 96.982 26.2212 95.9927 26.0775 94.9902L25.6597 92.1964L33.7938 81.2751C34.3813 81.1414 36.6792 80.6467 39.0815 80.0318C40.8441 81.0879 42.7373 81.9166 44.7088 82.5316L44.9308 90.5121C44.3302 91.528 43.7426 92.5439 43.1681 93.5732C42.5676 94.6426 41.98 95.7121 41.4186 96.7948C40.8441 97.8776 40.2958 98.9737 39.7735 100.083C39.2513 101.193 38.7552 102.302 38.3374 103.465C38.8074 102.342 39.3688 101.246 39.9433 100.177C40.5177 99.094 41.1183 98.038 41.732 96.9953C42.3456 95.9393 42.9854 94.91 43.6382 93.8807C44.2518 92.9049 44.8785 91.9291 45.5183 90.9666L53.9135 89.6966C53.9135 90.7126 53.8873 91.7419 53.8481 92.7712C53.7959 93.9475 53.7176 95.1239 53.6001 96.3002C53.4826 97.4766 53.3259 98.6396 53.0909 99.8026C52.9734 100.377 52.8298 100.952 52.647 101.5C52.4642 102.048 52.2423 102.61 51.9158 103.104C52.2684 102.636 52.5164 102.088 52.7253 101.54C52.9473 100.979 53.117 100.417 53.2606 99.8426C53.5609 98.693 53.7829 97.53 53.9656 96.3537C54.1484 95.1907 54.2921 94.001 54.4096 92.8246C54.514 91.6884 54.6054 90.5388 54.6707 89.4025L59.1229 82.6118C61.5905 81.89 63.8623 80.8071 65.9121 79.457H65.9252L66.0427 79.3768C66.578 79.0159 67.1002 78.6416 67.6094 78.2406H68.0011L67.9097 78.4411C67.6486 78.9758 67.4136 79.5105 67.1525 80.0452C66.6694 81.1146 66.1863 82.1841 65.7163 83.2668C64.7632 85.419 63.8231 87.5845 62.9092 89.7501C61.9822 91.9156 61.0682 94.0812 60.1674 96.2601C59.7234 97.3429 59.2665 98.4257 58.8356 99.5218C58.6137 100.07 58.4048 100.618 58.1828 101.166C58.0784 101.433 57.9739 101.714 57.8695 101.981C57.8173 102.115 57.765 102.262 57.7259 102.396L57.5953 102.824L57.7389 102.396C57.7911 102.262 57.8434 102.129 57.8956 101.995C58 101.714 58.1176 101.447 58.2351 101.179C58.457 100.631 58.692 100.097 58.927 99.5619C59.3971 98.4792 59.8671 97.4097 60.3502 96.3403C61.3033 94.1881 62.2825 92.0493 63.2617 89.9105C64.2409 87.7717 65.2332 85.6463 66.2385 83.5074C66.7347 82.4514 67.2569 81.382 67.7661 80.3393C68.0272 79.818 68.2884 79.2833 68.5495 78.762L68.9542 77.9866L69.372 77.238C69.5809 76.8771 69.8682 76.4493 70.1946 75.9547C71.7483 74.364 73.1061 72.5727 74.229 70.6344L74.2942 70.5275V70.4874C77.6889 64.5121 78.8117 57.1733 76.8402 50.0082L76.788 50.0751ZM58.7051 81.4622C55.7413 82.3311 52.7384 82.585 49.8399 82.3043C50.336 82.037 50.7016 81.7964 50.9105 81.6359C51.1977 81.6627 51.7069 81.7028 52.3859 81.7028C54.0571 81.7028 56.7858 81.4488 59.841 80.1922L59.0968 81.3285C58.9662 81.3686 58.8356 81.4087 58.7051 81.4488V81.4622ZM36.3528 27.818C37.7759 27.8313 46.5497 29.7295 47.8423 30.2375C48.0904 30.3311 48.6648 30.6118 49.4221 30.9995C49.2001 31.0262 48.9782 31.0529 48.7562 31.0797C45.9491 31.454 43.2204 32.2961 40.6744 33.5794C39.4732 34.1809 38.3112 34.8895 37.2145 35.6915C36.9403 35.892 34.1463 38.2715 34.1724 38.2848L28.976 33.1918L36.3528 27.8314V27.818ZM50.8975 80.3527C48.9782 79.4972 47.3331 78.2138 46.158 77.1043C48.1818 74.9922 52.7906 70.1532 53.4042 69.6051C53.7698 69.2843 56.9164 68.5223 60.5199 67.7604L63.1964 70.0863C62.7003 73.9496 61.943 76.3558 61.6166 77.3049C61.2249 77.8663 60.9247 78.2139 60.8071 78.3476C55.9111 80.8473 51.5242 80.4195 50.8975 80.3393V80.3527ZM63.1442 74.6715C63.3923 73.6021 63.6403 72.2786 63.8623 70.6879L64.502 71.2494C64.0712 72.5861 63.6012 73.7224 63.1312 74.6715H63.1442ZM72.4533 65.675C69.3851 68.7629 66.3169 70.0062 65.3768 70.327L64.0581 69.1773C64.1365 68.4555 64.2018 67.707 64.267 66.9049C65.2985 66.1563 71.2521 61.7985 73.0017 59.0448C73.1845 59.0448 73.4325 59.0714 73.7459 59.0714C73.6153 60.9162 73.2758 63.2421 72.4533 65.675ZM44.3693 75.2061L47.6595 67.7337C48.8476 67.6802 50.336 67.4663 51.8505 67.199L52.7123 69.2309C51.6286 70.3003 47.5028 74.618 45.6227 76.583C45.0352 75.9949 44.6044 75.5002 44.3693 75.1927V75.2061ZM36.0656 58.7239L34.4335 56.4647C36.3789 56.8123 39.5907 57.3871 41.4186 57.6678C41.5753 58.002 41.7319 58.3496 41.8886 58.6838L36.0656 58.7239ZM33.4282 54.9809C32.1748 50.4092 32.4881 47.0941 32.5534 46.546C32.7493 46.1316 33.8852 43.8324 37.1884 40.8514C40.7397 40.8915 45.2702 40.9985 47.6595 41.1589L48.8868 48.364C45.2572 51.746 42.3848 55.3552 41.5884 56.3979C39.2774 56.0504 34.773 55.2216 33.4413 54.9809H33.4282ZM49.2263 41.3594C49.9313 41.6534 54.3965 46.4124 57.2297 49.5136L56.0416 50.7835C53.5479 49.5938 50.9888 48.5244 50.101 48.1501L48.939 41.3059C49.0696 41.3327 49.174 41.346 49.2263 41.3727V41.3594ZM59.6843 52.6684C58.8356 52.1738 57.8173 51.6257 56.7597 51.1044L57.9478 49.8345C59.6974 49.2463 63.8492 48.9923 66.6563 48.8719C64.5934 50.329 60.768 52.1604 59.6843 52.655V52.6684ZM65.5596 39.889C65.9121 40.8113 67.5703 45.3028 67.3353 48.0833C64.5935 48.1769 59.9324 48.4175 57.8434 49.0725C56.4855 47.5887 51.8114 42.4822 50.0357 41.0252C52.2553 39.6082 56.133 37.1085 57.7128 35.9321C59.5538 36.547 62.6742 37.7769 65.5596 39.9023V39.889ZM56.825 35.6381C55.1538 36.8144 51.7069 39.0602 49.3176 40.5841C49.1871 40.5574 49.0174 40.5306 48.8085 40.5039L48.6126 39.3676C49.2654 38.7527 51.5241 36.8946 56.2244 35.4777C56.355 35.5044 56.5638 35.5579 56.825 35.6381ZM39.5385 38.9264C40.0738 38.7928 43.0115 38.1111 47.3853 39.635L47.5159 40.3969C44.9699 40.2232 40.6875 40.1429 38.0501 40.1028C38.5071 39.7151 39.0032 39.3275 39.5254 38.9264H39.5385ZM53.352 68.8031L52.6209 67.0519C55.0885 66.5841 57.4386 65.9959 58.2742 65.7954L59.8149 67.1321C57.3342 67.6668 54.4879 68.3218 53.352 68.7897V68.8031ZM59.1098 64.8596C60.1543 59.1784 60.2588 55.0879 60.2718 53.8046C61.5775 53.1897 65.9774 51.091 67.9489 49.5003C68.4451 49.8345 69.3981 50.5162 70.4557 51.4786C71.5132 54.3794 72.2705 57.8416 72.4272 58.5902C70.7691 61.2637 64.4629 65.8488 63.7709 66.3568C63.3009 66.4504 62.4261 66.6107 61.3555 66.8246L59.1098 64.8596ZM63.5098 67.1722C63.4706 67.6534 63.4314 68.1214 63.3923 68.5759L62.0997 67.4529C62.5697 67.3594 63.0528 67.2658 63.5228 67.1722H63.5098ZM73.1322 58.2828C72.9625 57.4674 72.4272 55.0478 71.6438 52.6282C72.4141 53.4303 73.1583 54.3393 73.772 55.3553C73.8112 55.7162 73.8764 56.7989 73.8111 58.3095C73.5631 58.3095 73.3281 58.3095 73.1322 58.2828ZM75.0123 55.3151C75.2604 54.9542 75.7435 54.1521 76.1743 52.9624C76.4485 54.5933 76.566 56.2108 76.5399 57.8283C76.1613 58.0421 75.626 58.1624 75.0645 58.2293C75.1168 56.8123 75.0515 55.783 75.0123 55.3285V55.3151ZM66.2907 38.8462C65.194 38.0442 64.0712 37.3625 63.0006 36.7877C64.5934 37.1753 66.2516 37.5496 67.4528 37.7368C67.9489 38.1512 68.445 38.5789 68.9151 39.0468C68.21 38.9265 67.3744 38.8596 66.2907 38.8462ZM58.7573 34.9029C59.0707 34.5152 59.5407 33.9671 59.9715 33.4859C62.165 34.2612 64.2409 35.344 66.1341 36.7075C63.5489 36.1728 60.089 35.2504 58.7573 34.9029ZM38.729 37.964C37.7759 38.6992 36.9273 39.4077 36.1961 40.0761H36.0656L35.1125 39.1404C36.4834 37.7902 38.024 36.5738 39.7083 35.5712C39.3035 36.2664 38.951 37.0684 38.7421 37.964H38.729ZM30.5297 63.8036C30.6733 60.7558 32.6057 57.3069 33.2585 56.2241C33.2976 56.2241 33.3499 56.2375 33.389 56.2509L35.4519 59.0982L31.1956 65.5948C30.9736 65.0334 30.7517 64.4453 30.5297 63.8036ZM36.1047 59.4724L42.2803 59.419C44.2388 63.4694 46.0014 66.2633 46.5759 67.1455L43.2726 74.6447C39.1991 74.7116 35.9481 73.0674 35.478 72.8267C35.1908 72.546 33.4282 70.7681 31.5481 66.4102L36.1047 59.4591V59.4724ZM74.2028 67.6267C74.0462 66.8514 73.8242 66.29 73.6806 65.9692C74.5423 63.3758 74.8948 60.9162 75.0254 58.9912C75.5346 58.9378 76.0568 58.8442 76.5007 58.6704C76.4224 60.0205 76.2396 61.3573 75.9524 62.6673C75.4954 64.4452 74.8687 66.1028 74.1898 67.6267H74.2028ZM58.0001 34.6355C57.6737 34.4484 57.073 34.1408 56.3419 33.7398C56.0677 33.3254 55.6499 32.8175 55.0624 32.3095C56.4594 32.4967 57.8434 32.7908 59.1751 33.2185C58.7443 33.7131 58.2742 34.2746 58.0001 34.6355ZM35.3866 40.4905L31.0259 45.9846C30.6342 46.1183 30.2816 46.2786 29.9552 46.4524C31.1172 43.9527 32.6709 41.6668 34.5641 39.675L35.3866 40.4771V40.4905ZM29.3808 64.3383C29.7072 65.2606 30.0336 66.1028 30.36 66.8514L29.7855 67.7337C29.2633 66.5841 28.8324 65.3676 28.4799 64.111C28.4015 63.8303 28.3363 63.5362 28.2579 63.2421C28.741 63.8437 29.1327 64.1645 29.3677 64.3249L29.3808 64.3383ZM30.7125 67.6802C32.4098 71.383 33.9635 73.1342 34.4988 73.6689C34.538 74.1501 34.6163 74.6046 34.7208 75.0323C32.8929 73.1609 31.3392 70.982 30.1511 68.5357L30.7125 67.6668V67.6802ZM24.7458 13.9692C25.1506 14.0093 25.5684 14.036 25.9731 14.036C27.5921 14.036 29.0544 13.7687 29.1458 13.7553V13.6483C32.8668 16.1615 36.6009 18.6746 40.348 21.1743C41.4186 21.8561 44.3693 23.5404 48.1165 25.6792C51.4067 27.5507 55.2713 29.7563 58.7312 31.7882C57.8303 31.2535 56.2636 31.2133 55.2582 31.0797C53.9657 30.9193 52.6339 30.8391 51.3414 30.8792C51.1847 30.8792 51.0411 30.8925 50.8844 30.9059C49.7485 30.3177 48.7954 29.8365 48.3123 29.6226L48.3384 29.5959C46.0144 27.7779 42.4631 24.9974 42.215 24.7434C41.745 24.2756 31.0519 18.6879 30.9606 18.6344C30.8169 18.5676 30.6081 18.474 30.373 18.3938L24.7719 13.9825L24.7458 13.9692ZM21.5862 16.8031C23.858 17.3378 29.3547 18.6612 30.6081 19.3162C32.6057 20.3321 41.1836 24.8771 41.6667 25.2782C41.9278 25.5322 44.6305 27.6576 46.4061 29.0479C43.364 28.2859 37.5801 27.056 36.3006 27.0694L25.6728 22.5645L25.477 22.5245C24.9678 21.7625 22.7351 18.4473 21.5731 16.8165L21.5862 16.8031ZM7.55072 25.8797L13.0735 20.6262L25.4508 23.2864L35.465 27.5373L28.284 32.764L15.6586 32.1491L7.55072 25.893V25.8797ZM9.44389 39.9692L15.6848 32.8977L28.2318 33.5126L33.6501 38.8062C30.9344 41.6535 28.8977 45.1023 27.6573 48.8586C27.6443 48.8854 27.6312 48.9254 27.6182 48.9521L27.5921 49.0057L15.8806 49.4869L9.44389 39.9692ZM9.09135 59.4858L15.8806 50.2488L27.3571 49.7676C26.5345 52.6149 26.182 55.5424 26.3256 58.4833V58.5768C26.3256 58.7239 26.3517 58.8709 26.3517 59.018C26.3517 59.1249 26.3648 59.2185 26.3778 59.312C26.3778 59.419 26.4039 59.5126 26.4039 59.6195L26.4431 60.0606C26.4431 60.0606 26.4431 60.1275 26.4562 60.1542V60.2612H26.4692C26.6259 61.6514 26.887 63.055 27.2657 64.4452C27.7096 66.0226 28.284 67.5198 28.963 68.9501L28.271 70.0195L15.4889 70.5409L9.09135 59.4724V59.4858ZM25.0461 91.8354C24.1452 92.1429 23.2443 92.4637 22.3304 92.7846C21.3903 93.1188 20.4372 93.453 19.4972 93.8005C18.5571 94.1481 17.604 94.4822 16.664 94.8431L13.9352 95.8591L8.71275 84.363L15.6325 71.3296L28.2449 70.8216L33.154 80.9676L25.0461 91.8488V91.8354ZM33.7938 80.5532L28.8977 70.4339L29.3547 69.7521C30.9867 72.8935 33.1932 75.5938 35.8045 77.7594L35.8305 77.7995L35.922 77.8663C36.6531 78.4678 37.4104 79.0293 38.1937 79.5372C36.2353 80.0185 34.4596 80.4195 33.7938 80.5532ZM47.2809 83.2267L47.4245 83.2535H47.4506C48.9521 83.5342 50.4927 83.6812 52.0464 83.6812C54.0179 83.6812 56.0286 83.4406 58.0392 82.946L54.0832 88.9481L45.675 90.2179L45.4661 82.7855C46.0666 82.946 46.6803 83.093 47.2809 83.2133V83.2267ZM61.1205 79.6174C61.1205 79.6174 61.1858 79.5907 61.2119 79.564C61.6689 79.7244 62.1258 79.8581 62.6219 79.9383C61.8516 80.3126 61.0552 80.6601 60.2457 80.9542L61.1205 79.6174Z" fill="#805FB3"/>
</svg>
